<svg xmlns="http://www.w3.org/2000/svg" width="16" height="16" viewBox="0 0 16 16" fill="none">
  <g clip-path="url(#clip0_299_11757)">
    <path fill-rule="evenodd" clip-rule="evenodd" d="M1 2C1 0.895431 1.89543 0 3 0H13L13.0141 4.88281e-05H7.9999V5.00005C7.9999 6.10462 8.89533 7.00005 9.9999 7.00005H14.9999V1.98007L15 2V14C15 15.1046 14.1046 16 13 16H3C1.89543 16 1 15.1046 1 14V2ZM9.74397 9.43014C9.54871 9.23488 9.23212 9.23488 9.03686 9.43014C8.8416 9.6254 8.8416 9.94198 9.03686 10.1372L10.469 11.5694L9.03686 13.0016C8.8416 13.1968 8.8416 13.5134 9.03686 13.7087C9.23212 13.9039 9.54871 13.9039 9.74397 13.7087L11.5297 11.923C11.7249 11.7277 11.7249 11.4111 11.5297 11.2159L9.74397 9.43014ZM6.88927 9.43014C6.69401 9.23488 6.37742 9.23488 6.18216 9.43014L4.39645 11.2159C4.20118 11.4111 4.20118 11.7277 4.39645 11.923L6.18216 13.7087C6.37742 13.9039 6.69401 13.9039 6.88927 13.7087C7.08453 13.5134 7.08453 13.1968 6.88927 13.0016L5.45711 11.5694L6.88927 10.1372C7.08453 9.94198 7.08453 9.6254 6.88927 9.43014ZM8.81396 9.07071C8.85301 8.79734 8.66306 8.54408 8.3897 8.50502C8.11633 8.46597 7.86306 8.65592 7.82401 8.92929L7.10973 13.9293C7.07067 14.2027 7.26062 14.4559 7.53399 14.495C7.80736 14.534 8.06062 14.3441 8.09968 14.0707L8.81396 9.07071Z" fill="currentColor"/>
    <path fill-rule="evenodd" clip-rule="evenodd" d="M10.697 0.697105L14.3028 4.30299C14.7289 4.72909 14.9613 5.27555 15 5.83292C15 5.9252 14.9252 6 14.8329 6H10.5C9.67157 6 9 5.32843 9 4.5V0.167735C9 0.0750974 9.0751 2.42084e-09 9.16773 0C9.72487 0.0388193 10.271 0.271188 10.697 0.697105Z" fill="currentColor"/>
  </g>
  <defs>
    <clipPath id="clip0_299_11757">
      <rect width="16" height="16" fill="white"/>
    </clipPath>
  </defs>
</svg>
