<svg xmlns="http://www.w3.org/2000/svg" width="16" height="16" viewBox="0 0 16 16" fill="none">
  <g clip-path="url(#clip0_299_11741)">
    <path fill-rule="evenodd" clip-rule="evenodd" d="M1 2C1 0.895431 1.89543 0 3 0H13L13.0141 4.88281e-05H7.9999V5.00005C7.9999 6.10462 8.89533 7.00005 9.9999 7.00005H14.9999V1.98007L15 2V14C15 15.1046 14.1046 16 13 16H3C1.89543 16 1 15.1046 1 14V2ZM7 14H8.5L9.5 12V9H6.5V12H8L7 14Z" fill="currentColor"/>
    <path fill-rule="evenodd" clip-rule="evenodd" d="M10.697 0.697105L14.3028 4.30299C14.7289 4.72909 14.9613 5.27555 15 5.83292C15 5.9252 14.9252 6 14.8329 6H10.5C9.67157 6 9 5.32843 9 4.5V0.167735C9 0.0750974 9.0751 2.42084e-09 9.16773 0C9.72487 0.0388193 10.271 0.271188 10.697 0.697105Z" fill="currentColor"/>
  </g>
  <defs>
    <clipPath id="clip0_299_11741">
      <rect width="16" height="16" fill="currentColor"/>
    </clipPath>
  </defs>
</svg>
