<svg xmlns="http://www.w3.org/2000/svg" width="16" height="16" viewBox="0 0 16 16" fill="none">
  <g clip-path="url(#clip0_299_11711)">
    <g opacity="0.5">
      <path fill-rule="evenodd" clip-rule="evenodd" d="M5.5 2C4.5335 2 3.75 2.7835 3.75 3.75V14.25C3.75 15.2165 4.5335 16 5.5 16H14.25C15.2165 16 16 15.2165 16 14.25V8.125H11.625C10.6585 8.125 9.875 7.3415 9.875 6.375V2H5.5Z" fill="currentColor"/>
      <path fill-rule="evenodd" clip-rule="evenodd" d="M12.2349 2.6109L15.3901 5.76606C15.7626 6.13858 15.9659 6.61624 16 7.10352C16 7.18482 15.9341 7.25073 15.8528 7.25073H12.0625C11.3376 7.25073 10.75 6.66311 10.75 5.93823V2.14461C10.75 2.06515 10.8144 2.00073 10.8939 2.00073C11.3824 2.03408 11.8615 2.23747 12.2349 2.6109Z" fill="currentColor"/>
    </g>
    <path fill-rule="evenodd" clip-rule="evenodd" d="M1.875 0C0.908502 0 0.125 0.783502 0.125 1.75V12.25C0.125 13.2165 0.908502 14 1.875 14H10.625C11.5915 14 12.375 13.2165 12.375 12.25V6.125H8C7.0335 6.125 6.25 5.3415 6.25 4.375V0H1.875Z" fill="currentColor"/>
    <path fill-rule="evenodd" clip-rule="evenodd" d="M8.60992 0.610904L11.7651 3.76606C12.1376 4.13858 12.3409 4.61624 12.375 5.10352C12.375 5.18482 12.3091 5.25073 12.2278 5.25073H8.4375C7.71263 5.25073 7.125 4.66311 7.125 3.93823V0.144606C7.125 0.0651466 7.18941 0.000732419 7.26887 0.000732422C7.7574 0.0340769 8.23649 0.237468 8.60992 0.610904Z" fill="currentColor"/>
  </g>
  <defs>
    <clipPath id="clip0_299_11711">
      <rect width="16" height="16" fill="currentColor"/>
    </clipPath>
  </defs>
</svg>
