<svg viewBox="0 0 40 28" xmlns="http://www.w3.org/2000/svg">
  <g clip-path="url(#clip0_278_28)" transform="matrix(1.111111, 0, 0, 0.9899, -9.111334, -11.526689)">
    <g clip-path="url(#clip1_278_28)">
      <path d="M26.2242 27.3091C26.9131 27.3091 27.522 26.9871 28.2429 26.2627L42.2135 12.3371C41.5887 11.7737 40.4832 11.5 38.9292 11.5H13.0867C11.7089 11.5 10.7316 11.7576 10.1708 12.2727L24.2055 26.2627C24.9105 26.9871 25.5353 27.3091 26.2242 27.3091ZM8.63277 37.0489L20.1521 25.5865L8.64879 14.1724C8.36041 14.6876 8.2002 15.5408 8.2002 16.7482V34.5375C8.2002 35.7127 8.34439 36.5498 8.63277 37.0489ZM43.7836 37.0328C44.056 36.5337 44.2002 35.6966 44.2002 34.5375V16.7482C44.2002 15.573 44.04 14.7198 43.7516 14.2207L32.2963 25.5865L43.7836 37.0328ZM13.4712 39.7857H39.3137C40.7236 39.7857 41.7169 39.512 42.2937 38.9808L30.566 27.2769L29.5727 28.2589C28.4672 29.3376 27.4098 29.8527 26.2242 29.8527C25.0386 29.8527 23.9652 29.3376 22.8597 28.2589L21.8664 27.2769L10.1548 38.9486C10.7957 39.4959 11.9172 39.7857 13.4712 39.7857Z" style="fill: currentColor"></path>
    </g>
  </g>
</svg>