<svg xmlns="http://www.w3.org/2000/svg" width="1080" height="1080" viewBox="0 0 1080 1080" xml:space="preserve">
  <g transform="matrix(29.53 0 0 29.53 540 540)" clip-path="url(#CLIPPATH_5)"  >
    <path fill="currentColor" vector-effect="non-scaling-stroke"  transform=" translate(-26.79, -25.89)" d="M 22.5752 8.58131 C 25.9317 7.77097 29.523 7.94795 32.7778 9.10552 C 35.0687 9.91552 37.1888 11.2021 38.9696 12.855 C 40.4889 14.2627 41.7633 15.9344 42.7144 17.7747 C 44.1628 20.5621 44.8431 23.7379 44.6856 26.8738 C 44.5547 29.6746 43.7507 32.441 42.3557 34.8734 C 41.1397 37.0025 39.4814 38.8774 37.5169 40.3453 C 35.2014 42.0825 32.4571 43.2447 29.5959 43.689 C 29.5932 39.5168 29.5962 35.3449 29.5945 31.1727 C 30.9865 31.1693 32.3781 31.176 33.7701 31.1693 C 34.031 29.4435 34.299 27.7184 34.5623 25.993 C 32.9067 25.9919 31.2508 25.993 29.5948 25.9923 C 29.5948 25.0207 29.5948 24.0492 29.5948 23.0777 C 29.5972 22.7519 29.5818 22.4242 29.6301 22.1005 C 29.7016 21.5605 29.9105 21.0248 30.292 20.6275 C 30.6705 20.2276 31.1974 19.9979 31.7334 19.9049 C 32.1105 19.834 32.4957 19.838 32.8775 19.838 C 33.5085 19.8377 34.1395 19.8384 34.7705 19.8377 C 34.7709 18.3678 34.7712 16.8976 34.7705 15.4277 C 33.9424 15.2957 33.1089 15.199 32.273 15.1375 C 31.4889 15.0855 30.7004 15.0462 29.9159 15.1154 C 28.7862 15.2144 27.6598 15.5409 26.7091 16.1715 C 25.8548 16.732 25.1701 17.5373 24.7305 18.4581 C 24.1509 19.6607 23.9665 21.0161 23.9957 22.3406 C 23.9927 23.5586 24.0014 24.7773 23.9913 25.9953 C 22.4761 25.9889 20.9609 25.9943 19.4457 25.9926 C 19.445 27.7191 19.4453 29.4455 19.4453 31.172 C 20.9629 31.1743 22.4801 31.168 23.9974 31.175 C 23.9944 35.3449 23.995 39.5144 23.9971 43.6843 C 20.6714 43.1833 17.51 41.6832 14.9856 39.4651 C 13.0449 37.7645 11.476 35.6418 10.4265 33.2843 C 9.2525 30.6629 8.73768 27.7553 8.915 24.8901 C 9.07082 22.2734 9.81298 19.694 11.0757 17.3966 C 12.288 15.1819 13.9751 13.2294 15.9884 11.7061 C 17.9385 10.2272 20.1952 9.15388 22.5752 8.58131 Z" stroke-linecap="round" />
  </g>
</svg>