<svg width="52" height="53" viewBox="0 0 52 53" fill="none" xmlns="http://www.w3.org/2000/svg">
<rect y="0.5" width="52" height="52" rx="26" fill="url(#paint0_radial_234_582)"/>
<rect y="0.5" width="52" height="52" rx="26" fill="url(#paint1_radial_234_582)"/>
<path d="M20.3134 26.5C20.3134 23.359 22.859 20.812 26 20.812C29.141 20.812 31.688 23.359 31.688 26.5C31.688 29.641 29.141 32.188 26 32.188C22.859 32.188 20.3134 29.641 20.3134 26.5ZM17.2386 26.5C17.2386 31.3389 21.1611 35.2614 26 35.2614C30.8389 35.2614 34.7614 31.3389 34.7614 26.5C34.7614 21.6611 30.8389 17.7386 26 17.7386C21.1611 17.7386 17.2386 21.6608 17.2386 26.5ZM33.0609 17.3912C33.0607 17.7962 33.1806 18.1921 33.4055 18.5289C33.6303 18.8657 33.95 19.1282 34.3241 19.2834C34.6981 19.4385 35.1098 19.4792 35.507 19.4004C35.9042 19.3215 36.2691 19.1266 36.5556 18.8404C36.8421 18.5542 37.0372 18.1894 37.1164 17.7923C37.1955 17.3951 37.1551 16.9834 37.0003 16.6093C36.8455 16.2351 36.5832 15.9152 36.2466 15.6901C35.91 15.4649 35.5142 15.3447 35.1092 15.3445C34.5664 15.3448 34.045 15.5605 33.6611 15.9442C33.2772 16.328 33.0613 16.8484 33.0609 17.3912ZM19.1068 40.3886C17.4432 40.3128 16.539 40.0358 15.9382 39.8017C15.1416 39.4915 14.5732 39.1222 13.9756 38.5254C13.378 37.9286 13.0081 37.3608 12.6993 36.5641C12.4651 35.9635 12.188 35.0591 12.1124 33.3956C12.0296 31.597 12.0131 31.0568 12.0131 26.5003C12.0131 21.9438 12.031 21.405 12.1124 19.605C12.1881 17.9415 12.4673 17.0388 12.6993 16.4364C13.0094 15.6398 13.3788 15.0714 13.9756 14.4738C14.5724 13.8762 15.1402 13.5063 15.9382 13.1975C16.5388 12.9633 17.4432 12.6862 19.1068 12.6106C20.9053 12.5279 21.4455 12.5113 26 12.5113C30.5545 12.5113 31.0953 12.529 32.8953 12.6109C34.5588 12.6866 35.4615 12.9658 36.0639 13.1978C36.8605 13.5066 37.4289 13.8773 38.0265 14.4741C38.6241 15.0709 38.9926 15.6401 39.3027 16.4367C39.537 17.0373 39.8141 17.9417 39.8897 19.6052C39.9724 21.4053 39.9889 21.944 39.9889 26.5005C39.9889 31.0571 39.9724 31.5958 39.8897 33.3958C39.8139 35.0594 39.5355 35.9635 39.3027 36.5644C38.9926 37.361 38.6232 37.9294 38.0265 38.5257C37.4297 39.1219 36.8605 39.4918 36.0639 39.8019C35.4633 40.0362 34.5588 40.3133 32.8953 40.3889C31.0968 40.4716 30.5565 40.4881 26 40.4881C21.4435 40.4881 20.9047 40.4713 19.1068 40.3886ZM18.9655 9.54083C17.1491 9.62355 15.9079 9.91156 14.8239 10.3333C13.702 10.7689 12.751 11.3533 11.8014 12.3014C10.8518 13.2495 10.2689 14.2007 9.83335 15.3239C9.41156 16.4086 9.12355 17.6491 9.04083 19.4655C8.95675 21.2847 8.9375 21.8664 8.9375 26.5C8.9375 31.1336 8.95675 31.7153 9.04083 33.5345C9.12355 35.3511 9.41156 36.5914 9.83335 37.6761C10.2689 38.798 10.8519 39.7509 11.8014 40.6986C12.7509 41.6463 13.7007 42.2298 14.8239 42.6666C15.9099 43.0884 17.1491 43.3764 18.9655 43.4592C20.7857 43.5419 21.3664 43.5625 26 43.5625C30.6336 43.5625 31.2153 43.5433 33.0345 43.4592C34.8511 43.3764 36.0914 43.0884 37.1761 42.6666C38.298 42.2298 39.249 41.6467 40.1986 40.6986C41.1482 39.7505 41.7299 38.798 42.1667 37.6761C42.5884 36.5914 42.8778 35.3509 42.9592 33.5345C43.0419 31.7139 43.0611 31.1336 43.0611 26.5C43.0611 21.8664 43.0419 21.2847 42.9592 19.4655C42.8765 17.6489 42.5884 16.4079 42.1667 15.3239C41.7299 14.202 41.1467 13.251 40.1986 12.3014C39.2505 11.3518 38.298 10.7689 37.1774 10.3333C36.0914 9.91156 34.8509 9.62218 33.0359 9.54083C31.2163 9.4577 30.635 9.4375 26.0021 9.4375C21.3691 9.4375 20.7857 9.45675 18.9655 9.54083Z" fill="white"/>
<defs>
<radialGradient id="paint0_radial_234_582" cx="0" cy="0" r="1" gradientUnits="userSpaceOnUse" gradientTransform="translate(13.8126 56.5051) rotate(-90) scale(51.5358 47.9324)">
<stop stop-color="#FFDD55"/>
<stop offset="0.1" stop-color="#FFDD55"/>
<stop offset="0.5" stop-color="#FF543E"/>
<stop offset="1" stop-color="#C837AB"/>
</radialGradient>
<radialGradient id="paint1_radial_234_582" cx="0" cy="0" r="1" gradientUnits="userSpaceOnUse" gradientTransform="translate(-8.71027 4.24599) rotate(78.6806) scale(23.0367 94.9584)">
<stop stop-color="#3771C8"/>
<stop offset="0.128" stop-color="#3771C8"/>
<stop offset="1" stop-color="#6600FF" stop-opacity="0"/>
</radialGradient>
</defs>
</svg>
