<svg width="53" height="52" viewBox="0 0 53 52" fill="none" xmlns="http://www.w3.org/2000/svg">
<rect x="0.400391" width="52" height="52" rx="13" fill="#7a7a7a" fill-opacity="0.6"/>
<g clip-path="url(#clip0_278_22)">
<g clip-path="url(#clip1_278_22)">
<circle cx="26.4004" cy="26" r="18" fill="white"/>
<path d="M8.40039 25.9998C8.40039 33.3703 12.8325 39.7022 19.1746 42.4861C19.124 41.2292 19.1656 39.7203 19.4879 38.3528C19.834 36.8916 21.804 28.5448 21.804 28.5448C21.804 28.5448 21.229 27.3955 21.229 25.6969C21.229 23.0294 22.775 21.0373 24.7004 21.0373C26.3376 21.0373 27.1286 22.267 27.1286 23.7396C27.1286 25.3854 26.0789 27.8473 25.539 30.1274C25.088 32.0368 26.4964 33.5942 28.38 33.5942C31.7903 33.5942 34.0872 29.214 34.0872 24.0242C34.0872 20.0792 31.4302 17.1265 26.5975 17.1265C21.1374 17.1265 17.7359 21.1983 17.7359 25.7465C17.7359 27.3147 18.1983 28.4206 18.9225 29.277C19.2555 29.6703 19.3018 29.8285 19.1813 30.2802C19.0949 30.6113 18.8966 31.4086 18.8145 31.7246C18.6947 32.1805 18.3253 32.3435 17.9133 32.1752C15.3984 31.1485 14.2272 28.3944 14.2272 25.2985C14.2272 20.1854 18.5395 14.0543 27.0915 14.0543C33.9636 14.0543 38.4867 19.0272 38.4867 24.3653C38.4867 31.4264 34.5611 36.7015 28.7746 36.7015C26.8313 36.7015 25.0034 35.651 24.3772 34.4579C24.3772 34.4579 23.3322 38.6051 23.1109 39.4059C22.7293 40.7937 21.9823 42.1808 21.2993 43.2619C22.9181 43.7397 24.6282 44 26.4006 44C36.3403 44 44.3996 35.9411 44.3996 25.9998C44.3996 16.0589 36.3403 8 26.4006 8C16.46 8 8.40039 16.0589 8.40039 25.9998Z" fill="url(#paint0_linear_278_22)"/>
</g>
</g>
<defs>
<linearGradient id="paint0_linear_278_22" x1="26.4" y1="8" x2="26.4" y2="44" gradientUnits="userSpaceOnUse">
<stop stop-color="#E0272D"/>
<stop offset="1" stop-color="#AE1F24"/>
</linearGradient>
<clipPath id="clip0_278_22">
<rect width="36" height="36" fill="white" transform="translate(8.40039 8)"/>
</clipPath>
<clipPath id="clip1_278_22">
<rect x="8.40039" y="8" width="36" height="36" rx="13" fill="white"/>
</clipPath>
</defs>
</svg>
