<svg xmlns="http://www.w3.org/2000/svg" width="16" height="16" viewBox="0 0 16 16">
    <g fill="none" fill-rule="evenodd">
        <g>
            <g>
                <g>
                    <g transform="translate(-302 -160) translate(286 56) translate(8 16) translate(8 88)">
                        <rect width="16" height="16" fill="transparent" rx="4"/>
                        <g fill="#000" fill-rule="nonzero" fill-opacity=".1">
                            <path d="M.485 11.971c-.095.004-.186-.034-.251-.103-.065-.069-.097-.163-.087-.257.047-.479.198-1.31.682-1.75.705-.639 1.217-.705 1.792-.96.575-.257 1.343-.128 1.651-.513.242-.275.275-.908.262-1.191-.001-.089-.038-.173-.102-.234-.18-.182-.28-.43-.276-.686-.02-.306-.085-.607-.192-.894-.063-.063-.256-.193-.256-.385 0-.193-.193-.639-.193-.765 0-.127-.063-.386 0-.512.055-.043.123-.066.193-.066-.063-.187-.124-.677-.187-.997v-.052c-.032-.289-.032-.58 0-.87.051-.196.12-.387.203-.572.056-.1.16-.164.276-.168.055-.002.11-.011.162-.027L4.55.586c.229-.151.494-.24.768-.256.192 0 .385-.192.768-.192.334.016.662.103.96.256.224.105.46.185.702.239.044.01.085.03.121.058.12.102.23.215.327.338.035.035.06.077.072.124.028.113.13.237.184.457.065.402.065.812 0 1.214-.063.448-.192.96-.192.96.054-.005.108-.005.162 0 .113.03.127.14.094.394-.033.253-.19.704-.19.767 0 .064 0 .32-.13.386-.063.063-.192.063-.255.19-.064.126-.127.897-.193 1.023-.08.176-.183.34-.306.49-.048.057-.075.13-.077.204 0 .38.033 1.117.32 1.29.286.174.76.254 1.376.317h.04c.419.088.821.237 1.195.443.386.16.72.427.96.768.314.445.471.98.45 1.525.002.087-.03.172-.09.236s-.142.102-.23.105c-1.742.044-9.197.05-10.9.05z" transform="translate(2 2)"/>
                        </g>
                    </g>
                </g>
            </g>
        </g>
    </g>
</svg>
