<svg xmlns="http://www.w3.org/2000/svg" width="62" height="60" viewBox="0 0 62 60">
    <defs>
        <linearGradient id="ppv8qr1iwa" x1="66.564%" x2="30.892%" y1="-1.479%" y2="96.924%">
            <stop offset="0%" stop-color="#F1F1F1"/>
            <stop offset="100%" stop-color="#979797"/>
        </linearGradient>
    </defs>
    <g fill="none" fill-rule="evenodd">
        <g fill="url(#ppv8qr1iwa)" fill-rule="nonzero" transform="translate(-652 -251)">
            <g>
                <g>
                    <path d="M58.95 30.197c.491-.193 2.679-.387 2.777-1.16.098-.773-1.99-.677-2.458-.773-.467-.097-2.457-.194-1.278-1.064.688-.58 1.893-.58 2.68-1.16.786-.58-.198-1.063-.984-1.063s-2.974.387-2.679-.677c.197-.676 1.99-1.256 2.458-1.57.885-.58.59-1.257-.492-1.16-.59 0-2.457.676-2.973.29-.517-.387 1.4-1.861 1.695-2.151.295-.29 1.401-1.474 0-1.474-.884 0-1.892.773-2.875.773-1.598 0 .197-1.57.688-1.958.492-.386 1.99-1.86.393-1.86-.786 0-1.794.773-2.457 1.063-1.401.387-.787-.773-.295-1.474.491-.701 1.794-1.668 1.18-2.248-.615-.58-2.188.677-2.68.967-.491.29-.786.483-1.08.387-.296-.097 0-.774 0-1.16 0-.387 1.597-1.958 1.277-2.634-.32-.677-1.794.483-2.285.773-.492.29-2.09 1.474-1.696 0 .196-.773 1.18-1.668 1.18-2.417 0-1.474-1.401-.386-1.893 0-.491.387-2.286 1.861-2.286.484 0-.87.689-1.861.787-2.731.197-1.257-.787-.774-1.278-.194-.492.58-1.5 2.417-2.187 1.765-.689-.653.196-2.417.196-2.925 0-.507-.393-1.57-1.081-.676s-.885 2.054-1.598 2.416c-1.18.58-.786-1.86-.786-2.416 0-.556 0-2.151-1.081-1.16-1.082.99-.787 1.86-1.401 2.634-1.696 1.957-.885-3.31-1.794-3.504-.91-.194-1.5 4.833-2.68 3.02-.49-.773-.196-1.957-.589-2.827-.393-.87-1.081 0-1.278.677-.197.676-.197 2.416-.983 2.416s-1.081-1.764-1.278-2.416c-.197-.653-.983-1.764-1.4-.484-.296.87 0 2.055-.197 2.925-.492 1.377-1.278-.194-1.598-.774-.32-.58-.688-2.247-1.5-2.054-.81.193-.294 2.248-.294 2.73v1.16c0 .29-.885 0-1.18-.386-.295-.386-.983-2.15-1.695-2.416-1.18-.387-.492 1.764-.492 2.247 0 .483.59 2.634-.688 1.764-.787-.483-1.081-1.764-1.893-2.247-1.277-.774-.786 1.063-.59 1.667.197.604 1.279 3.214-.393 2.151-.786-.483-1.278-1.377-2.089-1.86-.81-.484-1.18.193-.786.966.393.773 1.5 2.247.885 2.73-.615.484-2.188-1.063-2.68-1.256-.49-.193-1.597-.58-1.179.58.295.773 1.401 1.57 1.5 2.417.196 1.474-1.795 0-2.458-.194-.664-.193-2.188-1.063-1.696.29.295.87 1.5 1.378 1.794 2.248.59 1.474-1.278.58-1.794.29s-2.187-1.16-2.286-.194c-.098.967 1.5 1.765 1.893 2.151.393.387.786.677.393 1.064-.393.386-.885 0-1.18 0-.295 0-2.384-1.015-2.924-.532-.54.483.884 1.57 1.278 1.86.393.29 1.99 1.475.491 1.668-.885 0-1.99-.483-2.875-.386-1.598.29.196 1.377.688 1.667.491.29 2.875 1.378 1.278 1.86-.885.29-1.99-.192-2.876 0-1.278.29-.393 1.064.295 1.378.689.315 2.458.774 2.458 1.475 0 .7-2.089.58-2.458.676-.368.097-2.285.387-1.081 1.16.786.483 1.99.387 2.777.773 1.18.58.197 1.064-.59 1.257-.786.193-2.457.193-2.679 1.063-.22.87 1.991.774 2.458.87.467.097 2.09.387.983 1.257-.688.58-1.99.483-2.777.967-1.18.87.492 1.063 1.081 1.16.59.096 2.458-.194 2.458.483s-1.794 1.378-2.286 1.57c-.491.194-1.794 1.16-.491 1.475.885.193 2.089-.483 2.974-.193 1.4.483-.59 1.474-1.082 1.86-.491.387-2.457 1.571-.786 1.765.885 0 1.892-.58 2.777-.58 1.597 0 .492 1.063 0 1.57-.492.508-2.187 1.475-1.4 2.417.786.943 2.088-.193 2.678-.483.59-.29 1.892-.29 1.18.773-.492.677-1.5 1.257-1.794 2.054-.59 1.474 1.499.58 1.99.29.492-.29 2.458-1.377 2.09 0-.296.87-1.402 1.571-1.697 2.417-.393 1.257.885.773 1.5.387.614-.387 2.457-1.958 2.457-.774.197.677-.983 2.054-1.278 2.634-.393.967.197 1.475.983.774.787-.701 1.696-1.861 2.458-1.764 1.081 0 0 2.247-.295 2.73-.295.484-.491 2.055.688 1.257.787-.483 1.18-1.667 1.99-2.15 1.402-.774.69 1.57.492 2.053-.196.484-.688 2.635.689 1.765.688-.484.983-1.668 1.695-2.248.983-.967 1.082.387 1.082 1.16 0 .773-.295 2.417.491 2.634.787.218 1.278-1.256 1.598-1.764.32-.507 1.18-2.15 1.695-.773.295.773-.196 1.957 0 2.827.295 1.257 1.082.387 1.401-.29.32-.676 1.082-2.416 1.794-2.416.713 0 .689 1.957.689 2.416 0 .46.491 2.151 1.18.967.49-.773.294-1.958.687-2.731.59-1.257 1.082 0 1.278.773.197.774.295 2.417 1.082 2.417.786 0 .786-2.15.786-2.634 0-.483.492-1.668 1.18-.677.688.991.491 1.958 1.081 2.634 1.082 1.16 1.082-.773 1.082-1.474 0-.7-.295-2.416.688-2.247.983.169 1.278 1.86 1.695 2.416.418.556 1.18.87 1.278-.193.099-1.063-.59-2.054-.196-2.827.491-1.16 1.794 1.063 2.089 1.474.295.41 1.499 1.764 1.597.29 0-.87-.688-1.861-.688-2.828 0-1.667 1.5 0 1.893.58s1.499 2.054 1.99.87c.295-.676-.786-2.15-.983-2.73-.393-1.257.59-1.064 1.278-.387.688.676 1.794 1.957 2.458 1.377.663-.58-.59-2.054-.787-2.416-.196-.363-.59-1.861.688-1.257.59.29 1.795 1.667 2.458 1.474 1.18-.193-.295-1.86-.491-2.247-.197-.387-1.696-2.055 0-1.765.884.194 1.794 1.16 2.678 1.16 1.5 0 .394-1.256 0-1.667-.393-.41-2.457-2.248-.688-2.248.885 0 1.794.774 2.68.87.884.097.982-.58.392-1.256-.59-.677-2.285-1.571-1.892-2.248.393-.676 2.458 0 2.974.194.516.193 1.695-.194.786-.967-.91-.773-1.892-.87-2.458-1.667-.884-1.257 1.696-.774 2.286-.774.59 0 2.187.194 1.598-.87-.394-.58-1.991-.966-2.458-1.377-.467-.411-.787-1.16.197-1.257.983-.097 2.457.29 2.973-.193 1.401-1.16-3.76-1.571-3.17-2.731.295-.677 2.089-.773 2.777-.773 1.598 0 1.794-1.16 1.18-1.475-.615-.314-1.893-.29-2.777-.58-1.426-.507-.738-1.087.049-1.377zM22.355 10.574c2.709-1.083 5.605-1.641 8.528-1.644 11.1-.038 20.648 7.715 22.71 18.44.131.575-.004 1.178-.37 1.645-.366.467-.924.75-1.523.771H34.742c-1.538-.045-2.967-.796-3.859-2.03l-9.535-14.355c-.29-.499-.347-1.097-.153-1.64.193-.542.617-.976 1.16-1.187zm9.831 21.17c0 .508-.311.966-.789 1.16-.477.195-1.027.088-1.393-.272-.365-.36-.474-.9-.277-1.37.198-.469.664-.775 1.181-.775.354-.013.698.116.953.358.255.241.399.575.399.923l-.074-.024zM18.988 48.66c-.29.5-.792.844-1.37.938-.576.094-1.165-.073-1.603-.455-5.103-4.185-8.134-10.323-8.322-16.855-.188-6.532 2.484-12.829 7.339-17.292.418-.383.984-.571 1.553-.515.57.055 1.087.349 1.42.805l9.389 14.065c.894 1.404.894 3.188 0 4.592L18.988 48.66zm34.727-12.88c-1.187 6.532-5.195 12.238-10.99 15.64-5.793 3.403-12.803 4.168-19.214 2.098-.557-.197-.998-.624-1.206-1.168-.209-.545-.163-1.151.124-1.66l8.627-14.838c.8-1.345 2.273-2.166 3.858-2.15h16.86c.57-.019 1.12.209 1.507.621.387.413.572.971.508 1.529l-.074-.073z" transform="translate(463 171) translate(189 78)"/>
                </g>
            </g>
        </g>
    </g>
</svg>
