<svg viewBox="0 0 20 20">
  <g fill="none" fill-rule="evenodd">
    <g>
      <g transform="translate(-857 -404) translate(857 404)">
        <rect width="20" height="20" fill="#86868B" rx="5"/>
        <g fill="#FFF">
          <path d="M3.954 0c.282 0 .51.228.51.51v1.275h5.357V.51c0-.282.229-.51.51-.51h.766c.282 0 .51.228.51.51v1.275h1.658c.564 0 1.02.458 1.02 1.021v10.46c0 .563-.456 1.02-1.02 1.02H1.02c-.563 0-1.02-.457-1.02-1.02V2.805c0-.563.457-1.02 1.02-1.02l1.658-.001V.51c0-.282.229-.51.51-.51h.766zm-.383 8.929c-.493 0-.892.4-.892.892 0 .494.4.893.892.893.494 0 .893-.4.893-.893s-.4-.892-.893-.892zm3.572 0c-.493 0-.893.4-.893.892 0 .494.4.893.893.893s.893-.4.893-.893-.4-.892-.893-.892zM3.57 5.357c-.493 0-.892.4-.892.893s.4.893.892.893c.494 0 .893-.4.893-.893s-.4-.893-.893-.893zm3.572 0c-.493 0-.893.4-.893.893s.4.893.893.893.893-.4.893-.893-.4-.893-.893-.893zm3.571 0c-.493 0-.893.4-.893.893s.4.893.893.893.893-.4.893-.893-.4-.893-.893-.893z" transform="translate(2.857 2.857)"/>
        </g>
      </g>
    </g>
  </g>
</svg>
