<svg width="50px" height="50px" version="1.1" viewBox="0 0 183.4 191.7" xmlns="http://www.w3.org/2000/svg">
 <g transform="matrix(.74198 0 0 .74198 23.66 24.731)">
  <rect width="183.4" height="191.7" opacity="0"/>
  <path d="m17.383 191.7c4.1016 0 7.4219-3.222 7.4219-7.324v-54.297c2.4414-1.074 11.621-4.59 25.976-4.59 36.133 0 58.789 17.676 93.164 17.676 15.235 0 20.899-1.66 28.321-4.98 6.738-3.028 11.132-8.106 11.132-17.09v-99.121c0-5.2735-4.492-8.3008-10.156-8.3008-4.785 0-13.769 4.1015-30.566 4.1015-34.375 0-56.934-17.676-93.164-17.676-15.234 0-20.996 1.6602-28.418 4.9805-6.7383 3.0274-11.133 8.1055-11.133 16.992v162.3c0 4.004 3.418 7.324 7.4219 7.324z" fill="#fff" fill-opacity=".85"/>
 </g>
</svg>
