<svg width="254" height="144" viewBox="0 0 254 144" fill="none" xmlns="http://www.w3.org/2000/svg">
<rect width="254" height="144" fill="url(#paint0_linear_33_20551)"/>
<path d="M104.211 47C99.6756 47 96 50.6756 96 55.2105V90.7895C96 95.3244 99.6756 99 104.211 99H150.737C155.272 99 158.947 95.3244 158.947 90.7895V55.2105C158.947 50.6756 155.272 47 150.737 47H104.211ZM104.211 52.4737H150.737C152.249 52.4737 153.474 53.6984 153.474 55.2105V85.9091L140.722 74.4433C138.638 72.5685 135.471 72.5711 133.391 74.4513L122.551 84.2467L117.36 79.8074C115.306 78.0503 112.277 78.0568 110.229 79.8207L101.474 87.3631V55.2105C101.474 53.6984 102.698 52.4737 104.211 52.4737ZM115.158 60.6842C112.135 60.6842 109.684 63.1351 109.684 66.1579C109.684 69.1807 112.135 71.6316 115.158 71.6316C118.181 71.6316 120.632 69.1807 120.632 66.1579C120.632 63.1351 118.181 60.6842 115.158 60.6842Z" fill="black" fill-opacity="0.3"/>
<defs>
<linearGradient id="paint0_linear_33_20551" x1="127" y1="0" x2="127" y2="144" gradientUnits="userSpaceOnUse">
<stop stop-color="#EDEDF4"/>
<stop offset="1" stop-color="#AEB0B7"/>
</linearGradient>
</defs>
</svg>
