<svg xmlns="http://www.w3.org/2000/svg" width="16" height="16" viewBox="0 0 16 16" fill="none">
  <path d="M1.73653 12.4356H14.2698C15.396 12.4356 16 11.8315 16 10.699V3.45089C16 2.31837 15.396 1.71436 14.2698 1.71436H1.73653C0.604011 1.71436 0 2.31837 0 3.45089V10.699C0 11.8315 0.604011 12.4356 1.73653 12.4356ZM1.80574 11.2338C1.40307 11.2338 1.20173 11.0388 1.20173 10.6298V3.5201C1.20173 3.11113 1.40307 2.91609 1.80574 2.91609H14.1943C14.5969 2.91609 14.7983 3.11113 14.7983 3.5201V10.6298C14.7983 11.0388 14.5969 11.2338 14.1943 11.2338H1.80574ZM2.48525 10.3152H13.5273C13.779 10.3152 13.886 10.202 13.886 9.94401V4.2059C13.886 3.94794 13.779 3.83469 13.5273 3.83469H2.48525C2.23358 3.83469 2.12662 3.94794 2.12662 4.2059V9.94401C2.12662 10.202 2.23358 10.3152 2.48525 10.3152ZM4.78175 14.6314H11.2182C11.5328 14.6314 11.7908 14.3734 11.7908 14.0651C11.7908 13.7505 11.5328 13.4926 11.2182 13.4926H4.78175C4.46716 13.4926 4.21549 13.7505 4.21549 14.0651C4.21549 14.3734 4.46716 14.6314 4.78175 14.6314Z" fill="currentColor"/>
</svg>
