<svg xmlns="http://www.w3.org/2000/svg" width="16" height="16" viewBox="0 0 16 16" fill="none">
  <path fill-rule="evenodd" clip-rule="evenodd" d="M4.24573 5.74756C5.04572 4.95073 6.12476 4.50391 7.24908 4.50391C8.37339 4.50391 9.45243 4.95073 10.2524 5.74756C10.5134 6.00891 10.7196 6.30078 10.8955 6.606L9.50158 7.99856C9.43539 8.06533 9.35406 8.10348 9.27463 8.14927C9.17799 7.80941 8.99779 7.49969 8.75075 7.24887C8.35075 6.85045 7.81123 6.62704 7.24908 6.62704C6.68692 6.62704 6.1474 6.85045 5.7474 7.24887L2.74406 10.2515C2.54718 10.448 2.39089 10.682 2.28422 10.9398C2.17756 11.1977 2.12264 11.4743 2.12264 11.7537C2.12264 12.0331 2.17756 12.3098 2.28422 12.5676C2.39089 12.8255 2.54718 13.0594 2.74406 13.256C3.57244 14.0839 4.91903 14.0839 5.7474 13.256L6.81597 12.1877C7.68218 12.5235 8.61647 12.615 9.52617 12.4815L7.24908 14.7573C6.44917 15.5535 5.37053 16 4.24668 16C3.12282 16 2.04418 15.5535 1.24428 14.7573C0.850121 14.3646 0.537171 13.8969 0.323578 13.3813C0.109986 12.8657 0 12.3125 0 11.7537C0 11.1949 0.109986 10.6417 0.323578 10.1261C0.537171 9.61052 0.850121 9.14284 1.24428 8.75017L4.24573 5.74756ZM14.7574 1.24366C16.4142 2.90139 16.4142 5.59114 14.7574 7.24887L11.7541 10.2515C10.0954 11.9111 7.40605 11.9111 5.7474 10.2515C5.49785 9.99468 5.28176 9.70685 5.10437 9.39495L6.49824 8.00047C6.56443 7.9318 6.64765 7.89364 6.72519 7.84786C6.82165 8.17979 6.98997 8.49073 7.24908 8.75017C7.64907 9.14859 8.18859 9.372 8.75075 9.372C9.3129 9.372 9.85242 9.14859 10.2524 8.75017L13.2539 5.74756C13.4507 5.55118 13.6069 5.31738 13.7136 5.05968C13.8202 4.80198 13.8751 4.52551 13.8751 4.24626C13.8751 3.96702 13.8202 3.69055 13.7136 3.43285C13.6069 3.17515 13.4507 2.94134 13.2539 2.74496C12.854 2.34712 12.3148 2.12407 11.7531 2.12407C11.1914 2.12407 10.6523 2.34712 10.2524 2.74496L9.18385 3.81323C8.32129 3.48148 7.3885 3.37964 6.47554 3.51755L8.75075 1.24366C9.55073 0.446822 10.6298 0 11.7541 0C12.8784 0 13.9574 0.446822 14.7574 1.24366Z" fill="currentColor"/>
</svg>
