<svg width="254" height="144" viewBox="0 0 254 144" fill="none" xmlns="http://www.w3.org/2000/svg">
<rect width="254" height="144" fill="url(#paint0_linear_33_20552)"/>
<path d="M103.406 46C97.3959 46 94.252 49.0883 94.252 55.0701V61.0241C94.252 62.7769 95.3093 63.8341 97.0342 63.8341C98.7314 63.8341 99.7887 62.7769 99.7887 61.0241V55.5709C99.7887 52.8721 101.208 51.5367 103.767 51.5367H150.648C153.208 51.5367 154.627 52.8721 154.627 55.5709V61.0241C154.627 62.7769 155.712 63.8341 157.409 63.8341C159.134 63.8341 160.191 62.7769 160.191 61.0241V55.0701C160.191 49.1161 157.047 46 151.01 46H103.406ZM97.0342 75.4361C99.2322 75.4361 101.041 73.6276 101.041 71.4018C101.041 69.2039 99.2322 67.3676 97.0342 67.3676C94.8085 67.3676 93 69.2039 93 71.4018C93 73.6276 94.8085 75.4361 97.0342 75.4361ZM157.409 75.4361C159.607 75.4361 161.415 73.6276 161.415 71.4018C161.415 69.2039 159.607 67.3676 157.409 67.3676C155.183 67.3676 153.375 69.176 153.375 71.4018C153.375 73.6276 155.183 75.4361 157.409 75.4361ZM103.406 98H151.01C157.047 98 160.191 94.8839 160.191 88.9299V81.863C160.191 80.1102 159.106 79.053 157.409 79.053C155.684 79.053 154.627 80.1102 154.627 81.863V88.4291C154.627 91.1279 153.208 92.4634 150.648 92.4634H103.767C101.208 92.4634 99.7887 91.1279 99.7887 88.4291V81.863C99.7887 80.1102 98.7314 79.053 97.0342 79.053C95.3093 79.053 94.252 80.1102 94.252 81.863V88.9299C94.252 94.8839 97.3959 98 103.406 98Z" fill="black" fill-opacity="0.3"/>
<g opacity="0.3">
<mask id="path-2-outside-1_33_20552" maskUnits="userSpaceOnUse" x="114" y="57" width="26" height="29" fill="black">
<rect fill="white" x="114" y="57" width="26" height="29"/>
<path fill-rule="evenodd" clip-rule="evenodd" d="M123.101 60.4373L122.215 58C120.95 58.3508 119.953 58.8493 119.224 59.4956C118.494 60.1326 117.977 60.8758 117.673 61.7251C117.377 62.5653 117.23 63.47 117.23 64.4394V67.2505C117.23 68.0814 117.054 68.7461 116.703 69.2446C116.362 69.7339 115.794 69.9786 115 69.9786V70.8095V72.2774V73.1221C115.526 73.1221 115.951 73.2329 116.274 73.4545C116.606 73.676 116.846 73.9899 116.994 74.3961C117.151 74.8023 117.23 75.2824 117.23 75.8363V78.6475C117.23 79.6169 117.377 80.5216 117.673 81.3617C117.977 82.2111 118.494 82.9542 119.224 83.5913C119.953 84.2375 120.95 84.7407 122.215 85.1007L123.101 82.6496C122.63 82.4557 122.261 82.1649 121.993 81.7772C121.735 81.3894 121.55 80.9278 121.439 80.3924C121.338 79.8569 121.287 79.2753 121.287 78.6475V75.8363C121.287 74.8947 121.07 74.0453 120.636 73.2883C120.231 72.5658 119.599 71.9863 118.739 71.5497C119.599 71.1047 120.231 70.521 120.636 69.7986C121.07 69.0323 121.287 68.183 121.287 67.2505V64.4394C121.287 63.4977 121.412 62.6668 121.661 61.9467C121.91 61.2266 122.39 60.7235 123.101 60.4373ZM132.172 58L131.285 60.4373C131.765 60.6219 132.135 60.9127 132.393 61.3097C132.661 61.6974 132.846 62.159 132.947 62.6945C133.049 63.23 133.099 63.8116 133.099 64.4394V67.2505C133.099 68.183 133.312 69.0323 133.736 69.7986C134.153 70.5245 134.794 71.1061 135.66 71.5434C134.794 71.9807 134.153 72.5623 133.736 73.2883C133.312 74.0453 133.099 74.8947 133.099 75.8363V78.6475C133.099 79.2753 133.049 79.8569 132.947 80.3924C132.846 80.9278 132.661 81.3894 132.393 81.7772C132.135 82.1649 131.765 82.4557 131.285 82.6496L132.172 85.1007C133.446 84.7407 134.443 84.2375 135.163 83.5913C135.892 82.9542 136.405 82.2111 136.7 81.3617C137.005 80.5216 137.157 79.6169 137.157 78.6475V75.8363C137.157 75.0147 137.332 74.3592 137.683 73.8699C138.034 73.3714 138.606 73.1221 139.4 73.1221V72.2635V70.8233V69.9786C138.874 69.9786 138.445 69.8678 138.112 69.6462C137.78 69.4154 137.535 69.0969 137.378 68.6907C137.231 68.2845 137.157 67.8044 137.157 67.2505V64.4394C137.157 63.47 137.005 62.5653 136.7 61.7251C136.405 60.8758 135.892 60.1326 135.163 59.4956C134.443 58.8493 133.446 58.3508 132.172 58Z"/>
</mask>
<path fill-rule="evenodd" clip-rule="evenodd" d="M123.101 60.4373L122.215 58C120.95 58.3508 119.953 58.8493 119.224 59.4956C118.494 60.1326 117.977 60.8758 117.673 61.7251C117.377 62.5653 117.23 63.47 117.23 64.4394V67.2505C117.23 68.0814 117.054 68.7461 116.703 69.2446C116.362 69.7339 115.794 69.9786 115 69.9786V70.8095V72.2774V73.1221C115.526 73.1221 115.951 73.2329 116.274 73.4545C116.606 73.676 116.846 73.9899 116.994 74.3961C117.151 74.8023 117.23 75.2824 117.23 75.8363V78.6475C117.23 79.6169 117.377 80.5216 117.673 81.3617C117.977 82.2111 118.494 82.9542 119.224 83.5913C119.953 84.2375 120.95 84.7407 122.215 85.1007L123.101 82.6496C122.63 82.4557 122.261 82.1649 121.993 81.7772C121.735 81.3894 121.55 80.9278 121.439 80.3924C121.338 79.8569 121.287 79.2753 121.287 78.6475V75.8363C121.287 74.8947 121.07 74.0453 120.636 73.2883C120.231 72.5658 119.599 71.9863 118.739 71.5497C119.599 71.1047 120.231 70.521 120.636 69.7986C121.07 69.0323 121.287 68.183 121.287 67.2505V64.4394C121.287 63.4977 121.412 62.6668 121.661 61.9467C121.91 61.2266 122.39 60.7235 123.101 60.4373ZM132.172 58L131.285 60.4373C131.765 60.6219 132.135 60.9127 132.393 61.3097C132.661 61.6974 132.846 62.159 132.947 62.6945C133.049 63.23 133.099 63.8116 133.099 64.4394V67.2505C133.099 68.183 133.312 69.0323 133.736 69.7986C134.153 70.5245 134.794 71.1061 135.66 71.5434C134.794 71.9807 134.153 72.5623 133.736 73.2883C133.312 74.0453 133.099 74.8947 133.099 75.8363V78.6475C133.099 79.2753 133.049 79.8569 132.947 80.3924C132.846 80.9278 132.661 81.3894 132.393 81.7772C132.135 82.1649 131.765 82.4557 131.285 82.6496L132.172 85.1007C133.446 84.7407 134.443 84.2375 135.163 83.5913C135.892 82.9542 136.405 82.2111 136.7 81.3617C137.005 80.5216 137.157 79.6169 137.157 78.6475V75.8363C137.157 75.0147 137.332 74.3592 137.683 73.8699C138.034 73.3714 138.606 73.1221 139.4 73.1221V72.2635V70.8233V69.9786C138.874 69.9786 138.445 69.8678 138.112 69.6462C137.78 69.4154 137.535 69.0969 137.378 68.6907C137.231 68.2845 137.157 67.8044 137.157 67.2505V64.4394C137.157 63.47 137.005 62.5653 136.7 61.7251C136.405 60.8758 135.892 60.1326 135.163 59.4956C134.443 58.8493 133.446 58.3508 132.172 58Z" fill="black"/>
<path d="M122.215 58L122.403 57.9317L122.34 57.7578L122.161 57.8073L122.215 58ZM123.101 60.4373L123.176 60.6228L123.355 60.5506L123.289 60.3689L123.101 60.4373ZM119.224 59.4956L119.355 59.6462L119.356 59.6453L119.224 59.4956ZM117.673 61.7251L117.484 61.6576L117.484 61.6588L117.673 61.7251ZM116.703 69.2446L116.54 69.1295L116.539 69.1302L116.703 69.2446ZM115 69.9786V69.7786H114.8V69.9786H115ZM115 73.1221H114.8V73.3221H115V73.1221ZM116.274 73.4545L116.161 73.6194L116.163 73.6209L116.274 73.4545ZM116.994 74.3961L116.806 74.4645L116.808 74.4682L116.994 74.3961ZM117.673 81.3617L117.484 81.4281L117.484 81.4292L117.673 81.3617ZM119.224 83.5913L119.356 83.4416L119.355 83.4406L119.224 83.5913ZM122.215 85.1007L122.16 85.2931L122.34 85.3441L122.403 85.1687L122.215 85.1007ZM123.101 82.6496L123.289 82.7176L123.354 82.5376L123.177 82.4647L123.101 82.6496ZM121.993 81.7772L121.827 81.8881L121.829 81.8908L121.993 81.7772ZM121.439 80.3924L121.243 80.4296L121.244 80.4329L121.439 80.3924ZM120.636 73.2883L120.462 73.3861L120.463 73.3877L120.636 73.2883ZM118.739 71.5497L118.647 71.3721L118.301 71.5514L118.649 71.728L118.739 71.5497ZM120.636 69.7986L120.462 69.7L120.462 69.7007L120.636 69.7986ZM121.661 61.9467L121.85 62.0121L121.85 62.0121L121.661 61.9467ZM131.285 60.4373L131.097 60.3689L131.03 60.5534L131.214 60.6239L131.285 60.4373ZM132.172 58L132.225 57.8072L132.047 57.7582L131.984 57.9317L132.172 58ZM132.393 61.3097L132.226 61.4189L132.229 61.4233L132.393 61.3097ZM132.947 62.6945L133.144 62.6572L133.144 62.6572L132.947 62.6945ZM133.736 69.7986L133.562 69.8955L133.563 69.898L133.736 69.7986ZM135.66 71.5434L135.75 71.722L136.103 71.5434L135.75 71.3649L135.66 71.5434ZM133.736 73.2883L133.563 73.1888L133.562 73.1904L133.736 73.2883ZM132.393 81.7772L132.229 81.6635L132.227 81.6662L132.393 81.7772ZM131.285 82.6496L131.21 82.4641L131.032 82.5363L131.097 82.7176L131.285 82.6496ZM132.172 85.1007L131.984 85.1687L132.047 85.3438L132.226 85.2932L132.172 85.1007ZM135.163 83.5913L135.031 83.4406L135.029 83.4424L135.163 83.5913ZM136.7 81.3617L136.512 81.2935L136.511 81.296L136.7 81.3617ZM137.683 73.8699L137.846 73.9864L137.847 73.985L137.683 73.8699ZM139.4 73.1221V73.3221H139.6V73.1221H139.4ZM139.4 69.9786H139.6V69.7786H139.4V69.9786ZM138.112 69.6462L137.998 69.8105L138.002 69.8126L138.112 69.6462ZM137.378 68.6907L137.191 68.7591L137.192 68.7628L137.378 68.6907ZM136.7 61.7251L136.511 61.7908L136.512 61.7933L136.7 61.7251ZM135.163 59.4956L135.029 59.6445L135.031 59.6462L135.163 59.4956ZM122.027 58.0683L122.913 60.5056L123.289 60.3689L122.403 57.9317L122.027 58.0683ZM119.356 59.6453C120.056 59.025 121.023 58.5381 122.268 58.1927L122.161 57.8073C120.877 58.1635 119.85 58.6737 119.091 59.3459L119.356 59.6453ZM117.861 61.7927C118.153 60.9777 118.65 60.2625 119.355 59.6462L119.092 59.345C118.339 60.0027 117.801 60.7738 117.484 61.6576L117.861 61.7927ZM117.43 64.4394C117.43 63.4906 117.574 62.6085 117.861 61.7915L117.484 61.6588C117.18 62.522 117.03 63.4494 117.03 64.4394H117.43ZM117.43 67.2505V64.4394H117.03V67.2505H117.43ZM116.867 69.3597C117.249 68.8173 117.43 68.108 117.43 67.2505H117.03C117.03 68.0548 116.86 68.675 116.54 69.1295L116.867 69.3597ZM115 70.1786C115.836 70.1786 116.477 69.9189 116.867 69.3591L116.539 69.1302C116.247 69.549 115.752 69.7786 115 69.7786V70.1786ZM115.2 70.8095V69.9786H114.8V70.8095H115.2ZM115.2 72.2774V70.8095H114.8V72.2774H115.2ZM115.2 73.1221V72.2774H114.8V73.1221H115.2ZM116.387 73.2895C116.021 73.0385 115.553 72.9221 115 72.9221V73.3221C115.499 73.3221 115.881 73.4273 116.161 73.6194L116.387 73.2895ZM117.182 74.3278C117.021 73.885 116.756 73.5352 116.385 73.2881L116.163 73.6209C116.457 73.8168 116.672 74.0949 116.806 74.4645L117.182 74.3278ZM117.43 75.8363C117.43 75.2642 117.349 74.7586 117.181 74.3241L116.808 74.4682C116.954 74.8461 117.03 75.3006 117.03 75.8363H117.43ZM117.43 78.6475V75.8363H117.03V78.6475H117.43ZM117.861 81.2954C117.574 80.4784 117.43 79.5963 117.43 78.6475H117.03C117.03 79.6375 117.18 80.5648 117.484 81.4281L117.861 81.2954ZM119.355 83.4406C118.65 82.8243 118.153 82.1091 117.861 81.2942L117.484 81.4292C117.801 82.313 118.339 83.0842 119.092 83.7419L119.355 83.4406ZM122.27 84.9083C121.024 84.5538 120.057 84.0623 119.356 83.4416L119.091 83.741C119.849 84.4128 120.876 84.9275 122.16 85.2931L122.27 84.9083ZM122.913 82.5816L122.027 85.0327L122.403 85.1687L123.289 82.7176L122.913 82.5816ZM121.829 81.8908C122.12 82.3129 122.521 82.6272 123.025 82.8345L123.177 82.4647C122.739 82.2843 122.402 82.0169 122.158 81.6635L121.829 81.8908ZM121.244 80.4329C121.359 80.9892 121.552 81.4756 121.827 81.8881L122.16 81.6662C121.918 81.3032 121.742 80.8664 121.635 80.3518L121.244 80.4329ZM121.087 78.6475C121.087 79.2859 121.139 79.8802 121.243 80.4296L121.636 80.3551C121.537 79.8336 121.487 79.2646 121.487 78.6475H121.087ZM121.087 75.8363V78.6475H121.487V75.8363H121.087ZM120.463 73.3877C120.878 74.1121 121.087 74.9267 121.087 75.8363H121.487C121.487 74.8626 121.262 73.9785 120.81 73.1888L120.463 73.3877ZM118.649 71.728C119.479 72.1497 120.079 72.7036 120.462 73.3861L120.811 73.1904C120.383 72.4281 119.719 71.8229 118.83 71.3714L118.649 71.728ZM120.462 69.7007C120.079 70.3837 119.478 70.942 118.647 71.3721L118.831 71.7273C119.719 71.2675 120.383 70.6584 120.811 69.8964L120.462 69.7007ZM121.087 67.2505C121.087 68.1505 120.878 68.9656 120.462 69.7L120.81 69.8971C121.262 69.099 121.487 68.2154 121.487 67.2505H121.087ZM121.087 64.4394V67.2505H121.487V64.4394H121.087ZM121.472 61.8813C121.214 62.6267 121.087 63.4805 121.087 64.4394H121.487C121.487 63.5149 121.609 62.7069 121.85 62.0121L121.472 61.8813ZM123.026 60.2517C122.262 60.5594 121.74 61.1061 121.472 61.8813L121.85 62.0121C122.08 61.3471 122.518 60.8875 123.176 60.6228L123.026 60.2517ZM131.473 60.5056L132.36 58.0683L131.984 57.9317L131.097 60.3689L131.473 60.5056ZM132.561 61.2006C132.277 60.7652 131.873 60.449 131.357 60.2506L131.214 60.6239C131.658 60.7948 131.992 61.0602 132.226 61.4188L132.561 61.2006ZM133.144 62.6572C133.038 62.0986 132.844 61.6101 132.558 61.1961L132.229 61.4233C132.478 61.7848 132.653 62.2194 132.751 62.7318L133.144 62.6572ZM133.299 64.4394C133.299 63.8009 133.248 63.2067 133.144 62.6572L132.751 62.7318C132.85 63.2533 132.899 63.8222 132.899 64.4394H133.299ZM133.299 67.2505V64.4394H132.899V67.2505H133.299ZM133.911 69.7016C133.504 68.9669 133.299 68.1513 133.299 67.2505H132.899C132.899 68.2146 133.119 69.0977 133.562 69.8955L133.911 69.7016ZM135.75 71.3649C134.913 70.9424 134.304 70.386 133.91 69.6991L133.563 69.898C134.001 70.6631 134.674 71.2699 135.569 71.722L135.75 71.3649ZM133.91 73.3877C134.304 72.7009 134.913 72.1445 135.75 71.722L135.569 71.3649C134.674 71.817 134.001 72.4238 133.563 73.1888L133.91 73.3877ZM133.299 75.8363C133.299 74.9259 133.504 74.1108 133.911 73.3861L133.562 73.1904C133.119 73.9799 132.899 74.8634 132.899 75.8363H133.299ZM133.299 78.6475V75.8363H132.899V78.6475H133.299ZM133.144 80.4296C133.248 79.8802 133.299 79.2859 133.299 78.6475H132.899C132.899 79.2646 132.85 79.8336 132.751 80.3551L133.144 80.4296ZM132.558 81.8908C132.844 81.4768 133.038 80.9882 133.144 80.4296L132.751 80.3551C132.653 80.8674 132.478 81.302 132.229 81.6635L132.558 81.8908ZM131.36 82.835C131.873 82.6278 132.276 82.313 132.56 81.8881L132.227 81.6662C131.993 82.0168 131.658 82.2836 131.21 82.4641L131.36 82.835ZM132.36 85.0327L131.473 82.5816L131.097 82.7176L131.984 85.1687L132.36 85.0327ZM135.029 83.4424C134.339 84.0622 133.372 84.5536 132.117 84.9082L132.226 85.2932C133.519 84.9277 134.547 84.4128 135.296 83.7401L135.029 83.4424ZM136.511 81.296C136.228 82.11 135.736 82.8247 135.031 83.4406L135.294 83.7419C136.048 83.0838 136.581 82.3121 136.889 81.4274L136.511 81.296ZM136.957 78.6475C136.957 79.5956 136.808 80.4771 136.512 81.2935L136.888 81.4299C137.201 80.5661 137.357 79.6381 137.357 78.6475H136.957ZM136.957 75.8363V78.6475H137.357V75.8363H136.957ZM137.521 73.7534C137.138 74.287 136.957 74.9878 136.957 75.8363H137.357C137.357 75.0415 137.527 74.4314 137.846 73.9864L137.521 73.7534ZM139.4 72.9221C138.563 72.9221 137.919 73.1874 137.52 73.7548L137.847 73.985C138.149 73.5553 138.65 73.3221 139.4 73.3221V72.9221ZM139.2 72.2635V73.1221H139.6V72.2635H139.2ZM139.2 70.8233V72.2635H139.6V70.8233H139.2ZM139.2 69.9786V70.8233H139.6V69.9786H139.2ZM138.002 69.8126C138.376 70.0621 138.847 70.1786 139.4 70.1786V69.7786C138.901 69.7786 138.514 69.6735 138.223 69.4798L138.002 69.8126ZM137.192 68.7628C137.362 69.2033 137.631 69.5552 137.998 69.8105L138.227 69.482C137.93 69.2757 137.709 68.9906 137.565 68.6186L137.192 68.7628ZM136.957 67.2505C136.957 67.8215 137.033 68.3258 137.191 68.7591L137.566 68.6224C137.429 68.2433 137.357 67.7874 137.357 67.2505H136.957ZM136.957 64.4394V67.2505H137.357V64.4394H136.957ZM136.512 61.7933C136.808 62.6098 136.957 63.4913 136.957 64.4394H137.357C137.357 63.4487 137.201 62.5207 136.888 61.657L136.512 61.7933ZM135.031 59.6462C135.736 60.2622 136.228 60.9768 136.511 61.7908L136.889 61.6594C136.581 60.7748 136.048 60.003 135.294 59.345L135.031 59.6462ZM132.119 58.1928C133.373 58.5383 134.339 59.025 135.029 59.6444L135.296 59.3467C134.546 58.6737 133.518 58.1634 132.225 57.8072L132.119 58.1928Z" fill="black" mask="url(#path-2-outside-1_33_20552)"/>
</g>
<defs>
<linearGradient id="paint0_linear_33_20552" x1="127" y1="0" x2="127" y2="144" gradientUnits="userSpaceOnUse">
<stop stop-color="#EDEDF4"/>
<stop offset="1" stop-color="#AEB0B7"/>
</linearGradient>
</defs>
</svg>
