<svg width="254" height="144" viewBox="0 0 254 144" fill="none" xmlns="http://www.w3.org/2000/svg">
<rect width="254" height="144" fill="url(#paint0_linear_33_20553)"/>
<path d="M103.018 47C97.0082 47 93.8643 50.0883 93.8643 56.0701V62.0241C93.8643 63.7769 94.9216 64.8341 96.6465 64.8341C98.3437 64.8341 99.401 63.7769 99.401 62.0241V56.5709C99.401 53.8721 100.82 52.5367 103.38 52.5367H150.26C152.82 52.5367 154.239 53.8721 154.239 56.5709V62.0241C154.239 63.7769 155.324 64.8341 157.021 64.8341C158.746 64.8341 159.803 63.7769 159.803 62.0241V56.0701C159.803 50.1161 156.659 47 150.622 47H103.018ZM96.6465 76.4361C98.8445 76.4361 100.653 74.6276 100.653 72.4018C100.653 70.2039 98.8445 68.3676 96.6465 68.3676C94.4208 68.3676 92.6123 70.2039 92.6123 72.4018C92.6123 74.6276 94.4208 76.4361 96.6465 76.4361ZM157.021 76.4361C159.219 76.4361 161.027 74.6276 161.027 72.4018C161.027 70.2039 159.219 68.3676 157.021 68.3676C154.795 68.3676 152.987 70.176 152.987 72.4018C152.987 74.6276 154.795 76.4361 157.021 76.4361ZM103.018 99H150.622C156.659 99 159.803 95.8839 159.803 89.9299V82.863C159.803 81.1102 158.718 80.053 157.021 80.053C155.296 80.053 154.239 81.1102 154.239 82.863V89.4291C154.239 92.1279 152.82 93.4634 150.26 93.4634H103.38C100.82 93.4634 99.401 92.1279 99.401 89.4291V82.863C99.401 81.1102 98.3437 80.053 96.6465 80.053C94.9216 80.053 93.8643 81.1102 93.8643 82.863V89.9299C93.8643 95.8839 97.0082 99 103.018 99Z" fill="black" fill-opacity="0.3"/>
<path d="M116.441 87.4901C117.795 87.4901 118.512 86.959 118.95 85.5933L121.12 79.7511H132.468L134.638 85.5933C135.076 86.959 135.793 87.4901 137.147 87.4901C138.58 87.4901 139.496 86.6745 139.496 85.4036C139.496 84.9294 139.416 84.5311 139.217 84L130.457 61.4279C129.84 59.7777 128.685 59 126.814 59C125.022 59 123.867 59.7777 123.27 61.409L114.45 84.1138C114.251 84.6069 114.172 85.0242 114.172 85.4415C114.172 86.7124 115.028 87.4901 116.441 87.4901ZM122.275 76.1851L126.754 63.8938H126.874L131.353 76.1851H122.275Z" fill="black" fill-opacity="0.3"/>
<defs>
<linearGradient id="paint0_linear_33_20553" x1="127" y1="0" x2="127" y2="144" gradientUnits="userSpaceOnUse">
<stop stop-color="#EDEDF4"/>
<stop offset="1" stop-color="#AEB0B7"/>
</linearGradient>
</defs>
</svg>
