<svg width="18" height="16" viewBox="0 0 18 16" fill="none" xmlns="http://www.w3.org/2000/svg">
  <path
    d="M16.2891 2.063V14.437C16.2891 14.7479 16.0372 15 15.7266 15C15.4159 15 15.1641 14.7479 15.1641 14.437V2.063C15.1641 1.75206 15.4159 1.5 15.7266 1.5C16.0372 1.5 16.2891 1.75206 16.2891 2.063Z"
    fill="#0371E2" />
  <path
    d="M11.1017 3.83216L15.0785 7.80893C15.2983 8.0288 15.2985 8.38511 15.0788 8.60478C14.8591 8.82445 14.5028 8.82429 14.283 8.60443L10.3062 4.62766C10.0863 4.40779 10.0862 4.05148 10.3058 3.83181C10.5255 3.61214 10.8818 3.6123 11.1017 3.83216Z"
    fill="#0371E2" />
  <path
    d="M11.1017 12.6522L15.0785 8.67544C15.2983 8.45558 15.2985 8.09927 15.0788 7.8796C14.8591 7.65993 14.5028 7.66008 14.283 7.87995L10.3062 11.8567C10.0863 12.0766 10.0862 12.4329 10.3058 12.6526C10.5255 12.8722 10.8818 12.8721 11.1017 12.6522Z"
    fill="#0371E2" />
  <path
    d="M14.7495 8.8125H6.8755C6.56456 8.8125 6.3125 8.56066 6.3125 8.25C6.3125 7.93934 6.56456 7.6875 6.8755 7.6875H14.7495C15.0604 7.6875 15.3125 7.93934 15.3125 8.25C15.3125 8.56066 15.0604 8.8125 14.7495 8.8125Z"
    fill="#0371E2" />
  <path
    d="M1.21094 2.063V14.437C1.21094 14.7479 1.46278 15 1.77344 15C2.0841 15 2.33594 14.7479 2.33594 14.437V2.063C2.33594 1.75206 2.0841 1.5 1.77344 1.5C1.46278 1.5 1.21094 1.75206 1.21094 2.063Z"
    fill="#0371E2" />
  <path
    d="M6.39831 3.83216L2.42154 7.80893C2.20167 8.0288 2.20152 8.38511 2.42119 8.60478C2.64085 8.82445 2.99717 8.82429 3.21703 8.60443L7.1938 4.62766C7.41367 4.40779 7.41383 4.05148 7.19416 3.83181C6.97449 3.61214 6.61817 3.6123 6.39831 3.83216Z"
    fill="#0371E2" />
  <path
    d="M6.39831 12.6522L2.42154 8.67544C2.20167 8.45558 2.20152 8.09927 2.42119 7.8796C2.64085 7.65993 2.99717 7.66008 3.21703 7.87995L7.1938 11.8567C7.41367 12.0766 7.41383 12.4329 7.19416 12.6526C6.97449 12.8722 6.61817 12.8721 6.39831 12.6522Z"
    fill="#0371E2" />
  <path
    d="M2.7505 8.8125H10.6245C10.9354 8.8125 11.1875 8.56066 11.1875 8.25C11.1875 7.93934 10.9354 7.6875 10.6245 7.6875H2.7505C2.43956 7.6875 2.1875 7.93934 2.1875 8.25C2.1875 8.56066 2.43956 8.8125 2.7505 8.8125Z"
    fill="#0371E2" />
</svg>
  