<svg width="14" height="18" viewBox="0 0 14 18" fill="none" xmlns="http://www.w3.org/2000/svg">
  <path
    d="M12.937 16.2891H0.563C0.252064 16.2891 0 16.0372 0 15.7266C0 15.4159 0.252064 15.1641 0.563 15.1641H12.937C13.2479 15.1641 13.5 15.4159 13.5 15.7266C13.5 16.0372 13.2479 16.2891 12.937 16.2891Z"
    fill="#0371E2" />
  <path
    d="M11.1717 11.1017L7.19498 15.0785C6.97511 15.2983 6.6188 15.2985 6.39913 15.0788C6.17946 14.8591 6.17962 14.5028 6.39948 14.283L10.3762 10.3062C10.5961 10.0863 10.9524 10.0862 11.1721 10.3058C11.3918 10.5255 11.3916 10.8818 11.1717 11.1017Z"
    fill="#0371E2" />
  <path
    d="M2.35169 11.1017L6.32846 15.0785C6.54833 15.2983 6.90464 15.2985 7.12431 15.0788C7.34398 14.8591 7.34382 14.5028 7.12396 14.283L3.14719 10.3062C2.92732 10.0863 2.57101 10.0862 2.35134 10.3058C2.13167 10.5255 2.13183 10.8818 2.35169 11.1017Z"
    fill="#0371E2" />
  <path
    d="M6.19531 14.7495V6.8755C6.19531 6.56456 6.44715 6.3125 6.75781 6.3125C7.06847 6.3125 7.32031 6.56456 7.32031 6.8755V14.7495C7.32031 15.0604 7.06847 15.3125 6.75781 15.3125C6.44715 15.3125 6.19531 15.0604 6.19531 14.7495Z"
    fill="#0371E2" />
  <path
    d="M12.937 1.21094H0.563C0.252064 1.21094 0 1.46278 0 1.77344C0 2.0841 0.252064 2.33594 0.563 2.33594H12.937C13.2479 2.33594 13.5 2.0841 13.5 1.77344C13.5 1.46278 13.2479 1.21094 12.937 1.21094Z"
    fill="#0371E2" />
  <path
    d="M11.1717 6.39831L7.19498 2.42154C6.97511 2.20167 6.6188 2.20152 6.39913 2.42119C6.17946 2.64085 6.17962 2.99717 6.39948 3.21703L10.3762 7.1938C10.5961 7.41367 10.9524 7.41383 11.1721 7.19416C11.3918 6.97449 11.3916 6.61817 11.1717 6.39831Z"
    fill="#0371E2" />
  <path
    d="M2.35169 6.39831L6.32846 2.42154C6.54833 2.20167 6.90464 2.20152 7.12431 2.42119C7.34398 2.64085 7.34382 2.99717 7.12396 3.21703L3.14719 7.1938C2.92732 7.41367 2.57101 7.41383 2.35134 7.19416C2.13167 6.97449 2.13183 6.61817 2.35169 6.39831Z"
    fill="#0371E2" />
  <path
    d="M6.19531 2.7505V10.6245C6.19531 10.9354 6.44715 11.1875 6.75781 11.1875C7.06847 11.1875 7.32031 10.9354 7.32031 10.6245V2.7505C7.32031 2.43956 7.06847 2.1875 6.75781 2.1875C6.44715 2.1875 6.19531 2.43956 6.19531 2.7505Z"
    fill="#0371E2" />
</svg>