<svg width="341" height="25" viewBox="0 0 341 25" xmlns="http://www.w3.org/2000/svg" xmlns:xlink="http://www.w3.org/1999/xlink"><title>icon-bordered</title><defs><path id="a" d="M82 1h15v6H82z"/><mask id="k" x="0" y="0" width="15" height="6" fill="#fff"><use xlink:href="#a"/></mask><path id="b" d="M82 10h15v6H82z"/><mask id="l" x="0" y="0" width="15" height="6" fill="#fff"><use xlink:href="#b"/></mask><path id="c" d="M82 19h15v6H82z"/><mask id="m" x="0" y="0" width="15" height="6" fill="#fff"><use xlink:href="#c"/></mask><path id="d" d="M9 10h15v6H9z"/><mask id="n" x="0" y="0" width="15" height="6" fill="#fff"><use xlink:href="#d"/></mask><path id="e" d="M9 19h15v6H9z"/><mask id="o" x="0" y="0" width="15" height="6" fill="#fff"><use xlink:href="#e"/></mask><path id="f" d="M0 10h6v5.998H0z"/><mask id="p" x="0" y="0" width="5.999" height="5.999" fill="#fff"><use xlink:href="#f"/></mask><path id="g" d="M0 19h6v6H0z"/><mask id="q" x="0" y="0" width="5.999" height="5.999" fill="#fff"><use xlink:href="#g"/></mask><path d="M218.105 16.802c-1.48 0-2.93-.23-4.305-.685-.66-.23-1.47-.02-1.873.397l-2.724 2.058c-3.127-1.67-5.128-3.668-6.774-6.772l2.002-2.66c.504-.504.684-1.242.468-1.933-.457-1.383-.69-2.834-.69-4.312 0-1.045-.85-1.895-1.894-1.895h-4.42C196.85 1 196 1.85 196 2.895 196 15.083 205.917 25 218.105 25c1.045 0 1.895-.85 1.895-1.895v-4.408c0-1.045-.85-1.895-1.895-1.895z" id="h"/><mask id="r" x="0" y="0" width="24" height="24" fill="#fff"><use xlink:href="#h"/></mask><path id="i" d="M9 0h15v6H9z"/><mask id="s" x="0" y="0" width="15" height="6" fill="#fff"><use xlink:href="#i"/></mask><path id="j" d="M0 0h6v6H0z"/><mask id="t" x="0" y="0" width="5.999" height="5.999" fill="#fff"><use xlink:href="#j"/></mask></defs><g fill="none" fill-rule="evenodd"><g><use stroke="#000" mask="url(#k)" stroke-width="2" xlink:href="#a"/><path fill="#000" d="M73 1h6v6h-6"/><use stroke="#000" mask="url(#l)" stroke-width="2" xlink:href="#b"/><use stroke="#000" mask="url(#m)" stroke-width="2" xlink:href="#c"/><path fill="#000" d="M73 10h6v5.998h-6M73 19h6v6h-6"/><use stroke="#000" mask="url(#n)" stroke-width="2" xlink:href="#d"/><use stroke="#000" mask="url(#o)" stroke-width="2" xlink:href="#e"/><use stroke="#000" mask="url(#p)" stroke-width="2" xlink:href="#f"/><use stroke="#000" mask="url(#q)" stroke-width="2" xlink:href="#g"/><path d="M130 .844l-.313.28c-4.053 3.528-5.49 9.37-4.28 14.47.642 2.778 2.1 5.388 4.28 7.28l.313.282.313-.28 2.5-2 .312-.25-.188-.345c-.692-1.363-1.326-2.78-2.062-4.155l-.03-.03-.032-.032c-.26-.334-.677-.46-1-.438-.324.022-.604.114-.813.188-.165.057-.216.053-.25.062v-.03l-.03-.033c-.73-1.947-.73-4.16-.376-6.25.107-.354.156-.744.25-1.062.05-.17.108-.3.156-.375.024-.038.024-.024.03-.03.317.123.64.258 1.032.25.255-.007.504-.063.75-.22.23-.145.43-.373.532-.656.008-.024.024-.04.03-.064l1.814-3.687.187-.345-.313-.25-2.5-2-.312-.28zm.094 1.344l1.78 1.437-1.686 3.406-.032.032v.032c-.036.12-.076.156-.125.187-.048.032-.123.06-.25.064-.25.006-.647-.095-.905-.22l-.156-.093-.19.064c-.294.078-.493.263-.624.468-.13.206-.217.44-.28.657-.13.432-.178.9-.25 1.124l-.032.03v.032c-.37 2.178-.345 4.508.437 6.656.012.03-.01.065 0 .094h.032c.04.163.077.336.188.47.132.158.353.252.53.28.357.057.59-.047.814-.125.223-.077.422-.148.53-.155.09-.006.09.02.126.063.007.01.02-.015.03 0 .638 1.197 1.225 2.452 1.845 3.687l-1.78 1.438c-1.838-1.715-3.152-3.98-3.72-6.438v-.03c-1.097-4.63.22-9.887 3.72-13.158zM139.938 5c-.51.018-1.005.227-1.375.625-.588.59-.756 1.495-.375 2.25.42.89 1.44 1.287 2.343 1.03v.033c.015-.004.018-.028.032-.032.82-.235 1.45-.996 1.438-1.906.004-.578-.244-1.1-.656-1.47-.396-.368-.897-.548-1.406-.53zm.03 1c.256-.01.5.075.688.25h.03c.195.173.316.477.314.75.006.432-.353.873-.72.97-.416.125-.98-.096-1.186-.532-.168-.334-.065-.873.187-1.125.178-.19.433-.304.69-.313zM140 9.985c-1.072 0-1.98.902-1.98 2.03 0 1.128.908 2 1.98 2s1.98-.872 1.98-2c0-1.128-.908-2.03-1.98-2.03zm0 1.03c.585 0 1.02.47 1.02 1s-.435.97-1.02.97-1.02-.44-1.02-.97.435-1 1.02-1zM134.937 5c-.51.018-1.004.227-1.375.625-.587.59-.755 1.495-.375 2.25.42.89 1.44 1.287 2.344 1.03v.033c.015-.004.018-.028.032-.032.82-.235 1.45-.996 1.438-1.906.004-.578-.244-1.1-.656-1.47-.396-.368-.897-.548-1.406-.53zm.032 1c.254-.01.498.075.686.25h.03c.195.173.316.477.314.75.006.432-.353.873-.72.97-.416.125-.98-.096-1.186-.532-.168-.334-.065-.873.187-1.125.178-.19.433-.304.69-.313zm-.032 4c-.51.018-1.005.227-1.375.625-.588.59-.756 1.495-.375 2.25.42.89 1.44 1.287 2.343 1.03v.033c.015-.004.018-.028.032-.032.82-.235 1.45-.996 1.438-1.906.004-.578-.244-1.1-.656-1.47-.396-.368-.897-.548-1.406-.53zm.03 1c.256-.01.5.075.688.25h.03c.195.173.316.477.314.75.006.432-.353.873-.72.97-.416.125-.98-.096-1.186-.533-.168-.333-.065-.872.187-1.124.178-.19.433-.304.69-.313zm-.03 4c-.51.018-1.005.227-1.375.625-.588.59-.756 1.495-.375 2.25.42.89 1.44 1.287 2.343 1.03v.032c.015-.003.018-.027.032-.03.82-.236 1.45-.997 1.438-1.907.004-.578-.244-1.1-.656-1.47-.396-.368-.897-.548-1.406-.53zm.03 1c.256-.01.5.075.688.25h.03c.195.173.316.477.314.75.006.432-.353.873-.72.97-.416.125-.98-.096-1.186-.532-.168-.334-.065-.873.187-1.125.178-.19.433-.304.69-.313zM140 14.985c-1.072 0-1.98.902-1.98 2.03 0 1.128.908 2 1.98 2s1.98-.872 1.98-2c0-1.128-.908-2.03-1.98-2.03zm0 1.03c.585 0 1.02.47 1.02 1s-.435.97-1.02.97-1.02-.44-1.02-.97.435-1 1.02-1zM144.938 15c-.51.018-1.005.227-1.375.625-.588.59-.756 1.495-.375 2.25.42.89 1.44 1.287 2.343 1.03v.032c.015-.003.018-.027.032-.03.82-.236 1.45-.997 1.438-1.907.004-.578-.244-1.1-.656-1.47-.396-.368-.897-.548-1.406-.53zm.03 1c.256-.01.5.075.688.25h.03c.195.173.316.477.314.75.006.432-.353.873-.72.97-.416.125-.98-.096-1.186-.532-.168-.334-.065-.873.187-1.125.178-.19.433-.304.69-.313zm-.03-6c-.51.018-1.005.227-1.375.625-.588.59-.756 1.495-.375 2.25.42.89 1.44 1.287 2.343 1.03v.033c.015-.004.018-.028.032-.032.82-.235 1.45-.996 1.438-1.906.004-.578-.244-1.1-.656-1.47-.396-.368-.897-.548-1.406-.53zm.03 1c.256-.01.5.075.688.25h.03c.195.173.316.477.314.75.006.432-.353.873-.72.97-.416.125-.98-.096-1.186-.533-.168-.333-.065-.872.187-1.124.178-.19.433-.304.69-.313zm-.03-6c-.51.018-1.005.227-1.375.625-.588.59-.756 1.495-.375 2.25.42.89 1.44 1.287 2.343 1.03v.033c.015-.004.018-.028.032-.032.82-.235 1.45-.996 1.438-1.906.004-.578-.244-1.1-.656-1.47-.396-.368-.897-.548-1.406-.53zm.03 1c.256-.01.5.075.688.25h.03c.195.173.316.477.314.75.006.432-.353.873-.72.97-.416.125-.98-.096-1.186-.532-.168-.334-.065-.873.187-1.125.178-.19.433-.304.69-.313z" fill="#000"/><use stroke="#000" mask="url(#r)" stroke-width="2" xlink:href="#h"/><path d="M37 12h24M61 12L50.2 9v6L61 12zM160 12h24M184 12l-10.8-3v6l10.8-3zM282 12h24M306 12l-10.8-3v6l10.8-3z" stroke="#20C929" stroke-linecap="square" fill="#20C929"/><path d="M260.553 17.443c-.795-.18-1.568-.748-1.75-1.447-.152-.593-.207-2 .06-2.533.04-.08.117-.187.222-.333.29-.408.853-1.2.864-1.542l.008-.297.265-.133c.295-.15.48-.47.572-.843.13-.525.085-1.14-.065-1.592l-.05-.155.05-.156c.116-.35.175-.84.175-1.385 0-.84-.14-1.79-.428-2.57-.26-.704-.628-1.26-1.093-1.413-.08-.026-.17-.04-.266-.04h-.196l-.147-.14c-.364-.346-1.014-.605-1.762-.746-.75-.14-1.59-.16-2.346-.03-.714.123-1.344.377-1.723.776-.177.187-.302.414-.352.677l-.028.153-.11.107c-1.358 1.36-.994 3.186-.638 4.97l.016.08.076.377-.344.17c-.085.04-.124.29-.124.583 0 .17.02.35.053.512.034.16.084.313.143.433l.086.176h.5v.502c0 .06.188.434.413.852.303.563.66 1.153.767 1.26l.148.148v2.101c0 1.15-1.3 1.495-2.827 1.9-1.72.454-3.722 1.007-3.722 2.842v3.29h11v1L246 25v-4.293c0-2.604 2.41-3.266 4.468-3.81 1.123-.295 2.08-.55 2.08-.932v-1.726c-.206-.29-.526-.82-.792-1.31-.176-.33-.334-.658-.432-.918-.243-.12-.44-.352-.584-.643-.098-.198-.176-.43-.225-.668-.05-.237-.077-.486-.077-.72 0-.47.11-.92.358-1.22-.384-1.932-.715-3.902.85-5.56.103-.398.304-.738.575-1.025.54-.57 1.368-.916 2.28-1.073.87-.15 1.832-.13 2.697.034.843.16 1.606.458 2.12.874.13.014.256.042.378.082.794.26 1.36 1.047 1.72 2.02.33.895.492 1.97.492 2.913 0 .573-.06 1.11-.18 1.54.162.587.2 1.335.037 1.99v.003c-.137.544-.412 1.037-.865 1.353-.162.618-.703 1.378-1.002 1.8l-.144.2v.002c-.058.115-.088.503-.088.914 0 .41.03.797.088.913l.015.03.01.035c.126.374.77.615 1.556.855l-.783.783zM266 13.997l-7 7v4l4-.002 7-6.998-4-4zm-5 10l-1-1 .003-1.58 2.578 2.577-1.58.002zm-.24-3.334l2.908-2.907 2.575 2.574-2.952 2.955-2.53-2.622zm6.25-1.1l-2.576-2.576L266 15.422l2.577 2.575-1.567 1.566zM334.852 16.144L337 13.996l4 4-2.15 2.148-3.998-4zm-.707.708L330 20.996l.002 4H334l4.144-4.145-4-3.998zm-2.592.59c-.794-.18-1.568-.747-1.75-1.446-.152-.593-.207-2 .06-2.533.04-.08.117-.187.222-.334.29-.408.853-1.2.864-1.543l.008-.296.265-.134c.295-.15.48-.47.572-.842.132-.526.085-1.14-.065-1.592l-.05-.156.05-.156c.116-.35.175-.84.175-1.385 0-.84-.14-1.79-.428-2.57-.26-.705-.628-1.26-1.093-1.414-.08-.024-.17-.04-.266-.04h-.196l-.147-.14c-.364-.344-1.014-.604-1.762-.744-.75-.14-1.59-.16-2.346-.03-.714.123-1.344.377-1.723.776-.177.187-.302.413-.352.677l-.028.152-.11.108c-1.358 1.36-.994 3.186-.638 4.968l.016.082.077.376-.346.17c-.085.04-.124.29-.124.584 0 .17.02.348.053.51.034.162.084.314.143.435l.086.176h.5v.5c0 .063.188.436.413.854.303.562.66 1.153.767 1.26l.148.148v2.101c0 1.15-1.3 1.495-2.827 1.9-1.72.453-3.72 1.006-3.72 2.84v3.293H329v1h-12v-4.292c0-2.604 2.41-3.265 4.468-3.808 1.123-.297 2.08-.55 2.08-.933v-1.727c-.206-.29-.526-.818-.792-1.31-.176-.33-.334-.657-.432-.917-.243-.122-.44-.352-.584-.644-.098-.197-.175-.43-.225-.667-.05-.237-.077-.486-.077-.72 0-.47.11-.92.358-1.22-.384-1.932-.715-3.902.85-5.56.103-.398.304-.738.575-1.025.54-.57 1.368-.917 2.28-1.074.87-.15 1.832-.128 2.697.035.843.16 1.606.46 2.12.874.13.014.256.042.378.082.795.26 1.36 1.046 1.72 2.018.33.897.492 1.973.492 2.915 0 .573-.06 1.11-.18 1.54.162.587.2 1.335.037 1.99v.002c-.137.545-.412 1.037-.865 1.354-.162.617-.703 1.378-1.002 1.798l-.144.202c-.058.117-.088.504-.088.915 0 .41.03.798.088.913l.015.03.01.036c.126.375.77.616 1.556.855l-.783.782z" fill="#000"/></g><g transform="translate(0 1)" stroke="#000" stroke-width="2"><use mask="url(#s)" xlink:href="#i"/><use mask="url(#t)" xlink:href="#j"/></g></g></svg>