<svg width="20" height="20" fill="none" xmlns="http://www.w3.org/2000/svg"><path d="M16.064 13.444c.4 0 .666.254.714.653h-1.437c.073-.407.335-.653.727-.653m1.32.88c0-.836-.541-1.413-1.332-1.413s-1.336.601-1.336 1.465c0 .92.613 1.473 1.497 1.473.42 0 .803-.113 1.078-.307l-.17-.516a1.702 1.702 0 0 1-.884.258c-.484 0-.819-.234-.9-.702h2.039c.012-.077.012-.154.012-.259m-4.739.945c-.484 0-.807-.36-.807-.888 0-.529.323-.888.807-.888.485 0 .771.335.771.888 0 .553-.306.888-.77.888Zm.771-3.616v1.695a1.117 1.117 0 0 0-.908-.436c-.755 0-1.283.601-1.283 1.465 0 .864.528 1.47 1.283 1.47.376 0 .707-.154.945-.485v.423h.577v-4.136h-.614v.004Zm-4.262 3.616c-.484 0-.807-.36-.807-.888 0-.529.323-.888.807-.888.485 0 .771.335.771.888 0 .553-.306.888-.77.888Zm-.137.577c.376 0 .706-.153.945-.484v.423h.577v-2.817H9.97v.424a1.108 1.108 0 0 0-.945-.484c-.755 0-1.283.601-1.283 1.465 0 .864.528 1.469 1.283 1.469M7.06 12.923c-.335 0-.59.17-.735.529v-.489h-.573v2.818h.614v-1.413c0-.565.258-.823.665-.823.105 0 .202.016.295.052l.089-.601a.888.888 0 0 0-.355-.073ZM5.558 11.85h-2.95v.617h1.15v3.31h.654v-3.31h1.15v-.617h-.004ZM17.527 8.722l1.412-1.772v-.476h-2.187v.573h1.356l-1.413 1.768v.476H19v-.565h-1.473v-.004ZM15.04 6.413c-.376 0-.707.154-.896.497v-.436h-.573V9.29h.613V7.749c0-.476.254-.755.67-.755.416 0 .638.247.638.771v1.526h.613V7.648c0-.779-.412-1.23-1.065-1.23M11.34 8.773c-.485 0-.807-.359-.807-.888 0-.528.322-.888.807-.888.484 0 .77.335.77.888 0 .553-.306.888-.77.888Zm-.137.577c.375 0 .706-.153.944-.484v.424h.577V6.474h-.577v.424a1.108 1.108 0 0 0-.944-.485c-.755 0-1.284.602-1.284 1.47 0 .867.529 1.464 1.284 1.464m-2.567-.06h.613V6.47h-.613v2.817Zm.306-3.366c.23 0 .396-.158.396-.384s-.165-.383-.396-.383c-.23 0-.395.157-.395.383s.157.384.395.384Zm-1.99-.771v3.394c0 .549.223.771.715.771.178 0 .335-.024.436-.065l-.065-.536a.488.488 0 0 1-.193.036c-.19 0-.279-.093-.279-.319V5.15h-.613Zm-1.654 0v3.394c0 .549.222.771.714.771.178 0 .335-.024.436-.065l-.064-.536a.488.488 0 0 1-.194.036c-.19 0-.278-.093-.278-.319V5.15h-.614ZM2.316 7.66l.605-1.566.605 1.566H2.312h.004Zm1.836 1.627h.69l-1.55-3.931H2.55L1 9.286h.69l.387-1.008h1.687l.388 1.009Z" fill="#003781"/></svg>