<svg width="48" height="13" fill="none" xmlns="http://www.w3.org/2000/svg"><path d="M42.024 11.107c.535 0 .922-.163 1.219-.936l.327-.833-3.018-7.388h1.62l2.141 5.62 1.977-5.62h1.62l-3.448 8.92c-.446 1.144-1.279 1.59-2.23 1.59a3.56 3.56 0 0 1-.936-.134v-1.353c.252.075.505.134.728.134Z" fill="#13A0D3"/><path fill-rule="evenodd" clip-rule="evenodd" d="m43.186 10.148.318-.81-3.043-7.45h1.754l2.096 5.503 1.936-5.502H48l-3.481 9.002c-.227.582-.554.99-.949 1.254-.394.262-.853.376-1.338.376-.303 0-.621-.046-.953-.136l-.045-.012V10.89l.079.023c.252.074.497.132.711.132.262 0 .478-.04.664-.168.187-.128.352-.35.498-.73Zm1.127-2.579-2.14-5.62h-1.62l3.017 7.389-.327.832c-.297.773-.684.937-1.219.937a2.547 2.547 0 0 1-.728-.134v1.353c.327.089.639.134.936.134.952 0 1.784-.446 2.23-1.591l3.449-8.92h-1.62l-1.978 5.62Z" fill="#13A0D3"/><path d="M37.908 5.667c0-1.294-.654-2.542-2.23-2.542-1.575 0-2.23 1.248-2.23 2.542 0 1.293.655 2.542 2.23 2.542 1.576 0 2.23-1.25 2.23-2.542Zm1.502 3.716h-1.502v-.981c-.535.684-1.338 1.16-2.497 1.16-2.557 0-3.464-2.067-3.464-3.895 0-1.829.907-3.895 3.464-3.895 1.16 0 1.962.476 2.497 1.16V1.95h1.502v7.433Z" fill="#13A0D3"/><path fill-rule="evenodd" clip-rule="evenodd" d="M39.47 9.444h-1.623v-.872c-.545.626-1.334 1.05-2.436 1.05-1.298 0-2.182-.525-2.74-1.286-.556-.759-.785-1.747-.785-2.67 0-.923.229-1.91.785-2.669.558-.761 1.442-1.287 2.74-1.287 1.102 0 1.891.425 2.436 1.05V1.89h1.624v7.555ZM37.909 2.93a3.19 3.19 0 0 0-.061-.076c-.535-.643-1.32-1.083-2.436-1.083-2.557 0-3.464 2.066-3.464 3.894 0 1.829.907 3.895 3.464 3.895 1.116 0 1.901-.44 2.436-1.084l.061-.075v.98h1.501V1.95h-1.501v.981Zm-.573 1.016c-.348-.458-.887-.761-1.657-.761s-1.308.303-1.657.761c-.35.46-.511 1.082-.511 1.72 0 .637.161 1.258.511 1.718.349.458.888.762 1.657.762.77 0 1.309-.304 1.657-.762.35-.46.512-1.081.512-1.719 0-.637-.162-1.258-.512-1.719Zm-1.657-.823c1.576 0 2.23 1.25 2.23 2.542 0 1.294-.654 2.542-2.23 2.542-1.575 0-2.23-1.248-2.23-2.542 0-1.293.654-2.542 2.23-2.542Z" fill="#13A0D3"/><path d="M24.843 5.667c0 1.293.654 2.542 2.23 2.542s2.23-1.25 2.23-2.542c0-1.294-.654-2.542-2.23-2.542s-2.23 1.248-2.23 2.542Zm0 2.735v3.88h-1.501V1.95h1.501v.981c.536-.683 1.338-1.159 2.498-1.159 2.557 0 3.463 2.066 3.463 3.895 0 1.828-.906 3.894-3.463 3.894-1.16 0-1.962-.475-2.498-1.16Z" fill="#13A0D3"/><path fill-rule="evenodd" clip-rule="evenodd" d="M24.905 12.343H23.28V1.889h1.624v.872c.544-.626 1.333-1.05 2.436-1.05 1.297 0 2.182.525 2.74 1.286.556.759.785 1.746.785 2.67 0 .922-.23 1.91-.785 2.669-.558.76-1.443 1.286-2.74 1.286-1.103 0-1.892-.424-2.436-1.05v3.77Zm-.062-3.941c.02.025.04.05.062.075.534.643 1.32 1.084 2.436 1.084 2.557 0 3.463-2.066 3.463-3.895 0-1.828-.906-3.894-3.463-3.894-1.116 0-1.902.44-2.436 1.083a3.19 3.19 0 0 0-.062.076v-.98h-1.501v10.33h1.501v-3.88Zm.573-1.017c.349.458.888.762 1.657.762.77 0 1.309-.304 1.657-.762.35-.46.512-1.081.512-1.719 0-.637-.162-1.258-.512-1.719-.348-.458-.887-.761-1.657-.761s-1.308.303-1.657.761c-.35.46-.511 1.082-.511 1.72 0 .637.16 1.258.511 1.718Zm1.657.823c-1.576 0-2.23-1.248-2.23-2.542 0-1.293.654-2.542 2.23-2.542s2.23 1.25 2.23 2.542c0 1.294-.654 2.542-2.23 2.542Z" fill="#13A0D3"/><path d="m4.982.533.7-.012c.022 1.247-.015 2.496.017 3.743.025.252.33.197.51.184.022.206.047.412.07.618-.332.042-.705.114-1.007-.065-.226-.139-.294-.414-.288-.658-.002-1.27.004-2.54-.002-3.81ZM6.813.533c.236-.004.471-.006.708-.008 0 1.135.003 2.268-.003 3.403.004.158-.003.327.077.47.134.102.307.049.462.05.022.202.046.406.07.61-.344.063-.738.124-1.047-.08-.217-.166-.255-.46-.263-.712-.005-1.244.006-2.489-.004-3.733ZM8.782.6c.289-.202.779.022.72.393-.003.325-.403.49-.675.355-.291-.126-.305-.584-.045-.749ZM1.898.761c.286-.004.573-.004.86-.004.58 1.439 1.156 2.879 1.733 4.32-.267 0-.535 0-.8-.004-.145-.35-.26-.713-.424-1.056-.611-.076-1.246-.007-1.865-.032-.146.362-.286.727-.43 1.09l-.798.002C.743 3.636 1.332 2.203 1.898.761Zm-.222 2.51c.436.002.872.003 1.309 0-.212-.55-.428-1.1-.65-1.647-.235.543-.437 1.099-.66 1.647ZM10.683 2.21c.555-.47 1.477-.384 1.936.18a16.474 16.474 0 0 1-.004-.416h.662c-.001 1.035.002 2.07-.002 3.104l-.66-.001c0-.131 0-.263.002-.394-.536.622-1.629.62-2.134-.033-.531-.709-.49-1.843.2-2.44Zm.673.427c-.613.281-.691 1.199-.221 1.64.355.325 1.002.284 1.27-.13.226-.364.229-.859.008-1.225-.209-.347-.698-.448-1.057-.285ZM14.844 2.402c.377-.537 1.19-.655 1.726-.286.335.236.47.66.478 1.05.006.636 0 1.273 0 1.91h-.701c-.01-.608.013-1.219-.009-1.828-.007-.293-.184-.614-.5-.666-.415-.122-.884.173-.91.605-.027.63 0 1.26-.011 1.89h-.701c-.004-1.035 0-2.07-.002-3.104h.643l-.013.429ZM8.69 1.977c.235-.003.47-.004.706-.006.003 1.033-.004 2.066.004 3.099-.237.004-.473.005-.707.007-.002-1.034.002-2.067-.003-3.1ZM17.755 1.973h2.453c-.02.232.064.504-.113.694-.48.592-.964 1.183-1.44 1.779l1.635-.001v.631c-.865 0-1.73-.003-2.596.003.017-.22-.07-.48.091-.663.485-.6.981-1.191 1.458-1.797-.497.007-.993.003-1.488.004v-.65ZM8.369 9.128c.248-.122.532-.06.793-.02-.035.23-.07.46-.102.689-.255-.047-.547-.088-.766.08-.24.171-.306.477-.31.752-.008.525.005 1.05-.006 1.577-.233-.003-.467-.004-.7-.005v-3.1c.22 0 .44 0 .661-.002v.451c.122-.158.235-.342.43-.422ZM15.83 7.652c.235.001.472.004.708.008-.01 1.514-.002 3.028-.004 4.542-.22 0-.44.001-.659.003-.002-.135-.003-.27-.002-.404-.502.619-1.56.63-2.078.027-.468-.533-.504-1.34-.244-1.974.252-.614.988-.953 1.634-.78.251.056.455.22.651.376-.013-.6-.004-1.199-.006-1.798Zm-1.136 2.082c-.56.185-.724.889-.505 1.38.19.476.848.657 1.27.367.4-.273.44-.831.309-1.255-.14-.421-.656-.651-1.074-.492ZM3.762 7.882c1.109.005 2.217.002 3.325.002-.001.232-.002.464-.006.697-.424-.006-.85-.004-1.274-.004 0 1.21.002 2.418 0 3.627l-.747-.001c.001-1.208 0-2.416.002-3.623-.434-.005-.868-.003-1.302-.003 0-.232 0-.463.002-.695ZM10.038 9.347c.559-.48 1.499-.405 1.957.177-.003-.142-.001-.284 0-.426l.657.003c0 1.034.002 2.068-.002 3.103l-.661-.003c0-.136.003-.272.007-.408-.538.662-1.699.635-2.183-.07-.48-.706-.437-1.793.225-2.376Zm.74.396c-.64.228-.747 1.14-.325 1.61.335.37 1.022.359 1.311-.063.24-.368.246-.876.016-1.25-.203-.324-.651-.432-1.002-.297ZM17.694 9.483c.589-.648 1.787-.596 2.294.125.274.362.306.829.302 1.264-.77.022-1.541.002-2.312.012.087.253.214.522.478.639.493.238 1.069.073 1.527-.165.064.198.17.393.178.602-.472.292-1.061.38-1.606.285-.492-.085-.952-.404-1.138-.868-.247-.617-.175-1.384.277-1.894Zm.297.853c.537-.001 1.075.005 1.613-.005-.088-.343-.343-.682-.734-.686-.442-.062-.793.292-.88.691Z" fill="#003781"/></svg>