<svg width="54" height="9" fill="none" xmlns="http://www.w3.org/2000/svg"><g clip-path="url(#a)"><g fill="#003781"><path d="M3.015 3.732c.215.134.381.32.502.56.12.238.178.51.178.816 0 .305-.06.585-.178.823a1.37 1.37 0 0 1-.502.56c-.216.134-.46.2-.739.2a1.27 1.27 0 0 1-1.078-.547v.485H.72V2.146h.512v1.89a1.268 1.268 0 0 1 1.048-.505c.277 0 .523.067.738.201h-.002ZM2.905 5.9c.186-.204.278-.467.278-.791s-.092-.585-.277-.788a.933.933 0 0 0-.717-.303c-.292 0-.521.097-.697.293-.173.197-.261.463-.261.798s.088.608.261.805c.174.196.407.293.697.293.289 0 .532-.101.717-.307ZM5.705 6.658l-.05.12c-.146.374-.306.636-.48.786a.972.972 0 0 1-.652.224c-.146 0-.29-.016-.435-.05l.065-.486c.136.03.257.044.363.044a.542.542 0 0 0 .255-.051.58.58 0 0 0 .201-.199c.067-.097.139-.245.22-.44L3.959 3.595h.548l.932 2.4.926-2.4h.548L5.701 6.65v.007h.004Z"/></g><g fill="#003781"><path d="M10.957 4.803h-.953l.51-1.658.446 1.658h-.003ZM9.51 6.63l.326-1.09h1.287l.305 1.09h1.192l-1.185-4.153c-.067-.245-.217-.358-.474-.358H9.275v.393h.141c.176 0 .271.07.271.203 0 .088-.02.162-.09.366L8.412 6.632h1.1l-.003-.002ZM13.988 6.63V2.464c0-.218-.127-.345-.337-.345H12.61v.393h.067c.175 0 .25.074.25.252v3.869h1.061v-.005ZM15.796 6.63V2.464c0-.218-.13-.345-.338-.345h-1.042v.393h.068c.175 0 .252.074.252.252v3.869h1.062l-.002-.005ZM17.646 2.53c0-.303-.224-.486-.608-.486s-.611.183-.611.486c0 .302.231.487.61.487.38 0 .61-.18.61-.487Zm-.02 4.1V3.592c0-.217-.13-.344-.34-.344h-1.028v.383h.06c.176 0 .25.081.25.257v2.74h1.057ZM19.953 5.006v.657c-.176.182-.393.291-.574.291-.18 0-.257-.093-.257-.347s.054-.363.243-.437c.142-.062.324-.115.59-.164m-1.43-.789c.352-.168.739-.263 1.044-.263.285 0 .386.102.386.398v.076c-.432.07-.569.097-.812.15-.14.033-.27.074-.4.127-.428.171-.63.502-.63 1.009 0 .642.278.952.852.952.21 0 .4-.04.57-.106.147-.065.235-.12.453-.292v.047c0 .21.108.316.317.316h.967v-.365h-.049c-.183 0-.25-.08-.25-.298V4.356c0-.858-.298-1.158-1.159-1.158a3.61 3.61 0 0 0-.81.095c-.266.06-.4.115-.717.27l.236.65.003.004ZM22.815 6.629V4.342c.176-.197.358-.284.57-.284.223 0 .277.087.277.427V6.63h1.055V4.33c0-.534-.04-.705-.208-.885-.144-.157-.36-.236-.637-.236-.414 0-.703.127-1.094.492v-.134c0-.21-.111-.319-.326-.319H21.45v.384h.06c.176 0 .252.081.252.257v2.74h1.055-.002ZM27.85 5.92h-1.477l1.41-1.975v-.698h-2.206c-.25 0-.365.115-.365.365v.615h.393v-.06c0-.155.081-.229.25-.229h.76l-1.421 1.995v.696h2.66v-.71h-.004ZM33.393 6.544V2.722c0-.306-.109-.407-.405-.407h-.895v.427h.053c.204 0 .243.047.243.292v3.51h1.004Zm.442 0h.995V3.566c0-.299-.116-.407-.407-.407h-.588V6.544Zm-1.883 0V3.16h-.59c-.292 0-.405.109-.405.407v2.978h.995v-.002ZM35.769 4.6c0 1.684-1.212 2.91-2.876 2.91-1.663 0-2.878-1.226-2.878-2.91 0-1.683 1.212-2.908 2.878-2.908 1.666 0 2.876 1.232 2.876 2.908Zm.59 0c0-1.981-1.483-3.463-3.466-3.463-1.982 0-3.466 1.482-3.466 3.463 0 1.982 1.484 3.464 3.466 3.464 1.983 0 3.466-1.48 3.466-3.464Z"/></g><path d="M40.056.722h-.233V8.48h.233V.722Z" fill="#000"/><g fill="#003781"><path d="M51.322 6.375c.229 0 .381.146.41.375h-.825c.042-.234.192-.375.417-.375m.756.504c0-.478-.31-.81-.763-.81s-.766.345-.766.84c0 .527.352.844.858.844.241 0 .46-.064.618-.175l-.097-.296a.976.976 0 0 1-.507.148c-.277 0-.47-.135-.516-.403h1.169c.007-.044.007-.088.007-.148m-2.716.541c-.278 0-.463-.205-.463-.508 0-.303.185-.51.462-.51.278 0 .442.193.442.51 0 .316-.175.508-.441.508Zm.441-2.072v.972a.64.64 0 0 0-.52-.25c-.433 0-.736.344-.736.84 0 .494.303.84.736.84a.641.641 0 0 0 .541-.277v.243h.331v-2.37h-.352v.002ZM47.365 7.42c-.278 0-.462-.205-.462-.508 0-.303.184-.51.462-.51s.442.193.442.51c0 .316-.176.508-.442.508Zm-.079.33a.641.641 0 0 0 .542-.277v.243h.33V6.102h-.33v.243a.635.635 0 0 0-.542-.277c-.432 0-.735.344-.735.839s.303.842.735.842M46.16 6.077c-.192 0-.338.097-.421.303V6.1h-.329v1.614h.352v-.81c0-.323.148-.471.382-.471.06 0 .115.01.169.03l.05-.345a.51.51 0 0 0-.203-.041Zm-.86-.615h-1.692v.354h.66v1.896h.374V5.816h.66v-.354h-.003ZM53.006 3.67l.81-1.015v-.273h-1.254v.328h.777l-.81 1.013v.273h1.321v-.324h-.844V3.67Zm-1.425-1.323c-.215 0-.405.088-.514.285v-.25h-.328v1.614h.351v-.883c0-.273.146-.433.384-.433.239 0 .366.141.366.442v.874h.352v-.941c0-.446-.236-.705-.611-.705M49.459 3.7c-.278 0-.463-.206-.463-.509 0-.303.185-.508.463-.508s.442.191.442.508-.176.509-.442.509Zm-.079.33a.641.641 0 0 0 .542-.277v.243h.33V2.382h-.33v.243a.635.635 0 0 0-.542-.278c-.432 0-.735.345-.735.842s.303.84.735.84m-1.471-.035h.352V2.38h-.352v1.614Zm.176-1.929c.132 0 .227-.09.227-.22 0-.129-.095-.22-.227-.22s-.227.091-.227.22c0 .13.09.22.227.22Zm-1.14-.441v1.944c0 .315.126.442.409.442a.721.721 0 0 0 .25-.037l-.038-.308a.28.28 0 0 1-.11.021c-.11 0-.16-.053-.16-.183v-1.88h-.352Zm-.95 0v1.944c0 .315.128.442.41.442a.72.72 0 0 0 .25-.037l-.037-.308a.28.28 0 0 1-.111.021c-.109 0-.16-.053-.16-.183v-1.88h-.351Zm-1.71 1.438.348-.897.347.897h-.697.003Zm1.054.932h.395l-.888-2.253h-.426l-.889 2.253h.396l.222-.578h.967l.223.578Z"/></g></g><defs><clipPath id="a"><path fill="#fff" transform="translate(.252 .722)" d="M0 0h53.599v7.758H0z"/></clipPath></defs></svg>