<svg width="39" height="17" fill="none" xmlns="http://www.w3.org/2000/svg"><path d="M7.938 2.513c.453-.555.76-1.3.679-2.06-.663.032-1.471.428-1.94.983-.42.475-.791 1.25-.694 1.98.743.063 1.486-.365 1.955-.903ZM8.61 3.551c-1.08-.063-1.998.6-2.514.6-.516 0-1.306-.568-2.16-.553A3.195 3.195 0 0 0 1.228 5.21c-1.16 1.959-.306 4.865.823 6.46.548.79 1.208 1.659 2.079 1.627.822-.031 1.144-.521 2.144-.521.998 0 1.289.521 2.16.506.902-.016 1.466-.79 2.014-1.58.629-.9.886-1.769.902-1.816-.016-.016-1.74-.664-1.756-2.607-.017-1.626 1.354-2.4 1.418-2.448C10.238 3.71 9.03 3.583 8.61 3.55ZM17.897 1.352c2.348 0 3.982 1.584 3.982 3.892 0 2.315-1.668 3.908-4.04 3.908h-2.6V13.2h-1.877V1.352h4.535ZM15.24 7.608h2.155c1.635 0 2.565-.862 2.565-2.356 0-1.495-.93-2.348-2.557-2.348H15.24v4.704ZM22.368 10.753c0-1.511 1.182-2.439 3.278-2.554l2.414-.14v-.664c0-.961-.662-1.536-1.769-1.536-1.048 0-1.702.493-1.86 1.265H22.72c.1-1.56 1.459-2.71 3.638-2.71 2.138 0 3.505 1.109 3.505 2.841v5.953h-1.736v-1.42h-.041c-.512.96-1.627 1.568-2.784 1.568-1.727 0-2.934-1.051-2.934-2.603Zm5.692-.78V9.29l-2.171.132c-1.082.074-1.694.542-1.694 1.28 0 .756.637 1.249 1.61 1.249 1.266 0 2.255-.854 2.255-1.98ZM31.505 16.378v-1.437c.134.033.436.033.587.033.838 0 1.29-.345 1.567-1.232 0-.016.16-.525.16-.533l-3.186-8.646h1.962l2.23 7.028h.033l2.23-7.028H39l-3.303 9.089c-.755 2.094-1.627 2.767-3.454 2.767-.151 0-.604-.016-.738-.04Z" fill="#1D1D1F"/></svg>