<svg width="16" height="17" fill="none" xmlns="http://www.w3.org/2000/svg"><path d="M5.107 13.003h5.906c.97 0 1.532-.562 1.532-1.637V6.168c0-1.075-.567-1.637-1.652-1.637h-.708C10.16 3.406 9.2 2.47 8 2.47c-1.195 0-2.16.935-2.185 2.06h-.708c-1.085 0-1.652.562-1.652 1.637v5.198c0 1.075.567 1.637 1.652 1.637ZM8 3.36c.688 0 1.195.518 1.215 1.17h-2.43c.02-.652.527-1.17 1.215-1.17Zm-2.828 8.644c-.462 0-.718-.241-.718-.728V6.258c0-.482.256-.723.718-.723h5.656c.457 0 .718.241.718.723v5.018c0 .487-.261.728-.598.728H5.172Z" fill="#000"/></svg>