<svg width="24" height="23" fill="none" xmlns="http://www.w3.org/2000/svg"><rect x=".784" y=".09" width="22.485" height="22.492" rx="11.242" fill="#E5EAEF"/><path fill-rule="evenodd" clip-rule="evenodd" d="m12.027 5.355-5.975 3.19v.808h11.95v-.809l-5.974-3.189ZM6.053 17.308h11.95v-.414H6.052v.414Zm.379-.797h11.192v-.414H6.431v.414Zm3.198-.797h2v-.415h-2v.415Zm-2.781 0h2v-.415h-2v.415Zm.406-.574h1.187v-4.82H7.254v4.82Zm2.781 0h1.187v-4.82h-1.187v4.82Zm2.797 0h1.187v-4.82h-1.187v4.82Zm2.781 0H16.8v-4.82h-1.187v4.82Zm-.407.573h2V15.3h-2v.415Zm-2.78 0h2V15.3h-2v.415Zm-2.797-5.569h2v-.415h-2v.415Zm-2.781 0h2v-.415h-2v.415Zm8.358 0h2v-.415h-2v.415Zm-2.78 0h2v-.415h-2v.415Z" fill="#798A9A"/></svg>