<svg width="61" height="20" fill="none" xmlns="http://www.w3.org/2000/svg"><g fill="#343434"><path d="m57.771.604.745 1.315s.98 3.259 2.003 7.424c-.351 4.311-2.017 8.155-2.017 8.155l-2.836-.234s1.433-3.566 1.857-7.687c-.936-3.931-1.71-6.884-1.71-6.884L45.728 5.704l-.701-2.207L57.771.604ZM37.266 13.51l-3.01-.921-.307-9.85 8.623.993.613 2.353-6.722.22.233 4.281c.176-.117.454-.219.877-.321.424-.117.936-.161 1.593-.176a35.73 35.73 0 0 1 2.85-.146 12.554 12.554 0 0 1 3.142.088 13.16 13.16 0 0 1 3.026.79c.92.364 1.768.788 2.499 1.373.555.584.847 1.257.891 1.93.015.671-.19 1.3-.6 1.884-.438.57-1.037 1.082-1.914 1.52-.891.497-1.914.877-3.083 1.184-1.009.248-1.988.38-2.894.424-.892.03-1.783-.044-2.69-.205a8.108 8.108 0 0 1-2.659-.92c-.848-.453-1.535-1.009-2.075-1.666l4.311-.395c.438.336.935.6 1.462.774a5.05 5.05 0 0 0 1.71.249c.613 0 1.183-.088 1.782-.263.57-.16 1.009-.35 1.33-.57.307-.234.512-.497.6-.775.087-.292.073-.599-.059-.906-.146-.336-.424-.643-.818-.964a6.392 6.392 0 0 0-1.213-.79 6.627 6.627 0 0 0-1.623-.35 12.545 12.545 0 0 0-1.826-.044c-.585 0-1.213.058-1.798.146-.775.102-1.3.22-1.593.395-.307.19-.526.409-.658.657ZM24.347 10.716l1.944-.277c.57-.103 1.008-.263 1.344-.482.307-.249.512-.527.57-.863a2.14 2.14 0 0 0-.073-1.125 2.588 2.588 0 0 0-.409-.906 1.034 1.034 0 0 0-.73-.482c-.322-.059-.702 0-1.184.175-.351.131-.673.307-.994.54-.293.234-.57.498-.73.775-.19.278-.279.57-.264.877l-4.078-.058c.132-.512.585-.98 1.257-1.403a18.229 18.229 0 0 1 2.251-1.535c.79-.555 1.593-.994 2.47-1.3.965-.351 1.812-.527 2.587-.497.73.102 1.3.38 1.739.891.468.526.818 1.257 1.037 2.28.132.57.147 1.154.074 1.754a4.196 4.196 0 0 1-.614 1.578 2.462 2.462 0 0 1-1.242.877c-.57.16-1.257.248-2.09.263l-2.704.102-.16-1.184Zm.249 1.681-.19-1.14 2.616-.263c.964-.102 1.797-.073 2.44.205.526.409.921.906 1.272 1.505.409.526.73 1.14 1.037 1.783.366.614.746 1.228 1.111 1.827.526.687.79 1.286.804 1.812.014.497-.22.92-.687 1.242-.468.293-1.125.468-1.973.526a19.1 19.1 0 0 1-2.908-.19c-.848-.175-1.71-.526-2.572-1.096a806.222 806.222 0 0 1-2.704-1.87c-.906-.483-1.637-.965-2.25-1.491-.6-.497-.965-1.052-1.111-1.666l4.69.6c.015.35.162.73.425 1.125.233.409.613.818 1.081 1.198.468.394.965.687 1.462.848.57.16 1.023.175 1.417.102.38-.088.6-.278.687-.54.073-.308.015-.673-.102-1.156-.059-.628-.161-1.198-.336-1.68-.103-.497-.307-.892-.629-1.199-.365-.263-.848-.394-1.461-.409l-2.12-.073ZM17.522 14.852l1.082 2.222-14.863.95-1.9-2.09 4.253-5.758a58.2 58.2 0 0 1 2.382-1.082 22.078 22.078 0 0 0 1.622-.643c.424-.175.73-.35.935-.526.337-.278.512-.526.512-.774.014-.234-.146-.454-.468-.644-.292-.175-.789-.336-1.432-.453a6.66 6.66 0 0 0-2.017-.073c-.643.088-1.3.278-1.9.526a5.636 5.636 0 0 0-1.417 1.009l-3.727.058c.672-.803 1.622-1.52 2.777-2.148 1.198-.555 2.513-.906 3.931-1.067 1.461-.131 2.938 0 4.516.322 1.52.365 2.558.76 3.288 1.213.702.409 1.17.847 1.316 1.344.219.453.16.95-.132 1.462-.175.277-.453.511-.892.73a7.26 7.26 0 0 1-1.578.614c-.614.22-1.388.453-2.294.687-.833.278-1.725.585-2.558.95l-2.47 3.084 11.034.087Z"/></g></svg>