<svg width="16" height="19" fill="none" xmlns="http://www.w3.org/2000/svg"><path d="M8.154 18.572c.16 0 .4-.053.63-.178 5.104-2.778 6.88-4.065 6.88-7.296V4.396c0-1.065-.409-1.447-1.306-1.828-.976-.418-4.296-1.571-5.254-1.9a3.181 3.181 0 0 0-.95-.16c-.302 0-.648.08-.941.16-.959.275-4.278 1.491-5.255 1.9C1.062 2.94.653 3.33.653 4.396v6.702c0 3.23 1.776 4.5 6.88 7.296.23.125.47.178.62.178Zm0-1.882c-.124 0-.249-.044-.506-.204C3.6 14.018 2.34 13.352 2.34 10.769V4.68c0-.32.062-.444.31-.55C3.965 3.606 6.513 2.763 7.684 2.3c.205-.07.347-.097.47-.097.134 0 .276.026.48.097 1.172.462 3.702 1.358 5.024 1.829.258.098.32.23.32.55v6.09c0 2.6-1.314 3.302-5.308 5.716-.258.16-.382.204-.515.204Zm-.95-3.4c.329 0 .604-.16.79-.452l4.003-6.232c.125-.186.222-.399.222-.603 0-.444-.39-.737-.816-.737-.267 0-.506.151-.693.453l-3.533 5.636-1.65-2.086c-.214-.275-.427-.372-.684-.372a.788.788 0 0 0-.79.798c0 .213.08.409.23.604l2.096 2.548c.24.301.497.443.825.443Z" fill="#7A7A7A"/></svg>