<svg width="38" height="39" fill="none" xmlns="http://www.w3.org/2000/svg"><g clip-path="url(#a)" fill="#32D74B"><path d="M19 38.481c10.394 0 19-8.62 19-18.99C38 9.1 29.375.5 18.981.5 8.606.5 0 9.102 0 19.49c0 10.371 8.624 18.991 19 18.991Z" fill-opacity=".25"/><path d="M16.914 28.595c-.634 0-1.155-.26-1.64-.912L10.6 21.948c-.28-.372-.447-.782-.447-1.21 0-.838.652-1.527 1.49-1.527.54 0 .95.168 1.416.782l3.781 4.878L24.793 12.1c.354-.558.838-.856 1.323-.856.82 0 1.583.558 1.583 1.433 0 .41-.242.838-.466 1.23l-8.755 13.777c-.39.614-.931.912-1.564.912Z"/></g><defs><clipPath id="a"><path fill="#fff" transform="translate(0 .5)" d="M0 0h38v38H0z"/></clipPath></defs></svg>