<svg width="21" height="21" fill="none" xmlns="http://www.w3.org/2000/svg"><path fill-rule="evenodd" clip-rule="evenodd" d="M10.133 19.262a8.348 8.348 0 1 0 0-16.696 8.348 8.348 0 0 0 0 16.696Zm0 1.652c5.523 0 10-4.477 10-10s-4.477-10-10-10-10 4.477-10 10 4.477 10 10 10Z" fill="#8E8E8E"/><path d="M9.13 15.266c.358 0 .648-.175.861-.484l4.327-6.766c.126-.204.242-.436.242-.659 0-.474-.426-.793-.88-.793-.291 0-.553.155-.756.484l-3.823 6.137-1.8-2.295c-.233-.3-.465-.406-.756-.406a.841.841 0 0 0-.842.861c0 .233.087.446.242.649l2.294 2.788c.262.338.542.484.89.484Z" fill="#8E8E8E"/></svg>