<svg width="17" height="17" fill="none" xmlns="http://www.w3.org/2000/svg"><path d="M4.206 12.662h8.583c1.09 0 1.652-.568 1.652-1.643V5.596c0-1.074-.562-1.637-1.652-1.637H4.206c-1.085 0-1.652.563-1.652 1.637v5.425c0 1.08.567 1.642 1.652 1.642Zm-.653-6.976c0-.482.256-.723.718-.723h8.453c.462 0 .718.24.718.723v.361H3.553v-.361Zm.718 5.971c-.462 0-.718-.24-.718-.723V7.228h9.889v3.706c0 .482-.256.723-.718.723H4.27Zm.683-.909h1.23c.297 0 .498-.195.498-.477v-.934c0-.281-.201-.477-.497-.477h-1.23c-.292 0-.493.196-.493.477v.934c0 .281.201.477.492.477Z" fill="#000"/></svg>