<svg width="21" height="21" fill="none" xmlns="http://www.w3.org/2000/svg"><path d="M5.132 15.702h10.73c1.362 0 2.065-.71 2.065-2.053V6.87c0-1.343-.703-2.046-2.066-2.046H5.132c-1.356 0-2.065.703-2.065 2.046v6.78c0 1.35.71 2.053 2.065 2.053Zm-.816-8.72c0-.602.32-.904.898-.904H15.78c.577 0 .897.302.897.904v.452H4.317v-.452Zm.898 7.465c-.578 0-.898-.302-.898-.904V8.91h12.361v4.633c0 .602-.32.904-.897.904H5.214Zm.854-1.137h1.538c.37 0 .621-.244.621-.596v-1.168c0-.351-.25-.596-.621-.596H6.068c-.364 0-.615.245-.615.596v1.168c0 .352.25.596.615.596Z" fill="#fff"/></svg>