<svg width="19" height="19" fill="none" xmlns="http://www.w3.org/2000/svg"><path d="M4.48 13.813h9.66c1.227 0 1.86-.639 1.86-1.848V5.86c0-1.21-.633-1.842-1.86-1.842H4.48c-1.22 0-1.859.633-1.859 1.842v6.105c0 1.215.639 1.848 1.86 1.848Zm-.734-7.851c0-.543.288-.814.808-.814h9.513c.52 0 .808.271.808.814v.407H3.745v-.407Zm.808 6.72c-.52 0-.808-.27-.808-.813V7.697h11.13v4.172c0 .542-.29.813-.81.813H4.555Zm.769-1.023h1.385c.333 0 .56-.22.56-.537v-1.05c0-.317-.227-.538-.56-.538H5.323c-.328 0-.554.22-.554.537v1.052c0 .316.226.536.554.536Z" fill="#72605E"/></svg>