<svg width="21" height="16" fill="none" xmlns="http://www.w3.org/2000/svg"><path d="M3.05 15.599h15.02c1.907 0 2.891-.994 2.891-2.874V3.232c0-1.88-.984-2.865-2.891-2.865H3.05c-1.9 0-2.892.985-2.892 2.865v9.493c0 1.89.993 2.874 2.891 2.874ZM1.906 3.39c0-.844.448-1.266 1.257-1.266h14.792c.808 0 1.256.422 1.256 1.266v.632H1.907v-.632Zm1.257 10.45c-.809 0-1.257-.422-1.257-1.266V6.09h17.305v6.486c0 .844-.448 1.266-1.256 1.266H3.164Zm1.195-1.591h2.153c.519 0 .87-.343.87-.835V9.78c0-.492-.351-.835-.87-.835H4.36c-.51 0-.861.343-.861.835v1.635c0 .492.351.835.86.835Z" fill="#9E9E9E"/></svg>