<svg width="24" height="23" fill="none" xmlns="http://www.w3.org/2000/svg"><g clip-path="url(#a)"><rect x=".784" y=".203" width="22.485" height="22.492" rx="11.242" fill="#003F63"/><g clip-path="url(#b)" fill-rule="evenodd" clip-rule="evenodd"><path d="M14.253 13.108h8.445V9.75h-8.444v3.358Zm8.354-3.272v3.186h-8.262V9.836h8.262ZM-.89 9.75H13.89v3.358H-.89V9.75Z" fill="#003F63"/><path d="M22.606 9.844v3.185h-8.262V9.844h8.262Zm-18.393 1.82c0 .33-.186.493-.607.493h-.663V10.92h.64c.51 0 .63.233.63.488v.255Zm.272-.01v-.211c0-.676-.563-.703-.943-.703H2.67v1.6h.949c.744 0 .866-.38.866-.686Zm1.476.291c0 .094-.008.178-.12.217-.066.024-.16.03-.318.03s-.253-.014-.309-.047c-.038-.022-.053-.058-.053-.135 0-.096.025-.151.076-.173.049-.022.11-.026.304-.026h.42v.134Zm.258.395v-.628c0-.118 0-.202-.01-.262a.212.212 0 0 0-.09-.144c-.122-.092-.426-.094-.576-.094-.112 0-.42.012-.533.103-.038.032-.048.068-.048.11 0 .03.005.068.008.119h.25c.005-.03.01-.099.038-.125.033-.032.091-.044.262-.044.196 0 .334.008.39.036.054.03.051.09.051.135v.11h-.576c-.155 0-.334.003-.433.13a.335.335 0 0 0-.064.217c0 .264.173.354.617.354.232 0 .382-.034.474-.109l.023.092h.217Zm1.544 0v-.611c0-.212-.01-.257-.064-.296-.05-.036-.152-.058-.308-.058-.138 0-.278.017-.41.05v.915h-.255v-1.118h.23l.017.079a.67.67 0 0 1 .143-.06c.084-.024.191-.036.334-.036.163 0 .288.024.385.065a.27.27 0 0 1 .165.194.99.99 0 0 1 .018.236v.64h-.255Zm1.886-.068c-.117.056-.308.08-.558.08-.173 0-.316-.012-.428-.039-.12-.026-.178-.08-.186-.175a.839.839 0 0 1 .008-.157h.244c.008.058.008.075.01.087.01.053.006.082.072.101.063.02.166.026.296.026a.962.962 0 0 0 .351-.048c.054-.021.08-.062.08-.14 0-.088-.021-.124-.118-.139-.03-.005-.061-.005-.092-.007-.018-.002-.074-.002-.163-.005-.043 0-.092-.002-.15-.005-.253-.011-.523-.021-.523-.303 0-.252.166-.341.617-.341.115 0 .258.007.342.017.099.012.173.029.227.057.058.032.078.082.078.171 0 .024 0 .048-.005.087h-.247l-.01-.05c-.013-.06-.018-.073-.038-.087-.036-.027-.146-.039-.298-.039a.99.99 0 0 0-.314.032c-.066.021-.094.062-.094.141 0 .056.02.097.048.113.066.039.416.034.535.037a.97.97 0 0 1 .286.036c.13.043.181.122.181.286 0 .132-.046.214-.15.264Zm1.568.068-.612-.53h-.091v.53h-.255v-1.6h.255v.912h.091l.508-.43h.298l-.592.492.737.626h-.339Zm1.603-.669h-.818c.01-.14.04-.202.1-.243.058-.04.168-.06.328-.06.222 0 .326.046.365.142.015.04.025.08.025.161Zm.235.32h-.252c-.008.034-.013.12-.046.152-.039.035-.115.052-.322.052-.2 0-.313-.026-.37-.079-.042-.04-.068-.125-.068-.257v-.03h1.066c.002-.055.005-.069.005-.112 0-.185-.028-.289-.113-.368-.096-.094-.283-.14-.537-.14-.327 0-.528.07-.612.224a.783.783 0 0 0-.077.37c0 .243.07.397.22.474.094.048.257.075.463.077.174 0 .311-.007.464-.05.148-.044.184-.123.184-.188 0-.017 0-.072-.005-.125Z" fill="#fff"/><path d="M16.42 11.139c0 .235-.14.283-.43.283h-.643v-.507h.676c.257 0 .397.022.397.224Zm.336.745c0-.197-.12-.344-.405-.385v-.005c.222-.055.342-.163.342-.334 0-.281-.146-.426-.558-.426h-1.06v1.6h1.103c.372 0 .578-.16.578-.45Zm-.272.017c0 .228-.17.25-.436.25h-.7v-.548h.733c.314 0 .403.096.403.298Zm1.66.038c0 .094-.008.178-.12.217-.067.024-.161.03-.32.03-.157 0-.252-.014-.308-.047-.038-.022-.053-.058-.053-.135 0-.096.025-.151.076-.173.049-.022.11-.026.304-.026h.42v.134Zm.257.395v-.628c0-.118 0-.202-.01-.262a.212.212 0 0 0-.09-.145c-.122-.09-.425-.093-.576-.093-.112 0-.42.012-.533.103-.038.032-.048.068-.048.11 0 .03.005.068.008.119h.25c.005-.03.01-.099.038-.125.033-.032.091-.044.262-.044.196 0 .334.008.39.036.054.03.051.09.051.135v.11h-.576c-.155 0-.334.003-.433.13a.335.335 0 0 0-.064.217c0 .264.174.353.617.353.232 0 .383-.033.474-.108l.023.092h.217Zm1.48 0v-.611c0-.212-.01-.258-.063-.296-.051-.036-.153-.058-.309-.058-.137 0-.277.017-.41.05v.915h-.255v-1.119h.23l.017.08a.665.665 0 0 1 .143-.06c.084-.024.191-.036.334-.036.163 0 .288.024.385.065a.27.27 0 0 1 .166.194.985.985 0 0 1 .018.236v.64h-.255Zm1.657 0-.611-.53h-.092v.53h-.255v-1.6h.255v.912h.092l.507-.43h.298l-.591.492.736.626h-.339Z" fill="#003F63"/></g></g><defs><clipPath id="a"><rect x=".784" y=".203" width="22.485" height="22.492" rx="11.242" fill="#fff"/></clipPath><clipPath id="b"><path fill="#fff" transform="translate(-.902 9.758)" d="M0 0h23.609v3.373H0z"/></clipPath></defs></svg>