<svg width="16" height="16" fill="none" xmlns="http://www.w3.org/2000/svg"><path d="M1.953 9.71c0 .935.477 1.397 1.391 1.397h3.069l-.136.91h-.532a.463.463 0 0 0-.457.461c0 .246.206.457.457.457h4.545a.463.463 0 0 0 .462-.457.464.464 0 0 0-.462-.462h-.572l-.131-.909h3.064c.914 0 1.396-.462 1.396-1.396V4.06c0-.93-.482-1.391-1.396-1.391H3.344c-.914 0-1.39.462-1.39 1.39v5.65Zm.98-.06V4.127c0-.346.145-.477.477-.477h9.175c.332 0 .482.13.482.477v5.525c0 .341-.15.477-.482.477H3.41c-.332 0-.478-.136-.478-.477Z" fill="#000"/></svg>