<svg width="20" height="21" fill="none" xmlns="http://www.w3.org/2000/svg"><path d="M3.936 16.123h8.374a1.89 1.89 0 0 1-.32-.835 74.864 74.864 0 0 1-.019-.396h-7.96c-.584 0-.904-.307-.904-.916V6.543c0-.61.32-.91.904-.91h10.716c.572 0 .898.3.898.91v.188h1.23v-.289c0-1.343-.696-2.04-2.059-2.04H3.936c-1.356 0-2.06.697-2.06 2.04v7.64c0 1.344.71 2.04 2.06 2.04Zm10.013 0h2.944c.772 0 1.224-.446 1.224-1.193V8.684c0-.747-.452-1.193-1.224-1.193H13.95c-.779 0-1.243.446-1.243 1.193v6.246c0 .747.464 1.193 1.243 1.193Zm.063-.942c-.252 0-.383-.132-.383-.395V8.828c0-.264.132-.402.383-.402h.238c.025 0 .038.019.038.044v.057c0 .22.15.37.364.37h1.52c.213 0 .37-.15.37-.37V8.47c0-.025.012-.044.031-.044h.238c.258 0 .39.145.39.408v5.945c0 .264-.132.402-.39.402h-2.8Zm-7.076-.79h5.016v-.616H6.936c-.182 0-.307.12-.307.308s.125.307.307.307Zm7.622.457h1.701c.132 0 .226-.087.226-.22a.218.218 0 0 0-.226-.225h-1.701a.216.216 0 0 0-.22.226c0 .132.088.22.22.22Z" fill="#000"/></svg>