<svg width="17" height="17" fill="none" xmlns="http://www.w3.org/2000/svg"><path d="M8.495 3.602c-.16 0-.301.075-.467.205L4.638 6.55a.554.554 0 0 0-.196.437.59.59 0 0 0 .593.592.7.7 0 0 0 .437-.17L8.5 4.967l3.023 2.44c.141.116.292.171.437.171a.59.59 0 0 0 .593-.592.553.553 0 0 0-.196-.437L8.962 3.807c-.16-.13-.301-.205-.467-.205Zm0 9.306c.166 0 .306-.07.467-.201l3.395-2.742a.569.569 0 0 0 .196-.437.592.592 0 0 0-.593-.598.696.696 0 0 0-.437.176L8.5 11.546l-3.028-2.44a.707.707 0 0 0-.437-.176.592.592 0 0 0-.593.598c0 .18.075.331.196.437l3.39 2.737c.166.136.306.206.467.206Z" fill="#000"/></svg>