<svg width="20" height="20" fill="none" xmlns="http://www.w3.org/2000/svg"><path d="M9.994 3.877c-.201 0-.377.094-.584.257L5.172 7.562a.692.692 0 0 0-.245.546c0 .427.346.741.741.741.182 0 .364-.069.546-.213L10 5.585l3.78 3.05a.86.86 0 0 0 .545.214c.396 0 .741-.314.741-.74a.692.692 0 0 0-.245-.547l-4.243-3.428c-.201-.163-.377-.257-.584-.257Zm0 11.633c.207 0 .383-.088.584-.251l4.243-3.428a.71.71 0 0 0 .245-.546.74.74 0 0 0-.74-.747.87.87 0 0 0-.547.22L10 13.808l-3.786-3.05c-.182-.145-.364-.22-.546-.22a.74.74 0 0 0-.74.747c0 .226.094.414.244.546l4.238 3.421c.207.17.383.258.584.258Z" fill="#fff"/></svg>