<svg width="19" height="19" fill="none" xmlns="http://www.w3.org/2000/svg"><rect x=".5" y=".738" width="18" height="18" rx="3.857" fill="#CCF2E3"/><g clip-path="url(#a)" fill-rule="evenodd" clip-rule="evenodd" fill="#00BE73"><path d="M5 10.168a1.5 1.5 0 0 1 1.5-1.5h6a1.5 1.5 0 0 1 1.5 1.5v3a1.5 1.5 0 0 1-1.5 1.5h-6a1.5 1.5 0 0 1-1.5-1.5v-3Zm1.5-.214a.214.214 0 0 0-.214.214v3c0 .118.096.214.214.214h6a.214.214 0 0 0 .214-.214v-3a.214.214 0 0 0-.214-.214h-6Z"/><path d="M9.5 6.094a1.5 1.5 0 0 0-1.5 1.5V9.31a.643.643 0 0 1-1.286 0V7.594a2.786 2.786 0 0 1 4.756-1.97c.522.523.815 1.231.815 1.97V9.31a.643.643 0 1 1-1.285 0V7.594a1.5 1.5 0 0 0-.44-1.06m-1.06-.44a1.5 1.5 0 0 1 1.06.44l-1.06-.44Z"/></g><defs><clipPath id="a"><path fill="#fff" transform="translate(4.357 4.596)" d="M0 0h10.286v10.286H0z"/></clipPath></defs></svg>