<svg width="23" height="24" fill="none" xmlns="http://www.w3.org/2000/svg"><rect x=".127" y=".773" width="22.492" height="22.489" rx="11.245" fill="#fff"/><rect x=".448" y="1.094" width="21.849" height="21.846" rx="10.923" stroke="#000" stroke-opacity=".15" stroke-width=".643"/><path d="m11.458 4.258.177.008.18.023.17.037.16.063.153.074.153.098.144.106.133.124.126.144.102.146.092.15.08.163.056.17.044.171.027.177.01.18-.01.185-.027.18-.044.18-.056.159-.07.162-.102.154-.102.143-.126.14-.133.128-.144.107-.153.1-.154.07-.159.064-.17.045-.18.027h-.359l-.176-.027-.17-.045-.165-.065-.158-.07-.146-.099-.141-.107-.137-.128-.125-.14-.104-.143-.09-.154-.074-.162-.064-.159-.041-.18-.018-.18-.01-.185.01-.18.018-.177.04-.17.059-.171.08-.151.09-.155.104-.153.12-.132.142-.126.141-.116.146-.09.159-.082.163-.053.171-.047.176-.023.182-.008ZM7.972 18.258h-.508l-.224-.01-.252-.035-.25-.056-.207-.07-.178-.078-.09-.058-.196-.135-.198-.169-.08-.088-.096-.135-.09-.163-.072-.16-.065-.15v-.029l-.044-.141-.017-.297-.01-.59-.006-.53h9.084v-.624H5.39l-.01-4.297v-.066l.026-.33.026-.186.044-.127.02-.043.079-.189.081-.143.134-.187.109-.135.044-.035.216-.181.135-.082.142-.062.115-.053.278-.088.304-.054.135-.02H15.388l.177.027.179.047.215.071.276.116.093.043.06.038.17.106.162.11.045.035.186.179.075.09.06.088.065.105.126.261.027.119.043.276.02.296v1.03H8.304v.669h9.061v2.17l-.008 2.208-.02.137-.034.124-.064.187-.09.222-.043.083-.066.1-.08.114-.118.134-.131.138-.107.086-.102.071-.024.01-.107.062-.233.11-.216.07-.088.025-.163.03-.206.009H7.972Z" fill="#E60005"/></svg>