<svg width="19" height="19" fill="none" xmlns="http://www.w3.org/2000/svg"><path d="M9.746 18.7c4.983 0 9.096-4.114 9.096-9.089 0-4.974-4.122-9.088-9.105-9.088-4.975 0-9.08 4.114-9.08 9.088 0 4.975 4.114 9.088 9.089 9.088Zm0-1.811a7.243 7.243 0 0 1-7.26-7.278 7.234 7.234 0 0 1 7.25-7.268 7.264 7.264 0 0 1 7.287 7.268 7.253 7.253 0 0 1-7.277 7.278Zm-.01-5.819c.484 0 .765-.272.774-.782l.132-4.227c.018-.519-.37-.897-.914-.897-.545 0-.923.37-.905.888l.123 4.236c.017.501.299.782.79.782Zm0 2.918c.572 0 1.038-.413 1.038-.975 0-.554-.457-.967-1.037-.967-.571 0-1.037.413-1.037.967 0 .553.474.975 1.037.975Z" fill="#9E9E9E"/></svg>