<svg width="17" height="17" fill="none" xmlns="http://www.w3.org/2000/svg"><g clip-path="url(#a)"><mask id="b" style="mask-type:luminance" maskUnits="userSpaceOnUse" x="0" y="0" width="17" height="17"><path d="M16.5.5H.5v16h16V.5Z" fill="#fff"/></mask><g mask="url(#b)"><path d="M8.5 12.657c4.118 0 6.896-3.32 6.896-4.35 0-1.03-2.783-4.344-6.896-4.344-4.058 0-6.9 3.315-6.9 4.344 0 1.03 2.837 4.35 6.9 4.35Zm0-.964c-3.21 0-5.76-2.682-5.76-3.386 0-.587 2.55-3.38 5.76-3.38 3.204 0 5.76 2.793 5.76 3.38 0 .704-2.556 3.386-5.76 3.386Zm0-.678a2.716 2.716 0 0 0 2.712-2.708A2.69 2.69 0 0 0 8.5 5.605c-1.512 0-2.722 1.19-2.717 2.702A2.723 2.723 0 0 0 8.5 11.014Zm0-1.834a.88.88 0 0 1-.884-.874.88.88 0 0 1 .884-.873c.487 0 .879.391.879.873a.876.876 0 0 1-.879.874Z" fill="#000"/></g></g><defs><clipPath id="a"><path fill="#fff" transform="translate(.5 .5)" d="M0 0h16v16H0z"/></clipPath></defs></svg>