<svg xmlns="http://www.w3.org/2000/svg" width="75" height="10" fill="none"><path d="m5.41.555.281.035a4.464 4.464 0 0 1 2.555 1.205 4.303 4.303 0 0 1 1.3 2.285 4.354 4.354 0 0 1-.84 3.719 4.308 4.308 0 0 1-2.641 1.647 4.467 4.467 0 0 1-2.23-.07 4.44 4.44 0 0 1-1.913-1.139 4.216 4.216 0 0 1-1.285-2.49 4.36 4.36 0 0 1 1.19-3.79A4.444 4.444 0 0 1 4.417.607c.122-.02.246-.027.37-.04L4.83.554h.58ZM1.126 5.063a3.984 3.984 0 0 0 1.185 2.769 4.046 4.046 0 0 0 2.794 1.166 4.048 4.048 0 0 0 2.823-1.096 3.986 3.986 0 0 0 1.255-2.738v-.07a3.981 3.981 0 0 0-1.141-2.842 4.044 4.044 0 0 0-2.833-1.209 4.046 4.046 0 0 0-2.864 1.133 3.983 3.983 0 0 0-1.219 2.81c.002.026 0 .053 0 .077Z" fill="#010101"/><path d="M8.016 5.114a2.783 2.783 0 0 1-.828 1.98 2.826 2.826 0 0 1-1.998.82H5.17a2.843 2.843 0 0 1-1.998-.828 2.8 2.8 0 0 1-.82-1.988V5.08A2.797 2.797 0 0 1 3.19 3.1a2.841 2.841 0 0 1 4.002.02c.528.53.822 1.245.818 1.99l.006.004Z" fill="#010101"/><path d="m46 2.126-.5.379c-.261-.42-.927-.736-1.442-.736-1.364 0-2.307 1.067-2.307 2.416 0 1.35.951 2.414 2.307 2.414a1.818 1.818 0 0 0 1.61-.836l.467.331a2.506 2.506 0 0 1-2.077 1.026 2.899 2.899 0 0 1-2.091-.844 2.853 2.853 0 0 1-.835-2.08 2.841 2.841 0 0 1 .827-2.098 2.886 2.886 0 0 1 2.099-.855 2.45 2.45 0 0 1 1.941.883ZM46.904 6.972V1.007h.522V3.87h.018a1.47 1.47 0 0 1 1.244-.687c.92 0 1.395.52 1.395 1.412v2.377h-.523V4.889c0-.852-.279-1.232-.982-1.232-.562 0-1.15.435-1.15 1.43v1.885h-.524ZM54.768 5.11v.158h-3.093c.078.78.658 1.326 1.364 1.326a1.416 1.416 0 0 0 1.19-.64l.405.331a1.962 1.962 0 0 1-1.593.78 1.9 1.9 0 0 1-1.384-.564 1.871 1.871 0 0 1-.534-1.385c0-1.104.823-1.95 1.863-1.95 1.006.02 1.782.704 1.782 1.944Zm-1.769-1.453c-.635 0-1.285.53-1.3 1.184h2.505a1.109 1.109 0 0 0-.334-.866 1.127 1.127 0 0 0-.877-.318H53ZM58.851 3.823l-.428.323a1.129 1.129 0 0 0-.943-.49c-.824 0-1.376.61-1.376 1.47s.54 1.467 1.356 1.467a1.153 1.153 0 0 0 .967-.489l.428.324a1.79 1.79 0 0 1-1.403.64c-1.126 0-1.918-.806-1.918-1.95 0-1.145.786-1.95 1.934-1.95a1.814 1.814 0 0 1 1.383.655ZM59.535 1.007h.523v3.937l1.759-1.66h.786l-1.848 1.69 2.046 2.004h-.81l-1.927-1.939v1.94h-.529V1.008ZM67.113 5.125c0 .519-.208 1.016-.577 1.382a1.978 1.978 0 0 1-2.786 0 1.947 1.947 0 0 1 0-2.764 1.978 1.978 0 0 1 2.786 0c.369.367.577.864.577 1.382Zm-1.966 1.468c.84 0 1.404-.624 1.404-1.468s-.557-1.468-1.411-1.468c-.81 0-1.388.608-1.388 1.468S64.33 6.6 65.14 6.6l.007-.006ZM68.064 3.285h.524v2.078c0 .844.293 1.23.999 1.23.59 0 1.134-.497 1.134-1.388v-1.92h.522V6.19c0 .072.032.704.04.78h-.547c-.015-.1-.023-.2-.023-.3V6.38h-.016a1.503 1.503 0 0 1-1.246.686c-.959 0-1.395-.561-1.395-1.413l.008-2.37ZM72.014 3.752v-.468h.786V2.237h.522v1.047h1.071v.468h-1.07v2.21c0 .401.127.631.54.631.188-.004.373-.052.538-.142l.024.482c-.224.09-.464.136-.706.134-.58 0-.92-.355-.92-.955v-2.36h-.785Z" fill="#000"/><path d="M39.279 3.363a.797.797 0 0 1-.087.13.33.33 0 0 1-.267.076 1.26 1.26 0 0 0-1.12.55c-.18.242-.277.534-.279.835v1.774a.26.26 0 0 1-.172.272.265.265 0 0 1-.115.015.283.283 0 0 1-.265-.108.295.295 0 0 1-.051-.154V3.28a.255.255 0 0 1 .25-.258h.105a.255.255 0 0 1 .233.165.249.249 0 0 1 .015.099v.661l.035-.055a1.72 1.72 0 0 1 .786-.73 1.46 1.46 0 0 1 .663-.126.267.267 0 0 1 .24.172l.017.039.012.117ZM12.245 3.823c.122-.166.265-.315.426-.443a1.644 1.644 0 0 1 2.174.129c.364.355.583.83.617 1.335a2.083 2.083 0 0 1-.47 1.549 1.679 1.679 0 0 1-1.716.588 1.6 1.6 0 0 1-.614-.312 1.782 1.782 0 0 1-.22-.194c-.067-.07-.126-.15-.197-.233V8.116a.3.3 0 0 1-.242.316.304.304 0 0 1-.36-.226.241.241 0 0 1 0-.062V3.316a.302.302 0 0 1 .286-.26.306.306 0 0 1 .312.228v.488l.004.05Zm2.633 1.197a1.583 1.583 0 0 0-.475-1.14 1.205 1.205 0 0 0-1.584-.104 1.501 1.501 0 0 0-.59 1.17 1.55 1.55 0 0 0 .42 1.183 1.208 1.208 0 0 0 .903.401 1.216 1.216 0 0 0 .902-.4c.28-.303.432-.7.424-1.11ZM33.022 5.264c.023.143.069.282.136.411a1.338 1.338 0 0 0 .927.73c.295.054.6.028.88-.077.175-.051.335-.145.464-.273a.218.218 0 0 1 .254-.062.264.264 0 0 1 .157.335.252.252 0 0 1-.065.098c-.214.21-.478.362-.768.442a2.282 2.282 0 0 1-1.012.094 1.818 1.818 0 0 1-1.002-.478 1.95 1.95 0 0 1-.65-1.56c0-.337.091-.668.261-.96.17-.291.415-.534.709-.703a1.87 1.87 0 0 1 2.277.279 2.018 2.018 0 0 1 .61 1.492.242.242 0 0 1-.24.234h-2.938v-.002Zm2.625-.49a1.553 1.553 0 0 0-.23-.63 1.249 1.249 0 0 0-1.409-.55 1.359 1.359 0 0 0-.925.898c-.033.09-.051.185-.077.282h2.641ZM25.038 5.264c.043.273.168.527.357.73.19.203.435.346.706.41.262.05.532.033.786-.046.195-.048.375-.14.527-.271l.03-.03a.212.212 0 0 1 .237-.07.263.263 0 0 1 .187.226.26.26 0 0 1-.01.102.253.253 0 0 1-.071.115 1.772 1.772 0 0 1-.723.425 2.203 2.203 0 0 1-1.146.091 1.89 1.89 0 0 1-1.322-.992 2.018 2.018 0 0 1 .237-2.28 1.814 1.814 0 0 1 1.508-.678 1.866 1.866 0 0 1 1.572.926c.2.32.304.689.298 1.065a.238.238 0 0 1-.167.261.336.336 0 0 1-.1.014h-2.906v.002Zm2.623-.49V4.75a1.505 1.505 0 0 0-.297-.7 1.21 1.21 0 0 0-1.179-.49 1.399 1.399 0 0 0-.787.413 1.38 1.38 0 0 0-.376.802h2.64ZM19.278 3.825V3.33a.302.302 0 0 1 .296-.31.307.307 0 0 1 .287.178.3.3 0 0 1 .026.115v3.389a.3.3 0 0 1-.188.279.307.307 0 0 1-.398-.164.3.3 0 0 1-.023-.115v-.459c-.012.018-.025.034-.04.051-.226.33-.561.572-.948.683a1.604 1.604 0 0 1-1.565-.379 1.975 1.975 0 0 1-.64-1.17c-.09-.47-.02-.956.196-1.384.197-.417.549-.742.983-.905a1.601 1.601 0 0 1 1.627.295c.137.105.258.229.36.368l.017.024.01-.002Zm.028 1.214a1.602 1.602 0 0 0-.468-1.138 1.21 1.21 0 0 0-1.69-.035c-.286.26-.462.62-.493 1.004a1.583 1.583 0 0 0 .393 1.252 1.21 1.21 0 0 0 .886.426 1.218 1.218 0 0 0 .912-.368 1.6 1.6 0 0 0 .46-1.14ZM22.279 5.897l.15-.325 1.066-2.354a.306.306 0 0 1 .293-.195.303.303 0 0 1 .273.417 4419.906 4419.906 0 0 1-2.14 4.727.321.321 0 0 1-.393.189.305.305 0 0 1-.207-.25.301.301 0 0 1 .026-.165c.116-.26.236-.519.354-.78l.226-.497a.094.094 0 0 0 0-.086l-1.42-3.12a.302.302 0 0 1 .118-.378.309.309 0 0 1 .394.058.444.444 0 0 1 .038.067c.141.308.281.616.42.926l.786 1.72c-.002.011.006.023.016.046ZM30.312 5.895c.079-.17.153-.333.226-.497l.994-2.188a.303.303 0 0 1 .393-.167.298.298 0 0 1 .181.195c.02.07.012.145-.021.21l-1.476 3.253a.308.308 0 0 1-.3.206.318.318 0 0 1-.303-.195c-.49-1.081-.978-2.159-1.466-3.232a.302.302 0 0 1 .132-.425.308.308 0 0 1 .418.16l.483 1.062.718 1.583.021.035Z" fill="#010101"/></svg>