<svg width="20" height="21" fill="none" xmlns="http://www.w3.org/2000/svg"><path d="M9.994 16.744c3.56 0 6.497-2.938 6.497-6.49 0-3.554-2.944-6.492-6.504-6.492-3.553 0-6.485 2.938-6.485 6.491 0 3.553 2.938 6.491 6.492 6.491ZM6.214 6.317A5.58 5.58 0 0 1 8.45 5.005c-.445.445-.822 1.08-1.105 1.845a4.196 4.196 0 0 1-1.13-.533Zm5.33-1.306c.848.257 1.607.71 2.229 1.312-.308.214-.684.39-1.124.534-.282-.772-.659-1.4-1.105-1.846Zm-3.327 2.06c.345-.924.816-1.602 1.337-1.847v1.984a9.617 9.617 0 0 1-1.337-.138Zm2.216-1.847c.521.245.998.923 1.337 1.846-.408.076-.86.12-1.337.138V5.224Zm-5.895 4.59A5.408 5.408 0 0 1 5.637 6.97c.377.282.873.527 1.45.71a10.549 10.549 0 0 0-.295 2.134H4.538Zm8.657 0a10.13 10.13 0 0 0-.295-2.135c.578-.182 1.074-.427 1.45-.71a5.408 5.408 0 0 1 1.1 2.845h-2.255Zm-2.762 0V8.087a9.745 9.745 0 0 0 1.595-.182c.144.584.245 1.23.27 1.909h-1.865Zm-2.743 0a9.916 9.916 0 0 1 .27-1.909c.502.1 1.036.163 1.594.182v1.727H7.69Zm-3.152.879h2.254c.025.778.132 1.506.301 2.165-.57.182-1.067.421-1.444.697a5.432 5.432 0 0 1-1.11-2.862Zm3.152 0h1.864v1.757a9.748 9.748 0 0 0-1.588.182 9.826 9.826 0 0 1-.276-1.94Zm2.743 1.757v-1.757h1.871a9.817 9.817 0 0 1-.283 1.94 9.669 9.669 0 0 0-1.588-.183Zm2.467.408c.164-.659.27-1.387.302-2.165h2.247a5.431 5.431 0 0 1-1.111 2.862c-.377-.276-.866-.514-1.438-.697Zm-2.467.471c.477.02.917.063 1.331.138-.339.904-.81 1.576-1.33 1.82V13.33Zm-2.203.138a9.43 9.43 0 0 1 1.324-.138v1.959c-.515-.245-.985-.917-1.324-1.82Zm-1.997.735a4.39 4.39 0 0 1 1.118-.521c.276.753.653 1.375 1.086 1.814a5.467 5.467 0 0 1-2.204-1.293Zm6.41-.521c.433.138.81.314 1.117.52a5.533 5.533 0 0 1-2.21 1.294c.44-.44.81-1.06 1.093-1.814Z" fill="#000"/></svg>