<svg xmlns="http://www.w3.org/2000/svg" width="13" height="13" fill="none"><path d="M6.455 12.03c3.183 0 5.819-2.631 5.819-5.819 0-3.182-2.636-5.818-5.824-5.818C3.266.393.636 3.029.636 6.21c0 3.188 2.636 5.818 5.818 5.818Zm0-.902c-2.427 0-4.483-1.82-4.855-4.157.034.006.062.006.096.006.602 0 1.002-.513 1.002-1.295 0-.248.045-.322.209-.4l.36-.17c.192-.095.366-.022.485.141l.67.98c.62.896 1.25 1.262 1.83 1.262.558 0 .935-.355.935-.901a.915.915 0 0 0-.428-.772c-.169-.118-.118-.253.034-.253 1.374 0 2.101-.496 2.101-1.493 0-1.318-1.115-1.391-1.115-1.729 0-.203.253-.315.428-.72 1.836.714 3.165 2.511 3.165 4.584 0 .518-.084 1.02-.236 1.493-.293-.243-.53-.344-.806-.344-.214 0-.332.056-.45.096-.119.034-.175-.017-.192-.119-.056-.41-.315-.574-.732-.574h-.293c-.344 0-.62.18-.828.501l-.09.141c-.14.22-.265.4-.389.518-.118.107-.208.158-.439.231l-.26.08c-.393.123-.512.467-.405.85l.27.952c.102.349.31.529.648.529.147 0 .327-.056.513-.146l.085-.04a.717.717 0 0 1 .32-.084c.22 0 .367.107.536.32a4.841 4.841 0 0 1-2.169.513Z" fill="#9E9E9E"/></svg>