<svg width="24" height="24" fill="none" xmlns="http://www.w3.org/2000/svg"><rect x=".784" y=".977" width="22.485" height="22.492" rx="11.242" fill="#0066B3"/><path d="M2.927 12.238v.857h-.4v-1.911h.4v.724h.745v-.724h.4v1.912h-.4v-.858h-.745ZM5.556 12.818c0 .168.037.206.083.222v.055h-.403a.624.624 0 0 1-.034-.167.577.577 0 0 1-.459.205c-.213 0-.431-.12-.431-.413 0-.277.176-.419.413-.453l.335-.05c.059-.009.13-.033.13-.113 0-.157-.148-.165-.244-.165-.187 0-.219.115-.23.197h-.359c.043-.434.344-.495.634-.495.2 0 .565.06.565.41v.767Zm-.365-.413c-.037.03-.099.054-.253.078-.139.024-.253.058-.253.213 0 .13.101.17.173.17.165 0 .333-.106.333-.28v-.18ZM7.143 13.095H6.77v-.86c0-.104-.006-.28-.243-.28-.165 0-.293.112-.293.328v.812h-.373v-1.417h.357v.208h.006a.456.456 0 0 1 .426-.245c.277 0 .493.162.493.474v.98ZM8.755 13.095H8.39v-.178h-.005c-.09.16-.255.216-.41.216-.42 0-.596-.373-.596-.762 0-.49.277-.73.588-.73.24 0 .352.131.41.222h.006v-.68h.372v1.912Zm-.687-.269c.237 0 .33-.197.33-.407 0-.226-.063-.455-.32-.455-.236 0-.316.21-.316.434 0 .168.067.428.306.428ZM10.28 12.68c-.099.34-.381.453-.624.453-.4 0-.706-.192-.706-.776 0-.17.059-.716.68-.716.28 0 .666.133.666.78v.067h-.973c.01.107.032.346.333.346.104 0 .21-.053.24-.154h.384Zm-.368-.435c-.021-.229-.168-.298-.288-.298-.176 0-.269.112-.29.298h.578ZM10.9 13.095h-.374v-1.911h.373v1.912ZM12.032 12.11c-.016-.091-.048-.187-.25-.187-.203 0-.23.077-.23.139 0 .223.887.06.887.583 0 .413-.4.488-.62.488-.323 0-.672-.112-.683-.49h.384c0 .12.075.207.31.207.191 0 .236-.093.236-.146 0-.237-.879-.059-.879-.59 0-.207.13-.473.573-.473.277 0 .607.069.637.469h-.365ZM13.045 11.863h.005a.455.455 0 0 1 .41-.221c.312 0 .59.24.59.73 0 .388-.177.76-.597.76-.155 0-.32-.055-.41-.215h-.006v.178h-.365v-1.911h.373v.679Zm.304.1c-.256 0-.32.23-.32.456 0 .21.093.407.33.407.24 0 .307-.26.307-.428 0-.224-.08-.434-.317-.434ZM15.432 12.818c0 .168.037.206.083.222v.055h-.402a.624.624 0 0 1-.035-.167.577.577 0 0 1-.458.205c-.214 0-.432-.12-.432-.413 0-.277.176-.419.413-.453l.336-.05c.058-.009.13-.033.13-.113 0-.157-.149-.165-.245-.165-.186 0-.218.115-.23.197h-.359c.043-.434.344-.495.634-.495.2 0 .565.06.565.41v.767Zm-.365-.413c-.037.03-.098.054-.253.078-.139.024-.253.058-.253.213 0 .13.101.17.173.17.165 0 .333-.106.333-.28v-.18ZM17.018 13.095h-.373v-.86c0-.104-.005-.28-.242-.28-.165 0-.293.112-.293.328v.812h-.373v-1.417h.357v.208h.005a.456.456 0 0 1 .426-.245c.277 0 .493.162.493.474v.98ZM17.72 13.095h-.372v-1.911h.373v1.033l.468-.538h.458l-.5.548.514.868h-.448l-.338-.607-.154.16v.447ZM20.009 12.68c-.099.34-.381.453-.624.453-.4 0-.706-.192-.706-.776 0-.17.059-.716.68-.716.28 0 .666.133.666.78v.067h-.973c.011.107.032.346.333.346.104 0 .21-.053.24-.154h.384Zm-.368-.435c-.021-.229-.168-.298-.288-.298-.175 0-.269.112-.29.298h.578ZM21.527 13.095h-.373v-.86c0-.104-.006-.28-.243-.28-.165 0-.293.112-.293.328v.812h-.373v-1.417h.357v.208h.006a.456.456 0 0 1 .426-.245c.277 0 .493.162.493.474v.98Z" fill="#fff"/></svg>