<svg width="54" height="13" fill="none" xmlns="http://www.w3.org/2000/svg"><path d="M23.905 6.116 18.05.088V12.13l5.856-6.014ZM12.192 6.116 18.05.088H6.336l5.856 6.028Z" fill="#DB0011"/><path d="m.467 6.116 5.87 6.014V.088L.467 6.116Z" fill="#DB0011"/><path d="M12.192 6.116 6.336 12.13h11.713l-5.857-6.014Z" fill="#DB0011"/><path d="M31.497 6.638h-3.054V9.73h-1.527V2.488h1.527v2.97h3.054v-2.97h1.527V9.73h-1.527V6.638ZM36.712 9.872c-1.527 0-2.776-.63-2.796-2.36h1.527c.02.773.456 1.241 1.289 1.241.615 0 1.328-.325 1.328-1.037 0-.57-.475-.732-1.269-.976l-.515-.143c-1.11-.325-2.221-.773-2.221-2.075 0-1.607 1.467-2.156 2.796-2.156 1.368 0 2.558.488 2.578 2.095h-1.527c-.06-.65-.436-1.037-1.15-1.037-.575 0-1.13.305-1.13.956 0 .529.475.692 1.467 1.017l.595.183c1.21.387 1.983.814 1.983 2.034-.02 1.627-1.567 2.258-2.955 2.258ZM40.52 2.509h2.458c.457-.02.932 0 1.389.08.852.204 1.507.774 1.507 1.75 0 .936-.575 1.404-1.408 1.628.952.183 1.665.67 1.665 1.749 0 1.647-1.586 2.014-2.815 2.014h-2.777l-.02-7.221Zm2.458 3.01c.675 0 1.369-.142 1.369-.976 0-.753-.635-.956-1.27-.956h-1.07v1.932h.971Zm.14 3.133c.713 0 1.407-.163 1.407-1.058s-.595-1.058-1.328-1.058h-1.21v2.116h1.13ZM50.096 9.872c-2.28 0-3.291-1.485-3.291-3.702 0-2.217 1.13-3.824 3.37-3.824 1.409 0 2.777.65 2.817 2.278h-1.587c-.08-.732-.555-1.099-1.23-1.099-1.387 0-1.804 1.526-1.804 2.685 0 1.16.417 2.502 1.745 2.502.694 0 1.21-.386 1.31-1.118h1.585c-.158 1.668-1.447 2.278-2.915 2.278Z" fill="#000"/></svg>