<svg width="17" height="16" fill="none" xmlns="http://www.w3.org/2000/svg"><path d="M.182 1.214V13.99c0 .611.494 1.112 1.099 1.112h7.543c5.704 0 8.176-3.23 8.176-7.517C17 3.32 14.528.102 8.824.102H1.281c-.605 0-1.1.5-1.1 1.111Z" fill="#fff"/><path d="M5.191 3.237v9.442h4.061c3.687 0 5.286-2.108 5.286-5.088 0-2.853-1.599-5.066-5.286-5.066H5.895a.709.709 0 0 0-.704.712Z" fill="#C06"/><path d="M8.817 14.092h-6.56a1.061 1.061 0 0 1-1.055-1.067V2.2c0-.59.473-1.067 1.055-1.067h6.56c6.225 0 7.154 4.053 7.154 6.466 0 4.186-2.544 6.493-7.154 6.493ZM2.257 1.49a.705.705 0 0 0-.703.711v10.825c0 .395.313.712.703.712h6.56c4.385 0 6.802-2.18 6.802-6.138 0-5.315-4.263-6.11-6.802-6.11h-6.56Z" fill="#000"/><path d="M6.617 6.314c.143 0 .275.022.402.067a.9.9 0 0 1 .324.206c.088.094.16.21.214.344a1.693 1.693 0 0 1 .016.945 1.069 1.069 0 0 1-.186.362.909.909 0 0 1-.314.24 1.096 1.096 0 0 1-.445.088h-.961V6.31h.95v.005Zm-.033 1.84a.683.683 0 0 0 .21-.033.41.41 0 0 0 .175-.116.65.65 0 0 0 .126-.212.891.891 0 0 0 .05-.317c0-.11-.011-.217-.033-.306a.611.611 0 0 0-.11-.233.496.496 0 0 0-.198-.15.8.8 0 0 0-.302-.05H6.15V8.16h.434v-.005ZM9.596 6.314v.417H8.42v.484h1.082v.384H8.42v.55h1.203v.417H7.931V6.31h1.665v.005ZM11.347 6.313l.835 2.257h-.511l-.17-.5h-.836l-.176.5h-.494l.84-2.258h.512Zm.027 1.384-.28-.828h-.006l-.29.828h.576ZM12.932 6.313v1.84h1.088v.417h-1.577V6.312h.49Z" fill="#fff"/><path d="M3.42 8.48c.568 0 1.028-.466 1.028-1.04 0-.574-.46-1.04-1.027-1.04-.568 0-1.028.466-1.028 1.04 0 .574.46 1.04 1.028 1.04ZM4.175 12.674a1.563 1.563 0 0 1-1.555-1.573V9.87c0-.433.346-.789.78-.789.429 0 .78.35.78.79v2.802h-.005Z" fill="#000"/></svg>