<svg width="25" height="25" fill="none" xmlns="http://www.w3.org/2000/svg"><g clip-path="url(#a)"><rect x=".5" y=".738" width="24" height="24" rx="12" fill="#1D1D1F"/></g><path d="M14.058 5.81a2.192 2.192 0 0 0-1.559-.646c-.588 0-1.143.23-1.558.645l-5.37 5.37a2.208 2.208 0 0 0 0 3.117l5.37 5.37a2.196 2.196 0 0 0 1.558.645c.589 0 1.143-.23 1.56-.646l5.369-5.369c.416-.416.645-.97.645-1.559 0-.588-.23-1.143-.645-1.558l-5.37-5.37Zm-2.802 13.54-5.37-5.37a1.758 1.758 0 0 1 0-2.486l.519-.518 5 8.503a1.144 1.144 0 0 1-.149-.13ZM6.73 10.65l4.526-4.526A1.747 1.747 0 0 1 12.5 5.61c.47 0 .912.182 1.243.516L16.46 8.84l-4.788 1.264c-.57.15-1.047.513-1.343 1.022a2.186 2.186 0 0 0-.227 1.673l1.718 6.512-5.09-8.66Zm12.384 3.33-5.372 5.368c-.28.28-.634.453-1.02.5v-5.133c0-.97.789-1.758 1.759-1.758h5.133a1.747 1.747 0 0 1-.5 1.022Zm-4.633-1.466a2.206 2.206 0 0 0-2.204 2.204v4.571l-1.743-6.605a1.746 1.746 0 0 1 .182-1.334 1.745 1.745 0 0 1 1.07-.816l5.033-1.326c.003 0 .005-.003.005-.003l2.288 2.288c.28.28.452.634.502 1.02h-5.133Z" fill="#FBFBFB"/><defs><clipPath id="a"><rect x=".5" y=".738" width="24" height="24" rx="12" fill="#fff"/></clipPath></defs></svg>