<svg width="41" height="16" fill="none" xmlns="http://www.w3.org/2000/svg"><g clip-path="url(#a)" fill="#000"><path d="M23.144 4.605h-1.805v7.512h1.805V4.605ZM29.122 8.406a.769.769 0 0 1-.723.493.771.771 0 0 1-.72-.486L26.04 4.605h-1.968l3.308 7.514h2.04l3.302-7.498.007-.016H30.76l-1.638 3.801ZM39.197 4.605v3.376h-.002c0 .731-.192 1.29-.57 1.674-.382.385-.895.576-1.54.576-.577 0-1.023-.166-1.334-.5-.312-.333-.47-.832-.47-1.498V4.605h-1.806V8.46c0 1.107.296 1.938.89 2.489.59.553 1.402.83 2.432.83.483 0 .929-.08 1.345-.245.099-.038.194-.083.286-.13l-.002.002a.504.504 0 0 1 .21-.045c.273 0 .494.216.494.481a.44.44 0 0 1-.023.144c-.087.374-.245.673-.469.9-.37.372-.951.556-1.74.556-.52 0-1.016-.079-1.487-.238a3.69 3.69 0 0 1-1.2-.649l-.808 1.324c.414.346.94.612 1.583.794.64.182 1.312.274 2.014.274 2.669 0 4.002-1.323 4.002-3.967V4.605h-1.805ZM10.084 1.502A2.259 2.259 0 0 0 8.499.863c-.598 0-1.162.228-1.585.64L1.455 6.82a2.147 2.147 0 0 0 0 3.087l5.46 5.317a2.247 2.247 0 0 0 1.584.64c.598 0 1.162-.228 1.585-.64l5.459-5.317a2.142 2.142 0 0 0 0-3.087l-5.46-5.318Zm-2.849 13.41L1.776 9.593a1.71 1.71 0 0 1 0-2.462l.527-.513 5.082 8.42a1.144 1.144 0 0 1-.15-.128ZM2.633 6.297l4.602-4.483a1.8 1.8 0 0 1 1.264-.51c.478 0 .926.18 1.264.51l2.763 2.69-4.868 1.25a2.215 2.215 0 0 0-1.365 1.013 2.116 2.116 0 0 0-.231 1.656l1.746 6.45-5.175-8.576Zm12.591 3.296-5.461 5.317a1.782 1.782 0 0 1-1.038.495v-5.083c0-.96.802-1.741 1.789-1.741h5.219a1.713 1.713 0 0 1-.509 1.012Zm-4.71-1.451c-1.236 0-2.241.979-2.241 2.182v4.528L6.5 8.312a1.69 1.69 0 0 1 .184-1.321c.24-.403.627-.689 1.089-.808l5.117-1.314c.002 0 .005-.003.005-.003l2.326 2.266c.284.277.46.628.51 1.01h-5.218Z"/></g><defs><clipPath id="a"><path fill="#fff" transform="translate(.8 .863)" d="M0 0h40.2v15H0z"/></clipPath></defs></svg>