<svg xmlns="http://www.w3.org/2000/svg" width="23" height="18" viewBox="0 0 30 18"><path style="stroke:none;fill-rule:nonzero;fill:#000;fill-opacity:1" d="m22.023 14.434-5.804-5.45c-.43-.402-.946-.605-1.473-.605-.535 0-1.016.184-1.465.586L8.867 12.91l-1.805-1.629c-.414-.375-.863-.558-1.32-.558-.441 0-.86.175-1.262.547L.762 14.629c.058 1.77.781 2.664 2.238 2.664h16.363c1.77 0 2.66-.984 2.66-2.86ZM3.066 17.977h16.895c2.05 0 3.066-1.004 3.066-3.016V3.027C23.027 1.016 22.012 0 19.961 0H3.066C1.023 0 0 1.016 0 3.027v11.934c0 2.012 1.023 3.016 3.066 3.016Zm.02-1.57c-.977 0-1.512-.516-1.512-1.536V3.113c0-1.011.535-1.539 1.512-1.539H19.94c.965 0 1.516.528 1.516 1.54V14.87c0 1.02-.55 1.535-1.516 1.535Zm0 0"/><path style="stroke:none;fill-rule:nonzero;fill:#000;fill-opacity:1" d="M7.273 9.082A2.307 2.307 0 0 0 9.57 6.777c0-1.257-1.035-2.304-2.297-2.304A2.32 2.32 0 0 0 4.97 6.777c0 1.27 1.039 2.305 2.304 2.305Zm0 0"/></svg>