<svg width="30" height="19" fill="none" xmlns="http://www.w3.org/2000/svg"><path d="M18.96 2.32h-7.71v13.918h7.71V2.319Z" fill="#FF5F00"/><path d="M11.743 9.28a8.87 8.87 0 0 1 .884-3.87 8.83 8.83 0 0 1 2.481-3.09 8.776 8.776 0 0 0-9.296-1.002 8.825 8.825 0 0 0-3.618 3.265 8.881 8.881 0 0 0 0 9.393 8.826 8.826 0 0 0 3.618 3.265 8.777 8.777 0 0 0 9.296-1.003 8.83 8.83 0 0 1-2.481-3.09 8.87 8.87 0 0 1-.884-3.869Z" fill="#EB001B"/><path d="M29.366 9.28a8.88 8.88 0 0 1-1.343 4.695 8.824 8.824 0 0 1-3.618 3.266 8.776 8.776 0 0 1-9.296-1.003 8.846 8.846 0 0 0 2.48-3.09 8.886 8.886 0 0 0 0-7.737 8.846 8.846 0 0 0-2.48-3.09 8.776 8.776 0 0 1 9.296-1.002 8.825 8.825 0 0 1 3.618 3.264 8.881 8.881 0 0 1 1.343 4.696ZM28.52 14.765v-.285h.115v-.058h-.291v.058h.114v.285h.063Zm.566 0v-.344h-.09l-.102.237-.102-.237h-.09v.344h.063v-.26l.096.224h.066l.096-.224v.26h.063Z" fill="#F79E1B"/></svg>