<svg width="61" height="21" fill="none" xmlns="http://www.w3.org/2000/svg"><g clip-path="url(#a)"><path d="M7.316 20.382A1.63 1.63 0 0 1 5.81 19.34L.195 5.255c-.344-.861.05-1.85.88-2.206L6.956.518a1.57 1.57 0 0 1 1.245 0c.398.171.715.5.88.914l5.617 14.084c.343.862-.051 1.849-.88 2.206l-5.883 2.532a1.567 1.567 0 0 1-.62.128ZM7.58 1.298a.725.725 0 0 0-.287.06l-5.884 2.53a.766.766 0 0 0-.406.423.807.807 0 0 0 0 .596L6.62 18.992a.742.742 0 0 0 .98.422l5.884-2.533c.184-.079.33-.23.406-.422a.808.808 0 0 0 0-.596L8.273 1.78a.752.752 0 0 0-.693-.482Z" fill="#5A78FF"/><path style="mix-blend-mode:multiply" opacity=".7" d="m9.45 2.36-.81.348 2.224 5.576.81-.348L9.448 2.36Z" fill="url(#b)"/><path style="mix-blend-mode:multiply" opacity=".7" d="m13.52 14.926.808-.348-2.517-6.312-.81.348 2.518 6.312Z" fill="url(#c)"/><path d="M12.496 10.742c-1.683.725-3.087 1.724-4.007 2.928L6.117 7.72a10.025 10.025 0 0 1 4.007-2.927c1.683-.725 3.383-1.075 4.827-.87l2.372 5.948a9.682 9.682 0 0 0-4.827.871Z" fill="#5A78FF"/><g style="mix-blend-mode:multiply" opacity=".4"><path opacity=".9" d="M12.496 10.742c-1.683.725-3.087 1.724-4.007 2.928L6.117 7.72a10.025 10.025 0 0 1 4.007-2.927c1.683-.725 3.383-1.075 4.827-.87l2.372 5.948a9.682 9.682 0 0 0-4.827.871Z" fill="url(#d)"/><path opacity=".7" d="M12.496 10.742c-1.683.725-3.087 1.724-4.007 2.928L6.117 7.72a10.025 10.025 0 0 1 4.007-2.927c1.683-.725 3.383-1.075 4.827-.87l2.372 5.948a9.682 9.682 0 0 0-4.827.871Z" fill="url(#e)"/></g><path d="M13.265 12.556c-1.821 0-3.489.365-4.78 1.111V7.652a9.707 9.707 0 0 1 4.78-1.111c1.821 0 3.52.35 4.78 1.113v6.015a9.703 9.703 0 0 0-4.78-1.113Zm9.303.005 1.474-4.837a.155.155 0 0 1 .137-.122h.74c.066.01.121.056.144.122l1.147 3.052c.023.06.081.066.1 0l1.14-3.052a.183.183 0 0 1 .145-.122h.74a.155.155 0 0 1 .136.122l1.456 4.837a.12.12 0 0 1-.008.115.11.11 0 0 1-.1.05h-.88a.13.13 0 0 1-.13-.104l-.935-3.142c-.014-.06-.081-.06-.1 0l-1.117 3.119a.166.166 0 0 1-.16.127h-.515c-.081 0-.123-.046-.154-.127L24.689 9.48c-.022-.06-.08-.06-.095 0l-.957 3.142a.132.132 0 0 1-.136.104h-.838a.108.108 0 0 1-.091-.055.117.117 0 0 1-.003-.11Zm7.639-1.739c-.016-.824.45-1.576 1.178-1.903a1.9 1.9 0 0 1 2.142.413c.567.577.741 1.453.441 2.216-.3.764-1.014 1.262-1.808 1.262a1.851 1.851 0 0 1-1.387-.56 2.001 2.001 0 0 1-.566-1.428Zm2.902 0c-.035-.542-.481-.955-1.004-.93-.522.027-.928.482-.913 1.025.014.543.445.974.968.969.543-.024.965-.5.943-1.064h.006Zm2.724 1.591c-.073-.06-.137-.037-.137.067v.099a.14.14 0 0 1-.131.142h-.681a.145.145 0 0 1-.137-.142V7.74a.145.145 0 0 1 .137-.142h.717a.14.14 0 0 1 .131.142v1.38c0 .098.064.127.168.052.274-.214.608-.33.951-.33.994 0 1.756.869 1.756 1.988a1.945 1.945 0 0 1-.49 1.384 1.802 1.802 0 0 1-1.296.604 1.455 1.455 0 0 1-.988-.406Zm1.786-1.582a1.009 1.009 0 0 0-.456-.927.93.93 0 0 0-1.002 0 1.009 1.009 0 0 0-.457.927c-.01.27.086.534.265.73.179.197.426.31.687.316a.969.969 0 0 0 .693-.319c.18-.198.278-.463.27-.736v.009Zm1.588-2.878c0-.32.25-.58.558-.58a.57.57 0 0 1 .558.58c0 .32-.25.58-.558.58a.57.57 0 0 1-.558-.58Zm.05 4.637V9.083a.14.14 0 0 1 .131-.142h.717a.14.14 0 0 1 .103.04.15.15 0 0 1 .045.102v3.496a.145.145 0 0 1-.137.142h-.728a.14.14 0 0 1-.131-.142v.011Zm1.794-1.148V7.741a.14.14 0 0 1 .131-.142h.718a.145.145 0 0 1 .136.142v3.725c0 .24.1.4.355.4.036 0 .07.014.096.041.026.027.04.063.04.1v.618a.14.14 0 0 1-.136.136c-.955 0-1.34-.324-1.34-1.319Zm1.744-.597c.003-.7.365-1.345.95-1.693a1.826 1.826 0 0 1 1.886.007c.583.352.94 1 .938 1.7 0 .137-.037.25-.168.25h-2.495c-.064 0-.086.038-.08.099.061.454.452.78.892.745a.874.874 0 0 0 .69-.325.276.276 0 0 1 .231-.122h.667c.117 0 .168.084.123.203-.391.829-1.28 1.268-2.146 1.06-.866-.207-1.48-1.007-1.482-1.93l-.006.006Zm2.649-.348c.05 0 .072-.023.064-.084a.846.846 0 0 0-.837-.707.867.867 0 0 0-.837.687c-.014.052 0 .104.058.104h1.552Zm1.727 2.082V7.74a.14.14 0 0 1 .131-.142h2.286c1.044 0 1.755.632 1.755 1.696 0 1.063-.806 1.718-1.805 1.718h-1.211a.117.117 0 0 0-.1.038.127.127 0 0 0-.031.104v1.424a.145.145 0 0 1-.137.142h-.754a.14.14 0 0 1-.134-.142Zm2.367-2.441c.432-.014.773-.388.762-.838a.79.79 0 0 0-.217-.57.73.73 0 0 0-.548-.227h-1.22c-.086 0-.122.047-.122.136v1.372c0 .09.036.136.122.136l1.223-.009Zm2.157.684a1.96 1.96 0 0 1 .5-1.385c.338-.374.806-.591 1.3-.603.356.002.7.139.966.385.064.061.136.052.136-.038v-.098c0-.075.059-.136.131-.136h.681a.145.145 0 0 1 .137.142v2.487c0 .188.064.272.19.29a.128.128 0 0 1 .123.121v.655c0 .07-.055.128-.123.128-.48 0-.762-.142-.921-.43-.045-.075-.095-.089-.167-.014-.307.328-.73.51-1.17.505a1.81 1.81 0 0 1-1.299-.615 1.954 1.954 0 0 1-.484-1.394Zm2.902 0a1.006 1.006 0 0 0-.455-.924.927.927 0 0 0-.999 0 1.006 1.006 0 0 0-.455.924c-.027.372.149.73.455.924a.927.927 0 0 0 1 0c.306-.195.482-.552.454-.924Zm1.6 3.226v-.617a.14.14 0 0 1 .136-.136 1.02 1.02 0 0 0 1.044-.725.431.431 0 0 0-.028-.29l-1.334-3.136a.14.14 0 0 1 .002-.137.13.13 0 0 1 .115-.066h.717c.073 0 .118.06.146.136l.837 2.006c.058.16.153.15.217 0l.798-2.012c.029-.075.065-.121.137-.121h.69a.124.124 0 0 1 .109.054c.024.037.03.084.013.125l-1.373 3.374c-.5 1.23-1.03 1.687-2.09 1.687a.145.145 0 0 1-.137-.142Z" fill="#5A78FF"/></g><defs><linearGradient id="b" x1="217.086" y1="409.571" x2="177.936" y2="-30.192" gradientUnits="userSpaceOnUse"><stop stop-color="#504678"/><stop offset=".302" stop-color="#504678" stop-opacity=".616"/><stop offset=".608" stop-color="#504678" stop-opacity=".283"/><stop offset=".852" stop-color="#504678" stop-opacity=".076"/><stop offset="1" stop-color="#504678" stop-opacity="0"/></linearGradient><linearGradient id="c" x1="-216.421" y1="-448.214" x2="-191.859" y2="44.728" gradientUnits="userSpaceOnUse"><stop stop-color="#504678"/><stop offset=".302" stop-color="#504678" stop-opacity=".616"/><stop offset=".608" stop-color="#504678" stop-opacity=".283"/><stop offset=".852" stop-color="#504678" stop-opacity=".076"/><stop offset="1" stop-color="#504678" stop-opacity="0"/></linearGradient><linearGradient id="d" x1="159.659" y1="654.347" x2="614.588" y2="355.754" gradientUnits="userSpaceOnUse"><stop stop-color="#504678"/><stop offset=".179" stop-color="#504678" stop-opacity=".872"/><stop offset=".526" stop-color="#504678" stop-opacity=".536"/><stop offset="1" stop-color="#504678" stop-opacity="0"/></linearGradient><linearGradient id="e" x1="540.901" y1="346.76" x2="519.662" y2="183.208" gradientUnits="userSpaceOnUse"><stop stop-color="#504678"/><stop offset=".643" stop-color="#504678" stop-opacity=".332"/><stop offset="1" stop-color="#504678" stop-opacity="0"/></linearGradient><clipPath id="a"><path fill="#fff" transform="translate(.07 .387)" d="M0 0h60v20H0z"/></clipPath></defs></svg>