<svg width="24" height="23" fill="none" xmlns="http://www.w3.org/2000/svg"><rect x=".784" y=".422" width="22.485" height="22.492" rx="11.242" fill="#0000A0"/><path d="M19.188 10.643a1.438 1.438 0 0 0-1.316 1.329c-.051.83.6 1.52 1.418 1.52.294 0 .69-.153.869-.46v.422h.55v-1.355a1.391 1.391 0 0 0-1.521-1.456Zm.933 1.456a.809.809 0 0 1-.92.767.84.84 0 0 1-.716-.716.827.827 0 0 1 .818-.92c.434 0 .792.345.818.78v.09Zm-3.948-1.456c-.754.025-1.393.6-1.393 1.443 0 .767.626 1.419 1.43 1.419.563 0 1.113-.333 1.33-.882l-.55-.166a.868.868 0 0 1-.613.473c-.383.076-.741-.166-.882-.422l2.134-.588c-.064-.562-.55-1.303-1.456-1.277Zm-.793 1.354a.84.84 0 0 1 .563-.78.78.78 0 0 1 .983.358l-1.546.422Zm-3.897-.78v-.587c-.536 0-.715.268-.804.409v-.32h-.614v2.722h.626v-1.342c0-.613.358-.856.792-.881ZM5.85 12.356l-1.865-2.198h-.64v3.284h.665v-2.198l1.891 2.21h.575v-3.296h-.626v2.198Zm8.56-2.492h-.587v1.074c-.14-.18-.575-.333-.946-.294a1.438 1.438 0 0 0-1.316 1.329c-.05.83.6 1.52 1.418 1.52.307 0 .729-.14.87-.409v.358h.549v-1.406l.012-2.172Zm-.613 2.236a.809.809 0 0 1-.92.767.84.84 0 0 1-.715-.716.827.827 0 0 1 .817-.92c.435 0 .793.345.818.78v.09Zm-5.52-1.47c-.792 0-1.43.64-1.43 1.432 0 .792.638 1.431 1.43 1.431.793 0 1.432-.639 1.432-1.431a1.445 1.445 0 0 0-1.431-1.431Zm0 2.25a.824.824 0 0 1-.817-.818c0-.447.37-.818.818-.818.447 0 .817.37.817.818 0 .46-.37.818-.817.818Z" fill="#fff"/></svg>