<svg width="16" height="17" fill="none" xmlns="http://www.w3.org/2000/svg"><g clip-path="url(#a)"><mask id="b" style="mask-type:luminance" maskUnits="userSpaceOnUse" x="0" y="0" width="16" height="17"><path d="M16 .5H0v16h16V.5Z" fill="#fff"/></mask><g mask="url(#b)"><path d="M8.442 13.44c2.215 0 3.696-.788 3.696-1.963 0-1.02-.838-1.236-.838-1.829 0-.813 2.918-.949 2.918-3.073 0-2.105-2.17-3.496-5.404-3.496-4.204 0-7.032 2.13-7.032 5.264 0 3.048 2.687 5.097 6.66 5.097Zm0-1.054c-3.38 0-5.605-1.618-5.605-4.043 0-2.532 2.366-4.21 5.977-4.21 2.626 0 4.349.985 4.349 2.442 0 1.702-2.933 1.517-2.933 3.033 0 .874.849 1.115.849 1.733 0 .633-1.045 1.045-2.637 1.045Zm.392-5.756a.834.834 0 0 0 .838-.839.834.834 0 0 0-.838-.838.845.845 0 0 0-.844.838c0 .462.382.839.844.839Zm-2.506.799c.567 0 1.034-.457 1.034-1.045 0-.573-.467-1.03-1.034-1.03-.583 0-1.05.457-1.05 1.03 0 .588.467 1.045 1.05 1.045Zm4.766-.483a.676.676 0 0 0 .678-.683.678.678 0 0 0-.678-.678.687.687 0 0 0-.688.678c0 .382.306.683.688.683ZM4.52 9.021a.84.84 0 0 0 .828-.844.825.825 0 0 0-.828-.824.83.83 0 0 0-.834.824c0 .462.376.844.834.844Zm3.49 2.214c.794 0 1.416-.627 1.416-1.42A1.42 1.42 0 0 0 8.01 8.402a1.42 1.42 0 0 0-1.416 1.411c0 .784.638 1.421 1.416 1.421Zm0-.652a.764.764 0 0 1-.763-.769c0-.472.361-.748.748-.753.402-.005.778.266.778.753a.761.761 0 0 1-.763.769Z" fill="#000"/></g></g><defs><clipPath id="a"><path fill="#fff" transform="translate(0 .5)" d="M0 0h16v16H0z"/></clipPath></defs></svg>