<svg width="108" height="21" fill="none" xmlns="http://www.w3.org/2000/svg"><path d="M10.624.5c.209.026.418.05.627.078a9.82 9.82 0 0 1 5.624 2.67 9.568 9.568 0 0 1 2.863 5.066c.631 3.017.029 5.785-1.852 8.238-1.48 1.931-3.435 3.18-5.825 3.651-3.486.687-6.55-.208-9.112-2.677a9.375 9.375 0 0 1-2.828-5.521C-.344 8.8.527 5.979 2.742 3.607 4.285 1.955 6.207.983 8.437.617c.267-.045.539-.062.809-.093a.82.82 0 0 0 .1-.024h1.278Zm-9.425 9.99a8.86 8.86 0 0 0 2.536 6.196 8.869 8.869 0 0 0 6.148 2.656 8.844 8.844 0 0 0 8.338-5.37c.46-1.08.7-2.24.707-3.414.029-4.982-3.96-8.788-8.658-8.899a8.875 8.875 0 0 0-8.367 5.403 8.862 8.862 0 0 0-.704 3.429ZM107.257 5.546a2.704 2.704 0 0 1-.255.389c-.211.225-.5.23-.784.22-1.386-.05-2.476.508-3.278 1.623a4.199 4.199 0 0 0-.793 2.464c-.015 1.745-.01 3.49-.012 5.235-.001.532-.309.833-.843.842-.309.005-.599-.038-.777-.316a.908.908 0 0 1-.15-.45c-.008-3.418-.01-6.836-.005-10.253a.753.753 0 0 1 .73-.76c.104-.004.208-.005.312 0a.746.746 0 0 1 .683.48.75.75 0 0 1 .049.29c.002.592 0 1.184.001 1.776 0 .043.004.086.008.171.048-.076.076-.119.102-.163.556-.95 1.301-1.696 2.317-2.151a4.248 4.248 0 0 1 1.941-.37.773.773 0 0 1 .699.502l.055.118v.353ZM28.084 6.906a6.93 6.93 0 0 1 1.249-1.304 4.79 4.79 0 0 1 6.364.378 6.056 6.056 0 0 1 1.808 3.94c.135 1.696-.294 3.236-1.378 4.565-.78.958-1.773 1.59-3.003 1.806-1.42.25-2.691-.107-3.82-.985a5.726 5.726 0 0 1-.645-.6c-.197-.21-.369-.444-.567-.686-.003.057-.008.106-.008.155v5.372c0 .483-.268.833-.708.931a.884.884 0 0 1-1.076-.852c-.001-4.738-.002-9.477 0-14.215a.873.873 0 0 1 .846-.87.863.863 0 0 1 .923.785c.026.478.012.958.015 1.437v.143Zm7.713 3.534c-.029-1.283-.448-2.43-1.395-3.365a3.51 3.51 0 0 0-4.635-.307c-1.131.867-1.675 2.05-1.748 3.45-.068 1.327.322 2.508 1.233 3.493 1.462 1.579 3.81 1.582 5.284.012.86-.914 1.238-2.017 1.261-3.283ZM88.934 11.158c.067.422.201.83.396 1.212.58 1.123 1.46 1.888 2.713 2.166.877.194 1.737.061 2.578-.22a3.276 3.276 0 0 0 1.362-.81c.21-.217.459-.297.74-.183a.773.773 0 0 1 .273 1.279c-.63.645-1.403 1.043-2.252 1.307a6.677 6.677 0 0 1-2.961.274 5.32 5.32 0 0 1-2.938-1.41c-1.334-1.248-1.98-2.803-1.908-4.62.084-2.122 1.02-3.793 2.844-4.908a5.454 5.454 0 0 1 6.674.82c1.214 1.215 1.786 2.692 1.779 4.4a.71.71 0 0 1-.697.692c-.041.002-.082 0-.123 0h-8.48Zm7.688-1.446a4.612 4.612 0 0 0-.675-1.857c-.903-1.426-2.538-2.086-4.126-1.624-1.365.397-2.238 1.33-2.713 2.647-.095.265-.147.545-.223.834h7.737ZM65.551 11.158c.26 1.557 1.412 3.018 3.109 3.382.78.167 1.548.074 2.306-.138a3.714 3.714 0 0 0 1.538-.8c.03-.028.06-.056.087-.086a.626.626 0 0 1 .697-.21.776.776 0 0 1 .31 1.308 5.129 5.129 0 0 1-2.114 1.254c-1.096.36-2.218.503-3.358.267-1.747-.362-3.035-1.366-3.874-2.923a6.016 6.016 0 0 1 .696-6.74c1.149-1.356 2.631-2.06 4.415-1.997 2.013.073 3.543 1.036 4.606 2.73.588.942.892 2.033.874 3.143-.002.408-.157.666-.487.768a1.002 1.002 0 0 1-.293.04c-2.776.002-5.552.002-8.328.002h-.184Zm-.025-1.447h7.703a.512.512 0 0 0 0-.075 4.438 4.438 0 0 0-.87-2.063c-.873-1.11-2.015-1.633-3.426-1.446-1.927.256-3.194 1.91-3.407 3.584ZM48.682 6.91V5.454a.892.892 0 1 1 1.784-.008V15.4a.89.89 0 0 1-1.527.638.89.89 0 0 1-.257-.638c-.002-.402 0-.804 0-1.207v-.144l-.028-.012-.116.153c-.707.975-1.61 1.692-2.782 2.01-1.712.467-3.236.062-4.55-1.105-1.043-.926-1.64-2.112-1.875-3.475a6.395 6.395 0 0 1 .593-4.085c.635-1.245 1.57-2.193 2.903-2.671 1.745-.627 3.338-.289 4.766.87.387.32.726.696 1.007 1.113.016.024.034.047.052.07l.03-.007Zm.077 3.556c-.03-1.289-.438-2.429-1.368-3.358a3.524 3.524 0 0 0-4.947-.104A4.48 4.48 0 0 0 41 9.968c-.134 1.387.221 2.635 1.15 3.692 1.417 1.611 3.751 1.685 5.262.169.923-.927 1.322-2.069 1.347-3.363ZM57.47 13.025l.435-.962 3.128-6.938c.227-.502.74-.71 1.21-.498a.888.888 0 0 1 .438 1.189c-.426.951-.855 1.902-1.286 2.851-1.662 3.688-3.322 7.376-4.982 11.064-.134.298-.325.522-.651.599a.894.894 0 0 1-1.027-1.239c.341-.767.689-1.531 1.034-2.297.221-.49.44-.98.666-1.467a.275.275 0 0 0-.003-.254c-1.388-3.073-2.775-6.147-4.16-9.221-.196-.434-.1-.87.247-1.133a.895.895 0 0 1 1.365.365c.412.908.82 1.818 1.23 2.728l2.289 5.074.067.139ZM80.997 13.023l.662-1.468 2.91-6.457a.892.892 0 0 1 1.694.108.908.908 0 0 1-.063.62 14417.07 14417.07 0 0 0-3.317 7.36c-.336.744-.674 1.488-1.006 2.235-.17.385-.458.606-.881.607-.423.002-.711-.217-.884-.602-1.435-3.186-2.87-6.371-4.307-9.556-.266-.59.005-1.183.604-1.314a.892.892 0 0 1 1.006.533 29710.883 29710.883 0 0 1 3.517 7.804c.017.037.036.072.065.13Z" fill="#000"/><path d="M16.353 10.602a6.208 6.208 0 0 1-6.262 6.206 6.217 6.217 0 0 1-5.736-3.887 6.209 6.209 0 0 1-.45-2.391 6.21 6.21 0 0 1 6.225-6.133 6.214 6.214 0 0 1 5.749 3.828c.313.753.474 1.561.474 2.377Z" fill="#000"/></svg>