<svg width="16" height="16" fill="none" xmlns="http://www.w3.org/2000/svg"><path d="M6.026 13.312h3.968c.859 0 1.431-.563 1.431-1.396V3.679c0-.834-.572-1.391-1.431-1.391H6.026c-.874 0-1.456.557-1.456 1.391v8.237c0 .833.582 1.396 1.456 1.396Zm.171-1.035c-.397 0-.623-.216-.623-.597V3.915c0-.382.226-.597.623-.597h.206v.25c0 .222.146.367.362.367h2.47c.216 0 .362-.145.362-.366v-.251h.201c.397 0 .623.22.623.602v7.76c0 .381-.226.597-.623.597H6.197Zm.462-.396h2.682c.146 0 .256-.1.256-.257 0-.15-.11-.25-.256-.25H6.659c-.146 0-.256.1-.256.25 0 .156.11.257.256.257Z" fill="#000"/></svg>