<svg width="14" height="21" fill="none" xmlns="http://www.w3.org/2000/svg"><path d="M8.52 20.914c1.172 0 1.786-.621 1.786-1.814v-2.556c0-1.059.275-1.602 1.179-2.294 1.581-1.222 2.45-3.107 2.45-5.07V6.633c0-.593-.396-.988-.989-.988H11.04V2.142A1.23 1.23 0 0 0 9.812.914c-.671 0-1.222.55-1.222 1.228v3.502H5.512V2.142c0-.677-.55-1.228-1.221-1.228a1.23 1.23 0 0 0-1.228 1.228v3.502H1.1c-.579 0-.967.402-.967.988v2.549c0 1.963.875 3.847 2.45 5.069.903.692 1.178 1.235 1.178 2.294V19.1c0 1.193.615 1.814 1.787 1.814H8.52ZM8.4 19.63H5.668c-.417 0-.622-.219-.622-.614v-2.47c0-1.462-.459-2.373-1.673-3.305-1.27-.981-1.955-2.478-1.955-4.06V7.177c0-.162.084-.247.247-.247H12.41c.155 0 .24.085.24.247v2.005c0 1.581-.678 3.078-1.956 4.06-1.214.931-1.673 1.842-1.673 3.303v2.471c0 .395-.205.614-.621.614Z" fill="#8E8E8E"/></svg>