<svg width="16" height="17" fill="none" xmlns="http://www.w3.org/2000/svg"><path d="m15.158 2.848.601-.633c.305-.32.329-.761.024-1.066l-.208-.216c-.272-.272-.73-.232-1.026.064l-.625.61 1.234 1.241Zm-9.487 8.526 1.643-.69 7.26-7.259-1.235-1.226L6.08 9.467l-.721 1.586c-.08.184.128.393.312.32ZM2.627 16.75h9.334c1.539 0 2.444-.897 2.444-2.612V5.677L12.803 7.27v6.723c0 .769-.409 1.154-.946 1.154H2.731c-.737 0-1.138-.385-1.138-1.154V5.092c0-.77.4-1.154 1.138-1.154h6.803l1.594-1.603H2.627c-1.731 0-2.637.898-2.637 2.612v9.19c0 1.716.906 2.613 2.637 2.613Z" fill="#7A7A7A"/></svg>