<svg width="23" height="24" fill="none" xmlns="http://www.w3.org/2000/svg"><rect x=".127" y=".875" width="22.492" height="22.489" rx="11.245" fill="#FEE600"/><rect x=".448" y="1.197" width="21.849" height="21.846" rx="10.923" stroke="#000" stroke-opacity=".15" stroke-width=".643"/><path d="M19.295 4.419H3.615v15.68h15.68V4.419Z" fill="#FEE600"/><path fill-rule="evenodd" clip-rule="evenodd" d="m14.954 11.144 1.999-1.999.534.535.004-.004c0-.343-.101-1.524-1.05-2.448-1.06-1.035-2.123-.429-2.49-.064l-1.925 1.924.477.477-1.047 1.047-1.047-1.047.477-.477L8.96 7.164c-.366-.366-1.428-.97-2.49.064-.949.924-1.05 2.105-1.05 2.448l.003.004.535-.535 1.998 1.999.551-.551V9.277l.567.566v1.592l.78.78-4.048 4.046 1.602 1.601 4.047-4.046 4.047 4.046 1.602-1.6-4.048-4.048.78-.78V9.844l.567-.566v1.316l.55.55Z" fill="#2B2D33"/></svg>