<svg width="16" height="19" fill="none" xmlns="http://www.w3.org/2000/svg"><path d="M.47 7.94a.53.53 0 1 0 1.06 0H.47Zm3.178 10.368a.53.53 0 0 0 .752-.745l-.752.745ZM1 14.882l-.376-.373a.53.53 0 0 0 0 .745L1 14.882ZM4.4 12.2a.53.53 0 1 0-.752-.745l.752.745ZM8.056 1.53c3.614 0 6.528 2.878 6.528 6.41h1.058c0-4.133-3.404-7.47-7.586-7.47v1.06ZM1.53 7.94c0-3.532 2.914-6.41 6.527-6.41V.47C3.876.47.471 3.808.471 7.94h1.058Zm13.055 0c0 3.533-2.914 6.412-6.528 6.412v1.059c4.182 0 7.586-3.336 7.586-7.47h-1.058ZM4.4 17.564l-3.024-3.054-.752.745 3.024 3.054.752-.745Zm-3.024-2.31L4.4 12.2l-.752-.745L.624 14.51l.752.745ZM1 15.412h7.056v-1.059H1v1.059Z" fill="#404040"/></svg>