<svg xmlns="http://www.w3.org/2000/svg" width="8" height="9" fill="none"><path d="M7.766 4.363c0 2.119-1.757 3.88-3.879 3.88-2.118 0-3.879-1.761-3.879-3.88C.008 2.241 1.765.484 3.883.484c2.122 0 3.883 1.757 3.883 3.88Zm-2.81-1.498L3.887 3.926l-1.06-1.057a.301.301 0 0 0-.218-.088.306.306 0 0 0-.311.312c0 .084.03.16.09.22l1.054 1.054L2.39 5.424a.299.299 0 0 0-.091.22c0 .176.137.317.311.317.088 0 .168-.03.229-.092l1.05-1.057L4.94 5.87c.057.061.137.092.224.092.179 0 .32-.141.32-.316a.29.29 0 0 0-.096-.224L4.336 4.367 5.393 3.31a.294.294 0 0 0 .095-.224.312.312 0 0 0-.315-.312.288.288 0 0 0-.217.091Z" fill="#98989D"/></svg>