<svg height="800" width="800" xmlns="http://www.w3.org/2000/svg" viewBox="0 0 490.89 490.89" xml:space="preserve"><path d="M97.38 292.692V181.229c0-24.324 19.792-44.125 44.134-44.125h170.733v19.506c0 5.525 3.065 10.59 7.941 13.162 4.884 2.59 10.786 2.229 15.343-.885L436.419 99.83a13.32 13.32 0 0 0 5.788-10.934 13.254 13.254 0 0 0-5.722-10.965L335.63 7.956a14.924 14.924 0 0 0-15.383-.949c-4.91 2.557-7.975 7.653-7.975 13.178v19.539H141.515C63.483 39.724 0 103.208 0 181.229v111.463c0 26.881 21.801 48.684 48.689 48.684 26.891 0 48.691-21.803 48.691-48.684zM442.199 149.513c-26.891 0-48.691 21.801-48.691 48.701V309.64c0 24.342-19.793 44.143-44.134 44.143H178.641v-19.506a14.89 14.89 0 0 0-7.941-13.162 14.885 14.885 0 0 0-15.343.887L54.468 391.056a13.345 13.345 0 0 0-5.786 10.951 13.291 13.291 0 0 0 5.72 10.965l100.856 69.961c4.548 3.147 10.482 3.504 15.384.965a14.888 14.888 0 0 0 7.974-13.195v-19.539h170.756c78.031 0 141.516-63.498 141.516-141.523V198.214c.002-26.901-21.8-48.701-48.689-48.701z"/></svg>