<svg width="23" height="23" fill="none" xmlns="http://www.w3.org/2000/svg"><rect x=".127" y=".221" width="22.492" height="22.489" rx="11.245" fill="#fff"/><rect x=".448" y=".542" width="21.849" height="21.846" rx="10.923" stroke="#000" stroke-opacity=".15" stroke-width=".643"/><path fill-rule="evenodd" clip-rule="evenodd" d="M8.803 8.41H6.556v9.087h2.247V8.41Zm7.048.52a3.503 3.503 0 0 0-3.5-3.498H6.556v1.941h5.519c.874 0 1.597.686 1.613 1.53.008.422-.15.82-.446 1.122a1.548 1.548 0 0 1-1.114.467h-2.15a.139.139 0 0 0-.138.139v1.724c0 .03.01.058.026.082l3.648 5.06h2.67l-3.656-5.074a3.519 3.519 0 0 0 3.323-3.494Z" fill="#000"/></svg>