<svg width="85" height="23" fill="none" xmlns="http://www.w3.org/2000/svg"><path d="m33.4 19.717-.411-.138c-.55-.181-.895-.328-.895-.814 0-.423.346-.639 1.027-.639.442-.002.882.07 1.298.216.049-.166.078-.337.088-.509a3.953 3.953 0 0 0-1.399-.225c-1 0-1.603.406-1.603 1.175 0 .692.434 1.08 1.222 1.313l.408.121c.425.13.912.311.912.829 0 .492-.416.7-1.098.7-.452 0-1.027-.104-1.444-.337-.056.17-.086.348-.088.527.417.233.927.336 1.55.336 1.063 0 1.682-.457 1.682-1.243-.01-.75-.548-1.079-1.249-1.312Zm-4.923-2.107a6.757 6.757 0 0 0-1.669.242v4.32h.62v-3.906a4.758 4.758 0 0 1 1.027-.121c1.09 0 1.4.415 1.4 1.218v2.81h.62V19.25c.003-1.046-.502-1.641-1.998-1.641Zm7.342-4.835h1.439V8.49c0-1.544-.772-2.45-3.178-2.45-.693 0-1.7.142-2.615.362v6.377h1.438V7.346a7.446 7.446 0 0 1 1.138-.102c1.438 0 1.778.485 1.778 1.493v4.038Zm2.717 8.488a1.812 1.812 0 0 1-1.257.492c-.797 0-1.169-.38-1.169-1.278v-2.763h-.618v2.884c0 1.149.567 1.675 1.594 1.675.673 0 1.125-.164 1.47-.492l.017.389h.585v-4.456h-.62l-.002 3.549Zm3.665-8.54c.077-.392.133-.787.17-1.185-.361.128-.742.192-1.125.191-.693 0-1.113-.318-1.113-1.147V7.457h2.145c.066-.396.11-.795.132-1.196h-2.276V3.848c-.487 0-.971.068-1.438.205v6.694c0 1.556.89 2.18 2.288 2.18.415.009.828-.06 1.217-.204Zm26.166.205c.771 0 1.464-.115 2.118-.408.093-.421.17-.904.222-1.276a5.718 5.718 0 0 1-2.301.485c-1.281 0-1.962-.548-2.144-1.683h4.588c.054-.36.08-.722.08-1.085 0-1.607-.89-2.92-2.943-2.92-2.288 0-3.19 1.505-3.19 3.404 0 2.182 1.163 3.483 3.57 3.483Zm-.458-5.713c.994 0 1.569.612 1.569 1.658h-3.245c.12-1.084.656-1.658 1.676-1.658Zm-57.65-1.007a2.882 2.882 0 0 0-.4-1.345L7.68 1.18a2.918 2.918 0 0 1-.345-.89l-.093.154a2.89 2.89 0 0 0 0 2.945l1.744 2.945a2.89 2.89 0 0 1 0 2.946l-.093.154a2.854 2.854 0 0 0-.345-.89L6.953 5.848 5.933 4.13a2.918 2.918 0 0 1-.345-.89l-.092.154A2.89 2.89 0 0 0 5.49 6.33l1.75 2.954a2.89 2.89 0 0 1 0 2.946l-.093.154a2.862 2.862 0 0 0-.345-.89l-2.18-3.682a2.891 2.891 0 0 1-.4-1.6c-2.33.592-3.94 1.857-3.94 3.315 0 2.033 3.116 3.681 6.961 3.681 3.846 0 6.961-1.648 6.961-3.681 0-1.458-1.61-2.723-3.944-3.319Zm9.215 5.496a6.232 6.232 0 0 1-2.393-.498 4.19 4.19 0 0 0-.249 1.293c.733.331 1.609.485 2.681.485 2.225 0 3.36-1.008 3.36-2.475 0-1.236-.693-1.963-2.353-2.652l-.706-.293c-.915-.382-1.426-.765-1.426-1.428 0-.664.524-1.11 1.661-1.11.731.008 1.455.133 2.144.37.145-.412.233-.84.262-1.275a7.34 7.34 0 0 0-2.393-.37c-2.118 0-3.152.93-3.152 2.385 0 1.351.835 2.027 2.066 2.55l.667.28c1.229.524 1.725.868 1.725 1.608 0 .74-.678 1.13-1.894 1.13Zm.29 4.947a3.6 3.6 0 0 1 1.212.207c.062-.187.098-.381.107-.578a3.813 3.813 0 0 0-1.32-.207c-1.859 0-2.93 1.14-2.93 3.109 0 1.873 1.02 3.108 2.869 3.108.418.01.834-.051 1.23-.18.053-.21.086-.424.098-.64-.396.161-.82.243-1.249.241-1.399 0-2.302-.94-2.302-2.555 0-1.641.903-2.505 2.285-2.505Zm3.976.959c-1.373 0-2.188.898-2.188 2.358 0 1.33.718 2.305 2.132 2.305 1.4 0 2.196-.898 2.196-2.374.002-1.313-.706-2.29-2.14-2.29Zm-.022 4.12c-1.01 0-1.54-.649-1.54-1.809 0-1.062.504-1.77 1.54-1.77 1 0 1.532.657 1.532 1.788.004 1.09-.5 1.79-1.532 1.79Zm4.775-9.72.078.765h1.32V6.399c-.758-.255-1.53-.362-2.471-.362-2.419 0-3.648 1.276-3.648 3.52 0 2.142 1.15 3.366 2.874 3.366.922.005 1.484-.352 1.85-.913h-.003ZM25.24 9.561c0-1.427.692-2.32 2.183-2.32.346-.005.692.021 1.033.076v4.007c-.4.302-.893.464-1.4.46-1.28-.004-1.816-.922-1.816-2.223Zm39.462 8.046a6.757 6.757 0 0 0-1.668.242v4.323h.62v-3.906a4.758 4.758 0 0 1 1.027-.121c1.088 0 1.399.415 1.399 1.218v2.81h.62V19.25c.003-1.046-.501-1.641-1.998-1.641v-.003Zm2.913 2.367c0 1.476.78 2.296 2.04 2.296.443.004.873-.153 1.205-.44l.018.337h.575v-4.315a4.113 4.113 0 0 0-1.479-.242c-1.589 0-2.359.846-2.359 2.367v-.003Zm3.215 1.356a1.598 1.598 0 0 1-1.124.44c-.966 0-1.461-.681-1.461-1.795 0-1.157.539-1.832 1.726-1.832.29-.002.579.033.859.104v3.083Zm2.781-14.013a7.33 7.33 0 0 1 1.06-.077c.362-.003.724.014 1.084.052.091-.393.135-.796.131-1.199-.417-.04-.836-.056-1.255-.051-.81 0-1.844.153-2.459.361v6.377h1.439V7.317ZM63.62 3.848c-.471 0-.981.04-1.425.192v2.104a5.812 5.812 0 0 0-1.073-.102c-2.419 0-3.648 1.275-3.648 3.52 0 2.142 1.15 3.366 2.874 3.366.941 0 1.504-.37 1.87-.97l.078.814h1.32l.004-8.924Zm-1.425 7.448c-.41.315-.917.486-1.439.485-1.281 0-1.818-.919-1.818-2.22 0-1.454.68-2.32 2.105-2.32.388.004.773.047 1.152.127v3.928Zm12.124 6.314a6.747 6.747 0 0 0-1.668.242v4.32h.619v-3.906a4.757 4.757 0 0 1 1.027-.121c1.09 0 1.399.415 1.399 1.218v2.81h.62V19.25c.005-1.046-.499-1.641-1.997-1.641Zm10.661 2.003c0-1.114-.566-2.003-1.895-2.003-1.452 0-2.046 1.019-2.046 2.306 0 1.485.78 2.357 2.259 2.357.505 0 .965-.078 1.408-.328.041-.192.072-.385.093-.579a3.055 3.055 0 0 1-1.484.372c-1.01 0-1.566-.553-1.646-1.589h3.276a3.51 3.51 0 0 0 .036-.536Zm-.62-.008h-2.688c.07-.899.504-1.468 1.39-1.468.886 0 1.298.578 1.298 1.434v.034Zm-4.825-1.46c.338 0 .672.067.983.199.037-.174.06-.35.07-.526a2.621 2.621 0 0 0-1.053-.208c-1.576 0-2.338.933-2.338 2.35 0 1.486.858 2.315 2.16 2.315.425 0 .824-.086 1.143-.302.035-.19.062-.406.08-.579a2.171 2.171 0 0 1-1.17.345c-.912 0-1.585-.561-1.585-1.796.001-1.133.577-1.798 1.71-1.798Zm-18.01-1.934a.414.414 0 0 0-.298.116.394.394 0 0 0-.119.29.379.379 0 0 0 .12.287.401.401 0 0 0 .297.11.4.4 0 0 0 .293-.111.379.379 0 0 0 .114-.286.38.38 0 0 0-.113-.29.4.4 0 0 0-.294-.116Zm-4.641 5.962h.62V19.45h2.554a6.79 6.79 0 0 0 .062-.58h-2.616v-2.097h2.79c.036-.192.06-.385.07-.579h-3.48v5.979Zm4.33 0h.62v-4.46h-.62v4.46Zm-8.51-4.318v4.317h.62v-3.931c.285-.06.576-.092.868-.096.228-.003.456.01.682.035.042-.17.063-.343.062-.518a6.276 6.276 0 0 0-.762-.035c-.498.004-.993.08-1.47.225v.003ZM48.962 6.399c-.759-.255-1.53-.362-2.471-.362-2.42 0-3.649 1.276-3.649 3.52 0 2.142 1.151 3.366 2.874 3.366.915 0 1.477-.361 1.843-.917l.079.764h1.324V6.4Zm-1.438 4.925c-.4.302-.893.463-1.4.46-1.281 0-1.817-.92-1.817-2.22 0-1.428.693-2.32 2.184-2.32.346-.005.691.02 1.033.076v4.004Zm2.317 6.289c-1.452 0-2.046 1.018-2.046 2.306 0 1.485.78 2.357 2.259 2.357.504 0 .965-.078 1.408-.329.04-.19.072-.384.092-.578a3.055 3.055 0 0 1-1.483.371c-1.01 0-1.568-.552-1.647-1.588H51.7c.025-.178.037-.357.035-.536-.005-1.117-.571-2.006-1.9-2.006l.005.003Zm1.275 1.995h-2.689c.072-.899.506-1.468 1.391-1.468s1.298.578 1.298 1.433v.035Zm2.04-13.561c-.694 0-1.7.141-2.616.362v6.376h1.438V7.346c.373-.064.75-.1 1.128-.106 1.439 0 1.78.485 1.78 1.493v4.042h1.437V8.49c0-1.544-.77-2.45-3.176-2.45l.008.006Zm-8.102 11.572a3.709 3.709 0 0 0-1.55.361c-.31-.25-.77-.361-1.39-.361a6.897 6.897 0 0 0-1.745.242v4.311h.62v-3.906a5.013 5.013 0 0 1 1.062-.121c.948 0 1.298.346 1.298 1.183v2.845h.62V19.25a2.158 2.158 0 0 0-.15-.856c.37-.16.772-.245 1.178-.25.912 0 1.297.415 1.297 1.2v2.828h.62V19.25c0-1.046-.531-1.641-1.868-1.641l.008.009Z" fill="#fff"/></svg>