<svg xmlns="http://www.w3.org/2000/svg" width="62" height="11" fill="none"><path d="M1.71 6.026c.346 0 .663-.043.949-.128s.529-.217.733-.392a1.77 1.77 0 0 0 .47-.657 2.41 2.41 0 0 0 .165-.927c0-.365-.056-.677-.165-.94s-.268-.479-.47-.651a1.91 1.91 0 0 0-.731-.379 3.408 3.408 0 0 0-.94-.122l-.566.019a3.628 3.628 0 0 0-.603.081v3.99a3.78 3.78 0 0 0 .598.085l.561.022zm.048-.653c-.122 0-.22 0-.291-.002l-.17-.009V2.494a4 4 0 0 1 .472-.019c.505 0 .877.124 1.118.374s.361.607.361 1.073c0 .457-.124.814-.37 1.07s-.62.381-1.12.381zm3.829.605V1.87h-.744v4.108h.744zm1.727 0V4.426h.472l.143-.006.242.322.263.385.263.422.242.429h.835l-.242-.472-.285-.468-.289-.424-.255-.331c.548-.198.822-.576.822-1.133 0-.446-.155-.777-.468-.996s-.766-.326-1.357-.326l-.551.02a4.232 4.232 0 0 0-.579.08v4.049h.746zM7.64 3.82h-.326V2.494a4.56 4.56 0 0 1 .437-.019c.146 0 .279.011.402.033s.228.057.316.109a.54.54 0 0 1 .205.207c.046.087.07.194.07.32 0 .135-.024.244-.07.331s-.118.157-.211.209-.207.085-.346.105-.296.03-.477.03zm5.485 2.158v-.635h-2.028V4.141h1.679v-.622h-1.679V2.505h1.886V1.87h-2.63v4.108h2.772zm1.436 0V4.135c.154.107.309.233.466.379l.457.463.424.503.354.498h.881l-.416-.62-.476-.598-.505-.54a5.659 5.659 0 0 0-.505-.44l.457-.463.464-.489.45-.49.415-.468h-.894l-.342.387-.4.44-.422.452-.407.416V1.87h-.746v4.108h.746zm4.699 0v-3.46h1.258V1.87H17.25v.648h1.258v3.461h.751zm2.802-4.547a.41.41 0 0 0 .28-.105c.081-.072.122-.168.122-.291s-.041-.22-.122-.294-.174-.109-.28-.109-.2.037-.278.109-.118.172-.118.294.039.218.118.291a.4.4 0 0 0 .278.105zm1.223 0c.105 0 .198-.035.278-.105s.118-.168.118-.291-.039-.22-.118-.294a.4.4 0 0 0-.278-.109.41.41 0 0 0-.281.109c-.081.074-.12.172-.12.294s.039.218.12.291.174.105.281.105zm-.622 4.636c.281 0 .524-.041.727-.122s.374-.194.505-.341a1.41 1.41 0 0 0 .296-.514c.065-.198.098-.416.098-.653V1.87h-.751v2.497c0 .185-.02.344-.061.477s-.102.239-.178.322-.168.144-.276.183-.224.059-.354.059-.248-.019-.352-.059a.68.68 0 0 1-.272-.183.82.82 0 0 1-.178-.322 1.64 1.64 0 0 1-.063-.477V1.87h-.75v2.567c0 .237.032.455.094.653a1.4 1.4 0 0 0 .292.514c.131.146.298.261.5.341s.44.122.72.122zm3.814-.041c.633 0 1.105-.107 1.412-.318s.461-.527.461-.951a1.02 1.02 0 0 0-.178-.616c-.118-.161-.302-.285-.55-.366.166-.083.294-.194.387-.333s.139-.304.139-.498a.992.992 0 0 0-.13-.527.97.97 0 0 0-.363-.344c-.155-.087-.34-.148-.553-.187s-.442-.056-.692-.056l-.285.006-.305.018-.302.031-.278.044v3.99c.165.043.359.072.579.085l.657.022zm.022-2.484h-.526V2.464c.063-.009.139-.015.228-.019l.305-.006c.267 0 .485.041.652.124s.252.224.252.422c0 .209-.08.353-.242.435s-.383.122-.668.122zm0 1.86c-.078 0-.165-.002-.259-.006l-.267-.019V4.13h.657c.298 0 .533.044.703.135s.253.254.253.487c0 .13-.028.237-.085.32s-.135.15-.231.198-.211.085-.342.104a2.83 2.83 0 0 1-.429.03zm5.397.576v-.635h-2.027V4.141h1.679v-.622h-1.679V2.505h1.886V1.87h-2.632v4.108h2.772zm1.436 0V4.426h.474l.142-.006.242.322.263.385.263.422.242.429h.833l-.242-.472-.283-.468-.291-.424-.253-.331c.548-.198.822-.576.822-1.133 0-.446-.157-.777-.47-.996s-.766-.326-1.356-.326l-.55.02a4.19 4.19 0 0 0-.579.08v4.049h.744zm.326-2.158h-.326V2.494c.135-.013.281-.019.439-.019.146 0 .279.011.402.033s.228.057.316.109a.52.52 0 0 1 .204.207c.048.087.07.194.07.32 0 .135-.022.244-.07.331s-.117.157-.209.209a1.06 1.06 0 0 1-.346.105 3.34 3.34 0 0 1-.479.03zm4.108 2.158.45-1.251.442-1.362.892 2.613h.711l.566-1.965.461-2.143h-.768l-.15.831-.163.827-.165.781-.172.698-.222-.631-.23-.683-.222-.692-.202-.668h-.639l-.191.664-.216.69-.228.681-.228.638-.178-.7-.174-.787-.165-.825-.152-.825h-.798l.457 2.143.572 1.965h.709zm6.921 0v-.635h-2.028V4.141h1.68v-.622h-1.68V2.505h1.886V1.87h-2.63v4.108h2.772zm1.436 0V1.87h-.744v4.108h.744zm1.975.089c.503 0 .886-.102 1.149-.305s.392-.49.392-.862c0-.194-.026-.359-.081-.494s-.135-.255-.241-.357-.231-.187-.383-.259-.324-.146-.518-.217l-.303-.126a1.42 1.42 0 0 1-.242-.141.59.59 0 0 1-.159-.176.443.443 0 0 1-.057-.233c0-.152.057-.268.168-.35s.27-.126.47-.126c.17 0 .335.02.494.059a1.85 1.85 0 0 1 .44.172l.23-.603c-.113-.068-.27-.13-.468-.187s-.428-.087-.683-.087c-.442 0-.79.105-1.047.318s-.383.502-.383.874c0 .178.03.329.091.457a1.06 1.06 0 0 0 .242.326c.1.091.217.167.35.228l.411.168.377.146a1.42 1.42 0 0 1 .281.159.697.697 0 0 1 .178.192.51.51 0 0 1 .061.255.45.45 0 0 1-.183.385c-.122.091-.316.137-.585.137-.257 0-.476-.03-.657-.089s-.324-.118-.431-.178l-.218.611a2.255 2.255 0 0 0 .47.189 2.76 2.76 0 0 0 .372.08 2.98 2.98 0 0 0 .465.033zm3.777 0a1.97 1.97 0 0 0 .727-.122 1.316 1.316 0 0 0 .799-.855c.064-.196.098-.416.098-.653V1.87h-.751v2.497c0 .185-.02.344-.061.477a.82.82 0 0 1-.178.322.69.69 0 0 1-.274.183.987.987 0 0 1-.355.059.96.96 0 0 1-.352-.059.71.71 0 0 1-.272-.183c-.078-.083-.135-.191-.178-.322s-.061-.292-.061-.477V1.87h-.751v2.567a2.15 2.15 0 0 0 .094.653 1.4 1.4 0 0 0 .292.514c.133.146.3.261.5.341s.442.122.722.122zm3.309-.089v-2.94l.524.668.54.764.514.783.45.725h.633V1.87h-.74v2.728l-.457-.69-.533-.738-.546-.709-.509-.59h-.609v4.108h.733zm5.45.083A4.428 4.428 0 0 0 62 5.859V3.885h-.746v1.477a1.6 1.6 0 0 1-.224.039 3.49 3.49 0 0 1-.337.015c-.209 0-.39-.037-.546-.111a1.07 1.07 0 0 1-.39-.304c-.105-.131-.183-.289-.237-.472s-.08-.387-.08-.607c0-.466.111-.831.333-1.094s.546-.394.968-.394c.192 0 .377.024.551.074s.322.109.441.18l.226-.609a2.235 2.235 0 0 0-.146-.078 1.67 1.67 0 0 0-.263-.102 3.603 3.603 0 0 0-.381-.085 2.95 2.95 0 0 0-.505-.039 2.14 2.14 0 0 0-.779.142 1.79 1.79 0 0 0-.639.418c-.181.183-.326.407-.429.672s-.157.57-.157.914.048.648.142.912.228.489.4.67a1.67 1.67 0 0 0 .624.415c.244.094.513.143.809.143z" fill="#676d6d"/><path d="M1.118 10.253a1.43 1.43 0 0 0 .326-.035 1.06 1.06 0 0 0 .202-.063l-.044-.265a.87.87 0 0 1-.17.056 1.18 1.18 0 0 1-.278.03c-.196 0-.341-.048-.433-.143s-.146-.235-.159-.416h1.203l.004-.059v-.054c0-.302-.063-.527-.191-.675s-.307-.222-.542-.222a.83.83 0 0 0-.298.057.73.73 0 0 0-.257.174.83.83 0 0 0-.178.289 1.1 1.1 0 0 0-.068.409 1.27 1.27 0 0 0 .052.366.78.78 0 0 0 .161.291.758.758 0 0 0 .276.191 1.03 1.03 0 0 0 .396.07zm.322-1.092H.568a.684.684 0 0 1 .043-.18.48.48 0 0 1 .089-.155c.039-.044.085-.081.141-.109s.118-.043.191-.043a.36.36 0 0 1 .302.137.523.523 0 0 1 .107.35zm.935-1.029c.057 0 .104-.019.144-.056s.059-.089.059-.152a.197.197 0 0 0-.203-.206.2.2 0 0 0-.143.056c-.041.037-.059.087-.059.15s.019.115.059.152a.2.2 0 0 0 .143.056zm.159 2.08V8.45h-.315v1.762h.315zm.855 0V8.724l.056-.009a.97.97 0 0 1 .087-.013l.104-.007c.035-.004.07-.004.105-.004a.62.62 0 0 1 .209.031.3.3 0 0 1 .135.104.48.48 0 0 1 .072.187c.015.076.022.168.022.278v.922h.315v-.99c0-.118-.013-.229-.035-.328s-.061-.185-.117-.255a.53.53 0 0 0-.22-.167.87.87 0 0 0-.348-.059c-.155 0-.292.009-.413.03l-.287.057v1.712h.315zm2.968.05c.272 0 .483-.055.633-.166s.226-.268.226-.474c0-.111-.019-.205-.052-.283s-.081-.144-.142-.202-.135-.104-.22-.144l-.279-.122-.196-.081c-.061-.028-.113-.057-.157-.091s-.08-.07-.105-.113-.037-.096-.037-.159a.284.284 0 0 1 .131-.25.43.43 0 0 1 .143-.061 1.078 1.078 0 0 1 .713.108l.105-.266c-.056-.037-.141-.07-.255-.1s-.246-.046-.387-.046c-.246 0-.439.057-.577.172s-.209.276-.209.481c0 .1.015.185.048.255s.078.13.133.18a.82.82 0 0 0 .2.133 2.21 2.21 0 0 0 .242.1l.211.081a.81.81 0 0 1 .178.096c.052.037.093.081.124.131s.044.113.044.185c0 .235-.17.352-.513.352-.154 0-.283-.017-.389-.054s-.185-.068-.237-.098l-.098.27a.946.946 0 0 0 .104.05 1.28 1.28 0 0 0 .157.054 1.553 1.553 0 0 0 .462.062zm2.019-.009a1.43 1.43 0 0 0 .326-.035 1.06 1.06 0 0 0 .202-.063L8.86 9.89a.87.87 0 0 1-.17.056 1.18 1.18 0 0 1-.278.03c-.196 0-.341-.048-.433-.143s-.144-.235-.159-.416h1.203l.004-.059v-.054c0-.302-.063-.527-.189-.675s-.309-.222-.544-.222c-.102 0-.202.02-.298.057s-.181.096-.257.174a.83.83 0 0 0-.178.289 1.1 1.1 0 0 0-.068.409 1.27 1.27 0 0 0 .052.366.78.78 0 0 0 .161.291.758.758 0 0 0 .276.191 1.03 1.03 0 0 0 .396.07zm.322-1.092h-.872a.77.77 0 0 1 .043-.18.48.48 0 0 1 .089-.155c.039-.044.085-.081.141-.109s.118-.043.191-.043a.36.36 0 0 1 .302.137.523.523 0 0 1 .107.35zm1.094 1.051V8.731c.019-.006.056-.013.113-.026s.117-.019.174-.019c.091 0 .165.006.222.019l.122.033.055-.276-.063-.015-.092-.017-.104-.013-.093-.006c-.137 0-.261.011-.372.035a2.37 2.37 0 0 0-.278.076v1.688h.315zm1.71 0 .342-.814a9.04 9.04 0 0 0 .309-.948h-.324l-.096.353-.119.374-.128.357-.12.307-.122-.307-.128-.357L11 8.803l-.096-.353h-.339c.087.329.191.646.309.948l.342.814h.285zm1.131-2.08c.056 0 .104-.019.144-.056s.057-.089.057-.152-.018-.113-.057-.15-.089-.056-.144-.056-.104.018-.144.056-.059.087-.059.15.02.115.059.152.089.056.144.056zm.159 2.08V8.45h-.315v1.762h.315zm1.303.041c.046 0 .092-.004.141-.009l.137-.02a.776.776 0 0 0 .193-.059l-.044-.265a.8.8 0 0 1-.159.052 1.038 1.038 0 0 1-.226.024.69.69 0 0 1-.263-.046c-.072-.031-.131-.074-.178-.131s-.079-.124-.102-.202a1.05 1.05 0 0 1-.031-.261c0-.213.046-.374.141-.485s.228-.167.403-.167a.95.95 0 0 1 .196.02.86.86 0 0 1 .165.054l.07-.266a1.02 1.02 0 0 0-.226-.065 1.46 1.46 0 0 0-.237-.02.86.86 0 0 0-.35.07.75.75 0 0 0-.265.192.87.87 0 0 0-.166.292 1.09 1.09 0 0 0-.059.374c0 .135.018.259.054.37a.78.78 0 0 0 .165.289.73.73 0 0 0 .27.191.96.96 0 0 0 .372.069zm1.595 0a1.45 1.45 0 0 0 .326-.035.948.948 0 0 0 .2-.063l-.043-.265a1.049 1.049 0 0 1-.45.086c-.196 0-.34-.048-.433-.143s-.144-.235-.157-.416h1.201l.004-.059v-.054c0-.302-.063-.527-.189-.675s-.307-.222-.544-.222c-.102 0-.2.02-.298.057a.72.72 0 0 0-.255.174c-.074.076-.135.172-.18.289s-.067.252-.067.409a1.21 1.21 0 0 0 .052.366c.035.113.089.209.159.291s.165.144.276.191.244.07.398.07zm.32-1.092h-.872a.77.77 0 0 1 .043-.18.56.56 0 0 1 .089-.155c.039-.044.085-.081.141-.109s.118-.043.191-.043c.13 0 .229.044.303.137s.107.207.105.35zm2.28 1.051.342-.814c.118-.302.222-.618.309-.948h-.324l-.096.353-.119.374-.126.357-.122.307-.122-.307-.126-.357-.119-.374-.096-.353h-.339a9.48 9.48 0 0 0 .309.948l.344.814h.283zm1.703.043a.82.82 0 0 0 .331-.065c.1-.044.189-.107.261-.189s.13-.178.17-.291.061-.241.061-.379-.02-.265-.061-.378-.096-.213-.17-.294a.75.75 0 0 0-.261-.187.82.82 0 0 0-.331-.067c-.12 0-.229.022-.331.067s-.189.105-.261.187a.86.86 0 0 0-.172.294 1.103 1.103 0 0 0-.059.378 1.12 1.12 0 0 0 .059.379.86.86 0 0 0 .172.291.74.74 0 0 0 .261.189.822.822 0 0 0 .331.065zm0-.278a.43.43 0 0 1-.363-.174c-.089-.117-.133-.274-.133-.472s.044-.357.133-.474.209-.174.363-.174.274.059.363.174.133.274.133.474-.044.355-.133.472a.43.43 0 0 1-.363.174zm1.581.235V8.724l.055-.009c.026-.006.056-.009.089-.013l.102-.007c.037-.004.072-.004.105-.004.083 0 .154.011.209.031a.29.29 0 0 1 .135.104.48.48 0 0 1 .072.187c.015.076.022.168.022.278v.922h.315v-.99a1.5 1.5 0 0 0-.033-.328c-.024-.1-.063-.185-.117-.255s-.13-.128-.222-.167a.87.87 0 0 0-.348-.059c-.155 0-.292.009-.413.03l-.287.057v1.712h.315zm2.968.05c.272 0 .485-.055.633-.166s.226-.268.226-.474a.688.688 0 0 0-.052-.283.6.6 0 0 0-.142-.202.91.91 0 0 0-.22-.144l-.278-.122-.198-.081a.9.9 0 0 1-.157-.091.38.38 0 0 1-.105-.113.322.322 0 0 1-.037-.159c0-.056.013-.105.037-.146s.056-.078.096-.104.087-.048.141-.061.113-.02.176-.02c.124 0 .233.013.326.043a.86.86 0 0 1 .211.085l.105-.266a.844.844 0 0 0-.255-.1 1.48 1.48 0 0 0-.387-.046c-.246 0-.439.057-.577.172s-.209.276-.209.481c0 .1.017.185.048.255a.58.58 0 0 0 .133.18.84.84 0 0 0 .2.133 2.1 2.1 0 0 0 .244.1l.211.081a.84.84 0 0 1 .176.096.44.44 0 0 1 .124.131c.03.052.046.113.046.185 0 .235-.172.352-.515.352-.152 0-.281-.017-.389-.054s-.183-.068-.235-.098l-.098.27a.9.9 0 0 0 .102.05 1.28 1.28 0 0 0 .157.054 2.08 2.08 0 0 0 .207.044c.078.013.163.018.255.018zm1.791-.013.211-.009.196-.018.165-.022.113-.018V9.079c0-.098-.011-.189-.033-.272s-.061-.154-.113-.213a.5.5 0 0 0-.211-.139.888.888 0 0 0-.318-.05 1.76 1.76 0 0 0-.307.026.95.95 0 0 0-.204.052l.039.261c.037-.015.096-.031.172-.046s.168-.02.272-.02c.081 0 .148.011.198.035s.091.056.12.094.05.085.061.135.017.102.017.155v.087l-.048-.009-.078-.017-.098-.013a1.317 1.317 0 0 0-.381.025.732.732 0 0 0-.235.094.46.46 0 0 0-.161.17.5.5 0 0 0-.059.25.62.62 0 0 0 .05.261.44.44 0 0 0 .142.174c.061.044.133.076.217.096s.174.031.274.031zm.037-.265c-.124 0-.222-.022-.294-.067s-.109-.122-.109-.235c0-.061.015-.109.044-.146s.067-.067.109-.089.092-.035.146-.043.104-.009.15-.009c.072 0 .133.004.185.011s.087.017.109.03v.524a.89.89 0 0 1-.144.019l-.196.006zm1.482.228V8.724l.055-.009a.97.97 0 0 1 .087-.013l.104-.007c.037-.004.07-.004.106-.004a.62.62 0 0 1 .209.031.29.29 0 0 1 .135.104.48.48 0 0 1 .072.187c.015.076.022.168.022.278v.922h.315v-.99c0-.118-.011-.229-.035-.328s-.061-.185-.117-.255-.128-.128-.22-.167a.87.87 0 0 0-.348-.059c-.155 0-.292.009-.413.03l-.287.057v1.712h.315zm2.215.037a.994.994 0 0 0 .27-.035l.167-.059-.061-.261-.12.044a.647.647 0 0 1-.37.013.23.23 0 0 1-.102-.07c-.026-.033-.046-.078-.061-.135s-.02-.13-.02-.218v-.812h.666V8.45h-.666v-.546l-.313.056v1.571c0 .117.009.22.028.309a.59.59 0 0 0 .1.226.427.427 0 0 0 .187.137.8.8 0 0 0 .296.046zm1.325 0 .211-.009.196-.018.165-.022.113-.018V9.079c0-.098-.011-.189-.033-.272s-.061-.154-.113-.213a.5.5 0 0 0-.211-.139.888.888 0 0 0-.318-.05 1.76 1.76 0 0 0-.307.026.954.954 0 0 0-.204.052l.037.261c.039-.015.096-.031.174-.046s.168-.02.272-.02c.081 0 .148.011.198.035s.091.056.12.094.05.085.061.135.017.102.017.155v.087l-.048-.009-.08-.017c-.03-.006-.061-.009-.096-.013s-.065-.006-.096-.006c-.1 0-.194.011-.285.031s-.168.052-.237.094a.47.47 0 0 0-.159.17.48.48 0 0 0-.059.25.62.62 0 0 0 .05.261.44.44 0 0 0 .143.174.61.61 0 0 0 .216.096c.083.02.174.031.274.031zm.037-.265c-.124 0-.222-.022-.294-.067s-.109-.122-.109-.235c0-.061.015-.109.044-.146s.067-.067.109-.089.092-.035.146-.043.104-.009.15-.009c.072 0 .133.004.185.011s.087.017.109.03v.524a.89.89 0 0 1-.144.019l-.196.006zm1.482.228V8.724l.056-.009a.97.97 0 0 1 .087-.013l.104-.007c.037-.004.07-.004.105-.004a.62.62 0 0 1 .209.031.29.29 0 0 1 .135.104.48.48 0 0 1 .072.187c.015.076.022.168.022.278v.922h.315v-.99c0-.118-.011-.229-.035-.328s-.061-.185-.117-.255-.128-.128-.22-.167a.87.87 0 0 0-.348-.059c-.155 0-.292.009-.413.03l-.287.057v1.712h.315zm2.408.041c.146 0 .276-.011.389-.031l.278-.061V7.582l-.315.056v.89c-.039-.024-.096-.05-.174-.078s-.166-.041-.268-.041a.786.786 0 0 0-.337.068.69.69 0 0 0-.248.189.85.85 0 0 0-.154.291 1.266 1.266 0 0 0-.052.374c0 .143.02.27.063.385a.81.81 0 0 0 .176.289.79.79 0 0 0 .278.183.973.973 0 0 0 .365.065zm.004-.278c-.169 0-.304-.057-.405-.168s-.152-.27-.152-.476c0-.091.009-.176.026-.254s.048-.148.089-.205.093-.104.157-.135a.49.49 0 0 1 .231-.05c.085 0 .165.015.235.044a.68.68 0 0 1 .167.091v1.114a.89.89 0 0 1-.133.026c-.057.007-.13.013-.215.013zm1.989.278a1.44 1.44 0 0 0 .326-.035 1.06 1.06 0 0 0 .202-.063l-.044-.265a1.049 1.049 0 0 1-.449.086c-.196 0-.34-.048-.431-.143s-.146-.235-.159-.416h1.201c.004-.019.004-.039.004-.059v-.054c0-.302-.063-.527-.189-.675s-.307-.222-.544-.222c-.1 0-.2.02-.296.057s-.183.096-.257.174-.133.172-.18.289-.067.252-.067.409a1.21 1.21 0 0 0 .052.366.78.78 0 0 0 .161.291.75.75 0 0 0 .274.191 1.04 1.04 0 0 0 .398.07zm.32-1.092h-.872a.87.87 0 0 1 .043-.18.52.52 0 0 1 .091-.155.45.45 0 0 1 .139-.109.398.398 0 0 1 .191-.043c.13 0 .23.044.304.137s.109.207.105.35zm1.096 1.051V8.731c.017-.006.056-.013.113-.026s.115-.019.174-.019a1.04 1.04 0 0 1 .22.019l.124.033.054-.276-.063-.015-.093-.017-.104-.013a1.736 1.736 0 0 0-.463.029c-.109.024-.204.05-.278.076v1.688h.315z" fill="#fe0004"/></svg>