<svg width="45" height="9" fill="none" xmlns="http://www.w3.org/2000/svg"><path d="M36.371 7.537a1.343 1.343 0 0 1-.84.29c-.748 0-1.06-.55-1.06-1.332 0-.873.396-1.393 1.228-1.393.222 0 .45.03.672.076v2.359Zm0-3.094a3.272 3.272 0 0 0-.626-.061c-1.412 0-2.13.765-2.13 2.113 0 1.287.672 2.022 1.68 2.022.55 0 .877-.222 1.091-.582l.046.49h.771v-5.36c-.275 0-.573.022-.832.114v1.264Zm3.336.643c.58 0 .916.368.916.996H38.73c.069-.651.382-.996.977-.996Zm1.504 3.186c.053-.253.099-.544.13-.766-.42.192-.886.291-1.344.291-.748 0-1.145-.329-1.252-1.01h2.68c.03-.223.045-.414.045-.652 0-.965-.519-1.753-1.717-1.753-1.336 0-1.863.903-1.863 2.044 0 1.31.68 2.091 2.084 2.091.45 0 .855-.069 1.237-.245Zm-8.267.153V5.852c0-.927-.45-1.47-1.855-1.47-.405 0-.993.084-1.527.214v3.83h.84V5.162c.229-.038.465-.061.664-.061.84 0 1.038.29 1.038.896v2.427h.84Zm-18.145-1.93c0-.857.404-1.393 1.274-1.393.237 0 .428.015.603.045v2.405a1.312 1.312 0 0 1-.816.276c-.748 0-1.061-.552-1.061-1.333Zm1.9 1.47.046.46h.77V4.596c-.442-.153-.892-.214-1.442-.214-1.412 0-2.13.765-2.13 2.113 0 1.287.672 2.022 1.68 2.022.534 0 .862-.214 1.076-.551Zm26.336-2.818c.206-.03.412-.045.619-.045.236 0 .435.007.633.03.046-.16.076-.467.076-.72a6.843 6.843 0 0 0-.732-.03c-.474 0-1.077.092-1.436.214v3.83h.84V5.146Zm-15.832-.045c.237 0 .428.015.603.045v2.405a1.312 1.312 0 0 1-.817.276c-.748 0-1.06-.552-1.06-1.333 0-.857.404-1.393 1.274-1.393Zm-.45 3.415c.534 0 .862-.214 1.076-.551l.046.46h.77v-3.83c-.442-.153-.892-.214-1.442-.214-1.412 0-2.13.765-2.13 2.113 0 1.287.672 2.022 1.68 2.022Zm-15.32-.735c-.42 0-.97-.1-1.398-.299-.084.245-.13.46-.145.774.428.199.939.29 1.565.29 1.298 0 1.962-.604 1.962-1.485 0-.743-.405-1.18-1.374-1.593l-.412-.176c-.535-.23-.832-.46-.832-.858 0-.405.305-.666.969-.666.351 0 .84.069 1.252.222.076-.222.13-.46.152-.766a4.176 4.176 0 0 0-1.396-.222c-1.237 0-1.84.56-1.84 1.432 0 .812.489 1.218 1.206 1.532l.39.168c.717.314 1.007.521 1.007.965 0 .452-.397.682-1.107.682Zm-5.38-3.3a1.77 1.77 0 0 0-.234-.808L4.547 1.462a1.771 1.771 0 0 1-.202-.534l-.053.092a1.774 1.774 0 0 0 0 1.77L5.31 4.557a1.774 1.774 0 0 1 0 1.769l-.053.092a1.77 1.77 0 0 0-.201-.534l-.932-1.62-.595-1.034a1.77 1.77 0 0 1-.202-.534l-.053.092a1.774 1.774 0 0 0-.003 1.763l1.021 1.775a1.774 1.774 0 0 1 0 1.769l-.053.092a1.77 1.77 0 0 0-.201-.534L2.765 5.443a1.772 1.772 0 0 1-.234-.962C1.169 4.838.229 5.597.229 6.474c0 1.222 1.819 2.212 4.063 2.212 2.245 0 4.064-.99 4.064-2.212 0-.877-.94-1.636-2.303-1.993ZM24.7 8.394c.046-.222.076-.483.1-.713a1.9 1.9 0 0 1-.657.115c-.405 0-.649-.191-.649-.689V5.232h1.252c.038-.222.061-.46.076-.72h-1.328V3.065c-.26 0-.58.038-.84.122v4.02c0 .935.52 1.31 1.336 1.31.237 0 .481-.03.71-.122Zm-3.725-2.397v2.427h.84V5.852c0-.927-.45-1.47-1.855-1.47-.405 0-.993.084-1.527.214v3.83h.84V5.162c.229-.038.465-.061.664-.061.84 0 1.038.29 1.038.896Z" fill="#EC0000"/></svg>