<svg width="155" height="47" fill="none" xmlns="http://www.w3.org/2000/svg"><g clip-path="url(#a)" fill="#EC0000"><path d="M20.458 12.656a6.359 6.359 0 0 0-.824-2.876l-4.468-7.876A6.337 6.337 0 0 1 14.46 0l-.186.328a6.394 6.394 0 0 0 0 6.3l3.576 6.3a6.393 6.393 0 0 1 0 6.3l-.186.33a6.386 6.386 0 0 0-.707-1.905l-3.272-5.77-2.09-3.682a6.34 6.34 0 0 1-.706-1.905l-.186.329a6.395 6.395 0 0 0-.011 6.28l3.587 6.322a6.393 6.393 0 0 1 0 6.3l-.188.328a6.386 6.386 0 0 0-.706-1.904l-4.468-7.876a6.392 6.392 0 0 1-.824-3.425C3.303 13.93 0 16.63 0 19.756c0 4.35 6.389 7.876 14.272 7.876 7.882 0 14.272-3.527 14.272-7.876 0-3.127-3.303-5.829-8.086-7.1ZM155 12.411c0 .9-.106 1.991-.268 2.565a18.83 18.83 0 0 0-2.224-.11c-.723 0-1.448.054-2.172.164v11.675h-2.949v-13.64c1.26-.436 3.378-.762 5.039-.762.911 0 1.931.027 2.574.108Zm-19.784 5.947h6.649c0-2.237-1.178-3.546-3.217-3.546s-3.191 1.228-3.432 3.546Zm9.462 2.51h-9.409c.376 2.428 1.769 3.6 4.396 3.6 1.608 0 3.244-.355 4.719-1.037a40.387 40.387 0 0 1-.456 2.727c-1.34.628-2.761.873-4.342.873-4.934 0-7.319-2.783-7.319-7.447 0-4.063 1.848-7.283 6.54-7.283 4.208 0 6.033 2.81 6.033 6.246 0 .846-.054 1.528-.162 2.32m-17.747 2.674V15.14c-.778-.164-1.581-.272-2.359-.272-2.923 0-4.317 1.854-4.317 4.965 0 2.783 1.099 4.746 3.726 4.746 1.179 0 2.145-.41 2.95-1.038Zm2.921-15.93v19.094h-2.706l-.162-1.746c-.75 1.283-1.904 2.073-3.834 2.073-3.538 0-5.897-2.62-5.897-7.2 0-4.582 2.52-7.53 7.478-7.53.778 0 1.502.082 2.198.22V8.02c.911-.328 1.957-.41 2.921-.41m-14.957 9.928v9.164h-2.949v-8.647c0-2.155-.697-3.192-3.647-3.192-.696 0-1.527.081-2.332.218v11.621h-2.95v-13.64c1.877-.463 3.941-.762 5.362-.762 4.933 0 6.514 1.937 6.514 5.238m-18.039 6.057V15.03a12.05 12.05 0 0 0-2.118-.164c-3.056 0-4.478 1.91-4.478 4.965 0 2.784 1.1 4.746 3.726 4.746a4.573 4.573 0 0 0 2.868-.981m2.95-10.53v13.64h-2.707l-.161-1.637c-.75 1.2-1.904 1.964-3.78 1.964-3.537 0-5.897-2.619-5.897-7.2 0-4.58 2.52-7.528 7.479-7.528 1.93 0 3.511.218 5.066.763m-15.817 11.4c.858 0 1.663-.164 2.306-.409-.08.819-.188 1.746-.35 2.536-.804.328-1.662.437-2.491.437-2.868 0-4.692-1.337-4.692-4.665V8.047c.91-.3 2.036-.437 2.95-.437v5.154h4.663a23.718 23.718 0 0 1-.268 2.565h-4.396v6.683c0 1.773.858 2.455 2.278 2.455m-8.177-6.928v9.164h-2.95v-8.647c0-2.155-.696-3.192-3.646-3.192-.697 0-1.528.081-2.333.218v11.621h-2.95v-13.64c1.878-.463 3.941-.762 5.363-.762 4.933 0 6.514 1.937 6.514 5.238m-18.04 6.057V15.03a12.05 12.05 0 0 0-2.118-.164c-3.056 0-4.477 1.91-4.477 4.965 0 2.784 1.099 4.746 3.726 4.746a4.573 4.573 0 0 0 2.868-.981m2.95-10.53v13.64h-2.707l-.162-1.637c-.751 1.2-1.904 1.964-3.779 1.964-3.538 0-5.897-2.619-5.897-7.2 0-4.58 2.52-7.528 7.478-7.528 1.93 0 3.512.218 5.066.763m-26.78 13.037c.053-1.119.215-1.884.509-2.755 1.501.71 3.432 1.064 4.906 1.064 2.493 0 3.888-.818 3.888-2.427 0-1.61-1.02-2.32-3.538-3.436l-1.367-.6c-2.52-1.12-4.236-2.566-4.236-5.457 0-3.11 2.118-5.1 6.46-5.1 1.743 0 3.38.245 4.907.791a10.615 10.615 0 0 1-.535 2.727c-1.448-.544-3.164-.792-4.396-.792-2.333 0-3.405.928-3.405 2.374 0 1.447 1.046 2.237 2.92 3.056l1.45.627c3.404 1.474 4.824 3.029 4.824 5.675 0 3.136-2.333 5.291-6.89 5.291-2.198 0-3.994-.326-5.495-1.037M33.832 40.398c0-4.139 2.259-6.601 6.29-6.601.968 0 1.9.11 2.743.419a6.494 6.494 0 0 1-.34 1.806 7.149 7.149 0 0 0-2.4-.402c-2.455 0-4.213 1.551-4.213 4.688 0 3.136 1.792 4.868 4.176 4.868.86 0 1.864-.2 2.58-.565-.036.693-.143 1.294-.306 1.987-.735.255-1.47.402-2.545.402-3.853 0-5.985-2.681-5.985-6.602ZM50.587 42.038c0-2.225-1.004-3.245-2.615-3.245-1.828 0-2.67 1.24-2.67 3.174 0 2.242 1.003 3.244 2.67 3.244 1.755 0 2.615-1.22 2.615-3.173Zm-7.294.093c0-3.191 1.828-5.05 4.732-5.05s4.57 2.097 4.57 4.795c0 3.19-1.81 5.05-4.748 5.05-2.939 0-4.552-2.097-4.552-4.795M61.951 40.58v6.126H59.98v-5.78c0-1.441-.465-2.135-2.437-2.135-.467 0-1.021.054-1.558.145v7.768h-1.972v-9.118c1.254-.31 2.634-.51 3.583-.51 3.297 0 4.355 1.294 4.355 3.502M63.365 46.306c.036-.747.125-1.276.27-1.695.824.419 1.972.637 2.832.637 1.129 0 1.755-.311 1.755-1.076 0-.674-.537-.948-1.397-1.22l-.915-.292c-1.81-.583-2.418-1.551-2.418-2.882 0-1.678 1.166-2.698 3.423-2.698 1.129 0 2.097.128 2.938.437a6.795 6.795 0 0 1-.287 1.604c-.843-.274-1.666-.382-2.598-.382-1.255 0-1.578.402-1.578.966 0 .674.448 1.004 1.397 1.313l.95.311c1.702.547 2.437 1.35 2.437 2.789 0 1.66-1.291 2.808-3.656 2.808-1.327 0-2.312-.181-3.155-.62M79.35 37.299v9.41h-1.828l-.108-1.186c-.61.82-1.47 1.404-2.688 1.404-2.168 0-3.316-1.167-3.316-3.502V37.3h1.97v5.67c0 1.551.52 2.243 2.026 2.243.717 0 1.416-.238 1.972-.73v-7.185h1.972v.002ZM95.21 40.58v6.126h-1.972v-5.835c0-1.367-.592-2.078-2.24-2.078-.645 0-1.327.145-1.936.402.125.402.178.858.178 1.387v6.126h-1.972v-5.854c0-1.35-.609-2.06-2.311-2.06-.557 0-1.147.053-1.684.163v7.751H81.3V37.59c1.254-.311 2.634-.51 3.853-.51 1.219 0 2.24.218 2.921.71 1.021-.455 2.097-.71 3.1-.71 3.027 0 4.031 1.294 4.031 3.502M98.507 41.126h4.446c0-1.495-.788-2.37-2.151-2.37-1.363 0-2.133.821-2.295 2.37Zm6.327 1.679h-6.29c.25 1.622 1.182 2.406 2.938 2.406a7.581 7.581 0 0 0 3.154-.693c-.072.529-.178 1.222-.305 1.823-.896.42-1.845.583-2.904.583-3.297 0-4.892-1.86-4.892-4.979 0-2.717 1.238-4.869 4.373-4.869 2.813 0 4.032 1.877 4.032 4.176 0 .566-.036 1.021-.108 1.55M111.536 37.151c0 .603-.072 1.331-.178 1.714a12.68 12.68 0 0 0-1.489-.074c-.484 0-.968.037-1.452.11v7.805h-1.972v-9.118c.843-.292 2.259-.51 3.369-.51.61 0 1.291.017 1.72.073M122.091 43.097c0-1.294-.968-1.896-2.957-1.896h-1.739v3.756h1.666c2.026 0 3.03-.492 3.03-1.86Zm-4.696-7.385v3.737h1.613c1.775 0 2.546-.657 2.546-1.86 0-1.076-.574-1.95-2.885-1.95-.448 0-.843.017-1.272.073m6.736 7.295c0 2.352-1.452 3.702-4.857 3.702h-3.889V34.182a19.153 19.153 0 0 1 3.244-.291c3.386 0 4.963 1.313 4.963 3.465 0 1.075-.537 2.298-1.739 2.844 1.416.365 2.276 1.459 2.276 2.809M131.482 44.628V38.9a7.946 7.946 0 0 0-1.416-.11c-2.042 0-2.993 1.277-2.993 3.318 0 1.86.734 3.174 2.49 3.174.771 0 1.397-.255 1.917-.657m1.974-7.036v9.118h-1.811l-.108-1.093c-.501.803-1.272 1.313-2.526 1.313-2.365 0-3.943-1.75-3.943-4.813 0-3.063 1.684-5.033 5-5.033 1.291 0 2.348.145 3.386.51M143.346 40.58v6.126h-1.972v-5.78c0-1.441-.465-2.135-2.437-2.135-.467 0-1.021.054-1.559.145v7.768h-1.972v-9.118c1.255-.31 2.635-.51 3.584-.51 3.297 0 4.354 1.294 4.354 3.502M153.399 46.706h-2.384l-3.513-5.014v-.127l3.422-4.267h2.329l-3.547 4.323 3.691 5.087.002-.002Zm-8.188-12.617a6.246 6.246 0 0 1 1.972-.292v12.91h-1.972V34.088Z"/></g><defs><clipPath id="a"><path fill="#fff" d="M0 0h155v47H0z"/></clipPath></defs></svg>