<svg width="48" height="13" fill="none" xmlns="http://www.w3.org/2000/svg"><path d="m18.924 11.463-.232-.078c-.308-.101-.503-.184-.503-.457 0-.238.195-.36.578-.36.248 0 .495.04.73.122a1.27 1.27 0 0 0 .049-.286 2.22 2.22 0 0 0-.786-.127c-.563 0-.902.229-.902.661 0 .389.244.607.687.738l.23.068c.238.073.513.175.513.466 0 .277-.235.394-.618.394-.254 0-.578-.059-.812-.19a.958.958 0 0 0-.049.296c.234.131.521.19.87.19.599 0 .947-.258.947-.7-.005-.421-.308-.606-.702-.737Zm-2.768-1.185a3.792 3.792 0 0 0-.938.137v2.428h.348v-2.196c.19-.043.383-.066.578-.068.612 0 .786.233.786.685v1.58h.349V11.2c.002-.588-.282-.923-1.123-.923Zm4.128-2.718h.808V5.152c0-.868-.433-1.377-1.786-1.377-.39 0-.956.08-1.47.203v3.585h.808V4.508c.212-.035.426-.054.64-.057.808 0 1 .272 1 .839v2.27Zm1.527 4.772c-.19.18-.443.278-.707.277-.448 0-.657-.214-.657-.719v-1.553H20.1v1.621c0 .646.32.942.897.942.378 0 .632-.092.826-.277l.01.219h.329v-2.505h-.349l-.001 1.995Zm2.06-4.8a6.51 6.51 0 0 0 .096-.667 1.871 1.871 0 0 1-.633.107c-.389 0-.625-.179-.625-.645V4.571h1.206c.037-.223.062-.447.074-.673h-1.28V2.542c-.273 0-.546.038-.808.115V6.42c0 .875.5 1.226 1.286 1.226.234.005.466-.034.684-.115Zm14.71.114c.434 0 .823-.064 1.191-.229.053-.237.096-.508.125-.717-.407.179-.847.272-1.294.272-.72 0-1.102-.308-1.205-.946h2.58c.03-.202.045-.406.044-.61 0-.903-.5-1.642-1.654-1.642-1.286 0-1.794.847-1.794 1.914 0 1.227.655 1.958 2.008 1.958Zm-.257-3.211c.559 0 .882.344.882.932h-1.824c.067-.61.369-.932.942-.932Zm-32.41-.567a1.62 1.62 0 0 0-.225-.756l-1.224-2.07a1.64 1.64 0 0 1-.194-.5l-.052.086a1.624 1.624 0 0 0 0 1.656l.98 1.656a1.624 1.624 0 0 1 0 1.656l-.052.087a1.604 1.604 0 0 0-.194-.5l-.897-1.517-.574-.966a1.64 1.64 0 0 1-.194-.5l-.052.086a1.625 1.625 0 0 0-.003 1.651l.984 1.661a1.624 1.624 0 0 1 0 1.656l-.053.087a1.61 1.61 0 0 0-.193-.5L2.745 4.77a1.625 1.625 0 0 1-.225-.9C1.21 4.203.305 4.915.305 5.734c0 1.143 1.752 2.07 3.914 2.07 2.161 0 3.913-.927 3.913-2.07 0-.82-.905-1.53-2.218-1.866Zm5.18 3.09a3.505 3.505 0 0 1-1.345-.28 2.354 2.354 0 0 0-.14.727c.412.186.905.273 1.508.273 1.25 0 1.888-.567 1.888-1.391 0-.696-.389-1.104-1.322-1.492l-.397-.164c-.515-.215-.802-.43-.802-.803 0-.373.294-.624.934-.624.41.004.818.074 1.205.208.082-.232.131-.473.147-.717a4.126 4.126 0 0 0-1.345-.208c-1.19 0-1.772.524-1.772 1.34 0 .76.47 1.14 1.162 1.435l.375.157c.69.294.97.488.97.904 0 .415-.382.635-1.066.635Zm.164 2.782c.232 0 .463.038.681.116.035-.105.055-.215.06-.325a2.144 2.144 0 0 0-.742-.117c-1.045 0-1.647.641-1.647 1.748 0 1.053.573 1.747 1.613 1.747.234.006.469-.028.692-.101.03-.118.047-.238.054-.36-.222.091-.46.137-.702.136-.786 0-1.294-.529-1.294-1.437 0-.922.508-1.407 1.284-1.407Zm2.235.538c-.772 0-1.23.505-1.23 1.326 0 .748.403 1.296 1.198 1.296.787 0 1.235-.505 1.235-1.335.001-.738-.397-1.287-1.203-1.287Zm-.012 2.316c-.568 0-.866-.364-.866-1.016 0-.597.283-.995.866-.995.562 0 .86.369.86 1.005.003.613-.28 1.006-.86 1.006Zm2.684-5.464.044.43h.742V3.976c-.426-.144-.86-.204-1.39-.204-1.359 0-2.05.717-2.05 1.979 0 1.204.647 1.893 1.616 1.893.518.002.834-.199 1.04-.514h-.002Zm-1.829-1.377c0-.802.39-1.304 1.228-1.304.194-.002.389.012.58.043v2.253c-.224.17-.501.26-.786.258-.72-.002-1.022-.518-1.022-1.25Zm22.186 4.524a3.8 3.8 0 0 0-.938.136v2.43h.348v-2.196c.19-.043.383-.066.578-.068.612 0 .786.233.786.685v1.58h.349V11.2c.002-.588-.282-.923-1.123-.923v-.001Zm1.637 1.33c0 .83.439 1.291 1.147 1.291.25.003.49-.086.677-.247l.01.19h.324v-2.426a2.312 2.312 0 0 0-.831-.137c-.893 0-1.327.476-1.327 1.33Zm1.808.763a.882.882 0 0 1-.632.247c-.543 0-.822-.383-.822-1.01 0-.65.304-1.029.97-1.029.164-.001.326.018.484.059v1.733Zm1.563-7.878c.197-.029.397-.043.596-.043.204-.002.407.007.61.029.05-.221.076-.447.073-.674a6.65 6.65 0 0 0-.706-.03c-.455 0-1.036.087-1.382.204v3.585h.81V4.492Zm-5.617-1.95c-.265 0-.552.022-.801.108v1.182a3.268 3.268 0 0 0-.603-.057c-1.36 0-2.051.717-2.051 1.978 0 1.205.647 1.893 1.615 1.893.53 0 .846-.208 1.052-.545l.043.458h.743l.002-5.017Zm-.801 4.187a1.32 1.32 0 0 1-.81.272c-.72 0-1.021-.516-1.021-1.248 0-.817.382-1.304 1.183-1.304.218.003.435.027.648.072v2.208Zm6.816 3.55a3.792 3.792 0 0 0-.938.136v2.428h.348v-2.196c.19-.043.383-.066.577-.068.613 0 .787.233.787.685v1.58h.349V11.2c.002-.588-.28-.923-1.123-.923Zm5.993 1.126c0-.627-.318-1.127-1.065-1.127-.817 0-1.15.573-1.15 1.297 0 .835.438 1.325 1.27 1.325.283 0 .542-.044.791-.185.023-.107.04-.216.052-.325-.255.139-.542.211-.834.209-.567 0-.88-.31-.925-.893H47.9c.015-.1.022-.2.02-.301Zm-.348-.005H46.06c.04-.505.284-.825.782-.825.498 0 .73.325.73.806v.019Zm-2.713-.82c.19-.001.378.037.552.111.021-.097.035-.196.04-.296a1.476 1.476 0 0 0-.592-.117c-.886 0-1.314.525-1.314 1.322 0 .835.482 1.3 1.214 1.3.24 0 .463-.047.643-.169.02-.107.034-.228.044-.325a1.22 1.22 0 0 1-.657.194c-.513 0-.891-.316-.891-1.01 0-.637.324-1.01.962-1.01h-.001ZM34.735 9.491a.233.233 0 0 0-.168.065.22.22 0 0 0-.066.163.213.213 0 0 0 .067.162.225.225 0 0 0 .167.061.225.225 0 0 0 .165-.062.212.212 0 0 0 .064-.16.214.214 0 0 0-.064-.163.224.224 0 0 0-.165-.066Zm-2.61 3.351h.35v-1.53h1.435c.015-.093.03-.238.035-.326h-1.47v-1.18h1.568c.02-.107.033-.215.04-.325h-1.957v3.361Zm2.435 0h.349v-2.506h-.349v2.506Zm-4.784-2.427v2.427h.349v-2.21c.16-.033.323-.052.487-.054.129-.001.257.005.384.02.024-.095.036-.193.035-.291a3.522 3.522 0 0 0-.428-.02c-.28.002-.559.045-.827.127v.001Zm-2.104-6.44c-.427-.144-.86-.204-1.39-.204-1.36 0-2.05.717-2.05 1.979 0 1.204.647 1.893 1.615 1.893.514 0 .83-.204 1.036-.516l.044.43h.745V3.976Zm-.809 2.769c-.225.17-.502.26-.786.258-.721 0-1.022-.517-1.022-1.248 0-.803.39-1.305 1.228-1.305.194-.002.388.013.58.044v2.25Zm1.303 3.535c-.817 0-1.15.573-1.15 1.296 0 .835.438 1.325 1.27 1.325.283 0 .542-.043.791-.184.023-.108.04-.216.052-.325-.255.139-.542.21-.834.209-.567 0-.881-.311-.926-.894h1.843c.014-.1.02-.2.02-.3-.003-.629-.322-1.129-1.069-1.129l.003.002Zm.717 1.122H27.37c.04-.506.284-.826.782-.826.498 0 .73.325.73.806v.02Zm1.146-7.624c-.39 0-.956.08-1.47.203v3.585h.808V4.508c.21-.036.422-.055.635-.06.808 0 1 .273 1 .84V7.56h.808V5.152c0-.868-.433-1.377-1.785-1.377l.004.003Zm-4.554 6.505c-.303.005-.6.074-.872.204-.174-.141-.433-.204-.781-.204-.332.004-.662.05-.981.137v2.423h.348v-2.196c.196-.044.397-.066.598-.068.532 0 .73.195.73.665v1.6h.348V11.2a1.214 1.214 0 0 0-.085-.481 1.73 1.73 0 0 1 .662-.14c.513 0 .73.232.73.674v1.59h.348V11.2c0-.588-.298-.923-1.05-.923l.005.005Z" fill="red"/></svg>