<svg width="24" height="24" fill="none" xmlns="http://www.w3.org/2000/svg"><rect x=".784" y=".535" width="22.485" height="22.492" rx="11.242" fill="#8ACA33"/><path fill-rule="evenodd" clip-rule="evenodd" d="m9.094 10.205-.69.515c-.334-.274-.748-.332-.99-.332-.23 0-.47.07-.517.23-.034.17.115.297.38.366.298.08.575.149.99.263.62.184 1.046.447 1.046 1.077 0 .848-.76 1.294-1.784 1.294-1.023 0-1.725-.527-1.932-.779l.736-.537c.506.445.875.503 1.162.503.345 0 .667-.069.713-.263.035-.161-.104-.276-.39-.344-.335-.08-.61-.138-.92-.218-.84-.23-1.083-.71-1.083-1.156 0-.596.564-1.226 1.6-1.226 1.058 0 1.68.607 1.68.607Zm4.417-.538h-3.094v3.837h3.152v-.882h-2.06v-.618h1.415v-.848H11.51v-.62h2.002v-.869Zm-3.646-.894h-.242v5.623h.242V8.773Zm4.348 0h-.242v5.623h.242V8.773Zm.552 4.73h2.485c.667 0 1.208-.39 1.208-1.03 0-.504-.334-.825-.794-.974 0 0-.012 0-.046-.01h.046a.879.879 0 0 0 .552-.848c0-.596-.53-.974-1.173-.974h-2.278v3.837Zm1.093-3.035h.874c.195 0 .357.15.357.332 0 .184-.162.333-.357.333h-.874v-.665Zm1.058 2.188h-1.058v-.698h1.058c.195 0 .345.149.345.344 0 .205-.15.354-.345.354Z" fill="#fff"/></svg>