<svg width="52" height="17" fill="none" xmlns="http://www.w3.org/2000/svg"><path d="M40.513 3.117c-.267.725-.746 1.173-1.656 1.173h-.474l.804-2.194h.459c.838 0 1.151.248.867 1.021Zm2.416-2.004C42.52.518 41.686.225 40.38.224h-3.022l-3.27 9.07h2.778L38.054 6.1c.058.13.76 3.192.76 3.192h2.919s-.531-2.25-.922-3.158c-.1-.233-.205-.495-.345-.714.825-.31 2.02-.973 2.514-2.32.305-.828.287-1.496-.05-1.988ZM15.024.22H9.876c-.812 0-1.6 0-2.307.362-.706.362-1.33 1.087-1.81 2.536-.104.312-.16.58-.166.813-.007.234.033.433.12.605.108.21.283.41.502.577.22.166.482.303.765.39l.34.097.521.155c.078.024.164.055.241.102a.486.486 0 0 1 .19.196.447.447 0 0 1 .047.188.611.611 0 0 1-.036.216c-.066.198-.166.324-.356.402-.19.077-.47.102-.894.106H1.735L.897 9.287h5.671c.534 0 1.51 0 2.447-.402s1.837-1.206 2.217-2.815c.144-.605.1-1.098-.135-1.485-.235-.387-.661-.667-1.28-.847l-.302-.088-.447-.129a.599.599 0 0 1-.352-.257.507.507 0 0 1-.053-.407.59.59 0 0 1 .294-.356c.15-.084.345-.13.574-.13h3.296c.023-.034.044-.07.068-.104.602-.86 1.331-1.557 2.13-2.048Z" fill="#EE7F00"/><path d="M17.443 4.712c-.77 2.127-1.328 2.663-2.169 2.663h-.001c-.82-.002-1.107-.525-.34-2.642.572-1.58 1.313-2.591 2.21-2.591.853 0 1.049.5.3 2.57Zm2.64-3.643c-.449-.648-1.216-.978-2.285-.98-.699 0-1.377.163-2.013.466-.91.435-1.734 1.16-2.408 2.123a9.287 9.287 0 0 0-1.104 2.159c-.553 1.529-.547 2.77.018 3.587.321.462.987 1.014 2.34 1.015h.006c2.466 0 4.308-1.633 5.474-4.854.308-.853.715-2.443-.028-3.516Zm9.857-.85h-5.247c-1.467 0-2.559.75-3.075 2.153l-2.492 6.916h2.73l1.281-3.556 2.413.002.686-1.904-2.405-.001.387-1.103a.578.578 0 0 1 .556-.354h2.845c.024-.033.045-.07.069-.105.601-.86 1.454-1.556 2.252-2.048Zm2.387 4.493c-.77 2.127-1.328 2.663-2.168 2.663h-.002c-.82-.002-1.106-.525-.34-2.642.572-1.58 1.314-2.591 2.21-2.591h.001c.853 0 1.048.5.299 2.57Zm2.64-3.643c-.449-.648-1.216-.978-2.285-.98-.699 0-1.377.163-2.013.466-.91.435-1.733 1.16-2.407 2.123a9.252 9.252 0 0 0-1.105 2.159c-.553 1.529-.546 2.77.02 3.587.32.462.985 1.014 2.34 1.015h.004c2.467 0 4.31-1.633 5.474-4.854.309-.853.715-2.443-.027-3.516ZM43.054.227c.175.14.327.3.453.484.323.47.447 1.029.373 1.669h1.654L43.04 9.298h2.49l2.494-6.918h3.199L52 .227h-8.946Z" fill="#EE7F00"/><path d="M5.401 10.675c-.059.162-.132.275-.22.34-.087.065-.22.098-.396.098-.177 0-.285-.031-.323-.094-.038-.063-.029-.172.028-.33.06-.165.132-.28.218-.343.086-.064.218-.096.395-.096.177 0 .285.031.325.092.04.062.03.172-.027.332Zm-1.505 0c-.059.162-.131.275-.218.34s-.218.098-.395.098c-.177 0-.285-.031-.324-.094-.04-.063-.031-.172.026-.33.06-.165.133-.28.22-.343.086-.064.218-.096.392-.096.18 0 .289.031.327.092.039.062.03.172-.028.332Zm.806 3.66c-.1.276-.229.523-.388.74a2.41 2.41 0 0 1-1.256.899 2.85 2.85 0 0 1-.835.118c-.28 0-.52-.035-.717-.106a.904.904 0 0 1-.45-.322.945.945 0 0 1-.158-.538 2.158 2.158 0 0 1 .149-.753l.987-2.738a.16.16 0 0 1 .043-.063.232.232 0 0 1 .09-.045c.04-.011.09-.02.15-.028.06-.007.134-.01.224-.01.088 0 .159.003.213.01a.604.604 0 0 1 .129.028c.03.012.049.027.057.045a.082.082 0 0 1 0 .063l-.958 2.658c-.064.179-.099.334-.102.465a.6.6 0 0 0 .07.325c.051.086.125.15.223.193a.89.89 0 0 0 .358.065 1.237 1.237 0 0 0 .762-.26c.108-.085.206-.188.294-.313.087-.124.159-.265.216-.423l.976-2.71a.161.161 0 0 1 .044-.063.237.237 0 0 1 .088-.045.922.922 0 0 1 .15-.028c.06-.007.135-.01.222-.01s.158.003.212.01a.585.585 0 0 1 .126.028c.03.012.049.027.056.045a.085.085 0 0 1-.002.063l-.973 2.7Zm3.905-1.57a.68.68 0 0 0 .046-.243.285.285 0 0 0-.06-.179.361.361 0 0 0-.168-.11 1.055 1.055 0 0 0-.323-.038h-.458l-.42 1.169h.505c.131 0 .241-.015.33-.047a.844.844 0 0 0 .426-.32.99.99 0 0 0 .122-.232Zm-.464 1.928a.71.71 0 0 0 .049-.28.348.348 0 0 0-.077-.207.443.443 0 0 0-.209-.128 1.286 1.286 0 0 0-.386-.045h-.538l-.46 1.28h.654c.126 0 .236-.013.332-.04a.94.94 0 0 0 .486-.314.904.904 0 0 0 .149-.266Zm.952-.03a1.862 1.862 0 0 1-.528.779c-.113.099-.236.185-.368.257a2.39 2.39 0 0 1-.417.177 2.717 2.717 0 0 1-.45.103c-.152.022-.32.033-.498.033H5.649c-.076 0-.132-.022-.168-.068-.035-.045-.034-.118.003-.221l1.414-3.925a.433.433 0 0 1 .158-.22.384.384 0 0 1 .215-.068h1.12c.273 0 .496.023.669.069a.89.89 0 0 1 .403.21.576.576 0 0 1 .169.357c.018.144-.009.313-.08.508a1.504 1.504 0 0 1-.637.78c-.098.06-.204.109-.316.146.118.023.22.063.306.122a.589.589 0 0 1 .198.224c.046.092.07.2.072.322a1.2 1.2 0 0 1-.08.414Zm3.331.991a1.756 1.756 0 0 1-.069.168.597.597 0 0 1-.066.11.227.227 0 0 1-.064.06.123.123 0 0 1-.064.02h-2.24c-.075 0-.13-.023-.166-.068-.036-.045-.035-.119.002-.22l1.414-3.926a.427.427 0 0 1 .157-.22.385.385 0 0 1 .216-.069h2.226c.02 0 .036.007.048.018.013.012.018.032.02.06a.44.44 0 0 1-.014.112c-.011.046-.029.103-.054.172-.023.065-.046.12-.068.166a.672.672 0 0 1-.065.11.256.256 0 0 1-.064.06.117.117 0 0 1-.062.02h-1.591l-.396 1.099h1.347a.07.07 0 0 1 .05.019c.012.013.02.033.021.059a.402.402 0 0 1-.013.108 1.805 1.805 0 0 1-.12.332.538.538 0 0 1-.064.106.22.22 0 0 1-.063.058.134.134 0 0 1-.064.018h-1.346l-.458 1.27h1.605a.07.07 0 0 1 .05.018c.013.013.02.033.021.061a.389.389 0 0 1-.014.11 1.77 1.77 0 0 1-.052.169Zm4.25-2.816c.054-.147.066-.273.036-.375-.03-.102-.113-.174-.25-.216a1.001 1.001 0 0 0-.146-.028 2.08 2.08 0 0 0-.24-.01h-.406l-.46 1.277h.462c.129 0 .246-.015.354-.047.108-.031.204-.075.289-.132a.886.886 0 0 0 .218-.204.97.97 0 0 0 .143-.264Zm.067 3.056a.2.2 0 0 1-.037.064.18.18 0 0 1-.08.044.767.767 0 0 1-.161.024 4.759 4.759 0 0 1-.504 0 .41.41 0 0 1-.126-.026c-.029-.012-.046-.03-.053-.049a.214.214 0 0 1-.008-.071l-.037-1.006a3.386 3.386 0 0 0-.033-.303.66.66 0 0 0-.073-.22.338.338 0 0 0-.147-.134.546.546 0 0 0-.239-.046h-.282l-.619 1.715a.146.146 0 0 1-.044.063.25.25 0 0 1-.09.046.855.855 0 0 1-.149.028c-.06.006-.134.01-.224.01-.087 0-.159-.004-.214-.01a.566.566 0 0 1-.13-.028c-.03-.012-.05-.027-.056-.046a.09.09 0 0 1 .002-.063l1.473-4.088a.429.429 0 0 1 .157-.22.382.382 0 0 1 .216-.069h1.154a4.73 4.73 0 0 1 .487.025c.17.025.315.07.436.132a.695.695 0 0 1 .277.246c.064.1.097.22.1.357.003.139-.028.297-.092.475a1.912 1.912 0 0 1-.205.413 1.75 1.75 0 0 1-.65.587c-.135.071-.278.13-.432.174a.6.6 0 0 1 .25.287c.028.066.05.141.064.225.016.086.026.181.032.288l.055.887c.003.088.003.152 0 .193a.377.377 0 0 1-.018.096Zm5.634-.115a.585.585 0 0 1-.106.134.35.35 0 0 1-.136.076.865.865 0 0 1-.198.035 3.885 3.885 0 0 1-.293.01c-.13 0-.235-.003-.312-.01a.55.55 0 0 1-.175-.035c-.04-.017-.064-.043-.072-.076a.359.359 0 0 1 0-.134l.315-2.853h-.007l-1.704 2.853a.62.62 0 0 1-.095.13.319.319 0 0 1-.126.078.742.742 0 0 1-.196.037 4.242 4.242 0 0 1-.308.01 4.32 4.32 0 0 1-.316-.01.546.546 0 0 1-.174-.035c-.04-.017-.065-.043-.073-.076a.373.373 0 0 1-.003-.134l.403-3.928c.01-.084.02-.15.036-.197a.195.195 0 0 1 .08-.11.335.335 0 0 1 .157-.047 4.682 4.682 0 0 1 .532-.004.42.42 0 0 1 .135.025c.026.013.042.032.045.056a.344.344 0 0 1-.01.103l-.46 3.448h.003l2.047-3.425a.6.6 0 0 1 .075-.107.237.237 0 0 1 .099-.064.617.617 0 0 1 .158-.032 3.686 3.686 0 0 1 .512-.002c.064.005.11.015.14.03.03.015.049.037.055.065a.308.308 0 0 1-.002.11l-.393 3.425h.007l2.02-3.439a.682.682 0 0 1 .063-.095.202.202 0 0 1 .087-.062.545.545 0 0 1 .15-.032c.061-.005.146-.008.254-.008.1 0 .178.003.233.008.054.006.09.022.106.047.015.026.012.064-.009.114-.021.05-.058.117-.11.203l-2.434 3.918Zm4.672-.125a1.8 1.8 0 0 1-.07.168.585.585 0 0 1-.065.11.223.223 0 0 1-.065.06.123.123 0 0 1-.064.02h-2.239c-.075 0-.13-.023-.166-.068-.036-.045-.035-.119.002-.22l1.414-3.926a.427.427 0 0 1 .157-.22.385.385 0 0 1 .216-.069h2.225c.021 0 .037.007.049.018.012.012.019.032.02.06 0 .03-.004.067-.015.112-.01.046-.028.103-.053.172-.02.057-.043.112-.069.166a.592.592 0 0 1-.064.11.256.256 0 0 1-.064.06.118.118 0 0 1-.062.02h-1.591l-.397 1.099h1.347c.021 0 .037.007.05.019.013.013.02.033.022.059a.37.37 0 0 1-.013.108 1.78 1.78 0 0 1-.12.332.596.596 0 0 1-.064.106.219.219 0 0 1-.064.058.135.135 0 0 1-.063.018h-1.347l-.457 1.27h1.604a.07.07 0 0 1 .05.018c.013.013.02.033.022.061a.392.392 0 0 1-.014.11 1.62 1.62 0 0 1-.052.169Zm1.922.233a.145.145 0 0 1-.045.063.245.245 0 0 1-.09.044.869.869 0 0 1-.148.029c-.06.006-.135.01-.224.01-.088 0-.16-.004-.215-.01a.578.578 0 0 1-.13-.029c-.03-.011-.05-.026-.058-.044a.081.081 0 0 1 0-.063l1.532-4.253a.153.153 0 0 1 .046-.062.25.25 0 0 1 .092-.045.874.874 0 0 1 .15-.028 2.048 2.048 0 0 1 .437 0 .544.544 0 0 1 .128.028c.03.012.05.027.058.045a.08.08 0 0 1 0 .063l-1.533 4.252Zm4.412-1.225a2.025 2.025 0 0 1-.356.623c-.152.18-.323.328-.516.447-.192.12-.4.21-.62.27-.22.06-.447.09-.674.09-.154 0-.293-.013-.415-.038a1.83 1.83 0 0 1-.317-.092 1.023 1.023 0 0 1-.212-.113.408.408 0 0 1-.109-.105c-.019-.03-.025-.073-.017-.13a2.24 2.24 0 0 1 .141-.426.73.73 0 0 1 .066-.119.197.197 0 0 1 .065-.064.128.128 0 0 1 .067-.02c.032 0 .07.02.115.058a1.408 1.408 0 0 0 .463.254c.113.038.255.058.422.058.11 0 .214-.014.31-.04a.98.98 0 0 0 .264-.114.816.816 0 0 0 .34-.42.366.366 0 0 0 .011-.263.477.477 0 0 0-.145-.195 1.387 1.387 0 0 0-.243-.16 11.883 11.883 0 0 1-.292-.159 1.946 1.946 0 0 1-.28-.19.826.826 0 0 1-.21-.253.822.822 0 0 1-.089-.35 1.28 1.28 0 0 1 .093-.484c.077-.215.185-.405.323-.569a1.971 1.971 0 0 1 1.03-.648c.199-.053.403-.08.61-.08.105 0 .207.008.307.024s.19.038.273.066c.081.028.152.059.21.094a.341.341 0 0 1 .11.086.158.158 0 0 1 .025.06.236.236 0 0 1-.002.064.613.613 0 0 1-.025.101 3.411 3.411 0 0 1-.117.322.921.921 0 0 1-.058.115.234.234 0 0 1-.06.066.118.118 0 0 1-.067.02c-.025 0-.06-.015-.103-.047a1.49 1.49 0 0 0-.406-.211 1.039 1.039 0 0 0-.331-.047.955.955 0 0 0-.271.036.812.812 0 0 0-.221.101.658.658 0 0 0-.166.155.684.684 0 0 0-.106.192.37.37 0 0 0-.012.259.46.46 0 0 0 .147.195c.07.056.153.11.25.16.1.05.197.104.294.158.1.056.194.119.284.19a.84.84 0 0 1 .215.254.813.813 0 0 1 .092.347c.007.134-.023.291-.087.472Zm4.742-.327c-.1.276-.23.523-.388.74a2.397 2.397 0 0 1-1.257.898 2.852 2.852 0 0 1-.835.119c-.28 0-.519-.035-.716-.106a.905.905 0 0 1-.45-.322.936.936 0 0 1-.158-.538c-.005-.214.045-.465.148-.753l.987-2.738a.15.15 0 0 1 .043-.063.237.237 0 0 1 .09-.045.97.97 0 0 1 .15-.028c.06-.007.135-.01.225-.01.087 0 .158.003.213.01a.606.606 0 0 1 .128.028c.03.012.05.027.057.045a.077.077 0 0 1 0 .063l-.958 2.658c-.064.179-.098.334-.102.465-.003.131.02.24.07.325.051.086.126.15.224.193a.89.89 0 0 0 .358.065 1.243 1.243 0 0 0 .761-.26c.11-.085.207-.188.294-.313.087-.124.16-.265.216-.423l.977-2.71a.153.153 0 0 1 .043-.063.236.236 0 0 1 .089-.045.92.92 0 0 1 .15-.028c.06-.007.134-.01.221-.01.088 0 .159.003.213.01a.586.586 0 0 1 .125.028c.03.012.049.027.056.045a.086.086 0 0 1-.001.063l-.973 2.7Zm4.468 1.357a.483.483 0 0 1-.19.247.514.514 0 0 1-.268.08h-.386a.689.689 0 0 1-.2-.024.254.254 0 0 1-.13-.09.476.476 0 0 1-.08-.173 2.35 2.35 0 0 1-.053-.283l-.351-2.106a7.855 7.855 0 0 1-.05-.405 5.391 5.391 0 0 1-.026-.423h-.007a20.681 20.681 0 0 1-.338 1.013l-.849 2.356a.167.167 0 0 1-.041.062.235.235 0 0 1-.083.047.635.635 0 0 1-.135.03c-.056.007-.126.01-.208.01a1.44 1.44 0 0 1-.196-.01.376.376 0 0 1-.114-.03c-.025-.013-.04-.029-.045-.047a.107.107 0 0 1 .006-.062l1.458-4.047c.04-.11.1-.191.183-.246a.475.475 0 0 1 .262-.081h.486a.81.81 0 0 1 .212.022c.054.015.099.04.133.075a.355.355 0 0 1 .081.145c.019.06.034.136.045.228l.275 1.645.044.294c.015.096.028.193.04.29a26.189 26.189 0 0 1 .059.56h.003a30.168 30.168 0 0 1 .344-1.011l.761-2.113a.154.154 0 0 1 .044-.063.271.271 0 0 1 .086-.048.601.601 0 0 1 .138-.03 2.002 2.002 0 0 1 .4 0 .304.304 0 0 1 .111.03c.024.014.038.03.043.048a.103.103 0 0 1-.005.063l-1.459 4.047Zm6.129-3.483a1.673 1.673 0 0 1-.072.174.838.838 0 0 1-.065.117.229.229 0 0 1-.06.06.117.117 0 0 1-.06.018c-.03 0-.07-.021-.123-.063a1.437 1.437 0 0 0-.215-.136 1.782 1.782 0 0 0-.856-.198c-.214 0-.426.038-.626.113a2.07 2.07 0 0 0-.564.32 2.357 2.357 0 0 0-.464.498 2.707 2.707 0 0 0-.332.642c-.093.258-.14.484-.143.68a.963.963 0 0 0 .107.492.704.704 0 0 0 .33.3c.148.067.324.101.531.101a1.502 1.502 0 0 0 .626-.14l.376-1.043h-.844c-.041 0-.064-.026-.069-.079a.744.744 0 0 1 .062-.266 1.6 1.6 0 0 1 .068-.163.596.596 0 0 1 .063-.107.264.264 0 0 1 .063-.058.118.118 0 0 1 .062-.02h1.506c.036 0 .067.007.09.02a.124.124 0 0 1 .056.057.183.183 0 0 1 .016.092.418.418 0 0 1-.026.124l-.646 1.791a.608.608 0 0 1-.102.183.432.432 0 0 1-.193.124 4.528 4.528 0 0 1-.684.177 4.022 4.022 0 0 1-.747.07c-.356 0-.656-.052-.9-.155a1.178 1.178 0 0 1-.553-.449 1.327 1.327 0 0 1-.19-.717c-.001-.282.063-.602.191-.959.133-.368.307-.7.523-.993a3.54 3.54 0 0 1 .738-.748 3.181 3.181 0 0 1 1.917-.635c.193 0 .364.013.513.04.148.027.275.06.38.097.104.038.188.08.25.124a.451.451 0 0 1 .122.115c.02.032.025.078.018.137-.008.06-.032.147-.074.263Z" fill="#3A3A3A"/></svg>