<svg width="17" height="17" fill="none" xmlns="http://www.w3.org/2000/svg"><g clip-path="url(#a)"><mask id="b" style="mask-type:luminance" maskUnits="userSpaceOnUse" x="0" y="0" width="17" height="17"><path d="M16.5.5H.5v16h16V.5Z" fill="#fff"/></mask><g mask="url(#b)"><path d="M3.091 12.07c.336 0 .507-.141.618-.493l.562-1.567H7.14l.557 1.567c.11.352.287.492.618.492.352 0 .578-.21.578-.542 0-.12-.02-.221-.066-.357L6.602 5.163c-.156-.421-.437-.627-.894-.627-.437 0-.724.206-.87.622l-2.24 6.037c-.044.13-.064.236-.064.342 0 .331.21.532.557.532Zm1.467-2.99 1.135-3.264h.03l1.135 3.265h-2.3Zm7.086 3.02c.758 0 1.476-.407 1.788-1.05h.02v.567c.005.301.211.487.502.487.302 0 .507-.19.507-.527V8.262c0-1.11-.843-1.828-2.174-1.828-1.02 0-1.833.417-2.12 1.08a.836.836 0 0 0-.085.347c0 .256.186.426.452.426.186 0 .326-.07.427-.226.296-.547.688-.793 1.29-.793.729 0 1.17.407 1.17 1.07v.411l-1.566.09c-1.32.071-2.05.664-2.05 1.628 0 .974.76 1.632 1.839 1.632Zm.281-.804c-.633 0-1.065-.347-1.065-.87 0-.501.402-.833 1.136-.878l1.426-.095v.507c0 .753-.663 1.336-1.497 1.336Z" fill="#000"/></g></g><defs><clipPath id="a"><path fill="#fff" transform="translate(.5 .5)" d="M0 0h16v16H0z"/></clipPath></defs></svg>