<svg width="65" height="14" fill="none" xmlns="http://www.w3.org/2000/svg"><g fill="#0EE06E"><path d="M22.308 10.83V2.176h-3.106V.12h8.447v2.056h-3.106v8.652h-2.235Z"/><path d="M27.297 10.829V3.06h2.056v1.23c.487-1.045 1.114-1.23 1.787-1.23h.794v2.08h-.673c-.967 0-1.831.558-1.831 2.262v3.432h-2.133v-.006ZM32.9 7.985V3.061h2.127v4.444c0 .91.441 1.582 1.35 1.582.878 0 1.435-.672 1.435-1.57V3.062h2.127v7.774h-2.024v-.98c-.512.775-1.275 1.16-2.242 1.16-1.703-.007-2.773-1.179-2.773-3.03ZM40.85 8.644l1.85-.423c.09.602.57 1.057 1.499 1.057.717 0 1.114-.295 1.114-.66 0-.294-.16-.512-.897-.672L43.2 7.683c-1.557-.34-2.216-1.056-2.216-2.363 0-1.332 1.101-2.408 3.17-2.408 2.196 0 3.08 1.32 3.17 2.184l-1.864.41c-.09-.455-.422-.954-1.351-.954-.59 0-1.025.262-1.025.646 0 .32.218.5.602.59l1.774.41c1.352.307 1.98 1.114 1.98 2.26 0 1.23-.98 2.524-3.229 2.524-2.472-.007-3.279-1.486-3.362-2.338ZM51.525 10.83c-1.377 0-2.3-.762-2.3-2.274V4.92H47.92V3.055h1.306v-1.73l2.127-.614v2.344h1.569v1.864h-1.57v3.253c0 .57.295.794.865.794h.82v1.864h-1.511ZM54.19 10.829V.127h2.125v10.708H54.19v-.007ZM62.726 3.06H65l-3.24 10.561h-2.274l.896-2.786H59.21l-2.139-7.774h2.274l1.601 6.013 1.78-6.013ZM.957 4.815h4.989V.83l3.983 3.984-3.983 3.977v2.037h4.835V4.814h4.438V.127H.957v4.688Z"/></g></svg>