<svg width="42" height="10" fill="none" xmlns="http://www.w3.org/2000/svg"><path d="M14.145 7.447v-5.56H12.15V.567h5.427v1.32H15.58v5.56h-1.436Z" fill="#1A1523"/><path d="M17.35 7.445V2.453h1.32v.79c.314-.67.717-.79 1.149-.79h.51v1.338h-.432c-.621 0-1.177.358-1.177 1.452V7.45h-1.37v-.004ZM20.95 5.618V2.453h1.366V5.31c0 .585.284 1.017.868 1.017.564 0 .922-.432.922-1.009V2.453h1.365V7.45h-1.3v-.63c-.329.498-.818.745-1.44.745-1.094-.004-1.781-.757-1.781-1.946ZM26.056 6.043l1.19-.272c.057.387.366.68.962.68.46 0 .716-.19.716-.425 0-.19-.103-.33-.576-.432l-.782-.169c-1-.218-1.423-.679-1.423-1.518 0-.856.707-1.548 2.036-1.548 1.412 0 1.98.848 2.037 1.404l-1.197.263c-.058-.292-.272-.613-.868-.613-.379 0-.659.169-.659.416 0 .205.14.32.387.378l1.14.264c.868.197 1.27.716 1.27 1.452 0 .79-.629 1.622-2.073 1.622-1.588-.004-2.106-.955-2.16-1.502ZM32.915 7.44c-.884 0-1.477-.49-1.477-1.461V3.64H30.6V2.444h.84V1.333l1.365-.395v1.506h1.008V3.64h-1.008v2.09c0 .367.19.511.556.511h.526V7.44h-.97ZM34.626 7.447V.57h1.366v6.881h-1.366v-.004ZM40.11 2.453h1.461L39.49 9.24h-1.46l.576-1.79h-.753l-1.374-4.996h1.46l1.029 3.864 1.144-3.864ZM.429 3.579h3.205v-2.56l2.559 2.56-2.56 2.555v1.31H6.74V3.578h2.851V.566H.43V3.58Z" fill="#1A1523"/></svg>