<svg width="23" height="23" fill="none" xmlns="http://www.w3.org/2000/svg"><rect x=".127" y=".427" width="22.492" height="22.489" rx="11.245" fill="#fff"/><rect x=".448" y=".748" width="21.849" height="21.846" rx="10.923" stroke="#000" stroke-opacity=".15" stroke-width=".643"/><path fill-rule="evenodd" clip-rule="evenodd" d="M10.084 11.274c.506-.678 1.722-2.264 1.722-2.264s.014-.018.101-.145a.198.198 0 0 0-.008-.285 48.342 48.342 0 0 0-.954-.588.248.248 0 0 1-.11-.206c0-.136.08-.239.265-.29.59-.162 2.66-.247 3.364-.247.245 0 .666 0 1.045.01l-.017-.016a5.908 5.908 0 0 0-8.383 8.264c.743-1.068 2.573-3.696 2.975-4.233ZM16.893 9c.203-.195.438-.505.284-.894a2.554 2.554 0 0 0-.337-.442h-.003c.163.447-.127.726-.335.915-.112.101-1.612 1.515-3.371 3.053a81.484 81.484 0 0 1-4.29 3.488c-1.413 1.057-1.688 1.211-1.688 1.211a.355.355 0 0 1-.145.038.259.259 0 0 1-.208-.103.052.052 0 0 0-.003.044c.15.246.402.53.549.53.05-.002.1-.014.145-.037 0 0 .111-.061.563-.384A5.909 5.909 0 0 0 16.893 9Z" fill="#E2001A"/><path fill-rule="evenodd" clip-rule="evenodd" d="M11.907 8.865a.2.2 0 0 0-.008-.285 48.39 48.39 0 0 0-.955-.588.248.248 0 0 1-.11-.206c0-.136.082-.239.266-.29.59-.161 2.66-.246 3.364-.246.332 0 .99-.002 1.422.026.487.032.855.133.946.367.18.46-.117.745-.329.936-.111.102-1.611 1.516-3.37 3.054a81.813 81.813 0 0 1-4.29 3.487c-1.413 1.058-1.688 1.211-1.688 1.211a.355.355 0 0 1-.145.038.256.256 0 0 1-.262-.259c0-.053.016-.106.046-.15 0 0 2.783-4.008 3.29-4.686.506-.678 1.722-2.263 1.722-2.263l.101-.146Z" fill="#fff"/></svg>