<svg width="42" height="41" fill="none" xmlns="http://www.w3.org/2000/svg"><path d="M11.13 30.496h13.303c3.287 0 5.193-1.814 5.193-4.968v-1.501l4.591 3.804c.602.5 1.228.838 1.842.838 1.164 0 1.97-.826 1.97-2.064V13.529c0-1.239-.806-2.065-1.97-2.065-.614 0-1.24.338-1.841.826l-4.592 3.817v-1.564c0-3.154-1.906-4.98-5.193-4.98H11.13c-3.172 0-5.18 1.826-5.18 4.98v11.073c0 3.14 1.892 4.88 5.18 4.88Zm.423-2.252c-1.996 0-3.134-1.051-3.134-3.078v-10.26c0-2.065 1.138-3.079 3.134-3.079H24.01c1.995 0 3.133 1.039 3.133 3.078v10.26c0 2.028-1.15 3.079-3.133 3.079H11.553Zm23.624-2.465-5.551-4.442v-2.54l5.55-4.442c.116-.088.193-.138.295-.138.14 0 .217.1.217.275v11.149c0 .163-.076.275-.217.275-.102 0-.18-.062-.294-.137Z" fill="#7B7B7B"/></svg>