<svg width="48" height="13" fill="none" xmlns="http://www.w3.org/2000/svg"><path fill-rule="evenodd" clip-rule="evenodd" d="M6.515.735 4.5 6.629 2.468.735H.101l3.513 8.742H5.37L8.883.735H6.515Zm10.371 2.5c0 .697-.55 1.182-1.191 1.182-.642 0-1.191-.485-1.191-1.182s.55-1.182 1.19-1.182c.642 0 1.192.485 1.192 1.182Zm-2.75 4.833c1.482 0 2.322-.712 3.117-1.742.427-.56.992-.667 1.374-.364.412.319.428.894 0 1.455-1.145 1.515-2.612 2.424-4.49 2.424-2.047 0-3.803-1.121-5.07-3.045-.352-.5-.26-1.076.121-1.349.413-.288.978-.167 1.345.379.916 1.333 2.092 2.242 3.604 2.242Zm8.386-2.985c0 1.788 1.039 2.728 2.2 2.728 1.1 0 2.23-.879 2.23-2.728 0-1.818-1.13-2.697-2.215-2.697-1.176 0-2.215.834-2.215 2.697Zm0-4.333v1.197c.596-.818 1.528-1.44 2.887-1.44 1.71 0 3.711 1.425 3.711 4.47 0 3.182-1.924 4.728-3.894 4.728-1.054 0-1.986-.41-2.704-1.38v4.183H20.37V.75h2.153Zm10.34 4.333c0 1.788 1.04 2.728 2.2 2.728 1.1 0 2.23-.879 2.23-2.728 0-1.818-1.13-2.697-2.215-2.697-1.176 0-2.214.834-2.214 2.697Zm0-4.333v1.197c.596-.818 1.528-1.44 2.887-1.44 1.71 0 3.712 1.425 3.712 4.47 0 3.182-1.925 4.728-3.895 4.728-1.054 0-1.986-.41-2.703-1.38v4.183h-2.154V.75h2.154Z" fill="#FF5B24"/><mask id="a" style="mask-type:luminance" maskUnits="userSpaceOnUse" x="40" y="0" width="8" height="10"><path d="M47.617.508v9.197h-7.27V.508h7.27Z" fill="#fff"/></mask><g mask="url(#a)"><path fill-rule="evenodd" clip-rule="evenodd" d="M44.012.508c1.772 0 3.07.818 3.605 2.879l-1.94.303c-.03-1.046-.687-1.364-1.62-1.364-.732 0-1.267.318-1.267.818 0 .394.275.803 1.1.955l1.481.272c1.451.273 2.23 1.213 2.23 2.5 0 1.894-1.726 2.834-3.345 2.834-1.71 0-3.604-.879-3.91-3.015l1.94-.303c.107 1.106.795 1.5 1.894 1.5.84 0 1.405-.303 1.405-.834 0-.47-.26-.818-1.176-.984l-1.344-.243c-1.42-.257-2.29-1.258-2.29-2.53 0-1.97 1.801-2.788 3.237-2.788Z" fill="#FF5B24"/></g></svg>