<svg width="25" height="11" fill="none" xmlns="http://www.w3.org/2000/svg"><rect x=".663" y=".35" width="23.723" height="10.29" rx="1.286" fill="#0837C7"/><path d="m12.447 3.013-1.07 4.976h-1.293l1.07-4.976h1.293Zm5.441 3.212.681-1.868.392 1.868h-1.073Zm1.443 1.764h1.197l-1.045-4.976H18.38a.589.589 0 0 0-.55.365l-1.94 4.61h1.357l.27-.743h1.66l.155.744Zm-3.375-1.625c.005-1.313-1.825-1.386-1.813-1.972.004-.179.175-.369.55-.417a2.45 2.45 0 0 1 1.274.222l.227-1.055a3.49 3.49 0 0 0-1.21-.22c-1.278 0-2.178.676-2.185 1.645-.008.716.642 1.116 1.132 1.354.504.243.673.4.671.618-.003.334-.402.481-.774.487-.65.01-1.027-.175-1.328-.314l-.235 1.09c.303.138.86.258 1.439.264 1.359 0 2.247-.668 2.252-1.702Zm-5.357-3.351L8.503 7.989H7.136L6.105 4.017c-.063-.244-.117-.334-.308-.437-.31-.168-.824-.325-1.276-.423l.031-.144h2.201c.28 0 .533.185.596.507l.545 2.88L9.24 3.011h1.359Z" fill="#fff"/></svg>