<svg width="68" height="12" fill="none" xmlns="http://www.w3.org/2000/svg"><path d="m17.076 1.056-2.184 10.16h-2.64l2.184-10.16h2.64Zm11.11 6.56 1.39-3.814.8 3.814h-2.19Zm2.946 3.6h2.442l-2.131-10.16h-2.255c-.507 0-.934.294-1.123.746l-3.963 9.414h2.773l.55-1.517h3.388l.32 1.517ZM24.24 7.9c.011-2.681-3.726-2.83-3.7-4.027.008-.365.357-.752 1.12-.851.378-.05 1.421-.087 2.603.455l.464-2.155a7.126 7.126 0 0 0-2.47-.45c-2.61 0-4.447 1.38-4.462 3.358-.017 1.463 1.31 2.279 2.311 2.765 1.03.498 1.375.818 1.37 1.263-.006.681-.82.982-1.58.994-1.328.02-2.098-.357-2.712-.642l-.478 2.226c.617.282 1.755.528 2.936.54 2.774 0 4.59-1.364 4.598-3.476ZM13.302 1.056l-4.278 10.16H6.233L4.127 3.108c-.128-.5-.239-.682-.627-.893-.635-.342-1.683-.664-2.605-.863l.062-.296h4.494c.572 0 1.087.38 1.217 1.036l1.112 5.88 2.748-6.916h2.774Z" fill="#1434CB"/><path d="M47.823 1.988h-4.575v8.259h4.575V1.988Z" fill="#FF5F00"/><path d="M43.538 6.12c0-.796.18-1.581.525-2.297a5.238 5.238 0 0 1 1.472-1.833 5.216 5.216 0 0 0-5.516-.595 5.237 5.237 0 0 0-2.146 1.938 5.27 5.27 0 0 0 0 5.573 5.237 5.237 0 0 0 2.146 1.937 5.208 5.208 0 0 0 5.516-.595 5.238 5.238 0 0 1-1.472-1.833 5.264 5.264 0 0 1-.525-2.296Z" fill="#EB001B"/><path d="M53.994 6.12a5.27 5.27 0 0 1-.796 2.786 5.237 5.237 0 0 1-2.147 1.937 5.208 5.208 0 0 1-5.516-.595 5.273 5.273 0 0 0 0-8.258 5.215 5.215 0 0 1 5.516-.595 5.237 5.237 0 0 1 2.147 1.938 5.27 5.27 0 0 1 .796 2.786ZM53.495 9.376v-.17h.068v-.034h-.173v.035h.068v.169h.037Zm.336 0v-.204h-.053l-.061.14-.061-.14h-.053v.204h.037v-.154l.058.133h.038l.058-.133v.154h.037Z" fill="#F79E1B"/><path d="M68 11.371H57.496V.867h10.503v10.504Z" fill="#fff"/><path d="M68 11.371V9.707h-1.267l-.653-.721-.656.721h-4.178V6.345h-1.348l1.672-3.786h1.614l.575 1.297V2.559h1.997l.347.977.349-.977H68V.867H57.496v10.504H68Zm-1.054-2.085H68l-1.394-1.478L68 6.346h-1.037l-.861.941-.853-.94h-1.054l1.386 1.47-1.386 1.469h1.025l.865-.95.861.95Zm.247-1.477.807.859v-1.71l-.807.851Zm-4.698.797v-.458h1.658v-.664h-1.659v-.457h1.701v-.68h-2.503v2.939h2.503v-.68h-1.7Zm4.711-2.686H68V2.98h-1.235l-.66 1.831-.654-1.83h-1.256V5.92h.794V3.862l.756 2.058h.705l.756-2.062V5.92Zm-3.914 0h.903l-1.297-2.94h-1.034l-1.297 2.94h.882l.243-.588h1.352l.248.588Zm-.525-1.248h-.798l.4-.961.398.961Z" fill="#006FCF"/></svg>