<svg width="25" height="25" fill="none" xmlns="http://www.w3.org/2000/svg"><g clip-path="url(#a)"><rect x=".5" y=".738" width="24" height="24" rx="12" fill="#F5F5F5"/><path d="M13.49 10.82h1.07l-.539 3.842h-1.07l.538-3.841Zm-1.35 0-.722 2.214-.315-2.213h-.749l-.946 2.206-.118-2.206H8.253l.361 3.841h.86l1.064-2.43.374 2.43h.847l1.399-3.841H12.14Zm8.986 2.233h-2.541c.013.5.312.828.752.828.331 0 .594-.178.797-.516l.858.39c-.295.581-.916.96-1.682.96-1.044 0-1.736-.703-1.736-1.832 0-1.241.814-2.121 1.963-2.121 1.011 0 1.648.683 1.648 1.746 0 .178-.02.355-.06.545Zm-.952-.735c0-.447-.25-.729-.65-.729-.414 0-.755.295-.848.729h1.498Zm-15.267-.34-1.092 1.277h1.95l.22-.602h-.836l.51-.59.002-.016-.332-.572h1.495l-1.159 3.187h.793l1.399-3.841H4.243l.665 1.157ZM16.3 11.59c.377 0 .708.203.997.551l.151-1.083c-.268-.182-.633-.295-1.116-.295-.958 0-1.497.561-1.497 1.274 0 .494.276.796.73.991l.216.099c.404.172.512.257.512.44 0 .188-.182.308-.46.308-.458.002-.829-.233-1.107-.633l-.155 1.103c.318.242.725.37 1.263.37.91 0 1.47-.525 1.47-1.254 0-.495-.22-.814-.774-1.063l-.237-.112c-.328-.146-.44-.226-.44-.387 0-.174.153-.309.447-.309Z" fill="#94E77A"/></g><defs><clipPath id="a"><rect x=".5" y=".738" width="24" height="24" rx="12" fill="#fff"/></clipPath></defs></svg>