<svg width="8" height="8" fill="none" xmlns="http://www.w3.org/2000/svg"><path d="M.991 7.424a.802.802 0 0 0 .6-.264l2.207-2.207L6.005 7.16c.173.162.366.264.62.264a.88.88 0 0 0 .865-.874c0-.255-.102-.438-.265-.61L5.03 3.742l2.196-2.218c.183-.183.275-.366.275-.6a.875.875 0 0 0-.875-.874c-.234 0-.417.091-.6.264L3.798 2.532 1.591.325C1.408.152 1.225.061.991.061a.872.872 0 0 0-.875.864c0 .244.092.438.265.61l2.197 2.208L.38 5.939c-.163.173-.265.366-.265.61 0 .479.387.875.875.875Z" fill="#1C1C1E"/></svg>