<svg width="46" height="8" fill="none" xmlns="http://www.w3.org/2000/svg"><path d="M32.306 5.848a.572.572 0 0 0-.083-.28l-.441-.766a.648.648 0 0 1-.072-.185l-.019.034a.618.618 0 0 0 0 .616l.355.615c.11.189.11.423 0 .615l-.019.03a.556.556 0 0 0-.072-.185l-.324-.562-.208-.359a.698.698 0 0 1-.072-.185l-.018.03a.61.61 0 0 0 0 .612l.354.615c.11.189.11.423 0 .616l-.018.03a.556.556 0 0 0-.072-.185l-.434-.77a.614.614 0 0 1-.083-.332c-.476.124-.8.385-.8.69 0 .423.634.767 1.415.767s1.415-.344 1.415-.767c-.003-.305-.332-.57-.804-.694Zm1.337 1.31a.915.915 0 0 1 .049-.268c.147.068.34.102.487.102.245 0 .385-.08.385-.238 0-.155-.102-.227-.351-.336l-.136-.06c-.25-.11-.42-.25-.42-.533 0-.302.212-.498.642-.498.174 0 .336.023.487.075a.993.993 0 0 1-.053.265 1.348 1.348 0 0 0-.434-.076c-.23 0-.336.09-.336.23s.102.22.291.299l.144.06c.335.143.479.294.479.551 0 .306-.23.517-.683.517a1.106 1.106 0 0 1-.551-.09Zm2.653-1.269v1.329h-.268l-.015-.159c-.075.117-.189.193-.374.193-.35 0-.585-.257-.585-.702 0-.468.25-.732.74-.732.189-.004.347.019.502.071Zm-.294 1.027v-.834a1.156 1.156 0 0 0-.212-.015c-.302 0-.445.185-.445.483 0 .272.11.46.37.46a.467.467 0 0 0 .287-.094Zm1.789-.593v.891h-.29v-.842c0-.21-.069-.309-.363-.309-.068 0-.151.008-.23.023v1.132h-.291V5.889c.185-.045.389-.075.532-.075.487 0 .642.189.642.51Zm.811.676a.612.612 0 0 0 .23-.041c-.007.079-.018.17-.033.245a.623.623 0 0 1-.246.041c-.283 0-.464-.128-.464-.453V5.395a.983.983 0 0 1 .29-.042v.502h.461a2.31 2.31 0 0 1-.026.25h-.434v.649c-.004.18.079.245.222.245Zm1.567-1.11v1.329H39.9l-.015-.159c-.076.117-.189.193-.374.193-.35 0-.585-.257-.585-.702 0-.468.25-.732.74-.732.192-.004.347.019.502.071Zm-.29 1.027v-.834a1.155 1.155 0 0 0-.212-.015c-.302 0-.446.185-.446.483 0 .272.11.46.37.46a.475.475 0 0 0 .287-.094Zm1.785-.593v.891h-.291v-.842c0-.21-.068-.309-.362-.309-.068 0-.151.008-.23.023v1.132h-.291V5.889c.185-.045.389-.075.532-.075.487 0 .642.189.642.51Zm1.483-.966v1.861h-.268l-.015-.17c-.076.125-.189.2-.381.2-.351 0-.585-.256-.585-.702 0-.468.249-.732.74-.732.075 0 .147.007.218.022V5.4a.847.847 0 0 1 .291-.042Zm-.29 1.551V6.09a1.236 1.236 0 0 0-.235-.026c-.29 0-.426.181-.426.483 0 .272.11.46.37.46a.424.424 0 0 0 .29-.098Zm1.758-.26h-.932c.038.238.177.351.434.351.159 0 .32-.034.468-.102-.011.076-.026.178-.045.264a1.02 1.02 0 0 1-.43.087c-.491 0-.725-.272-.725-.725 0-.396.185-.71.65-.71.418 0 .596.276.596.609.003.083-.004.15-.016.226Zm-.936-.242h.66c0-.218-.116-.347-.316-.347-.212 0-.321.121-.344.347Zm1.96-.58c0 .086-.012.192-.027.248a1.969 1.969 0 0 0-.434.004v1.136h-.29V5.886c.124-.042.335-.076.497-.076.091.004.193.008.253.015Zm-17.553.867c0 .333-.207.525-.687.525h-.532v-1.83c.14-.023.298-.038.446-.038.494 0 .69.185.69.483a.45.45 0 0 1-.31.426c.242.046.393.212.393.434Zm-1.034-1.155v.642h.332c.287 0 .43-.136.43-.328 0-.193-.105-.333-.498-.333-.086.004-.17.008-.264.02Zm.846 1.163c0-.215-.166-.347-.499-.347h-.347v.69h.329c.354 0 .517-.11.517-.343Zm1.577-.853-.592 1.521c-.102.268-.234.389-.464.389a.407.407 0 0 1-.121-.015c.004-.057.007-.114.015-.163.026.004.056.012.087.012.177 0 .26-.076.35-.34l-.57-1.404h.2l.461 1.166.438-1.166h.196ZM12.359 2.73c.411.404.619 1.046.619 1.937v3.027h-1.17V4.731c0-.525-.11-.917-.336-1.189-.223-.276-.547-.411-.978-.411-.46 0-.819.158-1.076.479-.264.32-.392.759-.392 1.317v2.77H7.87V2.765a.57.57 0 0 1 .57-.57h.004c.313 0 .566.257.566.567v.15c.415-.524 1-.784 1.763-.784.645.007 1.173.207 1.585.603ZM24.653.447l-.034.079c-.004.004-.004.007-.004.011-.011.027-.023.05-.03.076-.02.041-.034.079-.05.12-.01.027-.018.05-.03.076l-.068.159c-.003.003-.003.007-.003.01-.09.178-.117.37.037.526.155.154.348.128.521.037l.012-.003c.026-.012.049-.023.075-.03.072-.03.143-.061.219-.091.045-.02.09-.038.136-.057.498-.143.694-.751.32-1.129-.328-.358-.935-.226-1.101.216ZM23.547 1.077c-.012-.03-.027-.06-.038-.09-.011-.027-.023-.05-.03-.076L23.41.752a1.61 1.61 0 0 1-.05-.12L23.359.62l-.027-.06c-.01-.03-.026-.06-.037-.087-.151-.464-.77-.62-1.11-.264-.362.343-.192.974.28 1.11.026.01.049.022.075.03.06.026.12.049.181.075l.076.03c.018.008.041.02.06.027.053.022.106.045.159.064.286.192.679-.151.532-.468ZM25.525 2.711c-.015-.007-.03-.011-.042-.019l-.038-.015-.192-.08c-.045-.018-.087-.037-.132-.056-.015-.007-.034-.011-.05-.019-.026-.01-.048-.018-.075-.03l-.083-.034c-.362-.173-.694.223-.494.563.018.041.034.083.052.128 0 .004.004.008.004.011.008.02.02.042.027.06.019.042.034.08.049.121 0 .004.004.008.004.012.015.041.034.083.049.12.517 1.3 2.106-.086.92-.762ZM23.275 3.583c.011-.03.026-.06.038-.09.007-.02.018-.042.026-.06.004-.004.004-.008.004-.012.038-.09.08-.185.117-.28l.03-.075.034-.08c.181-.305-.17-.69-.49-.539-.004.004-.008.004-.012.004l-.132.057c-.027.01-.05.018-.076.03-.094.037-.185.079-.279.117-.026.011-.049.022-.075.03-.472.14-.65.77-.287 1.113.336.344.94.22 1.102-.215ZM6.648.205c.649.676-.336 1.623-1.008.997-.646-.676.332-1.624 1.008-.997Zm-.529 2a.555.555 0 0 1 .6.555v4.938H5.564V2.76a.56.56 0 0 1 .555-.554ZM15.095.205c.65.676-.336 1.623-1.008.997-.649-.676.336-1.624 1.008-.997Zm-.52 2a.555.555 0 0 1 .6.555v4.938H14.02V2.76a.55.55 0 0 1 .554-.554ZM21.218 6.686c-.687.034.332-3.276-.846-4.028-1.162-.958-4.012-.637-4.118 1.22h1.136c.136-.88 1.537-1.008 2.11-.544.321.223.344.68.325 1.057-.898.004-2.518-.11-3.13.457-.754.52-.83 1.936-.04 2.48.894.687 2.68.577 3.294-.518-.018.767.59.921 1.276.88.66-.004.642-.997-.007-1.004ZM19.82 5.444c.053 1.174-1.359 1.79-2.28 1.197-.381-.268-.355-.94.015-1.182.397-.343 1.748-.17 2.261-.211l.004.196ZM4.76 6.678H1.552l2.93-3.483c.32-.37.037-1-.461-.986H.065v1.02h3L.16 6.679c-.336.366-.113 1.026.415 1.019h4.19l-.004-1.02Z" fill="#053840"/></svg>