<svg width="20" height="20" fill="none" xmlns="http://www.w3.org/2000/svg"><path d="M10.052 2.54c.293-.046.601.023.846.192.2.133.357.332.446.558.159.386.321.77.473 1.158.062.162.07.35.004.512a.658.658 0 0 1-.453.408.805.805 0 0 1-.505-.05c-.38-.156-.764-.309-1.137-.484a1.18 1.18 0 0 1-.573-.56 1.25 1.25 0 0 1-.096-.722 1.24 1.24 0 0 1 .491-.81 1.14 1.14 0 0 1 .504-.202ZM14.797 2.537c.238-.03.485.022.693.143.488.27.745.918.562 1.456-.09.283-.297.519-.552.66-.338.176-.699.303-1.048.454-.126.052-.248.119-.384.138a.672.672 0 0 1-.574-.17.698.698 0 0 1-.172-.75c.142-.335.274-.676.419-1.01.086-.198.17-.405.322-.56.19-.208.461-.323.734-.36ZM4.005 6.285c2.314.002 4.629 0 6.944 0 .129 0 .26-.002.386.032.247.06.47.213.617.426.279.392.265.982-.054 1.347-1.744 2.103-3.49 4.204-5.236 6.306 1.91-.001 3.818.001 5.728-.001.004.533 0 1.065.002 1.598-.002.084.003.169-.004.253-2.493-.004-4.985 0-7.478-.002a1.017 1.017 0 0 1-.651-.237 1.04 1.04 0 0 1-.368-.698c-.023-.263.04-.532.176-.756.057-.1.136-.183.207-.271 1.7-2.049 3.397-4.099 5.097-6.146-1.79-.004-3.58-.002-5.37-.001V6.467c.001-.06-.003-.122.004-.182ZM13.843 6.89a.742.742 0 0 1 .313.015c.115.03.219.09.33.13.29.12.582.238.867.37.204.086.393.219.529.399.132.17.208.383.23.599.03.457-.194.93-.58 1.17-.368.231-.86.227-1.227-.003a1.201 1.201 0 0 1-.445-.482c-.151-.358-.3-.717-.446-1.077-.044-.113-.101-.222-.12-.343a.696.696 0 0 1 .196-.594.655.655 0 0 1 .353-.184Z" fill="#053840"/></svg>