<?xml version="1.0" encoding="UTF-8"?>
<svg xmlns="http://www.w3.org/2000/svg" xmlns:xlink="http://www.w3.org/1999/xlink" width="24px" height="24px" viewBox="0 0 24 24" version="1.1">
<g id="surface1">
<path style=" stroke:none;fill-rule:nonzero;fill:rgb(100%,100%,100%);fill-opacity:0.25098;" d="M 12.011719 24.027344 C 18.585938 24.027344 24.027344 18.574219 24.027344 12.011719 C 24.027344 5.441406 18.574219 0 12 0 C 5.441406 0 0 5.441406 0 12.011719 C 0 18.574219 5.453125 24.027344 12.011719 24.027344 Z M 12.011719 24.027344 "/>
<path style=" stroke:none;fill-rule:nonzero;fill:rgb(100%,100%,100%);fill-opacity:1;" d="M 8.054688 16.960938 C 7.515625 16.960938 7.089844 16.523438 7.089844 15.980469 C 7.089844 15.722656 7.183594 15.476562 7.371094 15.300781 L 10.636719 12.023438 L 7.371094 8.761719 C 7.183594 8.574219 7.089844 8.339844 7.089844 8.078125 C 7.089844 7.527344 7.515625 7.113281 8.054688 7.113281 C 8.328125 7.113281 8.539062 7.207031 8.726562 7.382812 L 12.011719 10.660156 L 15.324219 7.371094 C 15.523438 7.171875 15.734375 7.089844 15.992188 7.089844 C 16.535156 7.089844 16.972656 7.515625 16.972656 8.054688 C 16.972656 8.328125 16.890625 8.539062 16.675781 8.75 L 13.402344 12.023438 L 16.664062 15.289062 C 16.867188 15.464844 16.960938 15.710938 16.960938 15.980469 C 16.960938 16.523438 16.523438 16.960938 15.96875 16.960938 C 15.699219 16.960938 15.453125 16.867188 15.277344 16.675781 L 12.011719 13.402344 L 8.761719 16.675781 C 8.574219 16.867188 8.328125 16.960938 8.054688 16.960938 Z M 8.054688 16.960938 "/>
</g>
</svg>
