<?xml version="1.0" encoding="UTF-8"?>
<svg xmlns="http://www.w3.org/2000/svg" xmlns:xlink="http://www.w3.org/1999/xlink" width="24px" height="24px" viewBox="0 0 24 24" version="1.1">
<g id="surface1">
<path style=" stroke:none;fill-rule:nonzero;fill:rgb(100%,100%,100%);fill-opacity:0.180392;" d="M 12.011719 24.027344 C 18.585938 24.027344 24.027344 18.574219 24.027344 12.011719 C 24.027344 5.441406 18.574219 0 12 0 C 5.441406 0 0 5.441406 0 12.011719 C 0 18.574219 5.453125 24.027344 12.011719 24.027344 Z M 12.011719 24.027344 "/>
<path style=" stroke:none;fill-rule:nonzero;fill:rgb(100%,100%,100%);fill-opacity:1;" d="M 6.59375 12.011719 C 6.101562 12.011719 5.710938 11.625 5.710938 11.128906 L 5.710938 6.761719 C 5.710938 6.007812 6.089844 5.710938 6.75 5.710938 L 11.105469 5.710938 C 11.601562 5.710938 11.988281 6.113281 11.988281 6.605469 C 11.988281 7.101562 11.601562 7.492188 11.105469 7.492188 L 10.492188 7.492188 L 8.585938 7.371094 L 11.390625 10.046875 C 11.753906 10.398438 11.765625 11.023438 11.402344 11.390625 C 11.035156 11.765625 10.421875 11.777344 10.058594 11.378906 L 7.359375 8.550781 L 7.492188 10.515625 L 7.492188 11.128906 C 7.492188 11.625 7.089844 12.011719 6.59375 12.011719 Z M 12.933594 18.335938 C 12.4375 18.335938 12.035156 17.9375 12.035156 17.441406 C 12.035156 16.949219 12.4375 16.558594 12.933594 16.558594 L 13.542969 16.558594 L 15.453125 16.675781 L 12.636719 14.003906 C 12.273438 13.648438 12.261719 13.027344 12.625 12.660156 C 13.003906 12.285156 13.601562 12.273438 13.980469 12.671875 L 16.664062 15.5 L 16.546875 13.53125 L 16.546875 12.921875 C 16.546875 12.425781 16.9375 12.035156 17.429688 12.035156 C 17.925781 12.035156 18.324219 12.425781 18.324219 12.921875 L 18.324219 17.289062 C 18.324219 18.042969 17.9375 18.335938 17.277344 18.335938 Z M 12.933594 18.335938 "/>
</g>
</svg>
