<?xml version="1.0" encoding="UTF-8"?>
<svg xmlns="http://www.w3.org/2000/svg" xmlns:xlink="http://www.w3.org/1999/xlink" width="24px" height="24px" viewBox="0 0 24 24" version="1.1">
<g id="surface1">
<path style=" stroke:none;fill-rule:nonzero;fill:rgb(100%,100%,100%);fill-opacity:0.25098;" d="M 12.011719 24.027344 C 18.585938 24.027344 24.027344 18.574219 24.027344 12.011719 C 24.027344 5.441406 18.574219 0 12 0 C 5.441406 0 0 5.441406 0 12.011719 C 0 18.574219 5.453125 24.027344 12.011719 24.027344 Z M 12.011719 24.027344 "/>
<path style=" stroke:none;fill-rule:nonzero;fill:rgb(100%,100%,100%);fill-opacity:1;" d="M 6.65625 11.859375 C 6.171875 11.859375 5.78125 11.472656 5.78125 10.988281 C 5.78125 10.515625 6.171875 10.140625 6.65625 10.140625 L 7.242188 10.140625 L 9.105469 10.257812 L 5.828125 7.125 C 5.476562 6.761719 5.453125 6.183594 5.816406 5.828125 C 6.171875 5.464844 6.75 5.464844 7.101562 5.839844 L 10.269531 9.128906 L 10.152344 7.207031 L 10.152344 6.617188 C 10.152344 6.136719 10.527344 5.757812 11 5.757812 C 11.484375 5.757812 11.871094 6.136719 11.871094 6.617188 L 11.871094 10.847656 C 11.871094 11.578125 11.496094 11.859375 10.859375 11.859375 Z M 13.027344 18.253906 C 12.542969 18.253906 12.15625 17.878906 12.15625 17.394531 L 12.15625 13.15625 C 12.15625 12.4375 12.53125 12.15625 13.167969 12.15625 L 17.371094 12.15625 C 17.855469 12.15625 18.242188 12.53125 18.242188 13.027344 C 18.242188 13.496094 17.855469 13.875 17.371094 13.875 L 16.78125 13.875 L 14.921875 13.757812 L 18.195312 16.890625 C 18.550781 17.242188 18.574219 17.832031 18.207031 18.183594 C 17.855469 18.550781 17.277344 18.550781 16.925781 18.171875 L 13.757812 14.886719 L 13.875 16.804688 L 13.875 17.394531 C 13.875 17.878906 13.496094 18.253906 13.027344 18.253906 Z M 13.027344 18.253906 "/>
</g>
</svg>
