<?xml version="1.0" encoding="UTF-8"?>
<svg xmlns="http://www.w3.org/2000/svg" xmlns:xlink="http://www.w3.org/1999/xlink" width="35px" height="24px" viewBox="0 0 34 24" version="1.1">
<g id="surface1">
<path style=" stroke:none;fill-rule:nonzero;fill:rgb(100%,100%,100%);fill-opacity:0.501961;" d="M 14.761719 15.144531 C 12.878906 16.820312 11.820312 18.964844 11.820312 20.886719 C 11.820312 21.433594 11.929688 21.964844 12.1875 22.429688 L 3.535156 22.429688 C 2.109375 22.429688 1.542969 21.847656 1.542969 20.792969 C 1.542969 17.589844 4.738281 13.726562 9.847656 13.726562 C 11.785156 13.726562 13.445312 14.28125 14.761719 15.144531 Z M 13.800781 7.484375 C 13.800781 10 11.964844 11.949219 9.859375 11.949219 C 7.738281 11.949219 5.902344 10 5.902344 7.507812 C 5.902344 5.023438 7.75 3.144531 9.859375 3.144531 C 11.957031 3.144531 13.800781 4.976562 13.800781 7.484375 Z M 13.800781 7.484375 "/>
<path style=" stroke:none;fill-rule:nonzero;fill:rgb(100%,100%,100%);fill-opacity:1;" d="M 22.902344 11.683594 C 25.339844 11.683594 27.433594 9.457031 27.433594 6.554688 C 27.433594 3.691406 25.328125 1.566406 22.902344 1.566406 C 20.476562 1.566406 18.371094 3.734375 18.371094 6.578125 C 18.371094 9.457031 20.464844 11.683594 22.902344 11.683594 Z M 15.773438 22.429688 L 30.019531 22.429688 C 31.796875 22.429688 32.433594 21.90625 32.433594 20.886719 C 32.433594 17.890625 28.773438 13.761719 22.890625 13.761719 C 17.019531 13.761719 13.359375 17.890625 13.359375 20.886719 C 13.359375 21.90625 13.996094 22.429688 15.773438 22.429688 Z M 15.773438 22.429688 "/>
</g>
</svg>
