<svg xmlns="http://www.w3.org/2000/svg" width="1080" height="1080" viewBox="0 0 1080 1080" xml:space="preserve">
       <g transform="matrix(8.33 0 0 8.33 536.77 536.12)"  >
              <path vector-effect="non-scaling-stroke" fill="currentColor"  transform=" translate(-63.6, -63.6)" d="M 63.5742 127.197 C 98.3887 127.197 127.197 98.3887 127.197 63.623 C 127.197 28.8086 98.3398 0 63.5254 0 C 28.7598 0 0 28.8086 0 63.623 C 0 98.3887 28.8086 127.197 63.5742 127.197 Z M 63.5742 118.115 C 33.3984 118.115 9.13086 93.7988 9.13086 63.623 C 9.13086 33.3984 33.3496 9.13086 63.5254 9.13086 C 93.75 9.13086 118.066 33.3984 118.066 63.623 C 118.066 93.7988 93.7988 118.115 63.5742 118.115 Z" stroke-linecap="round" />
       </g>
       <g transform="matrix(9.57 0 0 9.57 370.3 387.58)"  >
              <path vector-effect="non-scaling-stroke" fill="currentColor"  transform=" translate(-46.68, -44.46)" d="M 29.7852 70.0195 L 63.5254 70.0195 C 65.6738 70.0195 67.334 68.3594 67.334 66.2109 L 67.334 22.6562 C 67.334 20.5566 65.6738 18.8965 63.5254 18.8965 C 61.4746 18.8965 59.7656 20.5566 59.7656 22.6562 L 59.7656 62.4512 L 29.7852 62.4512 C 27.6367 62.4512 26.0254 64.1113 26.0254 66.2109 C 26.0254 68.3594 27.6367 70.0195 29.7852 70.0195 Z" stroke-linecap="round" />
       </g>
</svg>