<svg xmlns="http://www.w3.org/2000/svg" viewBox="0 0 28 24">
  <path
    fill="currentColor"
    fill-rule="evenodd"
    d="M24.667 0C26.503 0 27.993 1.484 28 3.32v16.4c0 1.84-1.492 3.333-3.333 3.333H3.333C1.493 23.053 0 21.561 0 19.72V3.333C0 1.493 1.493 0 3.333 0zm-.711 1.449H4.044c-1.37 0-2.482 1.083-2.488 2.425V18.56l7.933-7.709c.577-.561 1.499-.558 2.066 0l4.355 4.266c.577.561 1.5.558 2.066 0l1.63-1.59.01-.01c.568-.552 1.486-.547 2.05.01l4.778 4.68V3.887c0-1.347-1.114-2.438-2.488-2.438zm-6.916 3.84c1.322 0 2.394 1.071 2.394 2.393 0 1.322-1.072 2.394-2.394 2.394s-2.394-1.072-2.394-2.394S15.718 5.29 17.04 5.29z"
    transform="translate(-229 -173) translate(229 173)"></path>
</svg>
