<svg width="100%" height="100%" viewBox="0 0 1080 1080">=
  <g transform="matrix(67.68 0 0 80.04 540 537.94)"  >
    <path fill="currentColor" transform=" translate(-12, -11.64)" d="M 4.89592 6.41521 L 19.089 6.41521 C 19.4732 6.41521 19.7821 6.09881 19.7821 5.72213 C 19.7821 5.33039 19.4732 5.02905 19.089 5.02905 L 4.89592 5.02905 C 4.51171 5.02905 4.21037 5.33793 4.21037 5.72213 C 4.21037 6.09881 4.51171 6.41521 4.89592 6.41521 Z M 4.89592 10.3628 L 19.089 10.3628 C 19.4732 10.3628 19.7821 10.0464 19.7821 9.66968 C 19.7821 9.27794 19.4732 8.9766 19.089 8.9766 L 4.89592 8.9766 C 4.51171 8.9766 4.21037 9.28547 4.21037 9.66968 C 4.21037 10.0464 4.51171 10.3628 4.89592 10.3628 Z M 4.89592 14.3103 L 19.089 14.3103 C 19.4732 14.3103 19.7821 13.9939 19.7821 13.6172 C 19.7821 13.233 19.4732 12.9241 19.089 12.9241 L 4.89592 12.9241 C 4.51171 12.9241 4.21037 13.233 4.21037 13.6172 C 4.21037 13.9939 4.51171 14.3103 4.89592 14.3103 Z M 4.89592 18.2578 L 19.089 18.2578 C 19.4732 18.2578 19.7821 17.9414 19.7821 17.5648 C 19.7821 17.1806 19.4732 16.8717 19.089 16.8717 L 4.89592 16.8717 C 4.51171 16.8717 4.21037 17.1806 4.21037 17.5648 C 4.21037 17.9414 4.51171 18.2578 4.89592 18.2578 Z" stroke-linecap="round" />
  </g>
</svg>
