<svg width="100%" height="100%" viewBox="0 0 1080 1080">
  <g transform="matrix(62.36 0 0 62.36 540 540.2)"  >
    <path fill="currentColor" transform=" translate(-11.61, -12.14)" d="M 13.1451 20.1262 C 13.7327 20.1262 14.1395 19.6516 14.4182 18.9283 L 19.3903 5.92555 C 19.5184 5.58655 19.5937 5.29274 19.5937 5.0366 C 19.5937 4.50173 19.2547 4.16272 18.7123 4.16272 C 18.4637 4.16272 18.1624 4.23052 17.8309 4.35859 L 4.76785 9.36082 C 4.11997 9.60943 3.63029 10.0162 3.63029 10.6038 C 3.63029 11.3271 4.16517 11.5983 4.90345 11.8167 L 10.3426 13.4138 L 11.9247 18.7927 C 12.1507 19.5612 12.4219 20.1262 13.1451 20.1262 Z M 10.7796 12.0277 L 6.10128 10.5963 C 5.98827 10.5662 5.95814 10.5285 5.95814 10.4833 C 5.95814 10.4306 5.98827 10.3854 6.08621 10.3552 L 15.0285 6.93504 C 15.6688 6.68644 16.2941 6.3851 16.9796 6.06869 C 16.4372 6.50563 15.7743 7.04051 15.3223 7.49252 L 10.7796 12.0277 Z M 13.2807 17.8059 C 13.228 17.8059 13.1903 17.7607 13.1601 17.6552 L 11.7288 12.9769 L 16.2639 8.4342 C 16.7009 7.98973 17.2584 7.30418 17.6953 6.75424 C 17.3789 7.44732 17.07 8.08013 16.8214 8.72801 L 13.4012 17.6703 C 13.3636 17.7682 13.3334 17.8059 13.2807 17.8059 Z" stroke-linecap="round" />
  </g>
</svg> 