<svg width="100%" height="100%" viewBox="0 0 1080 1080">
  <g transform="matrix(73.42 0 0 72.56 540 540.19)"  >
    <path fill="currentColor" transform=" translate(-12, -11.71)" d="M 10.7419 16.3141 C 11.9397 16.3141 13.0622 15.9525 13.9964 15.3348 L 17.296 18.642 C 17.5145 18.8529 17.7933 18.9584 18.0946 18.9584 C 18.7199 18.9584 19.1794 18.4687 19.1794 17.851 C 19.1794 17.5647 19.0815 17.2859 18.8705 17.075 L 15.5935 13.7829 C 16.2715 12.8186 16.6708 11.6509 16.6708 10.3853 C 16.6708 7.12327 14.0039 4.45642 10.7419 4.45642 C 7.48745 4.45642 4.81306 7.12327 4.81306 10.3853 C 4.81306 13.6473 7.47992 16.3141 10.7419 16.3141 Z M 10.7419 14.7321 C 8.3538 14.7321 6.3951 12.7734 6.3951 10.3853 C 6.3951 7.99716 8.3538 6.03845 10.7419 6.03845 C 13.13 6.03845 15.0887 7.99716 15.0887 10.3853 C 15.0887 12.7734 13.13 14.7321 10.7419 14.7321 Z" stroke-linecap="round" />
  </g>
</svg>
