<svg viewBox="0 0 16 16" width="22" height="22" xmlns="http://www.w3.org/2000/svg">
  <defs></defs>
  <rect fill="#86868B" width="16" height="16" rx="2.87" ry="2.87"></rect>
  <path fill="#FFFFFF" d="M 11.544 2.089 L 4.456 2.089 C 3.546 2.089 2.81 2.825 2.81 3.737 L 2.81 12.262 C 2.81 13.174 3.546 13.91 4.456 13.91 L 11.544 13.91 C 12.454 13.91 13.19 13.174 13.19 12.262 L 13.19 3.737 C 13.19 2.825 12.454 2.089 11.544 2.089 Z M 6.129 12.161 C 6.129 12.584 5.789 12.916 5.376 12.916 L 4.547 12.916 C 4.125 12.916 3.794 12.575 3.794 12.161 L 3.794 11.673 C 3.794 11.249 4.134 10.918 4.547 10.918 L 5.376 10.918 C 5.798 10.918 6.129 11.259 6.129 11.673 L 6.129 12.161 Z M 6.129 9.711 C 6.129 10.135 5.789 10.467 5.376 10.467 L 4.547 10.467 C 4.125 10.467 3.794 10.126 3.794 9.711 L 3.794 9.224 C 3.794 8.801 4.134 8.469 4.547 8.469 L 5.376 8.469 C 5.798 8.469 6.129 8.809 6.129 9.224 L 6.129 9.711 Z M 6.129 7.263 C 6.129 7.686 5.789 8.018 5.376 8.018 L 4.547 8.018 C 4.125 8.018 3.794 7.678 3.794 7.263 L 3.794 6.776 C 3.794 6.351 4.134 6.02 4.547 6.02 L 5.376 6.02 C 5.798 6.02 6.129 6.361 6.129 6.776 L 6.129 7.263 Z M 7.609 8.469 L 8.437 8.469 C 8.86 8.469 9.191 8.809 9.191 9.224 L 9.191 9.711 C 9.191 10.135 8.85 10.467 8.437 10.467 L 7.609 10.467 C 7.186 10.467 6.855 10.126 6.855 9.711 L 6.855 9.224 C 6.855 8.801 7.196 8.469 7.609 8.469 Z M 6.855 7.263 L 6.855 6.776 C 6.855 6.351 7.196 6.02 7.609 6.02 L 8.437 6.02 C 8.86 6.02 9.191 6.361 9.191 6.776 L 9.191 7.263 C 9.191 7.686 8.85 8.018 8.437 8.018 L 7.609 8.018 C 7.186 8.018 6.855 7.678 6.855 7.263 Z M 9.209 12.143 C 9.209 12.566 8.869 12.897 8.455 12.897 L 7.628 12.897 C 7.204 12.897 6.874 12.556 6.874 12.143 L 6.874 11.654 C 6.874 11.231 7.214 10.899 7.628 10.899 L 8.455 10.899 C 8.879 10.899 9.209 11.241 9.209 11.654 L 9.209 12.143 Z M 12.27 12.078 C 12.27 12.501 11.931 12.833 11.517 12.833 L 10.69 12.833 C 10.266 12.833 9.936 12.492 9.936 12.078 L 9.936 9.214 C 9.936 8.791 10.275 8.46 10.69 8.46 L 11.517 8.46 C 11.94 8.46 12.27 8.801 12.27 9.214 L 12.27 12.078 Z M 12.27 7.254 C 12.27 7.678 11.931 8.009 11.517 8.009 L 10.69 8.009 C 10.266 8.009 9.936 7.668 9.936 7.254 L 9.936 6.766 C 9.936 6.342 10.275 6.011 10.69 6.011 L 11.517 6.011 C 11.94 6.011 12.27 6.351 12.27 6.766 L 12.27 7.254 Z M 12.27 4.152 C 12.27 4.768 11.774 5.265 11.158 5.265 L 4.906 5.265 C 4.29 5.265 3.794 4.768 3.794 4.152 L 3.794 4.013 C 3.794 3.397 4.29 2.9 4.906 2.9 L 11.158 2.9 C 11.774 2.9 12.27 3.397 12.27 4.013 L 12.27 4.152 Z" style=""></path>
</svg>