<svg width="24" height="24" viewBox="0 0 24 24" fill="none" xmlns="http://www.w3.org/2000/svg">
  <rect width="24" height="24" rx="6" fill="#86868A"/>
  <path d="M5.8302 19.1477C6.92938 20.2716 8.21286 20.2851 9.2923 19.1814C10.0887 18.3671 10.9246 16.449 11.5433 15.6953L12.9453 17.1355C13.4587 17.6671 14.0774 17.6671 14.5776 17.1557L15.4267 16.2808C15.8282 15.8635 15.9072 15.3924 15.6636 14.9483L18.461 12.088C19.1916 11.341 19.1784 10.4459 18.4281 9.67873L13.2612 4.38901C12.5701 3.68237 11.3722 3.9583 11.1287 5.05528C10.5955 7.43094 10.5034 7.97606 9.81886 9.03939C9.42394 8.86441 9.0027 8.96536 8.63411 9.33551L7.78504 10.2104C7.28481 10.7219 7.27823 11.3478 7.7982 11.8794L9.20674 13.3129C8.47614 13.9455 6.60028 14.7935 5.80387 15.6078C4.72443 16.7115 4.73101 18.0306 5.8302 19.1477ZM14.2946 11.4487C14.6303 11.7919 16.4271 10.7892 17.1512 9.95466L17.6251 10.4392C17.9278 10.7488 17.9278 11.1257 17.6448 11.4151L14.966 14.1609L10.6416 9.7393C11.4183 8.54811 11.5565 7.70014 12.1094 5.61386C12.1949 5.27063 12.4714 5.18315 12.6952 5.40523L15.7624 8.53465C15.6044 9.65181 15.0186 10.4729 14.3143 11.193C14.2288 11.2805 14.2354 11.3881 14.2946 11.4487ZM8.69993 10.8094L9.23307 10.2777C9.4042 10.1027 9.58849 10.096 9.75962 10.271L14.5184 15.13C14.6829 15.3049 14.6829 15.4934 14.5052 15.6751L13.9918 16.2068C13.8207 16.3952 13.6232 16.4019 13.4521 16.2135L11.879 14.5983C11.6355 14.3493 11.3195 14.3762 11.0431 14.6521C10.5297 15.1703 9.62798 17.3845 8.58145 18.4478C7.94959 19.1006 7.18608 19.1006 6.52788 18.4344C5.88285 17.7681 5.87627 16.9807 6.51472 16.3346C7.56125 15.2713 9.72671 14.3493 10.2335 13.8244C10.4968 13.535 10.5297 13.2119 10.2862 12.9697L8.69993 11.3545C8.5288 11.1795 8.5288 10.9843 8.69993 10.8094ZM7.53492 18.2527C7.9825 18.2527 8.3445 17.8758 8.3445 17.4181C8.3445 16.9605 7.9825 16.5904 7.53492 16.5904C7.08735 16.5904 6.71876 16.9605 6.71876 17.4181C6.71876 17.8758 7.08735 18.2527 7.53492 18.2527Z" fill="white"/>
</svg>
