<?xml version="1.0" encoding="UTF-8" standalone="no"?>
<svg width="20px" height="24px" viewBox="0 0 20 24" version="1.1" xmlns="http://www.w3.org/2000/svg" xmlns:xlink="http://www.w3.org/1999/xlink">
    <!-- Generator: Sketch 40 (33762) - http://www.bohemiancoding.com/sketch -->
    <title>add-address-2</title>
    <desc>Created with Sketch.</desc>
    <defs></defs>
    <g id="Icons" stroke="none" stroke-width="1" fill="none" fill-rule="evenodd">
        <g id="Icon-style-and-technique" transform="translate(-680.000000, -627.000000)" fill="#000000">
            <g id="add-address-2" transform="translate(680.000000, 627.000000)">
                <path d="M10,0.0011811 C15.52283,0.0011811 19.99921,4.4775611 19.99921,10.0003911 C19.99921,14.6740111 16.7937,18.5976311 12.46023,19.6937011 L9.99999,23.9988211 L7.54093,19.6937011 C3.20747,18.5976411 0.00077,14.6740111 0.00077,10.0003911 C0.00077,4.4775611 4.47715,0.0011811 9.99998,0.0011811 L10,0.0011811 Z M11.82008,18.8149311 L11.8425209,18.8102067 L11.8637807,18.8054823 L11.8862216,18.8007579 L11.9086625,18.7960335 L11.9299223,18.7913091 L11.9523632,18.7865846 L11.9748041,18.7818602 L11.9960639,18.7771358 L12.0114182,18.7735925 L12.0185048,18.7724114 L12.0397646,18.7665059 L12.0622055,18.7617815 L12.0834653,18.7570571 L12.1059062,18.7511516 L12.127166,18.7464272 L12.1496069,18.7405217 L12.1708667,18.7357972 L12.1933076,18.7298917 L12.2015753,18.7275295 L12.2145674,18.7251673 L12.2358272,18.7192618 L12.2582681,18.7133563 L12.2795279,18.7074508 L12.3444885,18.6909154 L12.3657483,18.6850099 L12.3881892,18.6791044 L12.3893703,18.6779233 L12.409449,18.6731989 L12.4307088,18.6672934 L12.4732285,18.6543013 L12.4956694,18.6483957 L12.5169292,18.6424902 L12.538189,18.6365847 L12.5594488,18.6294981 L12.5759842,18.6247737 L12.5807086,18.6235926 L12.6019684,18.6176871 L12.6232282,18.6106005 L12.644488,18.604695 L12.6657478,18.5976084 L12.6870076,18.5905218 L12.7082674,18.5846162 L12.7295272,18.5775296 L12.750787,18.570443 L12.7602359,18.5680808 L12.7720469,18.5645375 L12.7933067,18.5574509 L12.8145665,18.5503643 L12.8358263,18.5432777 L12.8570861,18.5361911 L12.8771648,18.5291045 L12.8984246,18.5220179 L12.9196844,18.5149312 L12.9409442,18.5078446 L12.9444875,18.5066635 L12.9610229,18.500758 L12.9822827,18.4924903 L13.0035425,18.4854037 L13.0236212,18.4783171 L13.044881,18.4712305 L13.0661408,18.4629628 L13.0862195,18.4558761 L13.1074793,18.4476084 L13.1251958,18.4417029 L13.127558,18.4405218 L13.1488178,18.4322541 L13.1700776,18.4251675 L13.1901563,18.4168998 C16.5858263,17.1294998 18.9999963,13.8460298 18.9999963,9.99917977 C18.9999963,5.02909977 14.9700763,0.99917977 9.99999627,0.99917977 C5.02991627,0.99917977 0.99999627,5.02909977 0.99999627,9.99917977 C0.99999627,13.8590198 3.41534627,17.1318598 6.81101627,18.4168998 L6.83227607,18.4239864 C7.23385107,18.5609944 7.63542607,18.6873724 8.04999607,18.7854034 L8.07125587,18.7901278 L8.09369677,18.7948522 L8.11495657,18.8007577 L8.13739747,18.8054821 L8.15865727,18.8102065 L8.18109817,18.8149309 L9.99999817,21.9991809 L11.8200782,18.8149309 L11.82008,18.8149311 Z" id="Shape"></path>
                <path d="M10.5,9.5 L10.5,5.5 L9.5,5.5 L9.5,9.5 L5.5,9.5 L5.5,10.5 L9.5,10.5 L9.5,14.5 L10.5,14.5 L10.5,10.5 L14.5,10.5 L14.5,9.5 L10.5,9.5 Z" id="Combined-Shape"></path>
            </g>
        </g>
    </g>
</svg>