<?xml version="1.0" encoding="UTF-8" standalone="no"?>
<svg width="19px" height="22px" viewBox="0 0 19 22" version="1.1" xmlns="http://www.w3.org/2000/svg" xmlns:xlink="http://www.w3.org/1999/xlink">
    <!-- Generator: Sketch 40 (33762) - http://www.bohemiancoding.com/sketch -->
    <title>add-address-1</title>
    <desc>Created with Sketch.</desc>
    <defs>
        <path d="M19.00077,9.5011716 C19.00077,13.9414569 15.955298,17.6691867 11.8381803,18.7105344 L9.50077,22 L7.16448077,18.7105344 C3.04737264,17.6691962 0.00077,13.9414569 0.00077,9.5011716 C0.00077,4.25407383 4.25366273,0.0011811 9.5007605,0.0011811 C14.7478773,0.0011811 19.00077,4.25407383 19.00077,9.5011716 Z" id="path-1"></path>
        <mask id="mask-2" maskContentUnits="userSpaceOnUse" maskUnits="objectBoundingBox" x="0" y="0" width="19" height="21.9988189" fill="white">
            <use xlink:href="#path-1"></use>
        </mask>
    </defs>
    <g id="Icons" stroke="none" stroke-width="1" fill="none" fill-rule="evenodd">
        <g id="Icon-style-and-technique" transform="translate(-434.000000, -627.000000)">
            <g id="add-address-1" transform="translate(434.000000, 627.000000)">
                <use id="Shape" stroke="#000000" mask="url(#mask-2)" stroke-width="2" xlink:href="#path-1"></use>
                <path d="M10,9 L10,5 L9,5 L9,9 L5,9 L5,10 L9,10 L9,14 L10,14 L10,10 L14,10 L14,9 L10,9 Z" id="Combined-Shape" fill="#000000"></path>
            </g>
        </g>
    </g>
</svg>