<?xml version="1.0" encoding="UTF-8" standalone="no"?>
<svg width="24px" height="24px" viewBox="0 0 24 24" version="1.1" xmlns="http://www.w3.org/2000/svg" xmlns:xlink="http://www.w3.org/1999/xlink">
    <!-- Generator: Sketch 40 (33762) - http://www.bohemiancoding.com/sketch -->
    <title>csvimport-2</title>
    <desc>Created with Sketch.</desc>
    <defs></defs>
    <g id="Icons" stroke="none" stroke-width="1" fill="none" fill-rule="evenodd">
        <g id="Icon-style-and-technique" transform="translate(-680.000000, -715.000000)">
            <g id="csvimport-2" transform="translate(680.000000, 715.000000)">
                <g id="Group">
                    <path d="M10.9996,0.0720472 L17.92677,6.9992172 L17.9988172,6.9992172 L17.9988172,7.0712644 L17.9988172,10.0169344 C17.8334632,10.0063045 17.6669272,9.9992179 17.4992112,9.9992179 C17.3314942,9.9992179 17.1649592,10.0063045 16.9996052,10.0169344 L16.9996052,7.9996144 L11.9999952,7.9996144 C10.8992052,7.9996144 9.9992052,7.0996144 9.9992052,5.9988244 L9.9992052,0.9992144 L1.9984152,0.9992144 C1.4480212,0.9992144 0.9992022,1.4480334 0.9992022,1.9984274 L0.9992022,22.0004274 C0.9992022,22.5508214 1.4480212,22.9996404 1.9984152,22.9996404 L12.4015152,22.9996404 C12.8113582,23.3811364 13.2660822,23.7165694 13.7538752,23.9988534 L1.9995752,23.9988534 C0.8987852,23.9988534 -3.48e-05,23.1000344 -3.48e-05,21.9992434 L-3.48e-05,1.9996434 C-3.48e-05,0.8988534 0.8987842,3.34e-05 1.9995752,3.34e-05 L10.9275252,3.34e-05 L10.9995724,3.34e-05 L10.9995724,0.0720806 L10.9996,0.0720472 Z M16.5118,6.9992172 L10.9996,1.4870172 L10.9996,6.0000072 C10.9996,6.5504012 11.448419,6.9992202 11.998813,6.9992202 L16.511803,6.9992202 L16.5118,6.9992172 Z" id="Shape" fill="#20C929"></path>
                    <path d="M17.4992,23.9988 C13.90983,23.9988 10.99959,21.08856 10.99959,17.49919 C10.99959,13.90982 13.90983,10.99958 17.4992,10.99958 C21.08857,10.99958 23.99881,13.90982 23.99881,17.49919 C23.99881,21.08856 21.08857,23.9988 17.4992,23.9988 L17.4992,23.9988 Z M17.4992,13.99959 L18.20668,14.70707 L20.32676,16.82715 L19.61928,17.53463 L17.99881,15.91416 L17.99881,20.99881 L16.999597,20.99881 L16.999597,15.91416 L15.379127,17.53463 L14.671647,16.82715 L16.791727,14.70707 L17.499207,13.99959 L17.4992,13.99959 Z M17.4992,11.9988 C20.537,11.9988 22.99959,14.4614 22.99959,17.49919 C22.99959,20.53699 20.53699,22.99958 17.4992,22.99958 C14.4614,22.99958 11.99881,20.53698 11.99881,17.49919 C11.99881,14.46139 14.46141,11.9988 17.4992,11.9988 L17.4992,11.9988 Z" id="Shape" fill="#000000"></path>
                </g>
            </g>
        </g>
    </g>
</svg>