<svg y="3.85" height="7.3" width="35" class="prefix__logo" viewBox="0 0 105 43" xmlns="http://www.w3.org/2000/svg"><g fill="#FFF" fill-rule="evenodd"><path d="M19.403 5.567C20.6 4.068 21.413 2.057 21.2 0c-1.754.087-3.894 1.157-5.133 2.656-1.113 1.285-2.098 3.381-1.841 5.351 1.969.171 3.936-.983 5.177-2.44M21.177 8.393c-2.859-.17-5.29 1.623-6.656 1.623-1.366 0-3.457-1.537-5.719-1.496-2.943.043-5.674 1.708-7.168 4.355-3.072 5.295-.81 13.15 2.177 17.463 1.451 2.134 3.2 4.483 5.503 4.399 2.177-.086 3.03-1.41 5.676-1.41 2.645 0 3.414 1.41 5.718 1.367 2.39-.043 3.884-2.135 5.334-4.271 1.665-2.432 2.346-4.78 2.39-4.91-.044-.042-4.609-1.794-4.65-7.045-.044-4.397 3.583-6.49 3.754-6.618-2.048-3.03-5.249-3.371-6.359-3.457M85.55 43.038V39.2c.313.043 1.066.088 1.466.088 2.198 0 3.44-.932 4.195-3.329l.444-1.42-8.412-23.306h5.194l5.859 18.91h.11l5.86-18.91h5.062l-8.723 24.482c-1.997 5.615-4.284 7.458-9.122 7.458-.378 0-1.6-.045-1.932-.134M42.65 19.355h5.705c4.328 0 6.792-2.33 6.792-6.37s-2.464-6.347-6.77-6.347H42.65v12.718zm7.037-16.913c6.214 0 10.542 4.284 10.542 10.52 0 6.26-4.416 10.567-10.698 10.567H42.65V34.47h-4.972V2.443h12.009zM76.555 25.77v-1.799l-5.526.357c-3.108.2-4.728 1.354-4.728 3.373 0 1.953 1.688 3.218 4.328 3.218 3.374 0 5.926-2.152 5.926-5.149m-15.093 2.064c0-4.105 3.13-6.459 8.9-6.814l6.193-.378v-1.774c0-2.598-1.71-4.018-4.75-4.018-2.508 0-4.327 1.287-4.705 3.263h-4.483c.133-4.152 4.04-7.17 9.322-7.17 5.682 0 9.388 2.975 9.388 7.592V34.47h-4.594v-3.84h-.111c-1.31 2.508-4.195 4.084-7.325 4.084-4.616 0-7.835-2.753-7.835-6.88"/></g></svg>

