<svg width="10" height="10" viewBox="0 0 10 10" fill="none" xmlns="http://www.w3.org/2000/svg">
<path d="M5 10C7.74178 10 10.0048 7.73694 10.0048 5C10.0048 2.26306 7.73694 0 4.99516 0C2.25822 0 0 2.26306 0 5C0 7.73694 2.26306 10 5 10ZM5 9.00387C2.78046 9.00387 1.0058 7.21954 1.0058 5C1.0058 2.78046 2.78046 1.00097 4.99516 1.00097C7.2147 1.00097 8.99903 2.78046 9.00387 5C9.0087 7.21954 7.21954 9.00387 5 9.00387ZM3.41393 7.03095C3.53965 7.03095 3.65087 6.98743 3.73308 6.90039L5 5.63346L6.26692 6.90039C6.34913 6.98259 6.45551 7.03095 6.58607 7.03095C6.83269 7.03095 7.02611 6.83752 7.02611 6.59091C7.02611 6.47002 6.97776 6.36364 6.89555 6.28143L5.62379 5.00967L6.89555 3.73308C6.98743 3.6412 7.03095 3.54449 7.03095 3.42843C7.03095 3.18182 6.83752 2.98839 6.59091 2.98839C6.47002 2.98839 6.36847 3.02708 6.2766 3.11896L5 4.39072L3.7234 3.12379C3.6412 3.03675 3.53965 2.99323 3.41393 2.99323C3.16731 2.99323 2.97389 3.18182 2.97389 3.42843C2.97389 3.54932 3.02224 3.65571 3.10928 3.73791L4.37621 5.00967L3.10928 6.28627C3.02224 6.36364 2.97389 6.47486 2.97389 6.59091C2.97389 6.83752 3.16731 7.03095 3.41393 7.03095Z" fill="#EB4653"/>
</svg>
