<svg width="10" height="10" viewBox="0 0 10 10" fill="none" xmlns="http://www.w3.org/2000/svg">
<path d="M4.23433 6.99997C4.1832 6.99968 4.13429 6.97172 4.0985 6.92232L2.99984 5.5C2.92482 5.39851 2.98086 5.24307 3.05588 5.14158C3.13089 5.04009 3.25252 5.04009 3.32753 5.14158L4.23433 6.37101L6.67158 3.07613C6.72011 3.01047 6.79084 2.98483 6.85713 3.00886C6.92342 3.03289 6.97519 3.10294 6.99296 3.19263C7.01072 3.28231 7.04841 3.43435 6.99989 3.5L4.37398 6.92232C4.33727 6.97301 4.28678 7.00108 4.23433 6.99997Z" fill="#069D3B"/>
<path fill-rule="evenodd" clip-rule="evenodd" d="M6.77053 3.36274L6.24569 4.07224L6.77297 3.38506C6.77283 3.38329 6.77267 3.38143 6.77248 3.37947C6.77196 3.37417 6.77131 3.36859 6.77053 3.36274ZM6.47061 2.92742C6.57096 2.79172 6.75154 2.70463 6.94235 2.7738C7.11543 2.83654 7.2092 2.99751 7.23822 3.14403C7.23932 3.14959 7.24071 3.15634 7.24232 3.16407C7.25055 3.20385 7.26415 3.26955 7.27013 3.33113C7.27386 3.36945 7.276 3.41721 7.26999 3.46691C7.26421 3.51464 7.24861 3.5841 7.20095 3.64857L7.19828 3.65219L4.57398 7.07226C4.49987 7.17272 4.37944 7.25235 4.23095 7.24992C4.08694 7.24843 3.97089 7.17031 3.89868 7.07264L2.79866 5.64861C2.70317 5.51941 2.70433 5.37258 2.72725 5.26748C2.75033 5.16167 2.80108 5.06556 2.85475 4.99295C2.93145 4.88919 3.05067 4.81543 3.19163 4.81543C3.33258 4.81543 3.4518 4.88919 3.5285 4.99295L4.23457 5.95022L6.47061 2.92742C6.47063 2.9274 6.47059 2.92745 6.47061 2.92742ZM4.23095 7.24992C4.23029 7.24991 4.22962 7.2499 4.22896 7.24989L4.23433 6.99997L4.23287 7.24994C4.23223 7.24993 4.23159 7.24993 4.23095 7.24992Z" fill="#069D3B"/>
<path d="M5 10C7.74178 10 10.0048 7.73694 10.0048 5C10.0048 2.26306 7.73694 0 4.99516 0C2.25822 0 0 2.26306 0 5C0 7.73694 2.26306 10 5 10ZM5 9.00387C2.78046 9.00387 1.0058 7.21954 1.0058 5C1.0058 2.78046 2.78046 1.00097 4.99516 1.00097C7.2147 1.00097 8.99903 2.78046 9.00387 5C9.0087 7.21954 7.21954 9.00387 5 9.00387Z" fill="#069D3B"/>
</svg>
