<svg xmlns="http://www.w3.org/2000/svg" viewBox="0 0 32 32"><g fill="none" fill-rule="evenodd"><path fill="#739851" d="M0 0h32v32H0z"/><path fill="#FEFEFE" fill-rule="nonzero" d="M11.6 18.33c.04-.13.27-.48.27-1.17 0-.68-.4-.77-.47-.83-.07-.05-.16-.14-.07-.29.12-.24.16-.6.16-.77 0-.35-.04-1.25-.46-1.38-.37-.09-.35-.23-.35-.5 0-1.13-.56-1.75-1.12-1.75-.59 0-1.12.62-1.12 1.74 0 .3 0 .42-.35.51-.44.13-.48 1.02-.48 1.38 0 .15.04.53.16.76.08.17 0 .25-.08.3-.07.06-.46.15-.46.83 0 .69.23 1.04.29 1.17.04.11.07.2-.06.3-.19.16-.36.41-.36 1 0 .68.4 2.07 1.74 2.77.3.15.3.35.3.35v4.89h1.04v-4.9s0-.18.32-.35c1.33-.69 1.51-2.08 1.51-2.75 0-.6-.18-.85-.37-1-.13-.1-.1-.2-.05-.31zm12.66 0c.06-.15.3-.48.3-1.17 0-.68-.4-.77-.47-.83-.08-.05-.16-.14-.08-.29.12-.24.16-.62.16-.77 0-.35-.05-1.26-.46-1.38-.36-.1-.35-.23-.35-.5 0-1.13-.55-1.77-1.12-1.77-.57 0-1.12.64-1.12 1.78 0 .26 0 .39-.35.5-.42.1-.46 1-.46 1.37 0 .15.04.53.16.76.08.17 0 .25-.08.3-.07.06-.46.15-.46.83 0 .69.22 1.02.29 1.17.03.11.07.2-.07.3-.2.16-.37.41-.37 1 0 .68.38 2.07 1.7 2.77.32.15.32.35.32.35h.02v4.89h.81v-4.9s0-.18.32-.35a3.32 3.32 0 0 0 1.75-2.77c0-.58-.2-.83-.38-.99-.15-.1-.1-.19-.06-.3zm-7.9-4.56h-.72s0-.2-.3-.37a3.46 3.46 0 0 1-1.6-2.83c0-.6.17-.85.34-1.01.13-.12.1-.15.06-.27-.06-.13-.26-.48-.26-1.19 0-.7.36-.78.42-.84.07-.07.16-.15.07-.32a2.14 2.14 0 0 1-.16-.77c0-.37.06-.82.44-.95.33-.1.33-.23.33-.5 0-1.17.5-1.81 1.02-1.81s1.02.64 1.03 1.8c0 .28-.01.41.3.51.4.13.44.58.44.95 0 .16-.02.54-.14.77-.09.17 0 .25.06.32.07.06.43.14.43.84 0 .71-.21 1.05-.26 1.2-.04.11-.07.14.05.26.18.16.34.4.34 1.01a3.5 3.5 0 0 1-1.6 2.83c-.29.17-.29.37-.29.37h-.72s0-.2-.3-.37a3.46 3.46 0 0 1-1.6-2.83c0-.6.17-.85.34-1.01.13-.12.1-.15.06-.27-.06-.13-.26-.48-.26-1.19 0-.7.36-.78.42-.84.07-.07.16-.15.07-.32a2.14 2.14 0 0 1-.16-.77c0-.37.06-.82.44-.95.33-.1.33-.23.33-.5 0-1.17.5-1.81 1.02-1.81s1.02.64 1.03 1.8c0 .28-.01.41.3.51.4.13.44.58.44.95 0 .16-.02.54-.14.77-.09.17 0 .25.06.32.07.06.43.14.43.84 0 .71-.21 1.05-.26 1.2-.04.11-.07.14.05.26.18.16.34.4.34 1.01a3.5 3.5 0 0 1-1.6 2.83c-.29.17-.29.37-.29.37zm-5 15.32l.74-5.02h7.8l.73 5.02h-2.99l-.42-2.17c-.14-.72-1.18-.72-1.2-.72-.03 0-1.07 0-1.21.72l-.45 2.17h-3.07.07zm1.23-14.55h1.32v.8h1.06v-.8h2.12v.8h1.05v-.8h1.06V16h-6.6v-1.73.27zm6.54 1.73l-.38.53h-5.5l-.38-.54h6.26zm-5.6 1.18h4.94l.54 5.55H13l.55-5.55h-.01zm.65 3.44h.79v-1.6h-.79v1.6zm2.91 0h.79v-1.6h-.79v1.6zm-4.5 2.92v-.53h6.6v.53h-6.6z"/></g></svg>