<svg width="100%" viewBox="0 0 29 28" fill="none" xmlns="http://www.w3.org/2000/svg">
 <g transform="matrix(1.308 0 0 1.308 -4.4655 -3.8874)" fill="#a0a0a0">
  <path d="m8.3301 22.776c2.4521 0 4.5263-2.0567 4.5263-4.5352s-2.0478-4.5264-4.5263-4.5264c-2.4873 0-4.5352 2.0479-4.5352 4.5264 0 2.4873 2.0478 4.5352 4.5352 4.5352zm-0.52735-1.8633c-0.17578 0-0.37793-0.0615-0.50976-0.211l-1.6524-1.8017c-0.08789-0.0967-0.14941-0.2725-0.14941-0.4219 0-0.3867 0.29004-0.6328 0.63281-0.6328 0.20215 0 0.36036 0.0791 0.47461 0.2022l1.1602 1.2744 2.2412-3.1026c0.123-0.167 0.3076-0.2724 0.5273-0.2724 0.3428 0 0.6416 0.2724 0.6416 0.624 0 0.1142-0.0439 0.2461-0.1318 0.3691l-2.7158 3.7354c-0.10547 0.1494-0.30762 0.2373-0.51856 0.2373z"/>
  <path d="m16.126 22.733c4.9746 0 9.0791-4.1133 9.0791-9.0791 0-4.9658-4.1221-9.0791-9.0879-9.0791-4.6231 0-8.4815 3.542-9.0088 8.0332 0.53613-0.123 1.2568-0.1582 1.8281-0.0703 0.51856-3.5068 3.5156-6.1699 7.1807-6.1699 4.043 0 7.2949 3.2432 7.2949 7.2861 0 1.9248-0.7295 3.665-1.9424 4.9658-0.9052-1.0107-2.8388-1.9336-5.3525-1.9336-0.791 0-1.5205 0.0967-2.1885 0.2549 0.1055 0.4131 0.1582 0.8613 0.1582 1.3096 0 1.4326-0.5449 2.751-1.4326 3.7705 1.0723 0.457 2.25 0.7119 3.4717 0.7119zm-0.0088-7.4883c1.6963 0.0088 3.0234-1.4414 3.0234-3.3222 0-1.7754-1.3359-3.2608-3.0234-3.2608-1.6963 0-3.041 1.4854-3.0234 3.2608 0.0087 1.872 1.3271 3.3046 3.0234 3.3222z"/>
 </g>
</svg>
