<svg width="100%" height="100%" fill="currentColor" version="1.1" viewBox="0 0 16 16" xmlns="http://www.w3.org/2000/svg">
 <path d="m6.5623 12h2.8938c0.62638 0 1.044-0.4082 1.044-1.0132v-5.9772c0-0.60501-0.41758-1.0096-1.044-1.0096h-2.8938c-0.63736 0-1.0623 0.40456-1.0623 1.0096v5.9772c0 0.60501 0.42491 1.0132 1.0623 1.0132zm0.12454-0.7508c-0.28937 0-0.45421-0.15672-0.45421-0.43371v-5.6346c0-0.277 0.16483-0.43372 0.45421-0.43372h0.15019v0.18223c0 0.16036 0.10622 0.26606 0.26373 0.26606h1.8022c0.15751 0 0.26374-0.10569 0.26374-0.26606v-0.18223h0.14652c0.28937 0 0.45421 0.16036 0.45421 0.43736v5.631c0 0.27699-0.16484 0.43371-0.45421 0.43371zm0.337-0.28792h1.956c0.10623 0 0.18682-0.0729 0.18682-0.18588 0-0.10934-0.080591-0.18223-0.18682-0.18223h-1.956c-0.10623 0-0.18681 0.072891-0.18681 0.18223 0 0.11298 0.08058 0.18588 0.18681 0.18588z"/>
</svg>
