<svg width="100%" height="100%" fill="currentColor" version="1.1" viewBox="0 0 16 16" xmlns="http://www.w3.org/2000/svg">
 <path d="m1.5704 12h12.859c0.3341 0 0.6109-0.27685 0.6109-0.61098 0-0.3389-0.2768-0.61575-0.6109-0.61575h-1.0072v-5.6277c0-0.7494-0.4105-1.1456-1.1551-1.1456h-8.5346c-0.71599 0-1.1551 0.39618-1.1551 1.1456v5.6277h-1.0072c-0.33413 0-0.61098 0.27685-0.61098 0.61575 0 0.33413 0.27685 0.61098 0.61098 0.61098zm1.957-6.6014c0-0.30549 0.14797-0.44869 0.44869-0.44869h8.0477c0.296 0 0.4487 0.1432 0.4487 0.44869v5.3747h-8.9451z"/>
</svg>
