<svg width="100%" height="100%" fill="currentColor" version="1.1" viewBox="0 0 16 16" xmlns="http://www.w3.org/2000/svg">
 <path d="m4.2996 12h7.405c0.92884 0 1.4082-0.4794 1.4082-1.3954v-5.2092c0-0.916-0.47941-1.3954-1.4082-1.3954h-7.4093c-0.92456 0-1.4082 0.47512-1.4082 1.3954v5.2092c0 0.916 0.48368 1.3954 1.4125 1.3954zm0.05136-0.85179c-0.39379 0-0.60781-0.20546-0.60781-0.62066v-5.0551c0-0.4152 0.21402-0.62066 0.60781-0.62066h7.298c0.3938 0 0.6121 0.20546 0.6121 0.62066v5.0551c0 0.4152-0.2183 0.62066-0.6121 0.62066zm1.9904-0.34243h3.3216c0.11985 0 0.20973-0.08561 0.20973-0.21402 0-0.12413-0.08988-0.20974-0.20973-0.20974h-3.3216c-0.12413 0-0.21401 0.08561-0.21401 0.20974 0 0.12841 0.08988 0.21402 0.21401 0.21402z"/>
</svg>
