<svg viewBox="0 0 36 36" fill="none" xmlns="http://www.w3.org/2000/svg" preserveAspectRatio="xMidYMin slice" width="100%">
<path fill-rule="evenodd" clip-rule="evenodd" d="M19.4563 2.84829L35.7814 31.633C36.2378 32.4368 35.9566 33.4584 35.1514 33.9147C34.9011 34.0575 34.6156 34.1326 34.327 34.1326H1.67521C0.74928 34.1326 0 33.3818 0 32.4588C0 32.1688 0.0750752 31.8847 0.217865 31.633L16.543 2.84829C16.9994 2.04454 18.021 1.76191 18.8247 2.21825C19.0882 2.36693 19.3061 2.58626 19.4548 2.84829H19.4563Z" fill="#FFBE00"></path>
<path d="M19.3643 25.2155L19.6102 13.4434H16.2097L16.4364 25.217H19.3658L19.3643 25.2155ZM17.9968 30.3677C18.6298 30.3677 19.1082 30.2058 19.435 29.8775C19.7618 29.5493 19.9252 29.1356 19.9252 28.6351C19.9252 28.1346 19.7633 27.7165 19.435 27.378C19.1082 27.0394 18.6283 26.8686 17.9968 26.8686C17.3668 26.8686 16.8898 27.0379 16.5689 27.378C16.2465 27.7165 16.0861 28.1361 16.0861 28.6351C16.0861 29.1356 16.248 29.5493 16.5689 29.8775C16.8898 30.2043 17.3668 30.3692 17.9968 30.3692V30.3677Z" fill="black"></path>
<path d="M19.3643 25.2155L19.6102 13.4434H16.2097L16.4364 25.217H19.3658L19.3643 25.2155ZM17.9968 30.3677C18.6298 30.3677 19.1082 30.2058 19.435 29.8775C19.7618 29.5493 19.9252 29.1356 19.9252 28.6351C19.9252 28.1346 19.7633 27.7165 19.435 27.378C19.1082 27.0394 18.6283 26.8686 17.9968 26.8686C17.3668 26.8686 16.8898 27.0379 16.5689 27.378C16.2465 27.7165 16.0861 28.1361 16.0861 28.6351C16.0861 29.1356 16.248 29.5493 16.5689 29.8775C16.8898 30.2043 17.3668 30.3692 17.9968 30.3692V30.3677Z" fill="white"></path>
</svg>
