<svg viewBox="0 0 16 16" fill="none" preserveAspectRatio="xMidYMin slice" width="100%">
  <path d="M3.61535 16H11.4498C12.5321 16 13.0651 15.4669 13.0651 14.2877V8.23826C13.0651 7.17214 12.629 6.63099 11.7244 6.54215V4.5472C11.7244 1.47804 9.68097 0 7.53256 0C5.38415 0 3.34074 1.47804 3.34074 4.5472V6.56638C2.50076 6.69561 2 7.22867 2 8.23826V14.2877C2 15.4669 2.53306 16 3.61535 16ZM4.89147 4.40182C4.89147 2.51994 6.08682 1.48612 7.53256 1.48612C8.97022 1.48612 10.1736 2.51994 10.1736 4.40182V6.526L4.89147 6.53407V4.40182Z" fill="black"></path>
</svg>
