<svg width="44" height="11" viewBox="0 0 44 11" fill="none" xmlns="http://www.w3.org/2000/svg">
<path d="M2.17105 0.217285L4.01645 5.60873L5.82566 0.217285H7.96052L4.77631 8.21399H3.18421L0 0.217285H2.17105Z" fill="#FF5B24"/>
<path d="M12.7721 6.94732C14.111 6.94732 14.8708 6.296 15.5945 5.35521C15.9925 4.84863 16.4991 4.74008 16.861 5.02955C17.2228 5.31903 17.259 5.86179 16.861 6.36837C15.8116 7.74337 14.4728 8.57561 12.7721 8.57561C10.9267 8.57561 9.29843 7.56245 8.17672 5.78942C7.85106 5.31903 7.92343 4.81245 8.28527 4.55916C8.64711 4.30587 9.18988 4.41442 9.51557 4.921C10.3116 6.11508 11.3971 6.94732 12.7721 6.94732ZM15.2689 2.49666C15.2689 3.14797 14.7623 3.58219 14.1833 3.58219C13.6044 3.58219 13.0978 3.14797 13.0978 2.49666C13.0978 1.84534 13.6044 1.41113 14.1833 1.41113C14.7623 1.41113 15.2689 1.88153 15.2689 2.49666Z" fill="#FF5B24"/>
<path d="M20.373 0.217105V1.30263C20.9157 0.542763 21.748 0 22.9782 0C24.5342 0 26.3434 1.30263 26.3434 4.08882C26.3434 7.01974 24.6065 8.43092 22.7973 8.43092C21.8565 8.43092 20.9881 8.06908 20.3368 7.16447V11H18.3828V0.217105H20.373ZM20.373 4.19737C20.373 5.82566 21.3138 6.69408 22.3631 6.69408C23.3763 6.69408 24.3894 5.89803 24.3894 4.19737C24.3894 2.53289 23.3763 1.73684 22.3631 1.73684C21.3499 1.73684 20.373 2.49671 20.373 4.19737Z" fill="#FF5B24"/>
<path d="M29.7812 0.217105V1.30263C30.3239 0.542763 31.1562 0 32.3864 0C33.9424 0 35.7516 1.30263 35.7516 4.08882C35.7516 7.01974 34.0147 8.43092 32.2055 8.43092C31.2647 8.43092 30.3963 8.06908 29.745 7.16447V11H27.791V0.217105H29.7812ZM29.7812 4.19737C29.7812 5.82566 30.722 6.69408 31.7713 6.69408C32.7845 6.69408 33.7976 5.89803 33.7976 4.19737C33.7976 2.53289 32.7845 1.73684 31.7713 1.73684C30.722 1.73684 29.7812 2.49671 29.7812 4.19737Z" fill="#FF5B24"/>
<path d="M39.911 0C41.5393 0 42.6972 0.759869 43.2038 2.64145L41.4307 2.93092C41.3946 1.99013 40.8156 1.66447 39.9472 1.66447C39.2959 1.66447 38.7893 1.95395 38.7893 2.42434C38.7893 2.78618 39.0426 3.14803 39.8025 3.29276L41.1413 3.54605C42.4439 3.79934 43.1676 4.66776 43.1676 5.82566C43.1676 7.5625 41.6117 8.43092 40.1281 8.43092C38.5722 8.43092 36.8353 7.63487 36.5821 5.68092L38.3551 5.39145C38.4636 6.4046 39.0788 6.76645 40.0919 6.76645C40.8518 6.76645 41.3584 6.47697 41.3584 6.00658C41.3584 5.57237 41.1051 5.24671 40.2729 5.10197L39.0426 4.88487C37.74 4.63158 36.9439 3.72697 36.9439 2.56908C36.9801 0.759869 38.6084 0 39.911 0Z" fill="#FF5B24"/>
</svg>
