<svg width="49" height="20" viewBox="0 0 49 20" fill="none" xmlns="http://www.w3.org/2000/svg">
<path d="M1.5625 0H46.5625C47.4254 0 48.125 0.699555 48.125 1.5625V18.3085C48.125 19.1714 47.4254 19.871 46.5625 19.871H1.5625C0.699555 19.871 0 19.1714 0 18.3085V1.5625C0 0.699555 0.699555 0 1.5625 0Z" fill="#FA82A0"/>
<path d="M19.7612 13.3508C20.9975 13.3508 21.9429 12.4911 21.9429 11.2251C21.9429 10.0536 21.1429 9.54343 20.1611 9.2411C19.5339 9.05215 19.143 8.91043 19.143 8.4475C19.143 8.06015 19.4157 7.75782 19.843 7.75782C20.2066 7.75782 20.4793 7.97512 20.6702 8.30578L21.6974 7.635C21.3793 6.89809 20.6611 6.52018 19.8793 6.52018C18.643 6.52018 17.8612 7.44605 17.8612 8.51363C17.8612 9.36392 18.3521 10.0253 19.5703 10.3937C20.2339 10.5921 20.652 10.7244 20.652 11.2723C20.652 11.7825 20.2975 12.1037 19.7793 12.1037C19.2248 12.1037 18.8067 11.7353 18.5521 11.3952L17.6976 12.2927C18.1521 12.9351 18.8976 13.3508 19.7612 13.3508ZM24.7579 13.3508C23.4489 13.3508 22.3853 12.2643 22.3853 10.9417C22.3853 9.61901 23.4489 8.53253 24.7579 8.53253C26.0669 8.53253 27.1305 9.61901 27.1305 10.9417C27.1305 12.2643 26.0669 13.3508 24.7579 13.3508ZM24.7579 12.1415C25.3942 12.1415 25.8942 11.6219 25.8942 10.9417C25.8942 10.2614 25.3942 9.74183 24.7579 9.74183C24.1216 9.74183 23.6216 10.2614 23.6216 10.9417C23.6216 11.6219 24.1216 12.1415 24.7579 12.1415ZM30.191 7.82396V6.61466H30.0092C28.5002 6.61466 27.7638 7.6539 27.7638 8.88209V13.228H29.0001V11.3196C29.0001 10.6866 29.4728 10.2331 30.1546 10.2142V8.98602C29.6637 8.98602 29.2728 9.13718 29.0001 9.4395V8.94822C29.0001 8.15462 29.5001 7.79561 30.191 7.82396ZM32.8878 13.3508C31.5788 13.3508 30.5152 12.2643 30.5152 10.9417C30.5152 9.61901 31.5788 8.53253 32.8878 8.53253C34.1969 8.53253 35.2605 9.61901 35.2605 10.9417C35.2605 12.2643 34.1969 13.3508 32.8878 13.3508ZM32.8878 12.1415C33.5242 12.1415 34.0241 11.6219 34.0241 10.9417C34.0241 10.2614 33.5242 9.74183 32.8878 9.74183C32.2515 9.74183 31.7515 10.2614 31.7515 10.9417C31.7515 11.6219 32.2515 12.1415 32.8878 12.1415ZM37.1301 9.17497V8.65535H35.9301V13.228H37.1664V11.1401C37.1664 10.3843 37.5937 9.95912 38.3391 9.95912V8.57977C37.7755 8.56087 37.3755 8.75927 37.1301 9.17497ZM40.2814 10.8944V9.77962C40.5542 10.0819 40.945 10.2331 41.4359 10.2331V9.00491C40.7632 8.98602 40.2814 8.52308 40.2814 7.89954V7.18152H39.0451V10.9606C39.0451 12.1888 39.7815 13.228 41.2905 13.228H41.4723V12.0187C40.7814 12.0471 40.2814 11.688 40.2814 10.8944ZM9.25714 15.0444C11.653 15.0415 12.6668 13.6933 12.8506 11.5336C12.9038 10.9121 12.7987 10.5337 12.6082 10.3331C12.5604 10.2828 12.5115 10.2491 12.4645 10.2281C12.4413 10.2178 12.428 10.2141 12.4092 10.2106L9.56733 9.55652C9.55357 9.55262 9.52246 9.54536 9.47822 9.53772C9.32522 9.5113 9.16424 9.5074 9.02093 9.5388C8.80388 9.58635 8.65997 9.70554 8.58991 9.93776C8.49408 10.2525 8.50099 10.4929 8.70326 10.6857C8.75563 10.7039 8.79812 10.7384 8.82645 10.7817C8.96823 10.8737 9.16714 10.9542 9.43619 11.0268L11.3084 11.439C11.6196 11.5075 11.5241 11.9666 11.2107 11.909C11.2022 11.9074 11.1812 11.9044 11.1497 11.901C10.9148 11.8764 10.6482 11.8946 10.403 11.9855C9.9449 12.1554 9.66164 12.5432 9.62627 13.2616C9.61975 13.3939 9.5056 13.496 9.37131 13.4896C9.23701 13.4832 9.13343 13.3707 9.13994 13.2383C9.179 12.4451 9.49352 11.9208 9.99938 11.6423L9.31887 11.4923C9.08462 11.4292 8.88703 11.3547 8.7226 11.27C8.64462 11.3891 8.54258 11.4931 8.42091 11.5754L8.36688 11.6109C8.33407 11.6327 8.30049 11.6524 8.2663 11.6703C8.48261 12.0727 8.42398 12.5821 8.08727 12.9266L8.0394 12.9761C7.61759 13.4016 6.9264 13.4119 6.48916 12.9968L6.12489 12.6409C6.42363 14.08 7.72498 15.0442 9.24595 15.0442C9.2497 15.0442 9.25343 15.0442 9.25714 15.0444ZM9.17304 15.5233C7.24541 15.4888 5.62717 14.0898 5.57492 12.1035L5.13247 11.6712C4.58584 11.1299 4.49759 10.3802 4.93672 9.93539L4.98405 9.88643C5.17265 9.69499 5.42041 9.59075 5.67339 9.57725C5.36766 8.983 5.46282 8.33272 5.93805 8.0113L6.00564 7.96745C6.52199 7.67176 6.97213 7.78591 7.35599 8.16149L6.91438 4.5798C6.76552 3.95723 7.15333 3.27525 7.74356 3.15125C8.04704 3.0874 8.36382 3.14627 8.62285 3.31465C8.88189 3.48304 9.06148 3.74684 9.11954 4.03854L9.87205 7.20901L10.8257 3.98648C10.9953 3.3578 11.6464 2.98039 12.2961 3.14238C12.8765 3.31235 13.2259 3.89418 13.0987 4.4737L12.0488 9.63571L12.4996 9.73954C12.6307 9.75834 12.8017 9.83468 12.9637 10.0053C13.2575 10.3146 13.3997 10.8267 13.3357 11.5738C13.1316 13.9739 11.9332 15.5477 9.18895 15.5239C9.1836 15.5239 9.1783 15.5237 9.17304 15.5233ZM11.5745 9.52644L12.622 4.37583C12.6962 4.03795 12.4937 3.70079 12.1671 3.60494C11.7856 3.50992 11.3974 3.73494 11.2947 4.11528L10.0809 8.21725C10.0432 8.34445 9.90807 8.41749 9.77899 8.3804C9.73741 8.36845 9.70154 8.34654 9.67326 8.31806C9.64189 8.28741 9.61861 8.24798 9.60781 8.20248L8.64361 4.13947C8.60892 3.9656 8.50484 3.81274 8.35474 3.71516C8.20464 3.61759 8.02108 3.58348 7.84515 3.62049C7.53132 3.68642 7.29576 4.10524 7.39052 4.47875L7.39601 4.508L7.94336 8.9473L8.29134 9.45814C8.44165 9.25465 8.65697 9.12702 8.91525 9.07043C9.13001 9.02338 9.35165 9.02876 9.56227 9.06512C9.62454 9.07588 9.67224 9.08701 9.6899 9.09233L11.5745 9.52644ZM8.07325 9.99886L7.53591 9.21003C7.51513 9.18915 7.4981 9.16445 7.4861 9.13689L7.23936 8.77467C6.92619 8.32506 6.62155 8.16968 6.263 8.37448L6.21087 8.40871C5.93134 8.59777 5.89337 9.05499 6.18377 9.48955L7.2482 11.0517C7.43744 11.3259 7.81592 11.3979 8.09596 11.2122L8.14801 11.1781C8.22187 11.1281 8.28293 11.0628 8.3274 10.9876C8.06215 10.716 7.99788 10.3809 8.07325 9.99886ZM7.76858 11.7951C7.41226 11.7995 7.06053 11.6329 6.84478 11.3203L6.05355 10.1591C5.83241 10.001 5.52532 10.0258 5.33502 10.219L5.28751 10.2681C5.05045 10.5083 5.10395 10.9628 5.47644 11.3316L6.82948 12.6537C7.07149 12.8834 7.45629 12.8777 7.68896 12.643L7.73564 12.5947C7.95273 12.3726 7.96266 12.0284 7.76858 11.7951ZM42.951 13.3036C42.4965 13.3036 42.1238 12.9162 42.1238 12.4439C42.1238 11.9715 42.4965 11.5841 42.951 11.5841C43.4055 11.5841 43.7783 11.9715 43.7783 12.4439C43.7783 12.9162 43.4055 13.3036 42.951 13.3036Z" fill="white"/>
</svg>
