<svg width="62" height="18" viewBox="0 0 62 18" fill="none" xmlns="http://www.w3.org/2000/svg">
<path d="M54.9174 3.42C54.1974 3.06 53.1174 2.79 51.5874 2.79C50.8674 2.79 50.0574 2.88 49.3374 2.97C48.7974 3.06 48.7074 3.06 48.3474 3.15C47.6274 3.33 47.5374 4.05 47.5374 4.05L47.2674 4.95C47.1774 5.58 47.4474 5.49 47.6274 5.49C47.8974 5.4 48.0774 5.31 48.7074 5.13C49.3374 4.95 49.9674 4.86 50.4174 4.86C51.1374 4.86 51.7674 4.95 52.1274 5.13C52.4874 5.31 52.6674 5.58 52.6674 5.94V6.21C52.6674 6.3 52.5774 6.39 52.3974 6.39C51.3174 6.48 50.5974 6.57 49.6974 6.66C48.7974 6.75 47.9874 7.02 47.3574 7.29C46.6374 7.56 46.0974 8.01 45.7374 8.55C45.3774 9.09 45.1974 9.72 45.1974 10.53C45.1974 11.25 45.4674 11.88 45.9174 12.33C46.4574 12.78 47.0874 12.96 47.8974 12.96C48.4374 12.96 48.7974 12.96 49.0674 12.87C49.3374 12.78 49.6074 12.69 49.9674 12.6C50.2374 12.51 50.4174 12.33 50.7774 12.15C51.0474 11.97 51.2274 11.88 51.4974 11.7L51.4074 11.97C51.3174 12.33 51.5874 12.6 51.9474 12.69H53.3874H53.6574C54.0174 12.69 54.3774 12.33 54.4674 11.97L55.8174 6.12C55.8174 5.94 55.9074 5.85 55.9074 5.67V5.22C55.9974 4.5 55.6374 3.87 54.9174 3.42ZM46.0074 1.89C45.7374 1.44 45.4674 1.08 45.0174 0.81C44.5674 0.54 44.0274 0.36 43.3974 0.18C42.7674 0.09 42.0474 0 41.2374 0H37.3674C37.0074 0 36.5574 0.36 36.4674 0.72L33.8574 12.06C33.7674 12.42 34.0374 12.78 34.3974 12.78H36.2874C36.6474 12.78 37.0974 12.42 37.1874 12.06L37.8174 9.27C37.9074 8.91 38.2674 8.55 38.7174 8.55H39.2574C41.5074 8.55 43.3074 8.1 44.5674 7.11C45.8274 6.21 46.4574 4.95 46.4574 3.42C46.3674 2.88 46.1874 2.34 46.0074 1.89ZM61.3974 0.09H59.7774C59.4174 0.09 58.9674 0.36 58.8774 0.72C58.8774 0.72 58.8774 0.9 58.7874 1.17L56.5374 11.52C56.4474 11.79 56.4474 11.88 56.4474 11.97C56.3574 12.33 56.6274 12.6 56.9874 12.69H58.5174C58.8774 12.69 59.2374 12.42 59.4174 12.06C59.4174 12.06 59.4174 12.06 59.4174 11.97L61.9374 0.72C62.0274 0.45 61.7574 0.09 61.3974 0.09ZM51.6774 10.44C51.4074 10.62 51.2274 10.71 50.9574 10.8C50.5974 10.98 50.3274 10.98 49.9674 10.98C49.5174 10.98 49.1574 10.89 48.8874 10.8C48.6174 10.71 48.5274 10.44 48.5274 10.08C48.5274 9.72 48.6174 9.36 48.7974 9.18C48.9774 9 49.2474 8.82 49.6074 8.64C49.9674 8.55 50.3274 8.46 50.8674 8.37C51.3174 8.28 52.1274 8.19 52.2174 8.19C52.3074 8.19 52.3974 8.1 52.3074 8.46C52.3074 8.55 52.0374 9.54 51.9474 9.99C51.9474 10.17 51.7674 10.35 51.6774 10.44ZM41.9574 5.58C41.4174 6.03 40.6074 6.21 39.6174 6.21H39.1674C38.8074 6.21 38.5374 5.85 38.6274 5.49L39.1674 3.06C39.2574 2.7 39.6174 2.34 40.0674 2.34H40.6974C41.4174 2.34 41.9574 2.43 42.3174 2.7C42.6774 2.97 42.8574 3.33 42.8574 3.78C42.8574 4.59 42.4974 5.22 41.9574 5.58Z" fill="#179BD7"/>
<path d="M31.6074 2.97C31.2474 2.97 30.7074 3.33 30.4374 3.69C30.4374 3.69 27.7374 8.28 27.5574 8.73C27.3774 9 27.2874 8.82 27.2874 8.73C27.2874 8.64 26.4774 3.78 26.4774 3.78C26.3874 3.42 25.9374 3.06 25.4874 3.06H23.8674C23.5074 3.06 23.2374 3.42 23.3274 3.78C23.3274 3.78 24.5874 10.98 24.8574 12.69C24.9474 13.59 24.8574 13.77 24.8574 13.77L23.2374 16.65C22.9674 17.01 23.1474 17.37 23.5074 17.37H25.3974C25.7574 17.37 26.2974 17.01 26.5674 16.65L33.9474 4.14C33.9474 4.14 34.6674 3.06 34.0374 3.06C33.4074 2.97 31.6074 2.97 31.6074 2.97ZM12.2574 1.8C11.9874 1.35 11.7174 0.99 11.2674 0.72C10.8174 0.45 10.2774 0.27 9.64744 0.09C9.01744 0 8.29744 0 7.39744 0H3.52744C3.16744 0 2.71744 0.36 2.62744 0.72L0.0174433 12.06C-0.0725567 12.42 0.197443 12.78 0.557443 12.78H2.44744C2.80744 12.78 3.25744 12.51 3.34744 12.06L3.97744 9.27C4.06744 8.91 4.42744 8.55 4.87744 8.55H5.41744C7.66744 8.55 9.46744 8.1 10.7274 7.11C11.9874 6.21 12.6174 4.95 12.6174 3.42C12.6174 2.88 12.5274 2.25 12.2574 1.8ZM21.1674 3.42C20.4474 3.06 19.3674 2.79 17.8374 2.79C17.1174 2.79 16.3074 2.88 15.5874 2.97C15.0474 3.06 14.9574 3.06 14.5974 3.15C13.8774 3.33 13.7874 4.05 13.7874 4.05L13.5174 4.95C13.4274 5.58 13.6974 5.49 13.8774 5.49C14.1474 5.4 14.3274 5.31 14.9574 5.13C15.5874 4.95 16.2174 4.86 16.6674 4.86C17.3874 4.86 18.0174 4.95 18.3774 5.13C18.9174 5.4 19.0974 5.67 19.0974 6.03V6.3C19.0974 6.39 19.0074 6.48 18.8274 6.48C17.7474 6.57 17.0274 6.66 16.1274 6.75C15.2274 6.84 14.4174 7.11 13.7874 7.38C13.0674 7.65 12.5274 8.1 12.1674 8.64C11.8074 9.18 11.6274 9.81 11.6274 10.62C11.6274 11.34 11.8974 11.97 12.3474 12.42C12.8874 12.87 13.5174 13.05 14.3274 13.05C14.8674 13.05 15.2274 13.05 15.4974 12.96C15.7674 12.87 16.0374 12.78 16.3974 12.69C16.6674 12.6 16.8474 12.42 17.2074 12.24C17.4774 12.06 17.6574 11.97 17.9274 11.79L17.8374 12.06C17.7474 12.42 18.0174 12.69 18.3774 12.78H19.8174H20.0874C20.4474 12.69 20.8074 12.42 20.8974 12.06L22.2474 6.21C22.2474 6.03 22.3374 5.94 22.3374 5.76V5.31C22.2474 4.5 21.8874 3.87 21.1674 3.42ZM8.20744 5.58C7.66744 5.94 6.85744 6.12 5.86744 6.12H5.41744C5.05744 6.12 4.78744 5.76 4.87744 5.4L5.41744 3.06C5.50744 2.7 5.86744 2.34 6.31744 2.34H6.94744C7.66744 2.34 8.20744 2.43 8.56744 2.7C8.92744 2.97 9.10744 3.33 9.10744 3.78C9.10744 4.59 8.83744 5.13 8.20744 5.58ZM17.9274 10.44C17.6574 10.62 17.4774 10.71 17.2074 10.8C16.8474 10.98 16.5774 10.98 16.2174 10.98C15.7674 10.98 15.4074 10.89 15.1374 10.8C14.8674 10.71 14.7774 10.44 14.7774 10.08C14.7774 9.72 14.8674 9.36 15.0474 9.18C15.2274 9 15.4974 8.82 15.8574 8.64C16.2174 8.55 16.5774 8.46 17.1174 8.37C17.5674 8.28 18.3774 8.19 18.4674 8.19C18.5574 8.19 18.6474 8.1 18.5574 8.46C18.5574 8.55 18.2874 9.54 18.1974 9.99C18.1974 10.17 18.0174 10.35 17.9274 10.44Z" fill="#013088"/>
</svg>
