<svg width="80px" height="20px" preserveAspectRatio="xMidYMid" viewBox="0 0 156 39" fill="none" xmlns="http://www.w3.org/2000/svg">
  <path d="M136.012 34.4047C137.751 34.4047 139.007 33.8733 139.973 31.3611L141.036 28.6556L131.229 4.64453H136.495L143.452 22.9065L149.877 4.64453H155.143L143.935 33.6317C142.486 37.3517 139.78 38.8011 136.688 38.8011C135.722 38.8011 134.707 38.6562 133.645 38.3663V33.9699C134.466 34.2115 135.287 34.4047 136.012 34.4047Z" fill="#13A0D3"/>
  <path fill-rule="evenodd" clip-rule="evenodd" d="M139.788 31.2894L139.788 31.2881L140.822 28.6568L130.933 4.44531H136.632L143.444 22.3278L149.736 4.44531H155.434L144.12 33.7033C143.383 35.5952 142.321 36.9234 141.038 37.7769C139.755 38.6299 138.265 38.9999 136.688 38.9999C135.702 38.9999 134.67 38.8519 133.592 38.558L133.445 38.5181V33.7037L133.701 33.7788C134.519 34.0196 135.317 34.2055 136.012 34.2055C136.862 34.2055 137.565 34.0752 138.17 33.6606C138.776 33.245 139.312 32.525 139.788 31.2894ZM143.452 22.9062L136.495 4.6443H131.229L141.036 28.6554L139.973 31.3608C139.007 33.8731 137.751 34.4045 136.012 34.4045C135.346 34.4045 134.598 34.2412 133.843 34.0272C133.777 34.0084 133.711 33.9892 133.644 33.9697V38.3661C134.707 38.6559 135.722 38.8009 136.688 38.8009C139.78 38.8009 142.486 37.3515 143.935 33.6315L155.143 4.6443H149.877L143.452 22.9062Z" fill="#13A0D3"/>
  <path d="M122.635 16.7232C122.635 12.52 120.51 8.46182 115.389 8.46182C110.267 8.46182 108.142 12.52 108.142 16.7232C108.142 20.9263 110.267 24.9845 115.389 24.9845C120.51 24.9845 122.635 20.9263 122.635 16.7232ZM127.515 28.8012H122.635V25.6126C120.896 27.8349 118.287 29.3809 114.519 29.3809C106.209 29.3809 103.262 22.6655 103.262 16.7232C103.262 10.7808 106.209 4.06543 114.519 4.06543C118.287 4.06543 120.896 5.61141 122.635 7.83376V4.64517H127.515V28.8012Z" fill="#13A0D3"/>
  <path fill-rule="evenodd" clip-rule="evenodd" d="M127.714 28.9999H122.436V26.1662C120.666 28.2011 118.102 29.5797 114.519 29.5797C110.302 29.5797 107.428 27.8719 105.614 25.3979C103.806 22.9325 103.063 19.7227 103.063 16.7229C103.063 13.7232 103.806 10.5134 105.614 8.04802C107.428 5.57396 110.302 3.86621 114.519 3.86621C118.102 3.86621 120.666 5.24473 122.436 7.2797V4.44596H127.714V28.9999ZM122.635 7.83353C122.57 7.75034 122.504 7.6681 122.436 7.58685C120.699 5.4976 118.146 4.0652 114.519 4.0652C106.209 4.0652 103.262 10.7806 103.262 16.7229C103.262 22.6653 106.209 29.3807 114.519 29.3807C118.146 29.3807 120.699 27.9483 122.436 25.859C122.504 25.7778 122.57 25.6955 122.635 25.6123V28.8009H127.515V4.64494H122.635V7.83353ZM120.774 11.1366C119.641 9.64806 117.889 8.66057 115.388 8.66057C112.887 8.66057 111.135 9.64806 110.003 11.1366C108.865 12.6325 108.34 14.6514 108.34 16.7229C108.34 18.7945 108.865 20.8134 110.003 22.3093C111.135 23.7978 112.887 24.7853 115.388 24.7853C117.889 24.7853 119.641 23.7978 120.774 22.3093C121.912 20.8134 122.436 18.7945 122.436 16.7229C122.436 14.6514 121.912 12.6325 120.774 11.1366ZM115.388 8.46159C120.509 8.46159 122.635 12.5198 122.635 16.7229C122.635 20.9261 120.509 24.9843 115.388 24.9843C110.267 24.9843 108.141 20.9261 108.141 16.7229C108.141 12.5198 110.267 8.46159 115.388 8.46159Z" fill="#13A0D3"/>
  <path d="M80.1749 16.7232C80.1749 20.9263 82.3006 24.9845 87.4217 24.9845C92.5428 24.9845 94.6685 20.9263 94.6685 16.7232C94.6685 12.52 92.5428 8.46182 87.4217 8.46182C82.3006 8.46182 80.1749 12.52 80.1749 16.7232ZM80.1749 25.6126V38.222H75.2954V4.64517H80.1749V7.83376C81.9142 5.61141 84.523 4.06543 88.2913 4.06543C96.601 4.06543 99.548 10.7808 99.548 16.7232C99.548 22.6655 96.601 29.3809 88.2913 29.3809C84.523 29.3809 81.9142 27.8349 80.1749 25.6126Z" fill="#13A0D3"/>
  <path fill-rule="evenodd" clip-rule="evenodd" d="M80.3737 38.4208H75.0962V4.44596H80.3737V7.2797C82.1433 5.24473 84.7074 3.86621 88.2911 3.86621C92.5077 3.86621 95.3821 5.57396 97.196 8.04802C99.0036 10.5134 99.7468 13.7232 99.7468 16.7229C99.7468 19.7227 99.0036 22.9325 97.196 25.3979C95.3821 27.8719 92.5077 29.5797 88.2911 29.5797C84.7074 29.5797 82.1433 28.2011 80.3737 26.1662V38.4208ZM80.1747 25.6123C80.2398 25.6955 80.3061 25.7778 80.3737 25.859C82.1109 27.9483 84.6638 29.3807 88.2911 29.3807C96.6008 29.3807 99.5478 22.6653 99.5478 16.7229C99.5478 10.7806 96.6008 4.0652 88.2911 4.0652C84.6638 4.0652 82.1109 5.4976 80.3737 7.58685C80.3061 7.6681 80.2398 7.75034 80.1747 7.83353V4.64494H75.2952V38.2218H80.1747V25.6123ZM82.036 22.3093C83.1685 23.7978 84.9206 24.7853 87.4215 24.7853C89.9224 24.7853 91.6745 23.7978 92.8069 22.3093C93.945 20.8134 94.4693 18.7945 94.4693 16.7229C94.4693 14.6514 93.945 12.6325 92.8069 11.1366C91.6745 9.64806 89.9224 8.66057 87.4215 8.66057C84.9206 8.66057 83.1685 9.64806 82.036 11.1366C80.898 12.6325 80.3737 14.6514 80.3737 16.7229C80.3737 18.7945 80.898 20.8134 82.036 22.3093ZM87.4215 24.9843C82.3004 24.9843 80.1747 20.9261 80.1747 16.7229C80.1747 12.5198 82.3004 8.46159 87.4215 8.46159C92.5426 8.46159 94.6683 12.5198 94.6683 16.7229C94.6683 20.9261 92.5426 24.9843 87.4215 24.9843Z" fill="#13A0D3"/>
  <path d="M15.6245 0.0381481C16.3811 0.0245237 17.1378 0.0163493 17.8999 0C17.972 4.05189 17.8528 8.11196 17.9553 12.1639C18.0357 12.984 19.0251 12.8042 19.6127 12.7633C19.6848 13.4336 19.7651 14.1012 19.84 14.7716C18.7619 14.9078 17.5507 15.1421 16.5668 14.559C15.8324 14.1094 15.6134 13.2157 15.6328 12.42C15.6245 8.29453 15.6439 4.16634 15.6245 0.0381481Z" fill="#003781"/>
  <path d="M21.5767 0.0391724C22.3416 0.025548 23.1065 0.0200982 23.877 0.0146484C23.8742 3.70141 23.8853 7.38544 23.8687 11.0722C23.8798 11.5872 23.8576 12.1349 24.1181 12.6036C24.5532 12.9333 25.1159 12.7589 25.6203 12.7616C25.6896 13.421 25.7672 14.0832 25.8448 14.7426C24.7278 14.9497 23.4474 15.1486 22.4441 14.4865C21.7374 13.9469 21.6155 12.9932 21.5905 12.1731C21.5739 8.12933 21.6099 4.08289 21.5767 0.0391724Z" fill="#003781"/>
  <path d="M27.9758 0.253495C28.9142 -0.40243 30.506 0.32698 30.3177 1.53268C30.3067 2.58869 29.0056 3.12487 28.1225 2.68668C27.1758 2.2757 27.1287 0.789665 27.9758 0.253495Z" fill="#003781"/>
  <path d="M5.6012 0.780226C6.53243 0.766602 7.46365 0.766602 8.39488 0.766602C10.285 5.44249 12.153 10.1238 14.0293 14.8052C13.1618 14.8052 12.2916 14.8052 11.4269 14.7943C10.9585 13.6553 10.5816 12.4781 10.0522 11.3636C8.06506 11.1157 6.00307 11.3391 3.99096 11.2574C3.51427 12.4345 3.05974 13.6198 2.59136 14.7997C1.72388 14.8024 0.861936 14.8052 0 14.8079C1.84859 10.1238 3.7637 5.46701 5.6012 0.780226ZM4.8806 8.93851C6.29684 8.94396 7.71585 8.94668 9.13486 8.93851C8.44476 7.14826 7.74357 5.36347 7.02298 3.58412C6.25805 5.34984 5.60119 7.15644 4.8806 8.93851Z" fill="#003781"/>
  <path d="M34.1528 5.49096C35.957 3.9623 38.953 4.24024 40.4468 6.07408C40.4357 5.62448 40.433 5.17215 40.433 4.72254C41.148 4.72254 41.8658 4.72254 42.5836 4.72254C42.5809 8.08504 42.5892 11.4475 42.5781 14.81C41.863 14.8073 41.148 14.8046 40.4357 14.8046C40.433 14.3795 40.433 13.9517 40.4385 13.5266C38.698 15.5458 35.1449 15.543 33.5042 13.4176C31.7776 11.1151 31.9134 7.42835 34.1528 5.49096ZM36.3395 6.8752C34.3495 7.79075 34.0945 10.7718 35.6216 12.2051C36.7774 13.2623 38.8782 13.1288 39.7512 11.7827C40.4856 10.6001 40.4939 8.99242 39.7761 7.80165C39.0971 6.67355 37.509 6.34657 36.3395 6.8752Z" fill="#003781"/>
  <path d="M47.6759 6.11305C48.9009 4.36913 51.5476 3.98492 53.2881 5.18386C54.3746 5.95228 54.8125 7.32834 54.8402 8.59541C54.8596 10.6636 54.8402 12.7345 54.8402 14.8054C54.078 14.8054 53.3214 14.8054 52.562 14.8054C52.5315 12.8271 52.6036 10.8434 52.5343 8.86517C52.5093 7.91146 51.9357 6.86784 50.9047 6.69889C49.5577 6.30379 48.0334 7.26294 47.9475 8.66626C47.8616 10.7099 47.9475 12.759 47.9142 14.8054C47.152 14.8054 46.3927 14.8054 45.636 14.8081C45.6222 11.4456 45.6333 8.08313 45.6305 4.72063C46.3261 4.72063 47.0218 4.72063 47.7202 4.72063C47.7036 5.18386 47.6925 5.64982 47.6759 6.11305Z" fill="#003781"/>
  <path d="M27.6763 4.73196C28.4384 4.72107 29.2034 4.71834 29.9711 4.71289C29.9794 8.06994 29.9572 11.427 29.9822 14.784C29.2145 14.7977 28.4468 14.8004 27.6846 14.8058C27.679 11.4461 27.6929 8.08901 27.6763 4.73196Z" fill="#003781"/>
  <path d="M57.1363 4.71973C59.7942 4.71973 62.4521 4.71973 65.1099 4.71973C65.0462 5.47179 65.3178 6.35738 64.7441 6.9732C63.181 8.89969 61.6095 10.818 60.0603 12.7554C61.8313 12.7581 63.605 12.7581 65.376 12.7527C65.376 13.4366 65.376 14.1206 65.3788 14.8045C62.5657 14.8045 59.7526 14.7936 56.9396 14.8127C56.995 14.1015 56.7095 13.254 57.2361 12.66C58.8131 10.7117 60.4233 8.78797 61.9726 6.81788C60.3596 6.84241 58.7466 6.82878 57.1363 6.83151C57.1336 6.12849 57.1336 5.42274 57.1363 4.71973Z" fill="#003781"/>
  <path d="M26.6322 27.972C27.4387 27.5769 28.3616 27.7758 29.2096 27.9093C29.096 28.6559 28.9824 29.3998 28.8771 30.1464C28.0512 29.9938 27.1005 29.8603 26.3883 30.408C25.6095 30.9639 25.3933 31.9585 25.3794 32.8495C25.3573 34.558 25.3988 36.2665 25.3628 37.975C24.6034 37.9668 23.844 37.9641 23.0874 37.9614C23.0874 34.6016 23.0902 31.2445 23.0874 27.8848C23.8024 27.882 24.5175 27.882 25.2353 27.8793C25.2353 28.3671 25.2353 28.8548 25.2353 29.3453C25.6316 28.8303 26.0003 28.2336 26.6322 27.972Z" fill="#003781"/>
  <path d="M50.8816 23.1758C51.6465 23.1785 52.4142 23.1867 53.1819 23.2003C53.1514 28.1214 53.1764 33.0426 53.1708 37.961C52.453 37.9637 51.7408 37.9664 51.0285 37.9719C51.0202 37.5332 51.0174 37.0944 51.0202 36.6585C49.3905 38.6694 45.9483 38.7076 44.2688 36.7484C42.7472 35.0154 42.6308 32.3913 43.4734 30.3313C44.2937 28.3367 46.6855 27.2331 48.7863 27.7972C49.6012 27.9797 50.2635 28.5111 50.901 29.0179C50.8594 27.0696 50.8871 25.1213 50.8816 23.1758ZM47.1899 29.9416C45.3718 30.5411 44.837 32.83 45.5492 34.4241C46.1673 35.9718 48.3041 36.5604 49.6787 35.6203C50.9758 34.732 51.1089 32.9172 50.6793 31.5411C50.2275 30.1705 48.548 29.4239 47.1899 29.9416Z" fill="#003781"/>
  <path d="M11.6612 23.9248C15.2641 23.9384 18.8643 23.9303 22.4672 23.9303C22.4617 24.685 22.4589 25.4398 22.4478 26.1946C21.0676 26.1756 19.6874 26.181 18.3072 26.1837C18.3044 30.113 18.3127 34.0423 18.3044 37.9715C17.4951 37.9688 16.6859 37.9661 15.8794 37.9661C15.8821 34.0423 15.8766 30.1157 15.8849 26.1919C14.4742 26.1756 13.0635 26.181 11.6528 26.181C11.6528 25.4289 11.6556 24.6769 11.6612 23.9248Z" fill="#003781"/>
  <path d="M32.0586 28.6833C33.874 27.1247 36.9281 27.3699 38.4164 29.261C38.4081 28.7978 38.4137 28.3373 38.4192 27.874C39.1287 27.8795 39.8382 27.8822 40.5533 27.8849C40.5505 31.2474 40.5588 34.6072 40.5477 37.9697C39.8299 37.967 39.1121 37.9643 38.397 37.9615C38.3998 37.5174 38.4081 37.0759 38.422 36.6345C36.6732 38.7872 32.9012 38.6972 31.327 36.4056C29.7638 34.1113 29.9052 30.5798 32.0586 28.6833ZM34.4643 29.9722C32.3857 30.7134 32.0337 33.6753 33.4056 35.2012C34.4948 36.4056 36.7286 36.3702 37.6681 34.9996C38.4442 33.8034 38.4663 32.1521 37.718 30.9368C37.0584 29.885 35.6034 29.5335 34.4643 29.9722Z" fill="#003781"/>
  <path d="M56.9383 29.1268C58.8534 27.0232 62.7474 27.1922 64.3964 29.5328C65.2861 30.71 65.3886 32.2277 65.3775 33.6419C62.8721 33.7128 60.3667 33.6474 57.8612 33.6801C58.1467 34.503 58.5569 35.3777 59.4161 35.7564C61.018 36.5303 62.8887 35.9962 64.3798 35.2196C64.5849 35.8654 64.9286 36.4976 64.9563 37.1788C63.4236 38.1271 61.5085 38.4105 59.7375 38.1053C58.1384 37.8274 56.6446 36.7919 56.0404 35.2823C55.2366 33.2768 55.4694 30.7835 56.9383 29.1268ZM57.9028 31.9007C59.6489 31.8953 61.3977 31.9144 63.1465 31.8844C62.861 30.7699 62.0323 29.6663 60.7602 29.6527C59.3246 29.4538 58.1855 30.6037 57.9028 31.9007Z" fill="#003781"/>
</svg>
