<svg width="66" height="20" viewBox="0 0 66 20" fill="none" xmlns="http://www.w3.org/2000/svg">
<mask id="mask0_1_568" style="mask-type:luminance" maskUnits="userSpaceOnUse" x="0" y="0" width="66" height="20">
<path d="M65.6818 0H0V20H65.6818V0Z" fill="white"/>
</mask>
<g mask="url(#mask0_1_568)">
<path d="M62.3923 5.55719C62.3923 5.32655 62.4347 5.11033 62.5196 4.90852C62.6044 4.7067 62.7196 4.53069 62.8651 4.38047C63.0105 4.23025 63.181 4.11189 63.3765 4.0254C63.5719 3.93891 63.7818 3.89567 64.006 3.89567C64.2333 3.89567 64.4462 3.93891 64.6447 4.0254C64.8432 4.11189 65.0159 4.23025 65.1629 4.38047C65.3099 4.53069 65.4258 4.7067 65.5107 4.90852C65.5955 5.11033 65.6379 5.32655 65.6379 5.55719C65.6379 5.78784 65.5955 6.00406 65.5107 6.20587C65.4258 6.40768 65.3099 6.5837 65.1629 6.73392C65.0159 6.88414 64.8432 7.00249 64.6447 7.08898C64.4462 7.17548 64.2333 7.21872 64.006 7.21872C63.7818 7.21872 63.5719 7.17548 63.3765 7.08898C63.181 7.00249 63.0105 6.88414 62.8651 6.73392C62.7196 6.5837 62.6044 6.40768 62.5196 6.20587C62.4347 6.00406 62.3923 5.78784 62.3923 5.55719ZM62.7241 5.55719C62.7241 5.74838 62.7567 5.92592 62.8219 6.08979C62.887 6.25367 62.9772 6.3963 63.0923 6.51769C63.2075 6.63908 63.3431 6.73468 63.4992 6.80448C63.6553 6.87428 63.8242 6.90918 64.006 6.90918C64.1909 6.90918 64.3621 6.87428 64.5197 6.80448C64.6773 6.73468 64.8144 6.63908 64.9311 6.51769C65.0478 6.3963 65.1394 6.25367 65.2061 6.08979C65.2728 5.92592 65.3061 5.74838 65.3061 5.55719C65.3061 5.366 65.2728 5.18847 65.2061 5.0246C65.1394 4.86072 65.0478 4.71809 64.9311 4.5967C64.8144 4.4753 64.6773 4.37971 64.5197 4.30991C64.3621 4.24011 64.1909 4.20521 64.006 4.20521C63.8242 4.20521 63.6553 4.24011 63.4992 4.30991C63.3431 4.37971 63.2075 4.4753 63.0923 4.5967C62.9772 4.71809 62.887 4.86072 62.8219 5.0246C62.7567 5.18847 62.7241 5.366 62.7241 5.55719ZM63.4515 4.84251C63.4515 4.74236 63.5015 4.69229 63.6015 4.69229H64.1151C64.2788 4.69229 64.4091 4.73933 64.5061 4.83341C64.603 4.92748 64.6515 5.05494 64.6515 5.21578C64.6515 5.28255 64.6417 5.34173 64.622 5.39332C64.6023 5.44491 64.5773 5.48967 64.547 5.52761C64.5167 5.56554 64.4833 5.59665 64.447 5.62092C64.4106 5.6452 64.3742 5.66189 64.3379 5.671V5.6801C64.3409 5.68314 64.3454 5.68921 64.3515 5.69831C64.3576 5.70438 64.3636 5.71424 64.3697 5.7279C64.3757 5.74156 64.3848 5.75749 64.397 5.7757L64.6333 6.23546C64.6606 6.28705 64.6667 6.32878 64.6515 6.36064C64.6364 6.39251 64.603 6.40844 64.5515 6.40844H64.497C64.4121 6.40844 64.353 6.37203 64.3197 6.29919L64.056 5.74383H63.7742V6.26277C63.7742 6.35989 63.7272 6.40844 63.6333 6.40844H63.5924C63.4984 6.40844 63.4515 6.35989 63.4515 6.26277V4.84251ZM64.0469 5.50712C64.1348 5.50712 64.203 5.48133 64.2515 5.42973C64.3 5.37814 64.3242 5.30683 64.3242 5.21578C64.3242 5.12778 64.3 5.0595 64.2515 5.01094C64.203 4.96238 64.1363 4.93811 64.0515 4.93811H63.7742V5.50712H64.0469ZM50.7965 6.59553C51.3104 6.59553 51.7462 6.66112 52.1039 6.7923C52.4616 6.92348 52.7413 7.04456 52.9428 7.15556C53.1141 7.24638 53.2148 7.36746 53.2451 7.51882C53.2753 7.67018 53.2501 7.83163 53.1695 8.00317L53.0184 8.27561C52.9277 8.45724 52.8118 8.56319 52.6707 8.59346C52.5297 8.62373 52.3634 8.59851 52.1719 8.51778C52.0006 8.43706 51.7941 8.35381 51.5522 8.26804C51.3104 8.18227 51.0283 8.13939 50.7058 8.13939C50.3733 8.13939 50.1164 8.20498 49.935 8.33615C49.7536 8.46733 49.6629 8.654 49.6629 8.89618C49.6629 9.10808 49.7561 9.27962 49.9426 9.4108C50.129 9.54197 50.3658 9.65801 50.6529 9.75892C50.9401 9.85983 51.2474 9.9683 51.5749 10.0843C51.9024 10.2004 52.2097 10.3492 52.4969 10.5308C52.7841 10.7125 53.0209 10.9446 53.2073 11.2271C53.3937 11.5096 53.4869 11.8678 53.4869 12.3017C53.4869 12.6448 53.4189 12.9601 53.2829 13.2477C53.1468 13.5353 52.9503 13.785 52.6934 13.997C52.4364 14.2089 52.1266 14.3753 51.7639 14.4964C51.4011 14.6175 50.9981 14.6781 50.5547 14.6781C49.93 14.6781 49.4035 14.5872 48.9752 14.4056C48.547 14.224 48.217 14.0524 47.9852 13.891C47.8139 13.7901 47.7182 13.664 47.6981 13.5126C47.6779 13.3612 47.7232 13.1998 47.8341 13.0283L48.0155 12.7558C48.1263 12.5944 48.2497 12.5036 48.3858 12.4834C48.5218 12.4632 48.6855 12.5035 48.877 12.6045C49.0584 12.7054 49.2926 12.8189 49.5798 12.945C49.867 13.0711 50.2071 13.1342 50.6 13.1342C50.9326 13.1342 51.1945 13.0636 51.386 12.9223C51.5774 12.781 51.6732 12.5893 51.6732 12.3471C51.6732 12.1352 51.58 11.9662 51.3935 11.8401C51.2071 11.714 50.9703 11.5979 50.6832 11.492C50.396 11.386 50.0887 11.2725 49.7612 11.1514C49.4337 11.0303 49.1264 10.879 48.8392 10.6973C48.552 10.5157 48.3152 10.2836 48.1288 10.0011C47.9424 9.71856 47.8492 9.3553 47.8492 8.91132C47.8492 8.53796 47.9273 8.20498 48.0835 7.91235C48.2397 7.61972 48.4513 7.37755 48.7183 7.18583C48.9853 6.99411 49.2977 6.8478 49.6554 6.74689C50.0131 6.64599 50.3935 6.59553 50.7965 6.59553ZM28.3297 6.59553C28.8436 6.59553 29.2794 6.66112 29.6371 6.7923C29.9948 6.92348 30.2744 7.04456 30.4759 7.15556C30.6472 7.24638 30.748 7.36746 30.7782 7.51882C30.8085 7.67018 30.7833 7.83163 30.7027 8.00317L30.5515 8.27561C30.4608 8.45724 30.345 8.56319 30.2039 8.59346C30.0628 8.62373 29.8966 8.59851 29.7051 8.51778C29.5338 8.43706 29.3272 8.35381 29.0854 8.26804C28.8436 8.18227 28.5614 8.13939 28.239 8.13939C27.9065 8.13939 27.6495 8.20498 27.4682 8.33615C27.2868 8.46733 27.1961 8.654 27.1961 8.89618C27.1961 9.10808 27.2893 9.27962 27.4757 9.4108C27.6621 9.54197 27.8989 9.65801 28.1861 9.75892C28.4733 9.85983 28.7806 9.9683 29.1081 10.0843C29.4356 10.2004 29.7429 10.3492 30.0301 10.5308C30.3172 10.7125 30.554 10.9446 30.7404 11.2271C30.9269 11.5096 31.0201 11.8678 31.0201 12.3017C31.0201 12.6448 30.952 12.9601 30.816 13.2477C30.68 13.5353 30.4835 13.785 30.2266 13.997C29.9696 14.2089 29.6598 14.3753 29.297 14.4964C28.9343 14.6175 28.5312 14.6781 28.0879 14.6781C27.4631 14.6781 26.9366 14.5872 26.5084 14.4056C26.0801 14.224 25.7501 14.0524 25.5184 13.891C25.3471 13.7901 25.2514 13.664 25.2312 13.5126C25.2111 13.3612 25.2564 13.1998 25.3672 13.0283L25.5486 12.7558C25.6595 12.5944 25.7829 12.5036 25.9189 12.4834C26.055 12.4632 26.2187 12.5035 26.4101 12.6045C26.5915 12.7054 26.8258 12.8189 27.113 12.945C27.4001 13.0711 27.7402 13.1342 28.1332 13.1342C28.4657 13.1342 28.7277 13.0636 28.9191 12.9223C29.1106 12.781 29.2063 12.5893 29.2063 12.3471C29.2063 12.1352 29.1131 11.9662 28.9267 11.8401C28.7403 11.714 28.5035 11.5979 28.2163 11.492C27.9291 11.386 27.6218 11.2725 27.2943 11.1514C26.9669 11.0303 26.6595 10.879 26.3724 10.6973C26.0852 10.5157 25.8484 10.2836 25.662 10.0011C25.4756 9.71856 25.3824 9.3553 25.3824 8.91132C25.3824 8.53796 25.4604 8.20498 25.6166 7.91235C25.7728 7.61972 25.9844 7.37755 26.2514 7.18583C26.5185 6.99411 26.8308 6.8478 27.1885 6.74689C27.5463 6.64599 27.9266 6.59553 28.3297 6.59553ZM55.8893 3.75C56.3125 3.75 56.5241 3.9619 56.5241 4.3857V7.50368C56.5241 7.60459 56.5216 7.69288 56.5166 7.76856C56.5115 7.84424 56.504 7.91235 56.4939 7.97289C56.4838 8.04353 56.4788 8.10407 56.4788 8.15452H56.509C56.5997 7.97289 56.7282 7.78874 56.8944 7.60207C57.0607 7.41539 57.2572 7.24638 57.4839 7.09502C57.7106 6.94366 57.9676 6.82257 58.2547 6.73176C58.5419 6.64094 58.8518 6.59553 59.1843 6.59553C60.0408 6.59553 60.7033 6.82761 61.1718 7.29178C61.6404 7.75595 61.8747 8.50264 61.8747 9.53188V13.8607C61.8747 14.2845 61.6631 14.4964 61.2398 14.4964H60.5899C60.1667 14.4964 59.9551 14.2845 59.9551 13.8607V9.92542C59.9551 9.45116 59.8745 9.07024 59.7133 8.78266C59.5521 8.49508 59.2296 8.35129 58.746 8.35129C58.4134 8.35129 58.1086 8.41688 57.8315 8.54806C57.5544 8.67923 57.3202 8.85834 57.1287 9.08538C56.9373 9.31242 56.7886 9.58233 56.6828 9.89514C56.577 10.208 56.5241 10.546 56.5241 10.9092V13.8607C56.5241 14.2845 56.3125 14.4964 55.8893 14.4964H55.2394C54.8162 14.4964 54.6046 14.2845 54.6046 13.8607V4.3857C54.6046 3.9619 54.8162 3.75 55.2394 3.75H55.8893ZM45.847 6.77716C46.2602 6.77716 46.4667 6.98906 46.4667 7.41287V13.8607C46.4667 14.2845 46.2602 14.4964 45.847 14.4964H45.182C44.7689 14.4964 44.5623 14.2845 44.5623 13.8607V7.41287C44.5623 6.98906 44.7689 6.77716 45.182 6.77716H45.847ZM33.0226 6.77716C33.4055 6.77716 33.6322 6.96384 33.7027 7.33719L34.9421 11.8477C34.9623 11.9587 34.9799 12.0596 34.995 12.1504C35.0101 12.2412 35.0278 12.327 35.0479 12.4077C35.0681 12.4985 35.0832 12.5843 35.0932 12.665H35.1235C35.1336 12.5843 35.1487 12.4985 35.1688 12.4077C35.189 12.327 35.2066 12.2412 35.2217 12.1504C35.2368 12.0596 35.2595 11.9587 35.2897 11.8477L36.5896 7.33719C36.6601 6.97393 36.8919 6.7923 37.2849 6.7923H37.8592C38.232 6.7923 38.4638 6.97393 38.5545 7.33719L39.8392 11.8477C39.8694 11.9587 39.8921 12.0596 39.9072 12.1504C39.9223 12.2412 39.94 12.327 39.9601 12.4077C39.9803 12.4985 39.9954 12.5843 40.0055 12.665H40.0357C40.0458 12.5843 40.0609 12.4985 40.081 12.4077C40.1012 12.327 40.1188 12.2412 40.1339 12.1504C40.149 12.0596 40.1717 11.9587 40.2019 11.8477L41.4262 7.33719C41.5169 6.96384 41.7487 6.77716 42.1215 6.77716H42.8168C43.0485 6.77716 43.2097 6.84275 43.3004 6.97393C43.3911 7.10511 43.4062 7.27665 43.3458 7.48855L41.3658 13.9667C41.265 14.3199 41.0282 14.4964 40.6554 14.4964H39.6427C39.2598 14.4964 39.023 14.3148 38.9323 13.9515L37.7685 10.0919C37.7383 9.991 37.7131 9.8901 37.6929 9.78919C37.6728 9.68829 37.6526 9.59747 37.6325 9.51675C37.6123 9.42593 37.5972 9.34016 37.5871 9.25944H37.5569C37.5368 9.34016 37.5166 9.42593 37.4965 9.51675C37.4763 9.59747 37.4561 9.68829 37.436 9.78919C37.4158 9.8901 37.3907 9.991 37.3604 10.0919L36.1966 13.9515C36.1059 14.3148 35.8742 14.4964 35.5013 14.4964H34.4584C34.0957 14.4964 33.8639 14.3199 33.7632 13.9667L31.7681 7.48855C31.7076 7.27665 31.7252 7.10511 31.821 6.97393C31.9167 6.84275 32.0754 6.77716 32.2971 6.77716H33.0226Z" fill="#4A4A49"/>
<path fill-rule="evenodd" clip-rule="evenodd" d="M5.68164 19.0076C9.69538 20.9273 14.6489 19.9772 17.6415 16.4115C21.1885 12.1853 20.6376 5.8847 16.4109 2.33887L13.6011 5.68679C16.9032 8.45697 17.3336 13.3793 14.5625 16.6811C12.3529 19.3138 8.71493 20.1928 5.68164 19.0076Z" fill="#FECF2C"/>
<path fill-rule="evenodd" clip-rule="evenodd" d="M5.68164 19.0075C9.69538 20.9271 14.6489 19.9771 17.6415 16.4114C18.008 15.9747 18.3306 15.5158 18.61 15.0402C19.0826 12.1035 18.0434 8.99942 15.5986 6.94849C14.9775 6.4274 14.3051 6.0076 13.6016 5.68701C16.9032 8.45726 17.3334 13.3793 14.5625 16.6809C12.3529 19.3136 8.71493 20.1927 5.68164 19.0075Z" fill="#F87130"/>
<path fill-rule="evenodd" clip-rule="evenodd" d="M14.2979 0.972805C10.2841 -0.946805 5.33064 0.00318599 2.33805 3.56888C-1.20897 7.79519 -0.65805 14.0958 3.56857 17.6416L6.37838 14.2937C3.07633 11.5235 2.64593 6.60118 5.41704 3.29936C7.62662 0.666639 11.2646 -0.212405 14.2979 0.972805Z" fill="#78F6D8"/>
<path fill-rule="evenodd" clip-rule="evenodd" d="M14.2974 0.972805C10.2837 -0.946805 5.33019 0.00318599 2.33761 3.56888C1.97109 4.00559 1.64847 4.46445 1.36902 4.9401C0.896417 7.87682 1.93571 10.9808 4.38044 13.0318C5.00157 13.5529 5.67396 13.9727 6.37749 14.2933C3.07587 11.523 2.64561 6.60102 5.41659 3.29936C7.62617 0.666639 11.2641 -0.212405 14.2974 0.972805Z" fill="#64D769"/>
</g>
</svg>
