<svg width="72" height="22" viewBox="0 0 72 22" fill="none" xmlns="http://www.w3.org/2000/svg">
<mask id="mask0_1_480" style="mask-type:luminance" maskUnits="userSpaceOnUse" x="0" y="0" width="72" height="22">
<path d="M71.9187 0.5H0.12793V21.5H71.9187V0.5Z" fill="white"/>
</mask>
<g mask="url(#mask0_1_480)">
<path d="M0.459196 21.1657C0.248482 21.1657 0.12793 21.0451 0.12793 20.8341V6.85615C0.12793 6.67532 0.188206 6.52489 0.368781 6.43446C2.08589 5.71141 4.07425 5.25958 6.15277 5.25958C10.1897 5.25958 12.9311 7.15753 12.9311 11.7666V20.8344C12.9311 21.0451 12.8108 21.1657 12.5696 21.1657H10.7923C10.5816 21.1657 10.461 21.0451 10.461 20.8344V11.8266C10.461 8.69356 8.86445 7.48854 6.15302 7.48854C4.88773 7.48854 3.53227 7.72939 2.59825 8.03078V20.8341C2.59825 21.0448 2.47769 21.1654 2.23684 21.1654L0.459196 21.1657Z" fill="#005775"/>
<path d="M29.0775 14.2065C29.0775 14.4474 28.957 14.5679 28.7463 14.5679H18.8951V15.8333C18.8951 18.0926 20.5821 19.2976 22.8116 19.2976C24.8901 19.2976 26.3061 18.4842 27.4207 17.6106C27.6015 17.4901 27.7821 17.5203 27.9026 17.701L28.7761 18.8458C28.9271 19.0267 28.8967 19.1771 28.7159 19.3277C27.2097 20.5931 25.2817 21.4967 22.7513 21.4967C19.4976 21.4967 16.3947 19.6289 16.3947 15.8333V11.2543C16.3947 7.12712 19.4675 5.25932 22.7812 5.25932C26.065 5.25932 29.0775 7.12712 29.0775 11.2543V14.2065ZM22.7812 7.48879C20.5218 7.48879 18.8951 8.66367 18.8951 11.2546V12.5198H26.6675V11.2546C26.6677 8.69355 24.9805 7.48879 22.7812 7.48879Z" fill="#005775"/>
<path d="M37.813 19.2074C38.1443 19.2074 38.7166 19.1773 39.2589 19.1471C39.5 19.1471 39.6206 19.2677 39.6206 19.4784V21.075C39.6206 21.2558 39.5299 21.4063 39.3192 21.4364C38.7769 21.4666 38.0843 21.4967 37.6924 21.4967C34.6796 21.4967 32.4505 19.87 32.4505 16.1645V2.12622C32.4505 1.88537 32.571 1.76482 32.8119 1.76482H34.3786C34.5593 1.76482 34.6797 1.88537 34.7098 2.09608L34.9205 5.74127H38.8369C39.0476 5.74127 39.1682 5.86183 39.1682 6.07254V7.57868C39.1682 7.81979 39.0476 7.94009 38.8369 7.94009H34.9205V16.0439C34.9208 18.0326 35.945 19.2074 37.813 19.2074Z" fill="#005775"/>
<path d="M47.3021 21.497C45.2237 21.497 43.1446 20.8944 41.3371 19.5689C41.1562 19.4483 41.1562 19.2677 41.247 19.0869L42.0602 17.7013C42.1807 17.4903 42.3312 17.4605 42.5421 17.6109C43.9883 18.6954 45.6451 19.2979 47.3624 19.2979C49.3807 19.2979 50.9172 18.4542 50.9172 16.8878C50.9172 15.2009 49.0494 14.8093 47.3624 14.4778C45.1932 14.0259 41.4878 13.1824 41.4878 9.68786C41.4878 6.61503 44.4099 5.25932 47.4227 5.25932C49.3204 5.25932 51.0076 5.74128 52.6642 6.67506C52.8755 6.76547 52.9053 6.94604 52.7848 7.12687L51.9716 8.48233C51.8814 8.66316 51.7006 8.72343 51.5197 8.60288C50.2848 7.9401 48.8083 7.48828 47.3021 7.48828C45.1932 7.48828 43.928 8.33164 43.928 9.68734C43.928 11.3442 45.7054 11.796 47.8444 12.2179C50.2544 12.6999 53.4177 13.3928 53.4177 16.7671C53.4177 19.8401 50.8268 21.497 47.3021 21.497Z" fill="#005775"/>
<path d="M61.4046 7.50928C63.3393 7.50928 64.9077 5.94088 64.9077 4.00617C64.9077 2.07145 63.3393 0.503052 61.4046 0.503052C59.4698 0.503052 57.9015 2.07145 57.9015 4.00617C57.9015 5.94088 59.4698 7.50928 61.4046 7.50928Z" fill="#03BFEF"/>
<path d="M68.8357 6.24802C70.0738 6.24802 71.0775 5.2443 71.0775 4.00615C71.0775 2.76799 70.0738 1.76428 68.8357 1.76428C67.5976 1.76428 66.5939 2.76799 66.5939 4.00615C66.5939 5.2443 67.5976 6.24802 68.8357 6.24802Z" fill="#03BFEF"/>
<path d="M68.8357 14.5031C70.5383 14.5031 71.9184 13.1229 71.9184 11.4204C71.9184 9.71787 70.5383 8.33768 68.8357 8.33768C67.1332 8.33768 65.753 9.71787 65.753 11.4204C65.753 13.1229 67.1332 14.5031 68.8357 14.5031Z" fill="#03BFEF"/>
<path d="M61.4045 21.4969C62.8749 21.4969 64.0668 20.305 64.0668 18.8347C64.0668 17.3643 62.8749 16.1724 61.4045 16.1724C59.9342 16.1724 58.7422 17.3643 58.7422 18.8347C58.7422 20.305 59.9342 21.4969 61.4045 21.4969Z" fill="#03BFEF"/>
</g>
</svg>
