<svg width="56" height="17" viewBox="0 0 56 17" fill="none" xmlns="http://www.w3.org/2000/svg">
<path d="M55.9063 1.55469C55.8711 2.08594 55.5977 2.53906 55.0391 2.80078C54.6992 2.96094 54.3438 3.09375 53.9961 3.24219C53.8672 3.28906 53.75 3.34765 53.625 3.39453C53.4102 3.47265 53.1836 3.48047 52.9766 3.38672C52.6016 3.22656 52.4102 2.82031 52.5156 2.41406C52.5313 2.37109 52.543 2.33203 52.5664 2.28906C52.7617 1.82812 52.9414 1.35937 53.1524 0.902342C53.3594 0.433592 53.7227 0.152342 54.2305 0.0546854C55.0196 -0.0976576 55.8906 0.503904 55.9063 1.55469Z" fill="#111111"/>
<path d="M47.375 7.18359C47.4023 6.57812 47.6836 6.13281 48.2422 5.87109C48.5391 5.73437 48.8555 5.61328 49.1602 5.48047C49.3281 5.41015 49.4883 5.33203 49.6562 5.27734C50.0195 5.14453 50.3672 5.23047 50.5977 5.5C50.8086 5.7539 50.8477 6.04687 50.7305 6.34765C50.625 6.62109 50.5156 6.88672 50.3945 7.15234C50.2969 7.3789 50.2148 7.60937 50.1016 7.83203C49.7109 8.61719 48.7578 8.88281 48.0312 8.40625C47.5977 8.12109 47.3906 7.70703 47.375 7.18359Z" fill="#111111"/>
<path d="M55.9062 7.11718C55.8984 7.83203 55.4648 8.40625 54.875 8.58203C54.2539 8.76562 53.5898 8.51172 53.25 7.96484C53.2148 7.91015 53.1797 7.84765 53.1562 7.78906C52.957 7.3164 52.7617 6.84765 52.5664 6.37109C52.4805 6.17578 52.4726 5.97656 52.5351 5.78125C52.6836 5.34765 53.1289 5.125 53.582 5.26562C53.6797 5.29297 53.7695 5.33984 53.8633 5.375C54.2539 5.53515 54.6445 5.6914 55.0273 5.86718C55.5976 6.125 55.8789 6.58593 55.9062 7.11718Z" fill="#111111"/>
<path d="M47.375 1.53125C47.3672 0.839846 47.8008 0.250002 48.414 0.082033C49.043 -0.089842 49.6992 0.160158 50.039 0.714846C50.0898 0.789064 50.125 0.867189 50.1601 0.953127C50.3398 1.38672 50.5195 1.8125 50.6953 2.2461C50.7305 2.33203 50.7578 2.41406 50.7734 2.5C50.8555 3.01172 50.4726 3.45703 49.9492 3.44531C49.832 3.4375 49.707 3.41016 49.5937 3.36719C49.1406 3.1836 48.6875 3.00391 48.2422 2.80078C47.6836 2.54688 47.4023 2.10156 47.375 1.53125Z" fill="#111111"/>
<path d="M13.2383 0C12.8047 0 12.4414 0.140625 12.1484 0.425781C11.8555 0.714844 11.7109 1.07031 11.7109 1.50391C11.7109 1.9375 11.8555 2.29688 12.1484 2.58203C12.4414 2.87109 12.8047 3.01172 13.2383 3.01172C13.6719 3.01172 14.0313 2.87109 14.3242 2.58203C14.6172 2.29688 14.7656 1.9375 14.7656 1.50391C14.7656 1.07031 14.6172 0.714844 14.3242 0.425781C14.0313 0.140625 13.6719 0 13.2383 0Z" fill="#111111"/>
<path d="M13.3008 4.75391H13.1953C12.5352 4.75391 11.9883 5.29297 11.9883 5.96484V16.625H14.4844V5.94141C14.4844 5.28516 13.957 4.75391 13.3008 4.75391Z" fill="#111111"/>
<path d="M23.1758 4.61328C21.543 4.61328 20.2812 5.17969 19.3906 6.30859V5.97656C19.3906 5.30469 18.8437 4.75391 18.168 4.75391H18.1602C17.4844 4.75391 16.9336 5.30469 16.9336 5.98438V16.625H19.4297V10.6406C19.4297 9.4375 19.7109 8.49219 20.2734 7.79688C20.8398 7.11328 21.6133 6.76953 22.5977 6.76953C23.5195 6.76953 24.2227 7.0625 24.6953 7.65234C25.1719 8.23828 25.4141 9.10156 25.4141 10.2266V16.625H27.9336V10.0859C27.9336 8.16797 27.4844 6.77734 26.6055 5.91406C25.7148 5.04688 24.5703 4.61328 23.1758 4.61328Z" fill="#111111"/>
<path d="M31.5039 4.75391H31.3984C30.7344 4.75391 30.1914 5.29297 30.1914 5.96484V16.625H32.6875V5.94141C32.6875 5.28516 32.1602 4.75391 31.5039 4.75391Z" fill="#111111"/>
<path d="M31.4414 0C31.0078 0 30.6445 0.140625 30.3516 0.425781C30.0586 0.714844 29.9141 1.07031 29.9141 1.50391C29.9141 1.9375 30.0586 2.29688 30.3516 2.58203C30.6445 2.87109 31.0078 3.01172 31.4414 3.01172C31.8711 3.01172 32.2344 2.87109 32.5273 2.58203C32.8203 2.29688 32.9688 1.9375 32.9688 1.50391C32.9688 1.07031 32.8203 0.714844 32.5273 0.425781C32.2344 0.140625 31.8711 0 31.4414 0Z" fill="#111111"/>
<path d="M45.7227 14.4414C45.3398 14.4414 45.1914 14.1602 45.1914 13.6094V8.92578C45.1914 7.53125 44.7617 6.46875 43.8945 5.72656C43.0313 4.98438 41.8125 4.61328 40.2188 4.61328C38.7266 4.61328 37.5156 4.94141 36.5938 5.60156C35.668 6.25781 35.1445 7.18359 35.0234 8.37109H37.4727C37.5625 7.84766 37.8477 7.42578 38.3164 7.10547C38.7852 6.78906 39.3828 6.62891 40.1094 6.62891C40.9258 6.62891 41.5664 6.81641 42.0273 7.19531C42.4883 7.57422 42.7188 8.09766 42.7188 8.76562V9.48438H39.7383C38.0938 9.48438 36.8398 9.8125 35.9727 10.4727C35.1094 11.1289 34.6758 12.0664 34.6758 13.2852C34.6758 14.3711 35.0742 15.2188 35.875 15.832C36.6797 16.4492 37.7383 16.7578 39.0625 16.7578C40.7734 16.7578 42.0742 16.0781 42.9688 14.7227C42.9688 15.3359 43.1367 15.8125 43.4766 16.1367C43.8203 16.457 44.3711 16.625 45.1367 16.625H45.7148C46.3164 16.625 46.8047 16.1367 46.8047 15.5312C46.8047 14.9297 46.2891 14.4414 45.7227 14.4414ZM42.7188 11.7539C42.7031 12.6758 42.4023 13.418 41.8242 13.9805C41.2461 14.5313 40.4453 14.8125 39.4102 14.8125C38.7344 14.8125 38.1992 14.6563 37.8086 14.3516C37.418 14.043 37.2227 13.6289 37.2227 13.1172C37.2227 12.5313 37.4297 12.0898 37.8438 11.7891C38.2617 11.4883 38.8555 11.332 39.6211 11.332H42.7188V11.7539Z" fill="#111111"/>
<path d="M9.66797 6.88281C9.85547 6.65625 9.96094 6.37109 9.96094 6.07422V6.02734C9.96094 5.32031 9.38672 4.73828 8.67578 4.73828H0.140625V6.94531H6.61328L0.347656 14.418C0.125 14.6875 0 15.0273 0 15.3789C0 16.0664 0.550781 16.6172 1.23438 16.6172H10.2539V14.4141H3.34766L9.66797 6.88281Z" fill="#111111"/>
</svg>
