<svg width="67" height="14" viewBox="0 0 67 14" fill="none" xmlns="http://www.w3.org/2000/svg">
<path d="M22.1411 11.1046V2.13192H18.9199V0H27.6801V2.13192H24.4589V11.1046H22.1411Z" fill="#0EE06E"/>
<path d="M27.3125 11.104V3.04785H29.4444V4.32302C29.9492 3.24045 30.6001 3.04785 31.2974 3.04785H32.121V5.20634H31.4236C30.4207 5.20634 29.5241 5.78415 29.5241 7.55078V11.1106H27.3125V11.104Z" fill="#0EE06E"/>
<path d="M33.125 8.15516V3.04785H35.33V7.65705C35.33 8.60014 35.7883 9.29749 36.7313 9.29749C37.6412 9.29749 38.219 8.60014 38.219 7.67033V3.04785H40.424V11.1106H38.3253V10.0945C37.794 10.8981 37.0036 11.2966 36.0008 11.2966C34.2341 11.2899 33.125 10.0745 33.125 8.15516Z" fill="#0EE06E"/>
<path d="M41.3672 8.84013L43.2866 8.40179C43.3796 9.02609 43.8777 9.49764 44.8407 9.49764C45.5845 9.49764 45.9963 9.19213 45.9963 8.81356C45.9963 8.50805 45.8303 8.28224 45.0665 8.11621L43.8046 7.84391C42.1907 7.49191 41.5067 6.74806 41.5067 5.3932C41.5067 4.01177 42.649 2.896 44.7942 2.896C47.0722 2.896 47.9888 4.26414 48.0817 5.16074L46.1491 5.5858C46.0561 5.11425 45.7107 4.59622 44.7477 4.59622C44.1367 4.59622 43.6851 4.86852 43.6851 5.26701C43.6851 5.59908 43.9109 5.78504 44.3094 5.87803L46.1491 6.30308C47.5504 6.62187 48.2013 7.4587 48.2013 8.64753C48.2013 9.92269 47.1851 11.2643 44.854 11.2643C42.2904 11.2576 41.4535 9.72345 41.3672 8.84013Z" fill="#0EE06E"/>
<path d="M52.4403 11.1044C51.0124 11.1044 50.0561 10.3141 50.0561 8.74666V4.9743H48.7012V3.04162H50.0561V1.24842L52.261 0.61084V3.04162H53.8882V4.9743H52.261V8.34818C52.261 8.93927 52.5665 9.17172 53.1576 9.17172H54.0077V11.1044H52.4403Z" fill="#0EE06E"/>
<path d="M55.2012 11.1048V0.00683594H57.4062V11.1114H55.2012V11.1048Z" fill="#0EE06E"/>
<path d="M64.0539 3.04785H66.4116L63.051 13.9997H60.6933L61.6231 11.1106H60.4077L58.1895 3.04785H60.5472L62.2076 9.28421L64.0539 3.04785Z" fill="#0EE06E"/>
<path d="M0 4.86841H5.17372V0.7374L9.30472 4.86841L5.17372 8.99277V11.1048H10.1881V4.86841H14.7906V0.00683594H0V4.86841Z" fill="#0EE06E"/>
</svg>
