<svg width="118" height="20" viewBox="0 0 118 20" fill="none" xmlns="http://www.w3.org/2000/svg">
<path d="M0.4 7.79999C0.4 9.69999 1.7 10.4 3.6 10.9C5.4 11.3 5.8 11.9 5.8 12.6C5.8 13.4 5.1 13.9 4.1 13.9C3 13.9 2 13.5 1 12.6L0 13.8C1.1 14.8 2.5 15.4 4 15.4C6.1 15.4 7.4 14.2 7.4 12.4C7.4 10.8 6.4 9.89999 4.3 9.39999C2.4 8.79999 2 8.29999 2 7.59999C2 6.99999 2.6 6.29999 3.6 6.29999C4.5 6.29999 5.3 6.59999 6.2 7.29999L7.2 5.99999C6.2 5.19999 5 4.79999 3.7 4.79999C1.7 4.79999 0.4 6.09999 0.4 7.79999ZM12.6 7.49999L11 12.7L9.5 7.49999H7.9C7.9 7.59999 10.2 14.9 10.3 14.9H11.7L13.4 9.79999L15 14.9H16.5L18.9 7.49999H17.3L15.8 12.7L14 7.49999H12.6Z" fill="#F35B1C"/>
<path d="M19.7 11.4C19.7 13.7 21.3 15.4 23.4 15.4C24.4 15.4 25.3 15.2 26.1 14.6L25.7 13.3C25 13.8 24.3 14 23.5 14C22.3 14 21.5 13.3 21.4 12.1H26.8V11.7C26.8 9.69999 25.7 7.59999 23.3 7.59999C21.2 7.39999 19.7 9.09999 19.7 11.4ZM21.3 10.8C21.5 9.59999 22.2 8.79999 23.2 8.79999C24.2 8.79999 25 9.59999 25.1 10.8H21.3ZM33.5 4.79999V8.39999C32.9 7.89999 32.1 7.59999 31.3 7.59999C29.6 7.59999 28 8.99999 28 11.5C28 14 29.7 15.3 31.4 15.3C32.6 15.3 33.8 15.2 35 15V4.79999H33.5ZM29.6 11.5C29.6 10.1 30.5 9.09999 31.7 9.09999C32.8 9.09999 33.5 9.89999 33.5 10.2V13.9C32.9 14 32.3 14 31.7 14C30.5 13.9 29.6 12.9 29.6 11.5ZM37.7 4.79999V15C38.9 15.2 40.1 15.3 41.3 15.3C43 15.3 44.7 14 44.7 11.5C44.7 8.99999 43.1 7.69999 41.5 7.69999C40.7 7.69999 39.9 7.89999 39.3 8.49999V4.79999H37.7ZM39.2 13.8V10.1C39.2 9.79999 39.9 8.99999 41 8.99999C42.2 8.99999 43.1 9.99999 43.1 11.4C43.1 12.8 42.2 13.8 41 13.8C40.4 13.9 39.8 13.9 39.2 13.8ZM46.6 8.09999C46.6 8.09999 47 9.39999 47 9.49999C47.7 9.09999 48.4 8.99999 49.2 8.99999C50.4 8.99999 51 9.59999 51 10.7V10.9C50.4 10.7 49.7 10.6 49 10.6C47.2 10.6 46.1 11.5 46.1 13.1C46.1 14.7 47.4 15.4 48.7 15.4C50 15.4 51.4 15.3 52.7 15V10.7C52.7 8.59999 51.6 7.49999 49.5 7.49999C48.4 7.39999 47.5 7.69999 46.6 8.09999ZM47.6 12.9C47.6 12.1 48.2 11.7 49.3 11.7C49.9 11.7 50.4 11.8 51 12V14C50.4 14.1 49.7 14.2 49.1 14.1C48.2 14.1 47.6 13.6 47.6 12.9Z" fill="#F35B1C"/>
<path d="M54.3 7.80002V14.9H55.9V9.00002C56.5 8.90002 57 8.90002 57.6 8.90002C58.6 8.90002 59.2 9.60002 59.2 10.8V15H60.8V10.4C60.8 8.70002 59.8 7.60002 58.2 7.60002C57 7.50002 55.6 7.60002 54.3 7.80002ZM62.6 4.40002V14.9H64.3V12.7L65.4 11.6L67.7 14.9H69.6L66.5 10.4C66.5 10.4 69.4 7.40002 69.5 7.40002H67.5L64.3 10.8V4.40002H62.6Z" fill="#F35B1C"/>
<path d="M82.3 0C76.8 0 72.3 4.5 72.3 10C72.3 15.5 76.8 20 82.3 20C87.8 20 92.3 15.5 92.3 10C92.3 4.5 87.8 0 82.3 0ZM82.3 19.1C78.6 19.1 75.3 16.9 73.9 13.5C72.5 10.1 73.3 6.2 75.9 3.6C78.5 1 82.4 0.2 85.8 1.6C89.2 3 91.4 6.4 91.4 10C91.4 15 87.3 19.1 82.3 19.1Z" fill="#F35B1C"/>
<path d="M83.8 4.10002H84C84.1 4.10002 84.1 4.20002 84.2 4.20002C84.3 4.20002 84.3 4.20002 84.4 4.20002L84.5 4.10002C84.5 4.00002 84.6 4.00002 84.7 4.00002C84.8 4.00002 84.9 4.00002 84.9 4.10002L85 4.20002C85 4.30002 84.9 4.30002 84.9 4.40002C84.9 4.50002 84.9 4.60002 85 4.60002C85.1 4.60002 85.1 4.60002 85.1 4.60002C85.1 4.60002 85.2 4.60002 85.3 4.60002C85.4 4.70002 85.4 4.80002 85.4 4.90002C85.4 5.00002 85.5 5.20002 85.5 5.20002C85.6 5.20002 85.6 5.10002 85.6 5.00002C85.6 4.90002 85.6 4.90002 85.6 4.80002C85.6 4.70002 85.6 4.70002 85.5 4.60002C85.5 4.50002 85.4 4.50002 85.3 4.40002C85.2 4.40002 85.2 4.30002 85.2 4.30002C85.1 4.20002 85.1 4.10002 85.1 4.00002C85.1 3.90002 85 3.80002 84.9 3.80002C84.8 3.80002 84.8 3.80002 84.7 3.80002C84.6 3.80002 84.6 3.90002 84.5 3.90002C84.4 3.90002 84.4 4.00002 84.4 4.00002C84.4 4.10002 84.3 4.10002 84.2 4.10002C84.1 4.10002 84.1 4.00002 84 4.00002L83.9 3.90002C83.9 3.90002 83.8 3.90002 83.7 3.90002C83.6 3.90002 83.6 4.00002 83.6 4.00002C83.6 4.10002 83.6 4.20002 83.6 4.30002C83.7 4.00002 83.7 4.10002 83.8 4.10002ZM84.2 5.10002L84.3 4.90002C84.3 4.80002 84.2 4.70002 84.1 4.60002H84C83.9 4.60002 83.7 4.70002 83.8 4.80002C83.8 4.90002 83.9 4.90002 84 4.90002L84.1 5.00002C84.1 5.10002 84.2 5.10002 84.2 5.10002C84.1 5.20002 84.1 5.10002 84.2 5.10002ZM82.7 7.50002C82.8 7.60002 82.7 7.60002 82.7 7.50002C82.9 7.60002 83 7.50002 83 7.50002C83.1 7.40002 83.1 7.30002 83.2 7.20002C83.2 7.10002 83.3 7.10002 83.3 7.00002C83.3 6.90002 83.4 6.70002 83.3 6.70002C83.2 6.70002 83.2 6.80002 83.1 6.80002C83.1 6.90002 83 7.00002 83 7.00002C82.9 7.00002 82.9 6.90002 82.9 6.90002C82.8 6.80002 82.8 6.80002 82.8 6.80002C82.8 6.70002 82.7 6.50002 82.6 6.60002C82.5 6.60002 82.5 6.80002 82.5 6.80002C82.5 6.90002 82.5 6.90002 82.6 7.00002C82.6 7.00002 82.6 7.10002 82.7 7.10002C82.7 7.10002 82.8 7.20002 82.8 7.30002C82.8 7.40002 82.8 7.40002 82.8 7.50002C82.6 7.40002 82.6 7.40002 82.7 7.50002ZM83.3 5.20002C83.1 5.20002 83.1 5.10002 83 5.00002C83 5.00002 83 5.00002 82.9 5.00002C82.8 4.90002 82.7 4.90002 82.7 4.90002C82.6 4.90002 82.5 5.00002 82.5 5.10002C82.5 5.20002 82.6 5.20002 82.6 5.20002C82.7 5.20002 82.9 5.30002 82.9 5.40002C82.9 5.40002 82.9 5.50002 83 5.50002L83.1 5.60002C83.2 5.70002 83.3 5.60002 83.3 5.70002V5.80002C83.3 5.90002 83.4 5.90002 83.4 6.00002V6.10002C83.4 6.10002 83.4 6.20002 83.5 6.20002C83.6 6.20002 83.6 5.90002 83.6 5.80002C83.6 5.70002 83.5 5.50002 83.4 5.40002C83.4 5.20002 83.4 5.20002 83.3 5.20002ZM83 3.20002C83.1 3.20002 83.2 3.30002 83.2 3.20002C83.3 3.20002 83.3 3.10002 83.3 3.00002C83.3 2.90002 83.2 2.90002 83.2 2.90002C83.1 2.90002 83 2.90002 83 2.90002C82.9 2.90002 82.9 2.90002 82.9 3.00002C82.9 3.10002 82.9 3.10002 83 3.20002ZM84.1 6.80002L84.3 6.70002C84.3 6.60002 84.3 6.50002 84.4 6.40002C84.4 6.40002 84.5 6.30002 84.5 6.20002L84.6 6.10002L84.7 6.00002L84.8 5.90002C84.8 5.80002 84.7 5.80002 84.7 5.70002C84.7 5.60002 84.7 5.60002 84.7 5.50002C84.7 5.40002 84.5 5.40002 84.4 5.50002C84.4 5.60002 84.4 5.70002 84.4 5.70002C84.4 5.80002 84.4 5.80002 84.4 5.90002C84.3 6.00002 84.2 6.10002 84.1 6.20002V6.30002V6.40002C84 6.70002 84 6.80002 84.1 6.80002ZM85.1 4.90002C85 4.80002 84.8 4.80002 84.7 4.80002C84.6 4.80002 84.6 4.90002 84.6 5.00002L84.7 5.10002L84.8 5.20002C85 5.30002 85 5.40002 85.1 5.50002L85.3 5.60002C85.4 5.60002 85.3 5.50002 85.3 5.50002L85.2 5.40002V5.30002C85.2 5.10002 85.2 5.00002 85.1 4.90002ZM84.9 8.10002L85 7.90002C85 7.90002 85 7.80002 85.1 7.80002C85.1 7.70002 85.2 7.70002 85.2 7.70002C85.2 7.60002 85.2 7.60002 85.1 7.60002C85 7.60002 85 7.70002 84.9 7.70002L84.8 7.80002C84.8 7.90002 84.8 7.90002 84.7 8.00002C84.6 8.10002 84.8 8.10002 84.9 8.10002ZM81.1 6.60002C81.2 6.70002 81.1 6.70002 81.1 6.60002C81.3 6.70002 81.4 6.70002 81.4 6.60002V6.50002C81.4 6.40002 81.3 6.30002 81.2 6.30002C81.1 6.20002 81.1 6.10002 81 6.10002C80.9 6.10002 80.9 6.30002 81 6.40002C81 6.60002 81.1 6.60002 81.1 6.60002ZM80.6 4.60002L80.8 4.50002C81 4.50002 81 4.50002 81 4.40002C81 4.30002 80.9 4.30002 80.9 4.30002C80.9 4.30002 80.8 4.40002 80.7 4.40002C80.6 4.40002 80.6 4.50002 80.6 4.60002ZM83.2 4.30002C83.3 4.30002 83.4 4.30002 83.4 4.20002C83.4 4.10002 83.3 4.10002 83.3 4.10002C83.2 4.00002 83.1 4.00002 83 4.00002C82.9 4.00002 82.9 4.10002 82.9 4.20002C82.9 4.30002 83 4.30002 83.2 4.30002ZM80.2 6.30002C80.3 6.30002 80.4 6.30002 80.4 6.20002C80.4 6.20002 80.4 6.10002 80.3 6.10002C80.3 6.00002 80.3 6.00002 80.2 6.00002C80.1 6.00002 80 5.90002 80 5.90002C79.9 5.90002 79.9 5.90002 79.9 6.00002L80 6.10002V6.20002C80.1 6.20002 80.2 6.30002 80.2 6.30002ZM81.9 4.80002C82 4.60002 81.8 4.60002 81.7 4.60002C81.7 4.60002 81.6 4.60002 81.6 4.70002C81.5 4.70002 81.5 4.90002 81.5 4.90002V5.00002C81.5 5.10002 81.5 5.10002 81.5 5.10002C81.5 5.10002 81.5 5.20002 81.5 5.30002C81.5 5.40002 81.6 5.50002 81.6 5.50002C81.7 5.50002 81.7 5.40002 81.7 5.40002C81.8 5.30002 81.7 5.20002 81.8 5.10002C81.8 5.10002 81.8 5.10002 81.8 5.00002L81.9 4.80002C81.8 4.90002 81.8 4.90002 81.9 4.80002ZM79.8 6.80002C79.7 6.80002 79.7 6.80002 79.6 6.70002C79.5 6.70002 79.4 6.70002 79.4 6.80002C79.3 6.80002 79.3 6.90002 79.3 7.00002C79.3 7.10002 79.4 7.20002 79.5 7.20002C79.6 7.20002 79.7 7.30002 79.8 7.30002C79.8 7.30002 79.9 7.30002 79.9 7.40002C80 7.40002 80.2 7.50002 80.2 7.40002C80.2 7.30002 80.1 7.30002 80.1 7.20002C80 6.90002 79.9 6.80002 79.8 6.80002ZM81.3 4.20002C81.4 4.20002 81.4 4.10002 81.3 4.20002C81.4 4.00002 81.5 4.00002 81.5 4.00002C81.6 4.00002 81.7 4.00002 81.8 4.00002C81.9 4.00002 81.9 3.80002 82 3.80002C82 3.80002 82.1 3.80002 82.1 3.90002C82.1 3.90002 82.1 4.00002 82.2 4.00002C82.4 4.00002 82.5 4.00002 82.6 3.90002C82.7 3.90002 82.7 3.80002 82.8 3.80002C82.9 3.70002 82.9 3.60002 82.8 3.50002C82.7 3.50002 82.6 3.60002 82.6 3.60002C82.5 3.60002 82.4 3.60002 82.3 3.50002C82.2 3.40002 82.2 3.40002 82.2 3.40002C82.1 3.40002 82.1 3.40002 82 3.50002C81.9 3.60002 81.9 3.60002 81.8 3.60002C81.7 3.60002 81.7 3.50002 81.7 3.50002L81.6 3.40002V3.30002L81.5 3.20002C81.4 3.20002 81.3 3.40002 81.2 3.40002V3.50002L81.3 3.60002C81.3 3.60002 81.3 3.70002 81.2 3.70002L81.1 3.80002C81 3.80002 81 3.90002 81 3.90002V4.00002C81.2 4.10002 81.2 4.20002 81.3 4.20002ZM88 10.1C88 10.2 88.1 10.2 88.1 10.2H88.2C88.3 10.1 88.3 10.1 88.2 10C88.2 10 88.2 9.90002 88.1 9.90002C88.1 9.80002 87.9 9.80002 87.9 9.80002C87.8 10 87.9 10 88 10.1C87.9 10.1 87.9 10.1 88 10.1ZM89 9.40002C89.1 9.40002 89.2 9.40002 89.2 9.30002C89.2 9.20002 89.1 9.20002 89.1 9.20002C89 9.10002 89 9.10002 89 9.10002C88.9 9.10002 88.9 9.10002 88.9 9.20002V9.30002C89 9.40002 89 9.40002 89 9.40002ZM88.4 9.20002C88.5 9.30002 88.5 9.40002 88.5 9.50002C88.5 9.60002 88.4 9.60002 88.5 9.70002C88.6 9.70002 88.6 9.60002 88.6 9.60002C88.7 9.50002 88.7 9.50002 88.7 9.40002C88.7 9.20002 88.6 9.00002 88.5 8.90002C88.4 8.80002 88.2 8.70002 88.2 8.60002C88.2 8.50002 88.2 8.50002 88.1 8.50002C88.1 8.50002 88 8.60002 88 8.70002C88 8.80002 87.9 8.80002 87.9 8.90002L88 9.00002C88.1 9.00002 88.3 9.10002 88.4 9.20002ZM85.9 7.40002C85.9 7.50002 85.8 7.60002 85.8 7.70002C85.8 7.80002 85.9 7.80002 85.9 7.80002L86 7.70002C86 7.70002 86 7.60002 86.1 7.60002C86.1 7.60002 86.1 7.50002 86.2 7.50002C86.2 7.50002 86.3 7.30002 86.2 7.30002C86.2 7.20002 86.1 7.20002 86 7.20002C86 7.20002 85.9 7.30002 85.9 7.40002ZM85.5 16.2C85.5 16.1 85.4 16.1 85.2 16.1C85.1 16.1 85 16.2 85.1 16.3C85.1 16.4 85.3 16.4 85.3 16.4C85.5 16.4 85.5 16.3 85.5 16.2ZM85.5 16.7C85.4 16.8 85.3 16.9 85.4 17C85.4 17.1 85.6 17.1 85.7 17.1C85.8 17 85.9 16.9 85.9 16.9C85.7 16.6 85.6 16.6 85.5 16.7ZM87.6 14.3C87.5 14.4 87.4 14.6 87.7 14.8C87.8 15 88.1 15 88.3 14.9C88.4 14.8 88.4 14.6 88.2 14.4C87.9 14.2 87.6 14.3 87.6 14.3ZM75.5 10.3C75.4 10.3 75.3 10.3 75.3 10.4C75.2 10.4 75.2 10.4 75.1 10.5C75 10.6 75 10.7 75.1 10.8C75.2 10.9 75.3 10.9 75.3 10.8L75.4 10.7C75.4 10.7 75.5 10.7 75.5 10.6C75.5 10.5 75.6 10.5 75.6 10.4C75.7 10.4 75.6 10.3 75.5 10.3ZM85.8 6.20002C85.8 6.20002 86 6.10002 86 6.00002H86.1L86.2 5.90002C86.2 5.80002 86.2 5.80002 86.1 5.80002H86C85.9 5.80002 85.9 5.80002 85.8 5.90002C85.8 6.00002 85.7 6.00002 85.7 6.00002C85.7 6.00002 85.7 6.20002 85.8 6.20002ZM86.4 8.80002C86.5 8.80002 86.5 8.70002 86.5 8.70002C86.5 8.70002 86.6 8.60002 86.7 8.60002H86.8C86.9 8.60002 86.9 8.50002 86.9 8.40002C86.9 8.30002 87 8.30002 87 8.20002C87 8.20002 86.9 8.10002 86.8 8.10002H86.7C86.6 8.10002 86.6 8.10002 86.6 8.20002L86.5 8.30002C86.4 8.40002 86.4 8.50002 86.3 8.60002C86.3 8.70002 86.2 8.70002 86.2 8.80002C86.3 8.90002 86.4 8.90002 86.4 8.80002ZM85.4 6.60002C85.2 6.60002 85.3 6.40002 85.3 6.30002L85.2 6.20002C85.1 6.30002 85.1 6.40002 85.1 6.40002C85.1 6.50002 85 6.50002 84.9 6.60002L84.8 6.70002L84.7 6.80002C84.7 6.90002 84.7 6.90002 84.7 7.00002C84.7 7.10002 84.7 7.10002 84.7 7.20002C84.8 7.30002 84.9 7.20002 84.9 7.10002C85.1 7.10002 85.1 7.00002 85.2 7.00002C85.3 7.00002 85.4 7.10002 85.5 7.10002C85.6 7.10002 85.6 7.00002 85.7 7.00002C85.8 7.00002 85.8 6.90002 85.8 6.90002H85.9C86 6.80002 86.1 6.80002 86.2 6.80002C86.3 6.80002 86.4 6.80002 86.4 6.70002L86.3 6.60002C86.2 6.60002 86.2 6.60002 86.1 6.60002C86 6.60002 85.9 6.60002 85.8 6.60002C85.7 6.60002 85.7 6.60002 85.6 6.70002C85.5 6.60002 85.4 6.60002 85.4 6.60002ZM87.8 8.00002C87.8 7.90002 87.7 7.80002 87.6 7.80002C87.5 7.80002 87.5 7.90002 87.5 8.00002C87.5 8.10002 87.4 8.10002 87.4 8.20002L87.5 8.30002C87.6 8.30002 87.7 8.40002 87.8 8.40002C87.8 8.40002 87.9 8.40002 87.9 8.30002C87.9 8.20002 87.8 8.10002 87.8 8.00002C87.8 8.10002 87.8 8.10002 87.8 8.00002ZM86.7 6.50002C86.8 6.50002 86.9 6.50002 86.9 6.50002C87 6.50002 87.1 6.50002 87.1 6.60002C87.2 6.70002 87.2 6.70002 87.3 6.80002C87.3 6.80002 87.3 6.90002 87.4 6.90002C87.4 6.90002 87.4 7.00002 87.5 7.00002C87.6 7.10002 87.6 7.30002 87.6 7.40002C87.6 7.50002 87.7 7.50002 87.7 7.50002C87.7 7.50002 87.8 7.60002 87.9 7.50002C88 7.50002 88 7.40002 87.9 7.30002C87.9 7.20002 87.8 7.20002 87.8 7.10002C87.8 7.00002 87.9 7.00002 87.9 6.90002C87.9 6.80002 87.8 6.80002 87.8 6.70002C87.8 6.70002 87.8 6.60002 87.7 6.60002C87.6 6.60002 87.7 6.50002 87.6 6.50002L87.5 6.40002C87.5 6.40002 87.4 6.40002 87.4 6.30002C87.3 6.20002 87.2 6.20002 87.2 6.20002C87 6.20002 86.9 6.20002 86.7 6.20002C86.5 6.40002 86.6 6.50002 86.7 6.50002ZM86.7 7.50002C86.7 7.60002 86.6 7.70002 86.7 7.50002L86.9 7.60002C87 7.60002 87 7.60002 87 7.60002C87.1 7.60002 87.1 7.50002 87.1 7.40002V7.30002C87.1 7.20002 87.1 7.10002 87 7.00002C86.9 6.90002 86.9 6.80002 86.8 6.90002C86.8 7.00002 86.9 7.10002 86.8 7.20002C86.8 7.40002 86.8 7.40002 86.7 7.50002ZM80.4 5.20002C80.4 5.50002 80.5 5.70002 80.6 5.70002C80.7 5.70002 80.7 5.60002 80.7 5.50002C80.7 5.40002 80.6 5.40002 80.6 5.30002C80.6 5.20002 80.7 5.20002 80.7 5.10002C80.7 5.00002 80.5 4.90002 80.5 5.00002C80.4 5.00002 80.4 5.10002 80.4 5.20002ZM85.2 10.8C85.1 10.8 85 11 85 11C85 11.1 85.1 11.1 85.2 11.1C85.3 11.1 85.4 11 85.4 10.9C85.4 10.8 85.5 10.8 85.5 10.8C85.4 10.8 85.3 10.7 85.2 10.8ZM85 10.2C85 10.1 84.9 10.1 84.9 10C84.8 9.90002 84.8 9.90002 84.7 9.90002C84.6 9.90002 84.6 10 84.6 10V10.1C84.6 10.2 84.7 10.2 84.8 10.3C84.9 10.4 84.9 10.4 85 10.4C85.1 10.4 85.1 10.3 85.1 10.3C85 10.2 85 10.2 85 10.2ZM85.4 8.80002L85.3 8.70002L85.2 8.60002C85.1 8.60002 85 8.60002 84.9 8.60002C84.8 8.60002 84.8 8.60002 84.7 8.60002C84.6 8.60002 84.5 8.60002 84.5 8.70002C84.4 8.80002 84.4 8.80002 84.4 8.90002L84.3 9.00002C84 9.00002 84 9.00002 84 9.10002C84 9.10002 84 9.20002 83.9 9.20002C83.9 9.30002 83.8 9.30002 83.8 9.30002C83.7 9.30002 83.7 9.40002 83.7 9.40002C83.6 9.50002 83.6 9.50002 83.6 9.60002C83.5 9.60002 83.4 9.70002 83.4 9.80002C83.4 9.80002 83.4 9.90002 83.5 9.90002H83.6C83.7 9.90002 83.7 9.90002 83.8 9.80002H84.1L84.2 9.70002C84.2 9.60002 84.2 9.60002 84.2 9.50002C84.2 9.40002 84.3 9.40002 84.3 9.30002C84.4 9.30002 84.4 9.30002 84.5 9.20002H84.6C84.7 9.20002 84.7 9.10002 84.7 9.00002C84.7 8.90002 84.8 8.90002 84.8 8.90002C84.8 8.90002 84.9 8.90002 84.9 9.00002C85 9.00002 85 9.20002 85.1 9.20002C85.2 9.20002 85.2 9.20002 85.3 9.20002C85.4 9.20002 85.5 9.10002 85.5 9.00002C85.5 9.00002 85.5 8.90002 85.4 8.80002ZM83.1 12.2C83.1 12.1 83.1 12 83 11.9V11C83 10.9 83.1 10.8 83.1 10.7C83 10.6 82.9 10.7 82.9 10.7C82.6 10.7 82.4 10.7 82.1 10.6H82C81.9 10.6 81.8 10.6 81.8 10.7C81.8 10.8 82 10.8 82.1 10.9C82.2 10.9 82.7 11.1 82.7 11.1L82.8 11.2C82.8 11.2 82.9 12.1 82.9 12.2C82.9 12.3 82.9 12.4 83 12.6C83 12.8 83.1 12.9 83.2 13C83.3 13.1 83.3 13.2 83.4 13.1C83.5 13.1 83.4 13 83.4 13C83.3 12.8 83.1 12.2 83.1 12.2ZM82.3 12.1V11.9C82.3 11.8 82.3 11.6 82.3 11.5C82.3 11.4 82.3 11.4 82.2 11.4C82.1 11.5 82.1 11.6 82.1 11.7V11.8V12C82.1 12.1 82.1 12.5 82.1 12.6C82.1 12.7 82.1 12.8 82.2 12.8C82.2 12.9 82.3 13 82.4 12.9C82.4 12.8 82.4 12.8 82.4 12.8C82.4 12.4 82.3 12.3 82.3 12.1ZM81.9 9.20002C81.9 9.10002 81.9 9.10002 82 9.00002V8.60002C82 8.50002 82.1 8.40002 82.2 8.20002C82.2 8.10002 82.3 8.10002 82.3 8.00002C82.3 7.90002 82.3 7.90002 82.3 7.80002C82.3 7.80002 82.3 7.70002 82.2 7.70002C82.1 7.60002 82.1 7.50002 82.1 7.40002V7.30002V7.20002C82.1 7.10002 82.1 7.10002 82 7.10002H81.9C81.8 7.10002 81.8 7.20002 81.7 7.20002C81.6 7.30002 81.6 7.50002 81.5 7.50002C81.4 7.50002 81.4 7.50002 81.3 7.50002C81.2 7.50002 81.2 7.70002 81.2 7.70002C81.2 7.80002 81.3 7.80002 81.3 7.80002C81.3 7.80002 81.4 7.80002 81.5 7.90002L81.6 8.00002C81.6 8.10002 81.6 8.10002 81.6 8.20002C81.6 8.30002 81.6 8.30002 81.5 8.40002C81.5 8.50002 81.6 8.50002 81.6 8.60002C81.6 8.70002 81.5 8.80002 81.4 8.80002H81.2C81.1 8.80002 80.9 8.50002 80.8 8.50002L80.7 8.40002L80.5 8.30002C80.6 8.00002 80.5 8.00002 80.4 8.00002C80.3 8.00002 80.4 8.00002 80.3 8.00002C80.2 8.10002 80 8.00002 80 8.20002C80 8.30002 80.1 8.30002 80.2 8.30002C80.3 8.30002 80.4 8.30002 80.4 8.40002C80.4 8.40002 80.7 8.60002 80.7 8.70002C80.8 8.70002 80.9 8.80002 81 8.80002C81.1 8.80002 81.1 8.90002 81.1 8.90002C81.2 9.00002 81.4 9.10002 81.5 9.20002C81.6 9.30002 81.6 9.40002 81.7 9.40002C81.9 9.30002 81.9 9.30002 81.9 9.20002ZM83.6 8.20002C83.6 8.10002 83.7 8.00002 83.8 7.90002C83.8 7.80002 83.9 7.80002 83.9 7.80002C83.9 7.70002 84 7.60002 83.9 7.50002C83.9 7.50002 83.9 7.50002 83.8 7.50002C83.7 7.50002 83.7 7.60002 83.6 7.60002C83.5 7.60002 83.5 7.60002 83.4 7.70002C83.4 7.80002 83.4 7.80002 83.4 7.90002C83.4 8.00002 83.4 8.00002 83.3 8.10002C83.2 8.10002 83.2 8.20002 83.1 8.20002C83 8.20002 83 8.30002 82.9 8.30002V8.50002C82.9 8.60002 82.8 8.60002 82.8 8.70002L82.6 8.80002C82.6 8.80002 82.6 9.10002 82.6 9.20002C82.6 9.30002 82.6 9.50002 82.7 9.50002C82.9 9.40002 83 9.20002 83.1 9.00002C83.1 9.00002 83.1 8.90002 83.2 8.90002L83.3 8.80002C83.3 8.70002 83.3 8.60002 83.4 8.50002C83.4 8.40002 83.5 8.40002 83.6 8.20002C83.6 8.30002 83.6 8.30002 83.6 8.20002ZM86 8.40002C86 8.30002 86.1 8.30002 86.1 8.20002C86.1 8.20002 86.1 8.20002 86 8.20002C85.9 8.20002 85.9 8.20002 85.8 8.30002C85.7 8.30002 85.6 8.40002 85.5 8.40002C85.4 8.40002 85.4 8.50002 85.4 8.50002C85.4 8.50002 85.5 8.60002 85.6 8.60002C85.6 8.60002 85.7 8.70002 85.8 8.70002C85.8 8.60002 85.9 8.50002 86 8.40002ZM89.5 10.9C89.4 10.9 89.4 10.9 89.3 10.9C89.2 10.9 89.2 10.9 89.2 11C89.2 11.1 89.3 11.2 89.3 11.2H89.4C89.5 11.2 89.5 11.2 89.5 11.1C89.6 11 89.6 10.9 89.5 10.9ZM88.4 10.7C88.3 10.7 88.2 10.8 88.1 10.8L88 10.9C87.9 10.9 87.8 10.9 87.8 10.8H87.7C87.6 10.8 87.6 10.8 87.6 10.8C87.6 10.8 87.6 10.8 87.5 10.8C87.4 10.8 87.3 10.9 87.4 11C87.4 11.1 87.5 11 87.6 11H87.7C87.8 11.1 88 11.1 88.1 11.1C88.2 11.1 88.3 11.1 88.3 11C88.4 10.9 88.4 10.9 88.5 10.8C88.6 10.8 88.6 10.8 88.6 10.7C88.7 10.7 88.5 10.7 88.4 10.7ZM86.2 10.1C86.2 10.1 86.2 10 86.1 10C86.1 10 86 10 86 10.1C85.9 10.1 85.9 10.2 85.8 10.2C85.7 10.3 85.7 10.3 85.7 10.4C85.7 10.6 86 10.4 86 10.4C86.1 10.3 86.2 10.2 86.2 10.1ZM79.6 4.90002C79.7 5.00002 79.6 5.00002 79.6 4.90002C79.7 5.00002 79.7 5.10002 79.8 5.20002C79.8 5.20002 79.9 5.20002 80 5.20002C80 5.10002 79.9 5.00002 79.9 4.90002C79.9 4.80002 80 4.80002 80 4.80002C80 4.70002 79.9 4.60002 80 4.50002C80 4.40002 80.1 4.40002 80.2 4.40002C80.3 4.40002 80.4 4.30002 80.5 4.20002C80.6 4.20002 80.6 4.10002 80.6 4.10002V3.90002L80.5 3.80002C80.4 3.80002 80.4 3.90002 80.4 3.90002C80.3 4.00002 80.2 4.20002 80 4.20002C79.9 4.20002 79.9 4.20002 79.9 4.20002C79.8 4.20002 79.8 4.30002 79.8 4.40002C79.8 4.40002 79.8 4.50002 79.7 4.50002V4.60002C79.7 4.70002 79.7 4.70002 79.8 4.80002C79.6 4.70002 79.6 4.80002 79.6 4.90002ZM86.6 10.7C86.5 10.7 86.4 10.8 86.3 10.8H86.1C86.1 10.8 86 10.8 86 10.9C86 11 86.1 11 86.1 11H86.3H86.4H86.5C86.6 11 86.6 11.2 86.7 11.1L86.8 11V10.9V10.8C86.9 10.7 86.7 10.7 86.6 10.7ZM87.4 10.1C87.3 10 87.3 9.90002 87.2 9.80002C87.2 9.80002 87.1 9.70002 87 9.70002C86.9 9.70002 86.9 9.70002 86.8 9.70002C86.8 9.70002 86.7 9.70002 86.7 9.80002C86.7 9.80002 86.7 9.90002 86.8 9.90002L86.9 10L87 10.1C87 10.2 87.1 10.3 87.1 10.3C87.1 10.4 87.2 10.5 87.3 10.5C87.4 10.5 87.4 10.4 87.4 10.3C87.4 10.2 87.4 10.1 87.4 10.1ZM76.7 15.2C76.5 15.4 76.3 15.4 76 15.1C75.9 14.9 75.8 14.7 75.8 14.5H76.1C76.1 14.6 76.2 14.8 76.2 14.9C76.3 15 76.4 15.1 76.5 15C76.5 14.9 76.5 14.8 76.4 14.7C76.3 14.5 76.3 14.3 76.4 14.1C76.6 13.9 76.9 14 77 14.1C77.1 14.3 77.2 14.4 77.2 14.6H76.9C76.9 14.5 76.9 14.4 76.8 14.3C76.7 14.2 76.6 14.2 76.5 14.2C76.4 14.2 76.5 14.4 76.6 14.6C76.9 14.9 76.9 15.1 76.7 15.2ZM76.9 16L77.8 14.9L78 15.1L77.1 16.2C77.1 16.2 76.9 16 76.9 16ZM78.8 17.2L78.5 17C78.5 17 78.5 16 78.5 15.8C78.4 16 78.3 16.1 78.2 16.4L78 16.8L77.7 16.7L78.4 15.5L78.7 15.7C78.7 15.7 78.7 16.6 78.7 16.8C78.8 16.6 78.9 16.5 79 16.3L79.2 15.9L79.5 16L78.8 17.2ZM80.8 16.9C80.7 16.7 80.6 16.7 80.4 16.7C80.2 16.7 80 16.9 80 17.1C80 17.3 80.1 17.6 80.4 17.6C80.4 17.6 80.4 17.6 80.5 17.6C80.6 17.6 80.7 17.6 80.8 17.5L80.9 17.7C80.8 17.8 80.6 17.8 80.5 17.8C80.1 17.8 79.8 17.4 79.8 17C79.8 16.6 80.2 16.3 80.6 16.3C80.8 16.3 81 16.5 81.2 16.7C81 16.7 80.8 16.9 80.8 16.9ZM82.4 17.2V17.4H81.7V17.7H82.5V17.9H81.4L81.5 16.5H82.5V16.7H81.7V17C81.8 17.2 82.4 17.2 82.4 17.2ZM84.3 17.7L84 16.7L83.8 16.8L83.7 16.6L84 16.4L84.2 16.3L84.6 17.6L84.3 17.7ZM85.7 17.2C85.4 17.3 85.1 17.2 85.1 17.1C85 17 85.1 16.8 85.2 16.7C85.1 16.7 84.9 16.6 84.9 16.5C84.8 16.3 84.9 16.1 85.2 16C85.4 15.9 85.6 15.9 85.8 16.1C85.8 16.2 85.8 16.3 85.7 16.4C85.9 16.4 86 16.5 86.1 16.6C86.1 16.9 86 17.1 85.7 17.2ZM86.7 16.6L86.6 16.4L86.7 16.2C86.8 15.8 86.9 15.6 86.8 15.4C86.7 15.3 86.6 15.3 86.5 15.4C86.4 15.5 86.4 15.6 86.4 15.7H86C86 15.5 86.1 15.3 86.2 15.2C86.4 15 86.6 15 86.8 15.2C87 15.4 86.9 15.7 86.9 16V16.2L87.3 15.9L87.5 16.1L86.7 16.6ZM88.3 15.2C88.1 15.4 87.7 15.4 87.4 15.1C87.1 14.9 87.1 14.5 87.3 14.2C87.6 14 88 14 88.2 14.3C88.6 14.6 88.6 14.9 88.3 15.2ZM90.2 11.2C90.1 11.2 90.1 11.2 90 11.2C89.9 11.2 89.9 11.3 89.9 11.3C89.9 11.4 89.8 11.4 89.8 11.4C89.7 11.4 89.6 11.4 89.5 11.5H89.4C89.3 11.4 89.3 11.3 89.1 11.3C89 11.3 89 11.4 88.9 11.4C88.8 11.4 88.8 11.4 88.7 11.5C88.7 11.6 88.7 11.6 88.8 11.6L88.9 11.7C88.9 11.7 88.8 11.8 88.7 11.8C88.6 11.8 88.4 11.8 88.4 11.8C88.3 11.8 88.2 11.8 88.1 11.7C88 11.6 88 11.5 87.9 11.5C87.8 11.4 87.7 11.4 87.6 11.4C87.5 11.4 87.4 11.4 87.3 11.5C87.2 11.6 87.2 11.7 87.1 11.7C87.1 11.7 87 11.8 86.9 11.8H86.8C86.7 11.8 86.7 11.7 86.6 11.6C86.6 11.5 86.5 11.4 86.4 11.4C86.3 11.4 86.3 11.5 86.2 11.5C86.1 11.6 86.1 11.6 86 11.6C85.9 11.6 85.9 11.6 85.8 11.5C85.8 11.4 85.7 11.4 85.7 11.3C85.6 11.3 85.5 11.3 85.4 11.3C85.3 11.3 85 11.4 85 11.4C85 11.4 84.8 11.4 84.8 11.3C84.7 11.3 84.7 11.2 84.7 11.2C84.7 11.1 84.6 11.1 84.6 11C84.5 10.9 84.5 10.8 84.5 10.6C84.5 10.5 84.4 10.5 84.4 10.5C84.3 10.4 84.2 10.4 84.1 10.3C84 10.3 84 10.2 83.9 10.2C83.8 10.2 83.7 10.3 83.7 10.4C83.7 10.6 83.6 10.7 83.6 10.9C83.6 11 83.6 11.2 83.7 11.3C83.7 11.4 83.7 11.6 83.8 11.7C83.8 11.8 83.8 11.9 83.9 12.1C83.9 12.3 84 12.5 84.1 12.7C84.2 12.8 84.4 12.9 84.6 12.9C84.7 13 85.2 13.2 85.3 13.2L85.4 13.3C85.4 13.3 85.2 13.3 85.1 13.3C84.7 13.2 84.3 13.1 83.9 13.2C83.8 13.2 83.7 13.2 83.7 13.3C83.7 13.3 83.7 13.4 83.8 13.4C83.9 13.5 83.9 13.6 83.9 13.7C83.9 13.8 83.9 13.8 83.9 13.9C83.9 13.9 83.8 13.9 83.7 13.8C83.6 13.8 83 13.4 82.4 13.4C82 13.4 81.5 13.6 81.1 13.8C81 13.8 81 13.9 80.9 13.9C80.8 13.9 80.9 13.8 80.9 13.8C80.9 13.7 81 13.6 81 13.5C81 13.5 81 13.4 81.1 13.4C81.1 13.3 80.9 13.3 80.8 13.3C80.6 13.3 80.4 13.3 80.1 13.3C80 13.3 79.6 13.4 79.6 13.4C79.5 13.4 79.4 13.5 79.4 13.4L79.5 13.3C79.6 13.2 79.7 13.2 79.7 13.2C79.8 13.2 80 13.1 80 13.1C80.1 13.1 80.1 13 80.2 13C80.4 13 80.5 12.9 80.6 12.8C80.6 12.7 80.7 12.7 80.7 12.6C80.7 12.5 80.8 12.4 80.8 12.4C80.8 12.3 80.9 12.2 80.9 12.2C80.9 12.2 80.9 12 81 11.9C81 11.7 81.1 11.5 81.1 11.3C81.1 11.2 81.1 11.1 81.2 11C81.2 10.9 81.2 10.8 81.2 10.7C81.2 10.6 81.2 10.6 81.1 10.6C81.1 10.5 81.1 10.5 81 10.5C81 10.4 80.9 10.4 80.8 10.4C80.7 10.4 80.7 10.4 80.6 10.5C80.5 10.5 80.5 10.6 80.4 10.6H80.3C80.2 10.6 80.1 10.6 80 10.7C79.9 10.8 79.8 10.9 79.9 11C79.9 11.1 80 11.1 80 11.1L80.1 11.2C80.1 11.2 79.9 11.3 79.9 11.4C79.8 11.4 79.7 11.4 79.7 11.5C79.6 11.5 79.5 11.5 79.4 11.5C79.3 11.5 79.1 11.4 79 11.5C78.9 11.6 78.9 11.6 78.9 11.7C78.9 11.8 78.8 11.9 78.7 11.9C78.6 11.9 78.5 11.8 78.4 11.8C78.3 11.8 78.2 11.8 78.2 11.9C78.1 11.9 78.1 12 78 12C77.9 12 77.8 11.9 77.7 11.8L77.6 11.7L77.5 11.6C77.4 11.6 77.3 11.7 77.3 11.7C77.2 11.7 77.1 11.8 77.1 11.8C77 11.8 77 11.7 76.9 11.7C76.8 11.7 76.8 11.8 76.7 11.8C76.6 11.8 76.5 11.6 76.4 11.6C76.3 11.6 76.3 11.6 76.2 11.6C76.1 11.5 76.2 11.3 76.2 11.2C76.2 11.2 76.3 11.1 76.2 11.1C76.2 11 76 11 76 11H75.9C75.8 11 75.8 11.1 75.7 11.1C75.6 11.1 75.5 11.2 75.4 11.3C75.3 11.4 75.2 11.4 75.1 11.4C75 11.4 74.9 11.3 74.8 11.3C74.7 11.3 74.7 11.5 74.6 11.5C74.5 11.5 74.4 11.5 74.3 11.4C74.1 11.3 74.4 11.2 74.4 11.1C74.4 11 74.3 10.9 74.3 10.8C74.3 10.7 74.4 10.6 74.5 10.6L74.6 10.4C74.6 10.3 74.7 10.3 74.7 10.3C74.7 10.3 74.8 10.3 74.9 10.3C75 10.3 75.1 10.2 75.1 10.1C75.1 10 75 10 74.9 10C74.8 10 74.7 9.90002 74.7 9.90002C74.7 9.80002 74.7 9.80002 74.8 9.70002C74.8 9.60002 74.8 9.60002 74.9 9.50002C74.9 9.40002 75 9.40002 75 9.40002C75.1 9.40002 75.1 9.30002 75.2 9.30002C75.3 9.30002 75.3 9.40002 75.4 9.40002C75.5 9.50002 75.5 9.60002 75.6 9.50002L75.7 9.40002C75.7 9.30002 75.7 9.20002 75.7 9.20002C75.8 9.10002 75.9 9.10002 76 9.10002H76.1C76.2 9.10002 76.2 9.20002 76.2 9.30002C76.2 9.40002 76.3 9.50002 76.3 9.50002L76.4 9.40002C76.4 9.30002 76.5 9.20002 76.6 9.20002C76.6 9.20002 76.7 9.20002 76.7 9.10002C76.7 9.00002 76.7 9.00002 76.8 8.90002C76.8 8.80002 76.6 8.80002 76.5 8.70002C76.4 8.70002 76.4 8.70002 76.3 8.60002C76.2 8.60002 76.1 8.60002 76.1 8.50002C76.1 8.40002 76.1 8.40002 76.1 8.30002C76 8.10002 76 8.00002 76.1 8.00002C76.1 8.00002 76.2 8.00002 76.3 8.00002C76.4 8.00002 76.4 8.00002 76.4 7.90002C76.4 7.80002 76.4 7.80002 76.4 7.70002C76.4 7.70002 76.3 7.60002 76.3 7.50002C76.3 7.40002 76.3 7.40002 76.3 7.30002C76.3 7.20002 76.1 7.10002 76.2 6.90002C76.2 6.80002 76.3 6.80002 76.4 6.80002C76.5 6.80002 76.5 6.80002 76.6 6.80002C76.7 6.70002 76.7 6.60002 76.7 6.50002C76.7 6.40002 76.6 6.30002 76.7 6.20002C76.7 6.10002 76.8 6.10002 76.9 6.10002C76.9 6.20002 77 6.00002 77.1 6.00002C77.1 6.00002 77.2 6.00002 77.3 6.00002C77.4 6.00002 77.4 5.90002 77.5 5.90002C77.6 5.90002 77.6 6.10002 77.6 6.10002C77.6 6.20002 77.7 6.30002 77.7 6.30002C77.8 6.30002 77.9 6.20002 77.9 6.20002C77.9 6.10002 77.9 6.10002 77.9 6.00002V5.90002V5.80002C77.9 5.70002 78 5.60002 78 5.60002C78.1 5.60002 78.1 5.50002 78.1 5.50002L78.2 5.40002C78.2 5.40002 78.3 5.30002 78.3 5.20002C78.4 5.10002 78.4 5.10002 78.5 5.10002C78.6 5.10002 78.6 5.20002 78.6 5.30002C78.6 5.40002 78.7 5.50002 78.8 5.50002C78.9 5.50002 78.9 5.40002 78.9 5.30002C78.9 5.10002 79 5.00002 79 4.80002C79 4.70002 79 4.70002 78.9 4.60002C78.9 4.50002 78.8 4.40002 78.8 4.30002C78.8 4.20002 78.9 4.20002 78.9 4.20002C79 4.20002 79 4.10002 79 4.10002C79.1 4.00002 79.1 3.80002 79.2 3.80002C79.3 3.70002 79.5 3.90002 79.6 3.80002C79.7 3.80002 79.7 3.70002 79.7 3.60002C79.7 3.50002 79.8 3.40002 79.8 3.40002L79.9 3.30002C80 3.30002 80 3.30002 80.1 3.20002C80.1 3.20002 80.1 3.20002 80.2 3.20002C80.3 3.10002 80.3 3.10002 80.3 3.10002C80.4 3.10002 80.4 3.10002 80.5 3.10002H80.6H80.7C81 3.00002 81.1 3.00002 81.2 2.90002C81.3 2.80002 81.4 2.80002 81.5 2.80002H81.6C81.6 2.80002 81.7 2.80002 81.8 2.80002C81.9 2.80002 82 2.60002 82 2.60002C82.1 2.60002 82.2 2.60002 82.3 2.70002C82.4 2.70002 82.4 2.80002 82.5 2.80002C82.6 2.80002 82.6 2.70002 82.7 2.60002C82.8 2.50002 82.8 2.40002 82.9 2.40002H83C83.1 2.40002 83.2 2.40002 83.2 2.50002H83.3C83.4 2.50002 83.4 2.40002 83.5 2.40002C83.6 2.40002 83.6 2.40002 83.6 2.40002C83.7 2.50002 83.8 2.60002 83.9 2.80002C83.9 2.90002 84 2.90002 84 3.00002C84 3.00002 84.1 3.10002 84.1 3.20002L84.2 3.30002H84.3H84.4H84.5C84.6 3.30002 84.6 3.40002 84.7 3.40002C84.8 3.40002 84.8 3.40002 84.9 3.30002C85 3.20002 85 3.10002 85 3.10002H85.1C85.3 3.20002 85.4 3.30002 85.6 3.40002C85.7 3.50002 85.7 3.50002 85.8 3.60002C85.8 3.70002 85.8 3.80002 85.8 3.90002C85.8 4.00002 85.8 4.10002 85.9 4.20002C85.9 4.30002 86 4.40002 86 4.50002C86 4.60002 86.1 4.60002 86.2 4.70002L86.3 4.80002C86.3 4.80002 86.4 4.90002 86.4 5.00002C86.4 5.10002 86.4 5.20002 86.5 5.30002C86.5 5.40002 86.7 5.40002 86.8 5.40002C86.9 5.40002 87 5.50002 87 5.50002V5.60002C87 5.70002 86.9 5.80002 86.9 5.90002C86.9 6.00002 86.9 6.00002 86.9 6.00002C86.9 6.10002 87.1 6.00002 87.2 6.00002C87 6.00002 87.1 6.00002 87.1 6.00002C87.1 6.00002 87.2 6.00002 87.3 6.00002C87.4 6.00002 87.5 6.10002 87.5 6.20002L87.6 6.30002C87.7 6.40002 87.9 6.50002 88 6.50002C88.1 6.50002 88.2 6.60002 88.3 6.60002C88.4 6.70002 88.5 6.70002 88.5 6.80002C88.5 6.90002 88.5 7.00002 88.5 7.10002C88.5 7.20002 88.4 7.30002 88.4 7.30002C88.3 7.40002 88.2 7.40002 88.2 7.50002C88.2 7.60002 88.4 7.70002 88.5 7.70002C88.6 7.70002 88.6 7.80002 88.7 7.80002C88.8 7.80002 88.8 7.90002 88.8 7.90002C88.8 8.00002 88.8 8.10002 88.7 8.10002C88.7 8.20002 88.6 8.20002 88.6 8.30002C88.6 8.40002 88.6 8.40002 88.6 8.50002C88.7 8.60002 88.8 8.50002 88.9 8.40002L89 8.30002L89.1 8.20002C89.2 8.20002 89.2 8.30002 89.2 8.40002C89.2 8.50002 89.3 8.60002 89.3 8.70002C89.4 8.70002 89.4 8.80002 89.5 8.80002C89.6 8.80002 89.7 8.90002 89.7 9.00002C89.7 9.10002 89.7 9.10002 89.7 9.20002V9.40002C89.7 9.50002 89.6 9.50002 89.6 9.50002C89.6 9.50002 89.5 9.50002 89.5 9.60002C89.4 9.70002 89.2 9.70002 89.1 9.70002C89 9.70002 88.9 9.70002 88.8 9.80002C88.7 9.80002 88.6 9.90002 88.6 10C88.6 10.1 88.8 10.1 88.9 10.1C89 10.1 89 10.3 89.1 10.3H89.3L89.4 10.2C89.4 10.2 89.5 10.1 89.6 10.1C89.7 10.1 89.7 10.1 89.8 10.2C89.8 10.2 89.9 10.2 90 10.2C90.1 10.2 90.1 10.4 90.2 10.4C90.3 10.5 90.4 10.5 90.5 10.7C90.5 10.7 90.6 10.9 90.6 11C90.4 11.2 90.3 11.2 90.2 11.2ZM76.6 9.90002C76.7 9.90002 76.7 9.80002 76.7 9.80002C76.7 9.80002 76.7 9.70002 76.8 9.60002C76.8 9.50002 76.9 9.50002 77 9.40002C76.9 9.30002 77 9.20002 77 9.10002V9.00002C77 8.90002 77 8.80002 76.9 8.80002C76.8 8.80002 76.8 8.90002 76.8 9.00002C76.8 9.10002 76.7 9.20002 76.7 9.40002L76.5 9.60002C76.4 9.70002 76.3 9.70002 76.4 9.90002C76.4 9.80002 76.5 9.90002 76.6 9.90002ZM78 10.3V10.4C78 10.5 78 10.7 78.1 10.7C78.2 10.7 78.2 10.7 78.2 10.6V10.5V10.4C78.2 10.3 78.2 10.3 78.2 10.2V10.1L78.1 10C78 10.2 78 10.2 78 10.3ZM77.5 8.30002C77.4 8.20002 77.4 8.20002 77.4 8.20002C77.4 8.20002 77.3 8.20002 77.3 8.30002C77.3 8.40002 77.3 8.40002 77.4 8.50002C77.4 8.50002 77.5 8.60002 77.6 8.60002C77.7 8.60002 77.7 8.50002 77.7 8.40002C77.6 8.30002 77.6 8.30002 77.5 8.30002ZM81.6 12.2C81.5 12.2 81.4 12.6 81.4 12.6C81.4 12.7 81.3 12.7 81.4 12.8C81.4 12.8 81.5 12.9 81.5 12.8C81.6 12.8 81.6 12.7 81.6 12.6C81.6 12.5 81.7 12.4 81.6 12.2C81.7 12.3 81.7 12.2 81.6 12.2ZM77.9 6.90002C78.1 6.70002 78.2 6.70002 78.2 6.70002C78.3 6.60002 78.4 6.60002 78.5 6.50002C78.6 6.50002 78.7 6.50002 78.7 6.40002C78.7 6.30002 78.6 6.20002 78.6 6.20002C78.6 6.20002 78.5 6.10002 78.5 6.00002C78.5 5.90002 78.6 5.90002 78.6 5.90002C78.6 5.90002 78.7 5.90002 78.7 5.80002L79.1 5.70002C79.2 5.70002 79.2 5.50002 79.3 5.50002C79.4 5.50002 79.5 5.50002 79.5 5.40002V5.30002C79.5 5.30002 79.4 5.20002 79.3 5.20002C79.2 5.20002 78.9 5.50002 78.9 5.50002C78.9 5.50002 79 5.70002 78.9 5.70002C78.8 5.70002 78.6 5.70002 78.5 5.80002L78.4 5.90002C78.4 5.90002 78.4 6.00002 78.4 6.10002C78.4 6.10002 78.5 6.20002 78.4 6.30002C78.4 6.40002 78.1 6.50002 78.1 6.50002H77.9C77.8 6.60002 77.7 6.70002 77.8 6.80002C77.8 6.90002 77.9 6.90002 77.9 6.90002ZM76.9 8.10002C77.1 8.10002 77.1 7.90002 77.2 7.80002C77.2 7.80002 77.3 7.70002 77.4 7.70002C77.6 7.70002 77.7 7.80002 77.8 7.80002C77.9 7.80002 77.9 7.80002 78 7.70002C78.1 7.70002 78.1 7.60002 78.2 7.50002C78.3 7.40002 78.4 7.40002 78.5 7.30002C78.6 7.30002 78.6 7.30002 78.7 7.30002C78.7 7.30002 78.8 7.30002 78.8 7.20002C79 7.10002 78.9 7.00002 78.7 7.00002C78.6 7.00002 78.6 7.00002 78.5 6.90002H78.3C78.2 6.90002 78.2 7.00002 78.1 7.10002C78 7.20002 77.9 7.30002 77.7 7.30002H77.5H77.4C77.3 7.30002 77.3 7.30002 77.2 7.40002C77.1 7.60002 77 7.60002 77 7.60002C76.9 7.70002 76.9 7.70002 76.9 7.80002C76.8 8.00002 76.8 8.10002 76.9 8.10002ZM77 6.80002C77.2 6.90002 77.3 7.00002 77.4 6.90002C77.4 6.80002 77.4 6.80002 77.3 6.70002C77.3 6.60002 77.2 6.60002 77.2 6.60002C77.1 6.60002 77.1 6.50002 77 6.50002C76.9 6.50002 76.9 6.60002 76.9 6.60002C76.8 6.70002 76.9 6.80002 77 6.80002ZM77.7 9.80002C77.8 9.70002 77.8 9.60002 77.7 9.60002L77.6 9.50002L77.5 9.40002C77.5 9.30002 77.4 9.30002 77.4 9.30002C77.3 9.30002 77.3 9.40002 77.3 9.40002C77.3 9.40002 77.3 9.50002 77.2 9.50002C77.2 9.60002 77.2 9.60002 77.2 9.70002C77.2 9.80002 77.3 9.80002 77.3 9.90002C77.4 10 77.5 10 77.5 10C77.6 9.90002 77.7 9.90002 77.7 9.80002ZM79 8.70002C79.1 8.70002 79.1 8.60002 79.2 8.50002C79.2 8.50002 79.2 8.40002 79.1 8.40002L79 8.30002H78.9C78.8 8.30002 78.8 8.30002 78.8 8.40002V8.50002C78.8 8.60002 78.7 8.60002 78.6 8.70002H78.4H78.3H78.2C78.1 8.70002 78.1 8.80002 78.1 8.80002L78.2 8.90002C78.3 8.90002 78.4 8.90002 78.5 8.90002C78.6 8.90002 78.6 8.90002 78.7 8.90002H78.8C78.8 8.80002 78.9 8.80002 79 8.70002ZM78.2 11.1C78.2 11.1 78.1 11.1 78 11.1C77.9 11.1 77.9 11.1 77.8 11.1C77.7 11.1 77.6 11.1 77.6 11.2C77.6 11.3 77.7 11.3 77.7 11.4C77.8 11.4 77.8 11.5 77.9 11.5H78.2C78.3 11.5 78.4 11.4 78.4 11.3C78.4 11.1 78.3 11.1 78.2 11.1ZM80.9 9.60002C80.8 9.50002 80.7 9.40002 80.5 9.30002C80.4 9.30002 80.3 9.20002 80.1 9.20002C80 9.20002 79.9 9.10002 79.9 9.20002C79.8 9.20002 79.9 9.30002 79.8 9.40002C79.8 9.50002 79.7 9.50002 79.7 9.50002C79.6 9.50002 79.6 9.40002 79.5 9.50002C79.4 9.50002 79.4 9.70002 79.3 9.70002C79.2 9.70002 79.1 9.60002 79 9.60002H78.7L78.6 9.70002C78.6 9.80002 78.7 9.80002 78.8 9.80002C78.9 9.80002 79 9.90002 79.2 10C79.2 10.1 79.3 10.1 79.4 10.1C79.5 10.1 79.6 10.1 79.7 10.1C79.8 10.1 79.8 10 79.8 10C79.9 9.90002 80 9.90002 80.1 9.80002C80.2 9.80002 80.2 9.70002 80.3 9.70002C80.4 9.70002 80.5 9.70002 80.5 9.70002H80.7C80.8 9.70002 80.8 9.80002 80.9 9.80002C81 9.80002 81 9.80002 81.1 9.70002C81.2 9.70002 81 9.60002 80.9 9.60002ZM77.1 10.2C77 10.2 76.9 10.3 76.9 10.4L77 10.5L77.1 10.6C77.2 10.7 77.3 10.8 77.4 10.7C77.4 10.6 77.4 10.6 77.4 10.5C77.4 10.4 77.4 10.3 77.3 10.3C77.2 10.2 77.1 10.1 77.1 10.2ZM79.2 10.5C79 10.4 79 10.5 79 10.6V10.7C79 10.8 78.9 10.8 78.9 10.9C78.9 11 79 11 79 11H79.2C79.3 11 79.3 10.9 79.3 10.8C79.2 10.8 79.2 10.7 79.2 10.5C79.2 10.6 79.2 10.6 79.2 10.5ZM76.9 11C76.8 11 76.8 11 76.9 11C76.7 10.9 76.7 10.8 76.7 10.7C76.7 10.6 76.6 10.6 76.6 10.5C76.6 10.4 76.5 10.4 76.5 10.4C76.5 10.4 76.4 10.3 76.3 10.3C76.2 10.3 76.2 10.4 76.2 10.5C76.2 10.6 76.3 10.6 76.3 10.6C76.4 10.6 76.4 10.6 76.5 10.7C76.6 10.8 76.5 11 76.6 11.1C76.6 11.2 76.7 11.2 76.8 11.2C76.8 11.2 76.9 11.2 77 11.2C77.1 11.2 77.2 11.2 77.2 11.1C77 11 77 11 76.9 11Z" fill="#F35B1C"/>
<path d="M96.1 4.90001C96.8 4.80001 97.7 4.70001 99 4.70001C100.4 4.70001 101.4 5.00001 102 5.50001C102.6 6.00001 103 6.80001 103 7.80001C103 8.80001 102.7 9.60001 102.1 10.1C101.3 10.9 100.2 11.2 98.8 11.2C98.4 11.2 98.1 11.2 97.9 11.1V15H96V4.90001H96.1ZM98 9.80001C98.2 9.90001 98.5 9.90001 98.9 9.90001C100.3 9.90001 101.2 9.20001 101.2 8.00001C101.2 6.90001 100.4 6.20001 99.1 6.20001C98.6 6.20001 98.2 6.20001 98 6.30001V9.80001Z" fill="black"/>
<path d="M109.6 13.4C109.6 14.1 109.6 14.7 109.7 15.2H108L107.9 14.4C107.5 15 106.7 15.4 105.7 15.4C104.2 15.4 103.3 14.3 103.3 13.2C103.3 11.3 105 10.4 107.7 10.4V10.3C107.7 9.80001 107.5 9.00001 106.2 9.00001C105.5 9.00001 104.7 9.20001 104.2 9.60001L103.8 8.40001C104.4 8.10001 105.3 7.70001 106.5 7.70001C108.9 7.70001 109.6 9.20001 109.6 10.9V13.4ZM107.8 11.5C106.5 11.5 105.2 11.8 105.2 12.9C105.2 13.6 105.7 14 106.3 14C107.1 14 107.6 13.5 107.8 13C107.8 12.9 107.8 12.7 107.8 12.6V11.5Z" fill="black"/>
<path d="M112.1 7.70004L113.4 11.7C113.6 12.2 113.7 12.7 113.8 13.1C113.9 12.7 114 12.1 114.2 11.6L115.4 7.60004H117.4L115.5 12.7C114.5 15.5 113.8 16.7 112.9 17.5C112.1 18.1 111.4 18.4 110.9 18.5L110.5 16.9C110.8 16.8 111.2 16.7 111.6 16.4C112 16.2 112.4 15.7 112.6 15.2C112.7 15.1 112.7 15 112.7 14.9C112.7 14.8 112.7 14.7 112.6 14.5L110 7.70004H112.1Z" fill="black"/>
</svg>
