<svg width="66" height="18" viewBox="0 0 66 18" fill="none" xmlns="http://www.w3.org/2000/svg">
  <g clip-path="url(#clip0_189_39)">
    <path d="M26.7414 0H9.21327V18H26.7414V0Z" fill="white"/>
    <path d="M35.5055 9.02118L26.7414 0V18.0212L35.5055 9.02118Z" fill="#DB0011"/>
    <path d="M17.9773 9.02118L26.7414 0H9.21327L17.9773 9.02118Z" fill="#DB0011"/>
    <path d="M0.428574 9.02118L9.21327 18.0212V0L0.428574 9.02118Z" fill="#DB0011"/>
    <path d="M17.9773 9.02118L9.21327 18.0212H26.7414L17.9773 9.02118Z" fill="#DB0011"/>
    <path d="M43.1973 9.55059H40.0216V12.7694H38.4337V5.23059H40.0216V8.32236H43.1973V5.23059H44.7851V12.7694H43.1973V9.55059Z" fill="black"/>
    <path d="M48.6207 12.9176C47.0328 12.9176 45.7337 12.2612 45.7131 10.4612H47.3009C47.3215 11.2659 47.7752 11.7529 48.6413 11.7529C49.2806 11.7529 50.0229 11.4141 50.0229 10.6729C50.0229 10.08 49.528 9.91057 48.7032 9.65646L48.167 9.50822C47.0122 9.1694 45.8574 8.70352 45.8574 7.34822C45.8574 5.67528 47.3834 5.10352 48.765 5.10352C50.1879 5.10352 51.4252 5.61175 51.4458 7.28469H49.858C49.7961 6.60705 49.4043 6.20469 48.6619 6.20469C48.0639 6.20469 47.4865 6.52234 47.4865 7.19999C47.4865 7.75057 47.9814 7.91999 49.0125 8.25881L49.6311 8.4494C50.889 8.85175 51.6933 9.29646 51.6933 10.567C51.6726 12.2612 50.0642 12.9176 48.6207 12.9176Z" fill="black"/>
    <path d="M52.58 5.25178H55.137C55.6113 5.2306 56.1062 5.25178 56.5805 5.33648C57.4672 5.54825 58.1477 6.14119 58.1477 7.15766C58.1477 8.13178 57.5497 8.61884 56.6836 8.85178C57.6735 9.04237 58.4158 9.5506 58.4158 10.673C58.4158 12.3882 56.7661 12.7694 55.4876 12.7694H52.6006L52.58 5.25178ZM55.137 8.3859C55.8382 8.3859 56.5599 8.23766 56.5599 7.36943C56.5599 6.5859 55.9 6.37413 55.2401 6.37413H54.1266V8.3859H55.137ZM55.2814 11.6471C56.0237 11.6471 56.7455 11.4777 56.7455 10.5459C56.7455 9.61413 56.1269 9.44472 55.3639 9.44472H54.106V11.6471H55.2814Z" fill="black"/>
    <path d="M62.5401 12.9177C60.1686 12.9177 59.117 11.3718 59.117 9.06354C59.117 6.75531 60.2924 5.08237 62.6226 5.08237C64.0867 5.08237 65.5096 5.76001 65.5508 7.45413H63.9011C63.8186 6.69178 63.3237 6.3106 62.6226 6.3106C61.1791 6.3106 60.746 7.89884 60.746 9.1059C60.746 10.313 61.1791 11.7106 62.5607 11.7106C63.2825 11.7106 63.8186 11.3082 63.9217 10.5459H65.5714C65.4065 12.2824 64.0661 12.9177 62.5401 12.9177Z" fill="black"/>
  </g>
  <defs>
    <clipPath id="clip0_189_39">
      <rect width="65.1429" height="18" fill="white" transform="translate(0.428574)"/>
    </clipPath>
  </defs>
</svg>
