<svg width="54" height="18" viewBox="0 0 54 18" fill="none" xmlns="http://www.w3.org/2000/svg">
<path d="M20.5927 10.3402H21.245V10.689C21.245 12.3246 20.8238 13.304 19.0091 13.304C18.2934 13.304 17.3679 12.9736 17.2117 11.4893C16.5806 12.7029 15.5052 13.3234 13.9978 13.3234C12.121 13.3234 11.0505 12.4761 11.0505 11.0898C11.0505 9.26213 12.9927 8.1418 17.0865 7.60744V6.76467C17.0865 5.24028 16.5991 4.64726 15.1676 4.64726C14.0111 4.64726 13.3987 5.1376 13.288 5.43059C13.339 5.45974 13.4051 5.49289 13.4606 5.5207C13.8078 5.69291 14.3908 5.98114 14.3908 6.58293C14.3908 7.12605 13.869 7.55258 13.2 7.55258H13.1899H13.1802C12.4374 7.55258 11.919 7.05499 11.919 6.34195C11.919 5.07988 13.2512 3.98508 15.3755 3.98508H15.3848H15.3955C16.6516 3.98832 17.8567 4.32817 18.4389 4.91929C19.0862 5.58909 19.1375 6.42748 19.1375 7.54134V11.3502C19.1375 12.4109 19.2969 12.6258 19.6722 12.6258C20.1746 12.6258 20.5927 12.0465 20.5927 10.5486V10.3402ZM26.4045 4.3455H31.2072V4.82957L31.1127 4.84214C29.9436 4.99282 29.1437 5.60547 28.5223 6.82658L24.6494 14.6066C24.5545 14.7981 24.4572 14.9783 24.3572 15.1471C23.55 16.485 22.5812 17.1435 21.4143 17.1435C20.1033 17.1435 19.2226 16.4385 19.2226 15.3888C19.2226 14.546 19.8532 13.9364 20.7234 13.9364C21.5256 13.9364 22.0864 14.4586 22.0864 15.2097C22.0864 15.7089 21.7837 16.0097 21.5837 16.2068C21.5431 16.2478 21.4734 16.3185 21.4479 16.3556C21.4669 16.3674 21.5324 16.4013 21.7376 16.4013C22.4998 16.4013 23.0974 15.8934 23.7186 14.8977C24.0741 14.3359 24.2661 13.9675 24.6698 13.0923C24.6275 13.0022 21.6064 6.53645 21.6064 6.53645C21.1339 5.50641 20.8651 4.86214 19.3566 4.84309L19.2504 4.84214V4.3455H25.0767V4.84023L24.9702 4.84309C23.7596 4.86405 23.4792 4.98216 23.4792 5.36544C23.4792 5.56814 23.5643 5.69844 23.7102 6.02477C23.7102 6.02477 25.6869 10.3108 25.864 10.6928C26.2761 9.83973 27.7666 6.77591 27.7666 6.77591C27.9489 6.40424 28.094 6.01543 28.094 5.65367C28.094 5.04312 27.6168 4.90024 26.5074 4.84214L26.4045 4.83757V4.3455ZM6.40958 7.71755H4.82137V10.3015C4.82137 12.0762 5.06922 12.4105 7.34684 12.4105H7.44818V12.8826H0V12.4115L0.0986792 12.4105C2.218 12.3924 2.46355 12.0381 2.46355 10.3015V2.58166C2.46355 0.844488 2.218 0.489776 0.0986792 0.471107L0 0.469202V0H6.18764C10.7635 0 12.0949 2.24619 12.0949 4.02089C12.0949 6.2387 10.0453 7.71755 6.40958 7.71755ZM40.9724 4.85566H40.565C40.0885 2.07455 39.0048 0.665418 35.3834 0.665418C34.1175 0.665418 34.1323 0.824486 34.1323 2.24905V5.89313H34.2325C36.3107 5.89313 37.1813 5.22638 37.3013 3.18098H37.7351V9.48844H37.2985C37.1461 7.34798 36.3385 6.53835 34.3668 6.53835C34.3668 6.53835 34.1882 6.55074 34.1323 6.55359V10.4192C34.1323 12.0511 34.0026 12.2059 35.5573 12.1981C38.7546 12.1817 40.339 10.9353 40.6614 7.58039H41.1193V12.8826H29.4371V12.4174L29.5335 12.4162C31.5514 12.398 31.7751 12.0419 31.7751 10.304V2.57823C31.7751 0.840297 31.5514 0.484633 29.5335 0.466535L29.4371 0.465011V0H40.9724V4.85566ZM53.8625 12.3711H54V12.8826H47.739V12.3711H48.0133C48.9455 12.3711 49.3396 12.3153 49.3396 12.041C49.3396 11.8438 49.1381 11.5982 48.7887 11.2386C48.7887 11.2386 47.3224 9.73743 46.8117 9.20079C46.0281 9.95726 43.2983 12.5603 42.9605 12.8826H41.8819C42.2467 12.5324 45.4719 9.43663 46.2802 8.65996L46.1123 8.49346C45.6161 7.99073 43.4017 5.76264 43.4006 5.76073C42.8361 5.17704 42.7927 4.87795 41.6579 4.85795L41.5432 4.85566V4.3455H47.0284V4.85795H46.9117C46.588 4.85795 45.7437 4.78594 45.7437 5.03054C45.7437 5.1799 45.8784 5.32125 46.0662 5.51708L46.0807 5.53099C46.0807 5.53099 47.5057 6.98755 47.655 7.13862L47.7834 7.27731L47.8506 7.21158C47.9589 7.10528 49.5274 5.49479 51.5791 3.47396C50.9381 2.91675 50.0612 2.56947 48.9129 2.36068V1.88729H53.656V6.62941H53.1829C52.9799 5.51232 52.644 4.65145 52.1116 4.0148C49.9682 6.12116 48.466 7.66459 48.3604 7.76689L48.2953 7.83109C49.0862 8.64262 51.6288 11.2094 51.6294 11.2115C52.3903 12.0139 52.8682 12.3711 53.8625 12.3711ZM17.0865 9.1204V8.27115C14.4432 8.60128 13.3741 9.49549 13.3741 11.174C13.3741 11.9981 13.8198 12.5393 14.7123 12.5393C16.1723 12.5393 17.0865 11.1852 17.0865 9.1204ZM4.82137 2.02388V7.04699H6.04343C8.70263 7.04699 9.64675 6.21088 9.64675 4.1251C9.64675 1.889 8.80436 0.669609 6.2486 0.669609C4.63811 0.669609 4.82137 0.745047 4.82137 2.02388Z" fill="#20AA5E"/>
</svg>
