<svg width="21" height="20" viewBox="0 0 21 20" fill="none" xmlns="http://www.w3.org/2000/svg">
<g clip-path="url(#clip0_1_540)">
<path d="M15 16H16V12H21V20H9V0H21V8H16V4H15C14.4477 4 14 4.44772 14 5V15C14 15.5523 14.4477 16 15 16Z" fill="#FF0000"/>
<path d="M5 15V12H11V0H2C0.89543 0 0 0.895431 0 2C0 2.03098 0.000704254 2.06179 0.00209763 2.09242L7.26971e-08 17.9995C7.26971e-08 19.104 0.89543 20 2 20L2.0026 20L11 19.9996V13H7V16H6C5.44772 16 5 15.5523 5 15ZM5 5.00937C5 4.45191 5.44386 4 6 4H7V8H5V5.00937Z" fill="#007DF8"/>
<path d="M10.8321 19.9931L10.8387 20H12V13H9V18.0725L9.00134 18.0739C9.03816 19.0882 9.8303 19.9098 10.8321 19.9931ZM12 0V12H9V1.9322L9.00117 1.93098C9.03565 0.91445 9.82871 0.0903477 10.8321 0.00694793L10.8387 0H12Z" fill="#1A1918"/>
</g>
<defs>
<clipPath id="clip0_1_540">
<rect width="21" height="20" fill="white"/>
</clipPath>
</defs>
</svg>
