<svg width="100" height="18" viewBox="0 0 100 18" fill="none" xmlns="http://www.w3.org/2000/svg">
<path d="M13.2 8.1C13.2 7.5 13 6.8 12.7 6.3L9.8 1.3C9.6 0.9 9.4 0.5 9.3 0L9.2 0.2C8.5 1.4 8.5 3 9.2 4.2L11.5 8.2C12.2 9.4 12.2 11 11.5 12.2L11.4 12.4C11.3 12 11.2 11.6 10.9 11.2L8.8 7.6L7.5 5.2C7.2 4.9 7.1 4.5 7 4L6.9 4.2C6.2 5.4 6.2 7 6.9 8.2L9.2 12.2C9.9 13.4 9.9 15 9.2 16.2L9.1 16.4C9 16 8.9 15.6 8.6 15.2L5.7 10.2C5.3 9.5 5.1 8.8 5.2 8C2.1 8.9 0 10.6 0 12.6C0 15.4 4.1 17.6 9.2 17.6C14.3 17.6 18.4 15.4 18.4 12.6C18.4 10.6 16.3 8.9 13.2 8.1ZM21.9 16.6C21.9 16 22 15.4 22.2 14.8C23.2 15.2 24.3 15.5 25.4 15.5C27 15.5 27.9 15 27.9 14C27.9 13 27.2 12.5 25.6 11.8L24.7 11.4C23.1 10.7 22 9.8 22 7.9C22 5.9 23.4 4.7 26.2 4.7C27.3 4.7 28.3 4.9 29.4 5.2C29.4 5.8 29.2 6.4 29.1 7C28.2 6.7 27.2 6.5 26.3 6.5C24.8 6.5 24.1 7.1 24.1 8C24.1 8.9 24.8 9.4 26 9.9L26.9 10.3C29.1 11.2 30.1 12.2 30.1 13.9C30.1 15.9 28.6 17.3 25.7 17.3C24.2 17.3 23 17.1 21.9 16.6ZM39.2 8.3V17H37.4L37.3 16C36.8 16.8 35.8 17.3 34.9 17.2C32.6 17.2 31.1 15.5 31.1 12.6C31.1 9.6 32.7 7.8 35.9 7.8C37 7.8 38.1 8 39.2 8.3ZM37.3 15V9.6C36.8 9.5 36.4 9.5 35.9 9.5C33.9 9.5 33 10.7 33 12.6C33 14.4 33.7 15.6 35.4 15.6C36.1 15.6 36.7 15.4 37.3 15ZM48.9 11.2V17H47V11.5C47 10.1 46.6 9.5 44.7 9.5C44.2 9.5 43.7 9.6 43.2 9.6V17H41.3V8.3C42.4 8 43.6 7.9 44.8 7.8C47.9 7.8 48.9 9.1 48.9 11.2ZM54.2 15.6C54.7 15.6 55.2 15.5 55.7 15.3C55.6 15.8 55.6 16.4 55.5 16.9C55 17.1 54.4 17.2 53.9 17.2C52 17.2 50.9 16.4 50.9 14.2V5.1C51.5 4.9 52.2 4.8 52.8 4.8V8.1H55.8C55.8 8.6 55.7 9.2 55.6 9.7H52.8V13.9C52.7 15.1 53.3 15.6 54.2 15.6ZM64.4 8.3V17H62.6L62.5 16C62 16.8 61 17.3 60.1 17.2C57.8 17.2 56.3 15.5 56.3 12.6C56.3 9.6 57.9 7.8 61.1 7.8C62.2 7.8 63.3 8 64.4 8.3ZM62.5 15V9.6C62 9.5 61.6 9.5 61.1 9.5C59.1 9.5 58.2 10.7 58.2 12.6C58.2 14.4 58.9 15.6 60.6 15.6C61.3 15.6 62 15.4 62.5 15ZM74.1 11.2V17H72.2V11.5C72.2 10.1 71.8 9.5 69.9 9.5C69.4 9.5 68.9 9.6 68.4 9.6V17H66.5V8.3C67.6 8 68.8 7.9 70 7.8C73.1 7.8 74.1 9.1 74.1 11.2ZM83.8 4.9V17H82L81.9 15.9C81.4 16.8 80.4 17.3 79.4 17.2C77.1 17.2 75.6 15.5 75.6 12.6C75.6 9.6 77.2 7.8 80.4 7.8C80.9 7.8 81.4 7.8 81.8 7.9V5.1C82.5 4.9 83.2 4.8 83.8 4.9ZM81.9 15V9.7C81.4 9.6 80.9 9.5 80.4 9.5C78.5 9.5 77.6 10.7 77.6 12.6C77.6 14.4 78.3 15.6 80 15.6C80.7 15.6 81.4 15.4 81.9 15ZM93.4 13.3H87.3C87.5 14.8 88.5 15.6 90.1 15.6C91.1 15.6 92.2 15.4 93.1 14.9C93 15.4 92.9 16.1 92.8 16.7C91.9 17.1 91 17.3 90 17.3C86.8 17.3 85.3 15.5 85.3 12.6C85.3 10 86.5 8 89.5 8C92.2 8 93.4 9.8 93.4 12C93.5 12.3 93.4 12.8 93.4 13.3ZM87.3 11.7H91.6C91.6 10.3 90.8 9.5 89.5 9.5C88.2 9.4 87.4 10.2 87.3 11.7ZM100 7.9C100 8.4 99.9 9 99.8 9.5C99.3 9.4 98.8 9.4 98.4 9.4C97.9 9.4 97.5 9.4 97 9.5V16.9H95.1V8.3C96.2 8 97.3 7.8 98.4 7.8C98.9 7.8 99.5 7.9 100 7.9Z" fill="#FF0000"/>
</svg>
