<svg width="22" height="22" viewBox="0 0 22 22" fill="none" xmlns="http://www.w3.org/2000/svg">
  <g clip-path="url(#clip0_127_14964)">
    <g clip-path="url(#clip1_127_14964)">
      <path d="M22 11.391C22 12.2104 21.705 12.8168 21.2625 13.2594C20.5741 13.9477 19.5088 14.2427 18.3451 14.2427C17.2635 14.2427 16.2965 13.9313 15.5917 13.2594C15.1 12.784 14.6903 12.0793 14.6903 11.2763H16.6079C16.6112 11.4655 16.6538 11.6521 16.7327 11.8241C16.8117 11.9962 16.9254 12.15 17.0668 12.276C17.3946 12.5383 17.7715 12.653 18.3616 12.653C19.0499 12.653 20.0988 12.5054 20.0988 11.5713C20.0988 11.0796 19.771 10.7517 19.2466 10.6698C18.4927 10.5551 17.6404 10.506 16.8865 10.342C15.7229 10.0962 14.9362 9.14562 14.9362 8.06393C14.9275 7.69957 15.0011 7.33794 15.1515 7.00594C15.3019 6.67395 15.5252 6.38013 15.8048 6.14635C16.4276 5.60548 17.329 5.29409 18.3943 5.29409C19.4105 5.29409 20.443 5.62191 21.0659 6.29386C21.5247 6.78557 21.8197 7.42472 21.8197 8.0475H19.8693C19.8628 7.74537 19.7395 7.45753 19.5252 7.24447C19.2794 6.99862 18.8368 6.8511 18.4107 6.8511C18.1157 6.8511 17.837 6.8511 17.5257 6.98218C17.1651 7.1297 16.8701 7.44109 16.8701 7.88362C16.8701 8.49003 17.3946 8.67035 17.8535 8.73589C18.6238 8.83423 18.8368 8.8506 19.6727 8.98174C21.0167 9.19479 22 10.0471 22 11.391ZM14.5743 3.81906V2.18013C14.0477 2.05814 13.5087 1.99763 12.9682 1.99981C11.1325 1.99981 10.0672 3.11431 10.0672 4.68769V5.50715H8.41707V7.63398H10.0672V14.0297H12.116V7.63398H14.1893V5.50715H12.116V4.72049C12.116 4.11408 12.4929 3.68791 13.2305 3.68791C13.6817 3.68521 14.1321 3.72915 14.5743 3.81906ZM5.88383 9.7684C5.88383 8.96531 5.76912 8.16221 5.27742 7.62141C5.10812 7.45007 4.9065 7.31403 4.68425 7.22119C4.46199 7.12834 4.22352 7.08053 3.98264 7.08053C3.74177 7.08053 3.5033 7.12834 3.28104 7.22119C3.05879 7.31403 2.85717 7.45007 2.68787 7.62141C2.19624 8.16221 2.08146 8.96531 2.08146 9.7684C2.08146 10.5715 2.19624 11.3746 2.68787 11.9154C2.85717 12.0867 3.05879 12.2228 3.28104 12.3156C3.5033 12.4085 3.74177 12.4563 3.98264 12.4563C4.22352 12.4563 4.46199 12.4085 4.68425 12.3156C4.9065 12.2228 5.10812 12.0867 5.27742 11.9154C5.76912 11.3746 5.88383 10.5715 5.88383 9.7684ZM7.96529 9.7684C7.96529 11.2107 7.60473 12.1121 6.96551 12.9152C6.37553 13.6363 5.27742 14.2427 3.98268 14.2427C2.68794 14.2427 1.58982 13.6363 0.999778 12.9152C0.384547 12.1422 0.02846 11.2766 0.00253788 9.92681L0 9.92447V2.18011H2.06509V6.01301C2.5587 5.60462 3.17617 5.29409 3.98268 5.29409C5.27742 5.29409 6.37553 5.90051 6.96551 6.62163C7.60473 7.42473 7.96529 8.32616 7.96529 9.7684ZM21.4058 18.5763C21.41 18.3255 21.336 18.0797 21.1941 17.873C21.1136 17.7699 21.0096 17.6877 20.8908 17.633C20.772 17.5784 20.6419 17.553 20.5113 17.5589C19.883 17.5589 19.5758 18.071 19.5622 18.5763H21.4058ZM21.9929 19.0747H19.5485C19.5467 19.3956 19.6662 19.7053 19.883 19.9418C19.9667 20.0237 20.0662 20.0877 20.1753 20.1299C20.2845 20.1722 20.4011 20.1918 20.5181 20.1876C20.7912 20.1876 21.0165 20.1126 21.1599 19.9623C21.2641 19.8604 21.3354 19.7296 21.3647 19.5868H21.9315C21.9054 19.7578 21.8447 19.9217 21.7531 20.0684C21.6615 20.2152 21.541 20.3417 21.3989 20.4403C21.1372 20.6115 20.8308 20.7017 20.5181 20.6998C20.3004 20.7035 20.0846 20.6588 19.8863 20.5691C19.6879 20.4794 19.5119 20.3468 19.3709 20.1809C19.0842 19.8463 18.9408 19.3888 18.9408 18.8972C18.9408 18.4807 19.0159 18.1119 19.207 17.791C19.3408 17.5657 19.5321 17.3799 19.7612 17.2528C19.9904 17.1256 20.2492 17.0616 20.5112 17.0673C20.7079 17.0627 20.9034 17.0998 21.0846 17.1763C21.2659 17.2528 21.4288 17.3669 21.5628 17.5111C21.8554 17.8472 22.0113 18.2809 21.9998 18.7264L21.9929 19.0747ZM18.4697 19.4502C18.4522 19.7824 18.3081 20.0952 18.0669 20.3243C17.8211 20.5632 17.4933 20.6998 17.0699 20.6998C16.4486 20.6998 16.0526 20.413 15.8068 20.0511C15.6224 19.778 15.52 19.4025 15.52 18.8835C15.52 18.3646 15.6225 17.989 15.8068 17.7159C16.0526 17.354 16.4418 17.0672 17.0632 17.0672C17.4268 17.0551 17.7804 17.1877 18.0464 17.436C18.2911 17.6688 18.4377 17.9863 18.4561 18.3236H17.8688C17.8528 18.1205 17.7657 17.9296 17.623 17.7842C17.4703 17.6447 17.27 17.5689 17.0632 17.5725C16.8415 17.5686 16.6267 17.6491 16.4623 17.7978C16.1891 18.03 16.114 18.4602 16.114 18.8836C16.114 19.3069 16.1891 19.737 16.4623 19.9692C16.6267 20.1179 16.8415 20.1985 17.0632 20.1945C17.1716 20.1973 17.2795 20.1781 17.3804 20.1382C17.4813 20.0983 17.5731 20.0385 17.6503 19.9624C17.7834 19.8228 17.8652 19.6423 17.8825 19.4503L18.4697 19.4502ZM14.209 20.611V18.4192C14.209 17.9003 13.9974 17.593 13.4511 17.593C13.1165 17.593 12.8503 17.8116 12.7 18.1257C12.584 18.3782 12.5771 18.7402 12.5771 19.0065V20.6111H11.9968V17.156H12.502L12.5499 17.6749C12.7274 17.2789 13.2053 17.0672 13.5945 17.0672C14.3797 17.0672 14.7894 17.5383 14.7894 18.3372V20.611L14.209 20.611ZM10.365 18.945L9.43634 18.9996C9.08811 19.0201 8.67844 19.1839 8.67844 19.6209C8.67844 19.9282 8.86958 20.215 9.36119 20.215C9.49231 20.2186 9.62281 20.1957 9.74485 20.1475C9.86688 20.0994 9.97794 20.0272 10.0713 19.9351C10.2676 19.7215 10.373 19.4398 10.365 19.1498L10.365 18.945ZM11.2799 20.5768C11.1611 20.6353 11.0298 20.6634 10.8975 20.6588C10.5903 20.6588 10.3991 20.4267 10.3991 20.133H10.3854C10.1874 20.4813 9.75723 20.6998 9.2725 20.6998C8.48042 20.6998 8.08438 20.1672 8.08438 19.6346C8.08438 19.1908 8.37121 18.6104 9.31347 18.5558L10.365 18.4943V18.2417C10.365 18.0709 10.3445 17.8593 10.1874 17.7159C10.0714 17.6067 9.90065 17.5384 9.62073 17.5384C9.30662 17.5384 9.10863 17.6272 8.99251 17.7432C8.9371 17.7973 8.89336 17.8622 8.86401 17.9338C8.83466 18.0054 8.82031 18.0823 8.82186 18.1597H8.2551C8.25517 18.0253 8.28175 17.8921 8.33331 17.768C8.38486 17.6438 8.46039 17.5309 8.55557 17.436C8.78767 17.1902 9.19735 17.0672 9.62073 17.0672C10.2898 17.0672 10.6723 17.354 10.8361 17.7296C10.9067 17.8981 10.9416 18.0795 10.9386 18.2622V19.9351C10.9386 20.1194 11.0136 20.1672 11.1298 20.1672C11.1803 20.1649 11.2306 20.158 11.2799 20.1467L11.2799 20.5768ZM6.8076 20.611V18.4192C6.8076 17.9003 6.59598 17.593 6.04971 17.593C5.71511 17.593 5.44882 17.8116 5.29865 18.1257C5.18254 18.3782 5.17574 18.7402 5.17574 19.0065V20.6111H4.59524V17.156H5.10049L5.14831 17.6749C5.32581 17.2789 5.80379 17.0672 6.19295 17.0672C6.97819 17.0672 7.38786 17.5383 7.38786 18.3372V20.611L6.8076 20.611ZM3.53026 20.611H2.93611V17.156H3.53014L3.53026 20.611ZM3.57122 16.3639H2.89523V15.6811H3.57122V16.3639ZM2.27377 16.1591C2.08407 16.1278 1.89243 16.1096 1.70023 16.1045C1.39297 16.1045 1.20861 16.2956 1.20861 16.5756V17.156H2.20547V17.6476H1.20861V20.611H0.628215V17.6476H0V17.156H0.628215V16.5415C0.628215 16.0226 1.03102 15.6129 1.63193 15.6129C1.84729 15.6141 2.0621 15.6347 2.27377 15.6743V16.1591Z" fill="#031E4B"/>
    </g>
  </g>
  <defs>
    <clipPath id="clip0_127_14964">
      <rect width="22" height="22" fill="white"/>
    </clipPath>
    <clipPath id="clip1_127_14964">
      <rect width="22" height="18.7" fill="white" transform="translate(0 2)"/>
    </clipPath>
  </defs>
</svg>
