<svg width="23" height="21" viewBox="0 0 23 21" fill="none" xmlns="http://www.w3.org/2000/svg">
<mask id="mask0_1_385" style="mask-type:luminance" maskUnits="userSpaceOnUse" x="0" y="0" width="23" height="21">
<path d="M22.6772 0.5H0V20.5H22.6772V0.5Z" fill="white"/>
</mask>
<g mask="url(#mask0_1_385)">
<mask id="mask1_1_385" style="mask-type:luminance" maskUnits="userSpaceOnUse" x="0" y="0" width="23" height="21">
<path d="M22.6772 0.5H0V20.5H22.6772V0.5Z" fill="white"/>
</mask>
<g mask="url(#mask1_1_385)">
<path d="M-0.00439453 1.98498V19.0137C-0.00439453 19.8289 0.662528 20.4958 1.47766 20.4958H11.652C19.3438 20.4958 22.6784 16.1905 22.6784 10.4771C22.6784 4.79346 19.3438 0.50293 11.652 0.50293H1.47766C0.662528 0.50293 -0.00439453 1.16985 -0.00439453 1.98498Z" fill="white"/>
<path d="M11.652 19.1395H2.80411C2.01862 19.1395 1.38135 18.5022 1.38135 17.7167V3.28898C1.38135 2.50349 2.01862 1.86621 2.80411 1.86621H11.652C20.0478 1.86621 21.3001 7.26828 21.3001 10.4844C21.3001 16.0643 17.8691 19.1395 11.652 19.1395ZM1.8556 3.28898V17.7167C1.8556 18.2428 2.27798 18.6653 2.80411 18.6653H11.652C17.5653 18.6653 20.8258 15.7604 20.8258 10.4844C20.8258 3.40013 15.0755 2.34046 11.652 2.34046H2.80411C2.27798 2.34046 1.8556 2.76285 1.8556 3.28898Z" fill="black"/>
<path d="M6.80566 4.68191V17.2645H12.2818C17.2541 17.2645 19.4105 14.456 19.4105 10.4842C19.4105 6.68268 17.2541 3.7334 12.2818 3.7334H7.75417C7.22805 3.7334 6.80566 4.16319 6.80566 4.68191Z" fill="#CC0066"/>
<path d="M8.73217 8.78768C8.92484 8.78768 9.10269 8.81733 9.27312 8.87661C9.44355 8.93589 9.58435 9.03222 9.71032 9.15079C9.82889 9.27676 9.92519 9.43238 9.9993 9.61022C10.066 9.79548 10.103 10.0104 10.103 10.2623C10.103 10.4847 10.0734 10.6847 10.0215 10.87C9.96228 11.0552 9.8808 11.2182 9.7696 11.3516C9.65845 11.4851 9.51766 11.5888 9.34722 11.6703C9.17679 11.7444 8.9767 11.7888 8.74699 11.7888H7.4502V8.78027H8.73217V8.78768ZM8.68772 11.2405C8.78404 11.2405 8.87297 11.2257 8.9693 11.196C9.05823 11.1664 9.13973 11.1145 9.20643 11.0404C9.27312 10.9663 9.3324 10.8774 9.37687 10.7588C9.42133 10.6403 9.44355 10.5069 9.44355 10.3364C9.44355 10.1882 9.42874 10.0474 9.39909 9.92887C9.36946 9.8103 9.31758 9.69915 9.25089 9.61764C9.1842 9.53612 9.09527 9.46203 8.98412 9.41756C8.87297 9.3731 8.73958 9.35086 8.57654 9.35086H8.10229V11.2479H8.68772V11.2405ZM12.7781 8.78768V9.34345H11.1924V9.98815H12.6522V10.4994H11.1924V11.2331H12.8152V11.7888H10.5329V8.78027H12.7781V8.78768ZM16.172 11.7963H15.4829L15.2532 11.1293H14.1269L13.8898 11.7963H13.2228L14.3566 8.78768H15.0457L16.172 11.7963ZM15.0828 10.6328L14.7048 9.52872H14.6974L14.3047 10.6328H15.0828ZM17.2465 8.78768V11.2405H18.7138V11.7963H16.587V8.78768H17.2465Z" fill="white"/>
<path d="M5.3754 17.265C4.21198 17.265 3.27829 16.3239 3.27829 15.1679V13.5302C3.27829 12.9523 3.74514 12.478 4.33054 12.478C4.90854 12.478 5.3828 12.9448 5.3828 13.5302V17.265H5.3754ZM4.33054 11.6777C3.56432 11.6777 2.94482 11.0582 2.94482 10.292C2.94482 9.52575 3.56432 8.90625 4.33054 8.90625C5.09676 8.90625 5.71626 9.52575 5.71626 10.292C5.71626 11.0582 5.09676 11.6777 4.33054 11.6777Z" fill="black"/>
</g>
</g>
</svg>
