<svg width="36" height="24" viewBox="0 0 36 24" fill="none" xmlns="http://www.w3.org/2000/svg">
<g clip-path="url(#clip0_1_322)">
<mask id="mask0_1_322" style="mask-type:luminance" maskUnits="userSpaceOnUse" x="0" y="0" width="36" height="24">
<path d="M0 0.5H36V23.5H0V0.5Z" fill="white"/>
</mask>
<g mask="url(#mask0_1_322)">
<path fill-rule="evenodd" clip-rule="evenodd" d="M32.7749 0.498917H3.21204C3.08889 0.498917 2.96553 0.498917 2.8426 0.499568C2.73882 0.500436 2.63504 0.501521 2.53147 0.504343C2.30541 0.510421 2.07739 0.523662 1.85438 0.563818C1.62745 0.604409 1.4164 0.670831 1.21058 0.775455C1.00802 0.878126 0.822862 1.01249 0.662292 1.17268C0.501505 1.33309 0.366827 1.51759 0.263914 1.71968C0.159044 1.92524 0.0924661 2.13579 0.0519974 2.36219C0.0115286 2.58511 -0.00174338 2.81237 -0.00783545 3.03769C-0.0106639 3.14122 -0.0119694 3.24455 -0.0126221 3.34787C-0.013092 3.47073 -0.013092 3.59358 -0.013092 3.71666V20.2825C-0.013092 20.4056 -0.013092 20.528 -0.0126221 20.6513C-0.0119694 20.7546 -0.0106639 20.8581 -0.00783545 20.9614C-0.00174338 21.1868 0.0115286 21.4138 0.0519974 21.6367C0.0924661 21.8633 0.159044 22.0737 0.263914 22.2792C0.366827 22.4813 0.501505 22.666 0.662292 22.826C0.822862 22.9869 1.00802 23.121 1.21058 23.2235C1.4164 23.3283 1.62745 23.3947 1.85438 23.4355C2.07739 23.4753 2.30541 23.4887 2.53147 23.4948C2.63504 23.4972 2.73882 23.4987 2.8426 23.4991C2.96553 23.5 3.08889 23.5 3.21204 23.5H32.7749C32.8978 23.5 33.0212 23.5 33.1441 23.4991C33.2477 23.4987 33.3515 23.4972 33.4555 23.4948C33.6811 23.4887 33.9089 23.4753 34.1328 23.4355C34.3593 23.3947 34.5703 23.3283 34.7761 23.2235C34.9789 23.121 35.1636 22.9869 35.3246 22.826C35.485 22.666 35.6195 22.4813 35.7228 22.2792C35.8277 22.0737 35.8945 21.8633 35.9349 21.6367C35.9752 21.4138 35.9882 21.1868 35.9943 20.9614C35.9972 20.8581 35.9987 20.7546 35.9991 20.6513C36 20.528 36 20.4056 36 20.2825V3.71666C36 3.59358 36 3.47073 35.9991 3.34787C35.9987 3.24455 35.9972 3.14122 35.9943 3.03769C35.9882 2.81237 35.9752 2.58511 35.9349 2.36219C35.8945 2.13579 35.8277 1.92524 35.7228 1.71968C35.6195 1.51759 35.485 1.33309 35.3246 1.17268C35.1636 1.01249 34.9789 0.878126 34.7761 0.775455C34.5703 0.670831 34.3593 0.604409 34.1328 0.563818C33.9089 0.523662 33.6811 0.510421 33.4555 0.504343C33.3515 0.501521 33.2477 0.500436 33.1441 0.499568C33.0212 0.498917 32.8978 0.498917 32.7749 0.498917Z" fill="#000003"/>
</g>
<path fill-rule="evenodd" clip-rule="evenodd" d="M32.7749 1.26558L33.1385 1.26623C33.237 1.26688 33.3356 1.26797 33.4346 1.27079C33.6069 1.27535 33.8086 1.28468 33.9966 1.31833C34.1597 1.34763 34.2968 1.39234 34.4282 1.45898C34.5581 1.52475 34.6769 1.61093 34.7807 1.71447C34.8849 1.81866 34.9715 1.93739 35.0383 2.06828C35.1049 2.19852 35.1493 2.3344 35.1786 2.4985C35.2121 2.68409 35.2213 2.88574 35.2263 3.05852C35.2289 3.15642 35.23 3.25388 35.2306 3.35394C35.2315 3.47463 35.2315 3.59553 35.2315 3.71666V20.2825C35.2315 20.4036 35.2315 20.5243 35.2304 20.6476C35.23 20.7453 35.2289 20.8429 35.2263 20.9408C35.2213 21.1136 35.2121 21.3148 35.1782 21.5026C35.1493 21.6645 35.1049 21.8006 35.0381 21.9313C34.9713 22.062 34.8849 22.1807 34.7811 22.284C34.6767 22.3882 34.5583 22.4742 34.4269 22.5406C34.2964 22.607 34.1597 22.6517 33.9979 22.6806C33.8062 22.7149 33.5964 22.7242 33.4381 22.7283C33.3386 22.7307 33.2396 22.732 33.138 22.7325C33.0173 22.7335 32.8959 22.7335 32.7749 22.7335H3.21203H3.20724C3.08779 22.7335 2.96791 22.7335 2.84629 22.7325C2.74707 22.732 2.64786 22.7307 2.55213 22.7286C2.39047 22.7242 2.18029 22.7149 1.99013 22.6808C1.82717 22.6517 1.69032 22.607 1.55803 22.5397C1.42814 22.4739 1.30956 22.3882 1.20513 22.2836C1.10156 22.1805 1.0154 22.0622 0.948825 21.9313C0.88203 21.8008 0.837427 21.6643 0.808055 21.5004C0.774331 21.3133 0.764975 21.1125 0.760406 20.9408C0.757577 20.8427 0.756489 20.7444 0.755837 20.6467L0.755402 20.3587V3.64047L0.755837 3.35286C0.756489 3.25474 0.757577 3.15663 0.760406 3.0583C0.764975 2.88661 0.774331 2.68582 0.80849 2.49698C0.837427 2.33461 0.88203 2.1983 0.949042 2.06698C1.01518 1.93717 1.10156 1.81866 1.20578 1.71468C1.30956 1.61114 1.42836 1.52497 1.55912 1.45877C1.68988 1.39234 1.82695 1.34763 1.99013 1.31833C2.17812 1.28468 2.37981 1.27535 2.55256 1.27079C2.65091 1.26797 2.74947 1.26688 2.84716 1.26623L3.21203 1.26558H32.7749Z" fill="#FFFFFE"/>
<path fill-rule="evenodd" clip-rule="evenodd" d="M9.81825 8.23504C10.1268 7.8504 10.3359 7.33379 10.2808 6.80589C9.82934 6.82825 9.27845 7.10284 8.95948 7.48791C8.67316 7.81762 8.4199 8.35594 8.48583 8.86191C8.99255 8.90554 9.49885 8.60925 9.81825 8.23504ZM10.2749 8.96046C9.5391 8.91683 8.91336 9.37722 8.56198 9.37722C8.21038 9.37722 7.67232 8.9826 7.09031 8.99324C6.33271 9.00431 5.62973 9.4317 5.2455 10.1113C4.45462 11.4708 5.03663 13.4877 5.80575 14.595C6.17889 15.1429 6.62905 15.7459 7.22194 15.7244C7.78219 15.7024 8.00172 15.3625 8.68273 15.3625C9.3633 15.3625 9.56108 15.7244 10.1542 15.7135C10.7693 15.7024 11.1537 15.1652 11.5271 14.6169C11.9555 13.9924 12.1306 13.3894 12.1417 13.3562C12.1306 13.3451 10.9559 12.8956 10.9451 11.5474C10.9337 10.4185 11.8674 9.88146 11.9113 9.84825C11.3841 9.07029 10.5606 8.9826 10.2749 8.96046ZM14.8714 11.7751H16.3394C17.4534 11.7751 18.0871 11.1769 18.0871 10.1398C18.0871 9.10264 17.4534 8.50984 16.345 8.50984H14.8714V11.7751ZM16.6823 7.43277C18.2817 7.43277 19.3952 8.53263 19.3952 10.1339C19.3952 11.741 18.2586 12.8468 16.642 12.8468H14.8714V15.656H13.5919V7.43277H16.6823ZM23.6081 13.4107V12.9379L22.1288 13.0291C21.3919 13.0803 20.9748 13.405 20.9748 13.918C20.9748 14.4422 21.4091 14.784 22.0716 14.784C22.934 14.784 23.6081 14.1915 23.6081 13.4107ZM19.7296 13.952C19.7296 12.9034 20.5349 12.2596 21.9632 12.1797L23.6081 12.0829V11.6214C23.6081 10.9546 23.1568 10.5559 22.4029 10.5559C21.6889 10.5559 21.2433 10.8975 21.1347 11.4332H19.9696C20.0381 10.3505 20.9635 9.55261 22.4486 9.55261C23.9053 9.55261 24.8363 10.3221 24.8363 11.5244V15.656H23.6538V14.6701H23.6255C23.2769 15.3369 22.5172 15.7587 21.7289 15.7587C20.5523 15.7587 19.7296 15.0291 19.7296 13.952ZM25.9527 17.8616V16.8642C26.0438 16.887 26.2494 16.887 26.3523 16.887C26.9235 16.887 27.232 16.6475 27.4204 16.0322C27.4204 16.0209 27.529 15.6675 27.529 15.6616L25.3585 9.66092H26.695L28.2146 14.5392H28.2374L29.7569 9.66092H31.0593L28.8085 15.9694C28.2944 17.4229 27.7004 17.89 26.4553 17.89C26.3523 17.89 26.0438 17.8785 25.9527 17.8616Z" fill="#000003"/>
</g>
<defs>
<clipPath id="clip0_1_322">
<rect width="36" height="23" fill="white" transform="translate(0 0.5)"/>
</clipPath>
</defs>
</svg>
