<svg width="75" height="14" viewBox="0 0 75 14" fill="none" xmlns="http://www.w3.org/2000/svg">
<g clip-path="url(#clip0_1_34)">
<path d="M20.4272 8.4H19.2256V12.6H17.3231V1.4H20.6275C22.9306 1.4 24.733 2.5 24.733 4.8C24.8331 7.1 23.1308 8.4 20.4272 8.4ZM20.5274 2.9H19.3258V6.9H20.5274C22.2296 6.9 22.9306 6.2 22.9306 4.9C22.9306 3.7 22.2296 2.9 20.5274 2.9ZM26.235 12.6H24.3324L28.5381 1.5H30.3405L34.6462 12.6H32.5434L31.6422 10.2H26.9359L26.235 12.6ZM38.3511 8.4V12.6H36.4486V8.4L32.7437 1.4H34.8465L37.5501 6.6L40.1535 1.4H41.9559L38.3511 8.4ZM47.5634 12.6L45.2603 6.1C44.9599 5.3 44.7597 4.5 44.7597 4.5C44.7597 4.5 44.6595 5.4 44.5594 6.1L43.7583 12.5H42.0561L43.5581 1.4H45.3605L47.8638 8.6C48.1642 9.5 48.4646 10.6 48.4646 10.6C48.4646 10.6 48.765 9.5 49.0654 8.6L51.5688 1.4H53.3712L54.8732 12.5H52.9706L52.1696 6.1C52.0694 5.3 51.9693 4.5 51.9693 4.5C51.9693 4.5 51.769 5.3 51.4686 6.1L49.2657 12.6H47.5634ZM56.7757 12.6V1.4H58.6782V12.6H56.7757ZM60.6809 12.6V1.4H62.5834V11.1H66.8892V12.6H60.6809ZM68.8919 12.6V1.4H70.6943V11.1H75V12.6H68.8919ZM7.91055 4C7.91055 3.8 7.71028 3.6 7.51001 3.6H5.30708C4.90654 3.5 4.60614 3.7 4.50601 4L0 13.4V13.6C0 13.8 0.200267 14 0.400534 14H2.60347C3.00401 14 3.30441 13.7 3.40454 13.4C3.50467 13.1 7.91055 4.1 7.91055 4.1V4ZM13.2176 5.3V5.1L11.1148 0.6C11.0147 0.3 10.7143 0 10.3138 0H8.11081C7.81041 0 7.61015 0.2 7.61015 0.5V0.7L9.71295 5.1C9.71295 5.1 9.81308 5.2 9.81308 5.3C9.81308 5.4 9.81308 5.4 9.71295 5.5L7.71028 9.9V10.1C7.71028 10.3 7.91055 10.5 8.11081 10.5H10.3138C10.7143 10.5 11.0147 10.2 11.1148 9.9L13.2176 5.4V5.3ZM30.1402 5.5C29.8398 4.6 29.5394 3.6 29.5394 3.6C29.5394 3.6 29.239 4.6 28.9386 5.5C28.9386 5.5 27.8371 8.7 27.737 8.7H31.3418L30.1402 5.5Z" fill="#FF5A00"/>
</g>
<defs>
<clipPath id="clip0_1_34">
<rect width="75" height="14" fill="white"/>
</clipPath>
</defs>
</svg>
