<svg width="131" height="21" viewBox="0 0 131 21" fill="none" xmlns="http://www.w3.org/2000/svg">
<path d="M3.11719 11.8867C3.84766 11.8867 4.51562 11.7969 5.12109 11.6172C5.72266 11.4375 6.23828 11.1602 6.66797 10.7891C7.09375 10.418 7.42578 9.95703 7.66016 9.40234C7.89063 8.84766 8.00781 8.19531 8.00781 7.44531C8.00781 6.67578 7.89063 6.01563 7.66016 5.46094C7.42578 4.90625 7.09375 4.44922 6.66797 4.08594C6.23828 3.72266 5.72656 3.45312 5.125 3.28516C4.52734 3.11328 3.86719 3.02734 3.14062 3.02734C2.79297 3.02734 2.39453 3.03906 1.94531 3.06641C1.49609 3.08984 1.07031 3.14844 0.671875 3.23828V11.6602C1.07031 11.75 1.49219 11.8125 1.93359 11.8398C2.375 11.8711 2.76953 11.8867 3.11719 11.8867ZM3.21875 10.5078C2.96094 10.5078 2.75391 10.5078 2.60547 10.5039C2.45703 10.5 2.33594 10.4922 2.24609 10.4844V4.42969C2.44531 4.40234 2.77734 4.39062 3.24219 4.39062C4.30859 4.39062 5.09375 4.65234 5.60156 5.17969C6.10938 5.70313 6.36328 6.46094 6.36328 7.44531C6.36328 8.41016 6.10156 9.16406 5.58203 9.70312C5.0625 10.2383 4.27344 10.5078 3.21875 10.5078ZM11.3008 11.7852V3.11328H9.73047V11.7852H11.3008ZM14.9453 11.7852V8.50781H15.9414C16.0273 8.50781 16.125 8.50391 16.2422 8.49609C16.4023 8.69531 16.5703 8.92187 16.7539 9.17578C16.9375 9.42969 17.1211 9.70312 17.3086 9.98828C17.4961 10.2773 17.6797 10.5742 17.8633 10.8789C18.0469 11.1836 18.2188 11.4844 18.375 11.7852H20.1367C19.9844 11.4609 19.8164 11.1289 19.625 10.7891C19.4336 10.4531 19.2344 10.125 19.0234 9.80078C18.8164 9.48047 18.6133 9.18359 18.4141 8.90625C18.2148 8.63281 18.0352 8.39844 17.875 8.20703C19.0312 7.78906 19.6094 6.99219 19.6094 5.81641C19.6094 4.875 19.2812 4.17578 18.6211 3.71484C17.957 3.25781 17.0039 3.02734 15.7578 3.02734C15.4141 3.02734 15.0273 3.04297 14.5938 3.07031C14.1641 3.10156 13.7539 3.15625 13.3711 3.23828V11.7852H14.9453ZM15.6328 7.23047H14.9453V4.42969C15.2266 4.40234 15.5352 4.39062 15.8672 4.39062C16.1758 4.39062 16.457 4.41406 16.7148 4.46094C16.9727 4.50781 17.1953 4.58203 17.3828 4.69141C17.5703 4.80078 17.7148 4.94531 17.8164 5.12891C17.9141 5.3125 17.9648 5.53906 17.9648 5.80469C17.9648 6.08984 17.9141 6.32031 17.8164 6.50391C17.7148 6.6875 17.5664 6.83594 17.3711 6.94531C17.1758 7.05078 16.9336 7.125 16.6406 7.16797C16.3516 7.21094 16.0156 7.23047 15.6328 7.23047ZM27.2109 11.7852V10.4453H22.9297V7.90625H26.4727V6.59375H22.9297V4.45312H26.9102V3.11328H21.3594V11.7852H27.2109ZM30.2422 11.7852V7.89453C30.5664 8.12109 30.8945 8.38672 31.2266 8.69531C31.5586 9.00391 31.8828 9.32812 32.1914 9.67188C32.5039 10.0117 32.8008 10.3672 33.0859 10.7344C33.3672 11.1016 33.6172 11.4531 33.832 11.7852H35.6914C35.4258 11.3516 35.1328 10.9141 34.8125 10.4766C34.4922 10.0391 34.1602 9.61719 33.8086 9.21484C33.4609 8.80859 33.1055 8.42969 32.7422 8.07422C32.3789 7.72266 32.0234 7.41016 31.6758 7.14453C31.9922 6.83594 32.3125 6.50781 32.6406 6.16797C32.9727 5.82422 33.2969 5.48047 33.6211 5.13672C33.9453 4.78906 34.2617 4.44531 34.5703 4.10156C34.8789 3.76172 35.168 3.43359 35.4453 3.11328H33.5586C33.3437 3.35547 33.1016 3.62891 32.8359 3.92969C32.5703 4.23047 32.2891 4.53906 31.9922 4.85938C31.6992 5.17969 31.4023 5.5 31.1016 5.8125C30.8008 6.125 30.5156 6.41797 30.2422 6.69141V3.11328H28.668V11.7852H30.2422ZM40.1602 11.7852V4.48047H42.8164V3.11328H35.918V4.48047H38.5742V11.7852H40.1602ZM46.0742 2.1875C46.2969 2.1875 46.4961 2.11328 46.6641 1.96484C46.8359 1.8125 46.9219 1.60937 46.9219 1.35156C46.9219 1.09375 46.8359 0.886719 46.6641 0.730469C46.4961 0.578125 46.2969 0.5 46.0742 0.5C45.8477 0.5 45.6523 0.578125 45.4883 0.730469C45.3203 0.886719 45.2383 1.09375 45.2383 1.35156C45.2383 1.60937 45.3203 1.8125 45.4883 1.96484C45.6523 2.11328 45.8477 2.1875 46.0742 2.1875ZM48.6562 2.1875C48.8789 2.1875 49.0742 2.11328 49.2422 1.96484C49.4102 1.8125 49.4922 1.60937 49.4922 1.35156C49.4922 1.09375 49.4102 0.886719 49.2422 0.730469C49.0742 0.578125 48.8789 0.5 48.6562 0.5C48.4297 0.5 48.2344 0.578125 48.0625 0.730469C47.8906 0.886719 47.8086 1.09375 47.8086 1.35156C47.8086 1.60937 47.8906 1.8125 48.0625 1.96484C48.2344 2.11328 48.4297 2.1875 48.6562 2.1875ZM47.3438 11.9727C47.9375 11.9727 48.4492 11.8867 48.8789 11.7148C49.3125 11.5469 49.668 11.3047 49.9453 10.9961C50.2266 10.6875 50.4336 10.3242 50.5703 9.91016C50.707 9.49219 50.7773 9.03125 50.7773 8.53125V3.11328H49.1914V8.38281C49.1914 8.77344 49.1484 9.10938 49.0625 9.39062C48.9727 9.66797 48.8477 9.89453 48.6875 10.0703C48.5234 10.2461 48.332 10.375 48.1055 10.457C47.8828 10.543 47.6328 10.582 47.3594 10.582C47.082 10.582 46.8359 10.543 46.6172 10.457C46.3945 10.375 46.2031 10.2461 46.043 10.0703C45.8789 9.89453 45.7539 9.66797 45.668 9.39062C45.582 9.10938 45.5352 8.77344 45.5352 8.38281V3.11328H43.9531V8.53125C43.9531 9.03125 44.0195 9.49219 44.1523 9.91016C44.2852 10.3242 44.4922 10.6875 44.7695 10.9961C45.0469 11.3047 45.3984 11.5469 45.8242 11.7148C46.2461 11.8867 46.7539 11.9727 47.3438 11.9727ZM55.3945 11.8867C56.7305 11.8867 57.7266 11.6602 58.375 11.2148C59.0234 10.7695 59.3477 10.1016 59.3477 9.20703C59.3477 8.68359 59.2227 8.25 58.9727 7.90625C58.7227 7.56641 58.3359 7.30469 57.8125 7.13281C58.1641 6.95703 58.4336 6.72266 58.6289 6.42969C58.8242 6.13672 58.9219 5.78906 58.9219 5.37891C58.9219 4.9375 58.832 4.56641 58.6484 4.26562C58.4648 3.96484 58.2109 3.72266 57.8828 3.53906C57.5547 3.35547 57.1641 3.22656 56.7148 3.14453C56.2656 3.06641 55.7812 3.02734 55.2539 3.02734C55.0625 3.02734 54.8633 3.03125 54.6523 3.03906C54.4375 3.04687 54.2227 3.0625 54.0078 3.07812C53.793 3.09375 53.5781 3.11719 53.3711 3.14453C53.1641 3.17578 52.9687 3.20703 52.7852 3.23828V11.6602C53.1328 11.75 53.543 11.8125 54.0078 11.8398C54.4727 11.8711 54.9336 11.8867 55.3945 11.8867ZM55.4414 6.64453H54.332V4.36719C54.4648 4.34766 54.625 4.33594 54.8125 4.32812C55 4.32031 55.2148 4.31641 55.457 4.31641C56.0195 4.31641 56.4805 4.40234 56.832 4.57812C57.1875 4.75391 57.3633 5.05078 57.3633 5.46875C57.3633 5.91016 57.1953 6.21484 56.8516 6.38672C56.5117 6.55859 56.043 6.64453 55.4414 6.64453ZM55.4414 10.5703C55.2773 10.5703 55.0938 10.5664 54.8945 10.5586C54.6953 10.5508 54.5078 10.5391 54.332 10.5195V7.88281H55.7188C56.3477 7.88281 56.8438 7.97656 57.2031 8.16797C57.5586 8.35937 57.7383 8.70312 57.7383 9.19531C57.7383 9.46875 57.6797 9.69531 57.5586 9.87109C57.4375 10.0469 57.2734 10.1875 57.0703 10.2891C56.8672 10.3945 56.625 10.4687 56.3477 10.5078C56.0703 10.5508 55.7656 10.5703 55.4414 10.5703ZM66.832 11.7852V10.4453H62.5547V7.90625H66.0977V6.59375H62.5547V4.45312H66.5352V3.11328H60.9805V11.7852H66.832ZM69.8633 11.7852V8.50781H70.8633C70.9453 8.50781 71.0469 8.50391 71.1641 8.49609C71.3203 8.69531 71.4922 8.92187 71.6758 9.17578C71.8555 9.42969 72.043 9.70312 72.2305 9.98828C72.418 10.2773 72.6016 10.5742 72.7852 10.8789C72.9687 11.1836 73.1367 11.4844 73.2969 11.7852H75.0547C74.9062 11.4609 74.7344 11.1289 74.543 10.7891C74.3516 10.4531 74.1523 10.125 73.9453 9.80078C73.7383 9.48047 73.5313 9.18359 73.332 8.90625C73.1328 8.63281 72.957 8.39844 72.7969 8.20703C73.9531 7.78906 74.5312 6.99219 74.5312 5.81641C74.5312 4.875 74.1992 4.17578 73.5391 3.71484C72.8789 3.25781 71.9219 3.02734 70.6758 3.02734C70.3359 3.02734 69.9492 3.04297 69.5156 3.07031C69.082 3.10156 68.6758 3.15625 68.293 3.23828V11.7852H69.8633ZM70.5508 7.23047H69.8633V4.42969C70.1484 4.40234 70.457 4.39062 70.7891 4.39062C71.0977 4.39062 71.3789 4.41406 71.6367 4.46094C71.8945 4.50781 72.1172 4.58203 72.3047 4.69141C72.4922 4.80078 72.6367 4.94531 72.7344 5.12891C72.8359 5.3125 72.8828 5.53906 72.8828 5.80469C72.8828 6.08984 72.8359 6.32031 72.7344 6.50391C72.6367 6.6875 72.4883 6.83594 72.293 6.94531C72.0977 7.05078 71.8516 7.125 71.5625 7.16797C71.2695 7.21094 70.9336 7.23047 70.5508 7.23047ZM79.2227 11.7852C79.5391 10.9336 79.8555 10.0547 80.1719 9.14453C80.4883 8.23437 80.7969 7.27734 81.1055 6.26953C81.7148 8.26172 82.3398 10.1016 82.9883 11.7852H84.4883C84.9297 10.4688 85.3281 9.08594 85.6836 7.63672C86.043 6.19141 86.3672 4.68359 86.6562 3.11328H85.0352C84.9375 3.69141 84.832 4.27344 84.7188 4.86719C84.6055 5.45703 84.4922 6.03906 84.375 6.61328C84.2578 7.18359 84.1406 7.73437 84.0273 8.26172C83.9102 8.79297 83.7891 9.28125 83.6641 9.73438C83.5156 9.31641 83.3594 8.87109 83.1953 8.40234C83.0352 7.92969 82.8711 7.44922 82.7109 6.96094C82.5469 6.47266 82.3906 5.98438 82.2422 5.5C82.0937 5.01172 81.9492 4.54297 81.8164 4.08984H80.4688C80.3438 4.54297 80.2109 5.00781 80.0664 5.49219C79.918 5.97656 79.7656 6.46094 79.6094 6.94922C79.4492 7.4375 79.2891 7.91797 79.1289 8.38672C78.9648 8.85937 78.8047 9.30859 78.6484 9.73438C78.5234 9.28125 78.3984 8.78906 78.2734 8.25781C78.1484 7.72266 78.0273 7.17188 77.9062 6.59766C77.7852 6.02734 77.668 5.44531 77.5586 4.85547C77.4453 4.26172 77.3398 3.68359 77.2383 3.11328H75.5547C75.8437 4.68359 76.168 6.19141 76.5195 7.63672C76.875 9.08594 77.2773 10.4688 77.7266 11.7852H79.2227ZM93.832 11.7852V10.4453H89.5508V7.90625H93.0977V6.59375H89.5508V4.45312H93.5312V3.11328H87.9805V11.7852H93.832ZM96.8633 11.7852V3.11328H95.293V11.7852H96.8633ZM101.031 11.9727C102.094 11.9727 102.902 11.7578 103.457 11.3281C104.012 10.8984 104.285 10.293 104.285 9.50781C104.285 9.09766 104.23 8.75 104.113 8.46484C103.996 8.17578 103.828 7.92578 103.605 7.71094C103.387 7.5 103.117 7.31641 102.797 7.16406C102.477 7.00781 102.113 6.85547 101.703 6.70703C101.473 6.62109 101.258 6.53516 101.062 6.44141C100.867 6.35156 100.695 6.25 100.551 6.14453C100.406 6.03516 100.293 5.91016 100.215 5.77344C100.133 5.63672 100.094 5.47266 100.094 5.28125C100.094 4.96094 100.215 4.71484 100.449 4.54297C100.687 4.36719 101.02 4.27734 101.441 4.27734C101.801 4.27734 102.148 4.32031 102.484 4.40234C102.82 4.48828 103.133 4.60938 103.414 4.76562L103.898 3.49219C103.66 3.34766 103.328 3.21875 102.91 3.09766C102.488 2.97656 102.008 2.91406 101.469 2.91406C100.535 2.91406 99.8008 3.13672 99.2578 3.58594C98.7187 4.03125 98.4492 4.64453 98.4492 5.42969C98.4492 5.80469 98.5117 6.125 98.6406 6.39453C98.7695 6.66016 98.9414 6.89063 99.1523 7.08203C99.3633 7.27344 99.6094 7.43359 99.8906 7.5625C100.168 7.69141 100.457 7.8125 100.758 7.91797C101.055 8.01953 101.32 8.12109 101.555 8.22656C101.789 8.32812 101.984 8.44141 102.148 8.5625C102.309 8.68359 102.434 8.82031 102.523 8.96875C102.609 9.12109 102.652 9.30078 102.652 9.50781C102.652 9.85937 102.523 10.1289 102.266 10.3203C102.008 10.5117 101.598 10.6094 101.031 10.6094C100.488 10.6094 100.027 10.5469 99.6445 10.4219C99.2617 10.2969 98.9609 10.1719 98.7344 10.0469L98.2734 11.3359C98.375 11.3945 98.5078 11.457 98.6719 11.5273C98.8398 11.5977 99.0352 11.668 99.2656 11.7344C99.4922 11.8008 99.7578 11.8594 100.051 11.9023C100.348 11.9492 100.672 11.9727 101.031 11.9727ZM109.004 11.9727C109.594 11.9727 110.105 11.8867 110.539 11.7148C110.969 11.5469 111.324 11.3047 111.605 10.9961C111.883 10.6875 112.09 10.3242 112.227 9.91016C112.367 9.49219 112.434 9.03125 112.434 8.53125V3.11328H110.848V8.38281C110.848 8.77344 110.805 9.10938 110.719 9.39062C110.633 9.66797 110.508 9.89453 110.344 10.0703C110.184 10.2461 109.988 10.375 109.766 10.457C109.539 10.543 109.289 10.582 109.016 10.582C108.742 10.582 108.492 10.543 108.273 10.457C108.055 10.375 107.863 10.2461 107.699 10.0703C107.535 9.89453 107.414 9.66797 107.324 9.39062C107.238 9.10938 107.195 8.77344 107.195 8.38281V3.11328H105.609V8.53125C105.609 9.03125 105.676 9.49219 105.809 9.91016C105.941 10.3242 106.148 10.6875 106.426 10.9961C106.707 11.3047 107.059 11.5469 107.48 11.7148C107.906 11.8867 108.414 11.9727 109.004 11.9727ZM115.988 11.7852V5.57812C116.34 5.99609 116.707 6.46484 117.094 6.98828C117.48 7.50781 117.859 8.04687 118.234 8.60156C118.609 9.15625 118.973 9.70703 119.32 10.2539C119.672 10.7969 119.984 11.3086 120.27 11.7852H121.605V3.11328H120.043V8.87109C119.762 8.41797 119.438 7.93359 119.078 7.41406C118.715 6.89063 118.34 6.37109 117.953 5.85547C117.566 5.33594 117.184 4.83984 116.801 4.35937C116.418 3.87891 116.059 3.46484 115.727 3.11328H114.441V11.7852H115.988ZM127.492 11.9609C128.168 11.9609 128.762 11.9102 129.277 11.8086C129.793 11.7109 130.16 11.6172 130.375 11.5352V7.36719H128.801V10.4844C128.688 10.5156 128.527 10.543 128.328 10.5664C128.129 10.5859 127.891 10.5977 127.617 10.5977C127.176 10.5977 126.793 10.5195 126.465 10.3633C126.137 10.2109 125.859 9.99609 125.641 9.72266C125.418 9.44531 125.254 9.11328 125.141 8.72656C125.027 8.33984 124.973 7.91016 124.973 7.44531C124.973 6.46094 125.207 5.69141 125.676 5.13672C126.148 4.58203 126.828 4.30469 127.719 4.30469C128.125 4.30469 128.516 4.35547 128.883 4.46094C129.254 4.5625 129.562 4.69141 129.812 4.83984L130.289 3.55469C130.23 3.51953 130.129 3.46484 129.98 3.39062C129.836 3.31641 129.652 3.24609 129.426 3.17578C129.203 3.10938 128.934 3.05078 128.621 2.99609C128.309 2.94141 127.953 2.91406 127.555 2.91406C126.973 2.91406 126.426 3.01562 125.91 3.21484C125.391 3.41406 124.945 3.71094 124.562 4.09766C124.18 4.48437 123.875 4.95703 123.656 5.51562C123.438 6.07422 123.324 6.71875 123.324 7.44531C123.324 8.16797 123.426 8.8125 123.625 9.37109C123.824 9.92969 124.105 10.4023 124.469 10.7852C124.828 11.168 125.27 11.4609 125.785 11.6602C126.301 11.8594 126.867 11.9609 127.492 11.9609Z" fill="#676D6D"/>
<path d="M1.86719 20.8086C2.125 20.8086 2.35547 20.7812 2.55469 20.7344C2.75781 20.6875 2.89844 20.6406 2.98047 20.6016L2.88672 20.043C2.80859 20.082 2.6875 20.1211 2.52734 20.1602C2.36719 20.1992 2.17187 20.2227 1.94141 20.2227C1.52734 20.2227 1.22266 20.1211 1.02734 19.9219C0.832031 19.7188 0.71875 19.4258 0.691407 19.043H3.23047C3.23437 19.0039 3.23828 18.9609 3.23828 18.918V18.8047C3.23828 18.168 3.10547 17.6914 2.83594 17.3789C2.57031 17.0664 2.1875 16.9102 1.69141 16.9102C1.47656 16.9102 1.26562 16.9531 1.0625 17.0312C0.859375 17.1133 0.675781 17.2344 0.519531 17.3984C0.363281 17.5586 0.238281 17.7617 0.144531 18.0078C0.046875 18.2539 0 18.5391 0 18.8711C0 19.1523 0.039063 19.4102 0.109375 19.6445C0.183594 19.8828 0.296875 20.0859 0.449219 20.2578C0.601563 20.4297 0.796875 20.5625 1.03125 20.6602C1.26562 20.7578 1.54687 20.8086 1.86719 20.8086ZM2.54688 18.5039H0.707031C0.71875 18.375 0.75 18.25 0.796875 18.125C0.839844 18.0039 0.902344 17.8906 0.984375 17.7969C1.06641 17.7031 1.16406 17.625 1.28125 17.5664C1.39453 17.5039 1.53125 17.4766 1.68359 17.4766C1.95312 17.4766 2.16797 17.5703 2.32031 17.7656C2.47656 17.957 2.55078 18.2031 2.54688 18.5039ZM4.51953 16.332C4.64063 16.332 4.73828 16.293 4.82422 16.2148C4.90625 16.1367 4.94922 16.0273 4.94922 15.8945C4.94922 15.7617 4.90625 15.6562 4.82422 15.5781C4.73828 15.5 4.64063 15.4609 4.51953 15.4609C4.40234 15.4609 4.30078 15.5 4.21875 15.5781C4.13281 15.6562 4.09375 15.7617 4.09375 15.8945C4.09375 16.0273 4.13281 16.1367 4.21875 16.2148C4.30078 16.293 4.40234 16.332 4.51953 16.332ZM4.85547 20.7227V17.0039H4.19141V20.7227H4.85547ZM6.66016 20.7227V17.582C6.68359 17.5781 6.72266 17.5703 6.77734 17.5625C6.83203 17.5508 6.89453 17.543 6.96094 17.5352C7.03125 17.5273 7.10156 17.5234 7.17969 17.5195C7.25391 17.5117 7.32812 17.5117 7.40234 17.5117C7.57812 17.5117 7.72266 17.5352 7.84375 17.5781C7.96094 17.625 8.05469 17.6953 8.12891 17.7969C8.19922 17.8984 8.25 18.0273 8.28125 18.1914C8.3125 18.3516 8.32812 18.5469 8.32812 18.7773V20.7227H8.99219V18.6328C8.99219 18.3828 8.96484 18.1484 8.91797 17.9414C8.87109 17.7305 8.78906 17.5508 8.67188 17.4023C8.55469 17.25 8.40234 17.1328 8.20703 17.0508C8.01172 16.9648 7.76563 16.9258 7.47266 16.9258C7.14453 16.9258 6.85547 16.9453 6.60156 16.9883C6.35156 17.0313 6.14844 17.0742 5.99609 17.1094V20.7227H6.66016ZM12.9258 20.8281C13.5 20.8281 13.9453 20.7109 14.2617 20.4766C14.5781 20.2461 14.7383 19.9102 14.7383 19.4766C14.7383 19.2422 14.6992 19.043 14.6289 18.8789C14.5586 18.7148 14.457 18.5742 14.3281 18.4531C14.1953 18.3359 14.043 18.2344 13.8633 18.1484C13.6836 18.0625 13.4883 17.9766 13.2734 17.8906C13.1211 17.832 12.9844 17.7773 12.8594 17.7188C12.7305 17.6602 12.6211 17.5977 12.5273 17.5273C12.4297 17.4609 12.3594 17.3789 12.3047 17.2891C12.2539 17.1992 12.2266 17.0859 12.2266 16.9531C12.2266 16.8359 12.25 16.7305 12.3008 16.6445C12.3516 16.5547 12.418 16.4805 12.5039 16.4258C12.5898 16.3672 12.6914 16.3242 12.8047 16.2969C12.918 16.2656 13.043 16.2539 13.1758 16.2539C13.4375 16.2539 13.6641 16.2812 13.8633 16.3438C14.0586 16.4023 14.207 16.4609 14.3086 16.5234L14.5312 15.9609C14.4141 15.8828 14.2344 15.8125 13.9922 15.75C13.7461 15.6836 13.4727 15.6523 13.1758 15.6523C12.6562 15.6523 12.25 15.7734 11.957 16.0156C11.6602 16.2617 11.5156 16.5977 11.5156 17.0312C11.5156 17.2422 11.5469 17.4219 11.6172 17.5703C11.6875 17.7148 11.7812 17.8437 11.8984 17.9492C12.0195 18.0586 12.1562 18.1523 12.3203 18.2305C12.4805 18.3086 12.6523 18.3789 12.832 18.4414C12.9883 18.4961 13.1367 18.5547 13.2773 18.6133C13.418 18.668 13.543 18.7383 13.6523 18.8164C13.7617 18.8945 13.8477 18.9883 13.9141 19.0938C13.9766 19.2031 14.0078 19.332 14.0078 19.4844C14.0078 19.9805 13.6484 20.2266 12.9258 20.2266C12.6016 20.2266 12.3281 20.1914 12.1055 20.1133C11.8828 20.0391 11.7148 19.9688 11.6055 19.9062L11.3984 20.4766C11.4531 20.5078 11.5234 20.543 11.6172 20.582C11.7109 20.6211 11.8203 20.6602 11.9492 20.6953C12.0781 20.7305 12.2227 20.7617 12.3867 20.7891C12.5508 20.8164 12.7305 20.8281 12.9258 20.8281ZM17.1875 20.8086C17.4453 20.8086 17.6758 20.7812 17.875 20.7344C18.0781 20.6875 18.2188 20.6406 18.3008 20.6016L18.207 20.043C18.1289 20.082 18.0078 20.1211 17.8477 20.1602C17.6875 20.1992 17.4922 20.2227 17.2617 20.2227C16.8477 20.2227 16.543 20.1211 16.3477 19.9219C16.1523 19.7188 16.043 19.4258 16.0117 19.043H18.5508C18.5547 19.0039 18.5586 18.9609 18.5586 18.918V18.8047C18.5586 18.168 18.4258 17.6914 18.1602 17.3789C17.8906 17.0664 17.5078 16.9102 17.0117 16.9102C16.7969 16.9102 16.5859 16.9531 16.3828 17.0312C16.1797 17.1133 16 17.2344 15.8398 17.3984C15.6836 17.5586 15.5586 17.7617 15.4648 18.0078C15.3672 18.2539 15.3203 18.5391 15.3203 18.8711C15.3203 19.1523 15.3594 19.4102 15.4297 19.6445C15.5039 19.8828 15.6172 20.0859 15.7695 20.2578C15.9219 20.4297 16.1172 20.5625 16.3516 20.6602C16.5859 20.7578 16.8672 20.8086 17.1875 20.8086ZM17.8672 18.5039H16.0273C16.043 18.375 16.0703 18.25 16.1172 18.125C16.1602 18.0039 16.2227 17.8906 16.3047 17.7969C16.3867 17.7031 16.4844 17.625 16.6016 17.5664C16.7187 17.5039 16.8516 17.4766 17.0039 17.4766C17.2734 17.4766 17.4883 17.5703 17.6406 17.7656C17.7969 17.957 17.8711 18.2031 17.8672 18.5039ZM20.1758 20.7227V17.5977C20.2148 17.5859 20.293 17.5703 20.4141 17.543C20.5352 17.5156 20.6602 17.5039 20.7812 17.5039C20.9727 17.5039 21.1289 17.5156 21.25 17.543C21.3711 17.5703 21.457 17.5938 21.5078 17.6133L21.625 17.0312C21.5938 17.0234 21.5508 17.0117 21.4922 17C21.4336 16.9883 21.3672 16.9766 21.2969 16.9648C21.2227 16.9531 21.1523 16.9414 21.0781 16.9375C21.0039 16.9297 20.9375 16.9258 20.8828 16.9258C20.5937 16.9258 20.332 16.9492 20.0977 17C19.8633 17.0508 19.668 17.1055 19.5117 17.1602V20.7227H20.1758ZM23.7852 20.7227C24.0156 20.2148 24.2578 19.6445 24.5078 19.0039C24.7578 18.3672 24.9727 17.6992 25.1602 17.0039H24.4766C24.418 17.2383 24.3516 17.4844 24.2734 17.75C24.1953 18.0156 24.1094 18.2773 24.0234 18.5391C23.9336 18.7969 23.8437 19.0469 23.7539 19.293C23.6641 19.5352 23.5781 19.75 23.5 19.9414C23.418 19.75 23.332 19.5352 23.2422 19.293C23.1523 19.0469 23.0625 18.7969 22.9727 18.5391C22.8867 18.2773 22.8047 18.0156 22.7266 17.75C22.6445 17.4844 22.5781 17.2383 22.5234 17.0039H21.8086C21.9922 17.6992 22.2109 18.3672 22.4609 19.0039C22.7109 19.6445 22.9531 20.2148 23.1836 20.7227H23.7852ZM26.1719 16.332C26.2891 16.332 26.3906 16.293 26.4766 16.2148C26.5586 16.1367 26.5977 16.0273 26.5977 15.8945C26.5977 15.7617 26.5586 15.6562 26.4766 15.5781C26.3906 15.5 26.2891 15.4609 26.1719 15.4609C26.0547 15.4609 25.9531 15.5 25.8672 15.5781C25.7852 15.6562 25.7422 15.7617 25.7422 15.8945C25.7422 16.0273 25.7852 16.1367 25.8672 16.2148C25.9531 16.293 26.0547 16.332 26.1719 16.332ZM26.5078 20.7227V17.0039H25.8438V20.7227H26.5078ZM29.2578 20.8086C29.3555 20.8086 29.4531 20.8008 29.5547 20.7891C29.6562 20.7773 29.7539 20.7617 29.8438 20.7461C29.9336 20.7305 30.0156 20.7109 30.0859 20.6875C30.1562 20.668 30.2109 20.6445 30.25 20.6211L30.1562 20.0625C30.0781 20.1016 29.9648 20.1367 29.8203 20.1719C29.6797 20.2031 29.5195 20.2227 29.3438 20.2227C29.125 20.2227 28.9414 20.1875 28.7891 20.125C28.6367 20.0586 28.5117 19.9687 28.4141 19.8477C28.3164 19.7305 28.2461 19.5859 28.1992 19.4219C28.1562 19.2539 28.1328 19.0703 28.1328 18.8711C28.1328 18.4219 28.2305 18.082 28.4297 17.8477C28.625 17.6133 28.9102 17.4961 29.2812 17.4961C29.4258 17.4961 29.5664 17.5117 29.6953 17.5391C29.8281 17.5703 29.9414 17.6055 30.043 17.6523L30.1914 17.0898C30.0391 17.0273 29.8828 16.9805 29.7148 16.9531C29.5469 16.9258 29.3828 16.9102 29.2148 16.9102C28.9453 16.9102 28.6992 16.9609 28.4766 17.0586C28.2578 17.1562 28.0703 17.2891 27.918 17.4648C27.7656 17.6406 27.6484 17.8438 27.5664 18.082C27.4805 18.3203 27.4414 18.582 27.4414 18.8711C27.4414 19.1562 27.4805 19.418 27.5547 19.6523C27.6328 19.8867 27.7461 20.0937 27.9023 20.2617C28.0547 20.4336 28.2461 20.5703 28.4727 20.6641C28.6953 20.7578 28.9609 20.8086 29.2578 20.8086ZM32.625 20.8086C32.8789 20.8086 33.1094 20.7812 33.3125 20.7344C33.5156 20.6875 33.6562 20.6406 33.7344 20.6016L33.6445 20.043C33.5625 20.082 33.4414 20.1211 33.2852 20.1602C33.125 20.1992 32.9297 20.2227 32.6953 20.2227C32.2812 20.2227 31.9766 20.1211 31.7812 19.9219C31.5859 19.7188 31.4766 19.4258 31.4492 19.043H33.9844C33.9883 19.0039 33.9922 18.9609 33.9922 18.918V18.8047C33.9922 18.168 33.8594 17.6914 33.5938 17.3789C33.3281 17.0664 32.9453 16.9102 32.4453 16.9102C32.2305 16.9102 32.0234 16.9531 31.8164 17.0312C31.6133 17.1133 31.4336 17.2344 31.2773 17.3984C31.1211 17.5586 30.9922 17.7617 30.8984 18.0078C30.8047 18.2539 30.7578 18.5391 30.7578 18.8711C30.7578 19.1523 30.793 19.4102 30.8672 19.6445C30.9414 19.8828 31.0547 20.0859 31.2031 20.2578C31.3555 20.4297 31.5508 20.5625 31.7852 20.6602C32.0195 20.7578 32.3008 20.8086 32.625 20.8086ZM33.3008 18.5039H31.4609C31.4766 18.375 31.5039 18.25 31.5508 18.125C31.5977 18.0039 31.6602 17.8906 31.7383 17.7969C31.8203 17.7031 31.918 17.625 32.0352 17.5664C32.1523 17.5039 32.2852 17.4766 32.4375 17.4766C32.7109 17.4766 32.9219 17.5703 33.0781 17.7656C33.2305 17.957 33.3047 18.2031 33.3008 18.5039ZM38.1133 20.7227C38.3477 20.2148 38.5859 19.6445 38.8359 19.0039C39.0859 18.3672 39.3047 17.6992 39.4883 17.0039H38.8047C38.7461 17.2383 38.6797 17.4844 38.6016 17.75C38.5234 18.0156 38.4414 18.2773 38.3516 18.5391C38.2656 18.7969 38.1758 19.0469 38.0859 19.293C37.9961 19.5352 37.9102 19.75 37.8281 19.9414C37.7461 19.75 37.6602 19.5352 37.5703 19.293C37.4805 19.0469 37.3906 18.7969 37.3047 18.5391C37.2148 18.2773 37.1328 18.0156 37.0547 17.75C36.9766 17.4844 36.9102 17.2383 36.8516 17.0039H36.1367C36.3242 17.6992 36.543 18.3672 36.7891 19.0039C37.0391 19.6445 37.2812 20.2148 37.5156 20.7227H38.1133ZM41.707 20.8125C41.957 20.8125 42.1914 20.7695 42.4062 20.6758C42.6172 20.582 42.8047 20.4492 42.957 20.2773C43.1133 20.1055 43.2305 19.9023 43.3164 19.6641C43.4023 19.4258 43.4453 19.1563 43.4453 18.8633C43.4453 18.5703 43.4023 18.3047 43.3164 18.0664C43.2305 17.8242 43.1133 17.6172 42.957 17.4453C42.8047 17.2734 42.6172 17.1445 42.4062 17.0508C42.1914 16.957 41.957 16.9102 41.707 16.9102C41.4531 16.9102 41.2227 16.957 41.0078 17.0508C40.793 17.1445 40.6094 17.2734 40.457 17.4453C40.3008 17.6172 40.1797 17.8242 40.0938 18.0664C40.0078 18.3047 39.9688 18.5703 39.9688 18.8633C39.9688 19.1563 40.0078 19.4258 40.0938 19.6641C40.1797 19.9023 40.3008 20.1055 40.457 20.2773C40.6094 20.4492 40.793 20.582 41.0078 20.6758C41.2227 20.7695 41.4531 20.8125 41.707 20.8125ZM41.707 20.2266C41.3828 20.2266 41.1289 20.1055 40.9414 19.8594C40.7539 19.6133 40.6602 19.2813 40.6602 18.8633C40.6602 18.4414 40.7539 18.1094 40.9414 17.8633C41.1289 17.6211 41.3828 17.4961 41.707 17.4961C42.0313 17.4961 42.2852 17.6211 42.4727 17.8633C42.6602 18.1094 42.7539 18.4414 42.7539 18.8633C42.7539 19.2813 42.6602 19.6133 42.4727 19.8594C42.2852 20.1055 42.0313 20.2266 41.707 20.2266ZM45.043 20.7227V17.582C45.0664 17.5781 45.1055 17.5703 45.1602 17.5625C45.2148 17.5508 45.2773 17.543 45.3477 17.5352C45.4141 17.5273 45.4883 17.5234 45.5625 17.5195C45.6406 17.5117 45.7148 17.5117 45.7852 17.5117C45.9609 17.5117 46.1094 17.5352 46.2266 17.5781C46.3437 17.625 46.4414 17.6953 46.5117 17.7969C46.582 17.8984 46.6328 18.0273 46.6641 18.1914C46.6953 18.3516 46.7109 18.5469 46.7109 18.7773V20.7227H47.375V18.6328C47.375 18.3828 47.3516 18.1484 47.3047 17.9414C47.2539 17.7305 47.1719 17.5508 47.0586 17.4023C46.9414 17.25 46.7852 17.1328 46.5898 17.0508C46.3945 16.9648 46.1484 16.9258 45.8555 16.9258C45.5273 16.9258 45.2383 16.9453 44.9844 16.9883C44.7344 17.0313 44.5312 17.0742 44.3789 17.1094V20.7227H45.043ZM51.3086 20.8281C51.8828 20.8281 52.332 20.7109 52.6445 20.4766C52.9609 20.2461 53.1211 19.9102 53.1211 19.4766C53.1211 19.2422 53.0859 19.043 53.0117 18.8789C52.9414 18.7148 52.8398 18.5742 52.7109 18.4531C52.5781 18.3359 52.4258 18.2344 52.2461 18.1484C52.0703 18.0625 51.8711 17.9766 51.6602 17.8906C51.5078 17.832 51.3672 17.7773 51.2422 17.7188C51.1172 17.6602 51.0039 17.5977 50.9102 17.5273C50.8164 17.4609 50.7422 17.3789 50.6875 17.2891C50.6367 17.1992 50.6094 17.0859 50.6094 16.9531C50.6094 16.8359 50.6367 16.7305 50.6875 16.6445C50.7344 16.5547 50.8047 16.4805 50.8906 16.4258C50.9727 16.3672 51.0742 16.3242 51.1875 16.2969C51.3008 16.2656 51.4258 16.2539 51.5586 16.2539C51.8203 16.2539 52.0508 16.2812 52.2461 16.3438C52.4453 16.4023 52.5937 16.4609 52.6914 16.5234L52.9141 15.9609C52.8008 15.8828 52.6211 15.8125 52.375 15.75C52.1289 15.6836 51.8594 15.6523 51.5586 15.6523C51.0391 15.6523 50.6328 15.7734 50.3398 16.0156C50.0469 16.2617 49.8984 16.5977 49.8984 17.0312C49.8984 17.2422 49.9336 17.4219 50 17.5703C50.0703 17.7148 50.1641 17.8437 50.2812 17.9492C50.4023 18.0586 50.543 18.1523 50.7031 18.2305C50.8633 18.3086 51.0352 18.3789 51.2188 18.4414C51.375 18.4961 51.5234 18.5547 51.6641 18.6133C51.8008 18.668 51.9258 18.7383 52.0352 18.8164C52.1445 18.8945 52.2344 18.9883 52.2969 19.0938C52.3594 19.2031 52.3945 19.332 52.3945 19.4844C52.3945 19.9805 52.0312 20.2266 51.3086 20.2266C50.9883 20.2266 50.7148 20.1914 50.4883 20.1133C50.2656 20.0391 50.1016 19.9688 49.9922 19.9062L49.7852 20.4766C49.8359 20.5078 49.9102 20.543 50 20.582C50.0938 20.6211 50.2031 20.6602 50.332 20.6953C50.4609 20.7305 50.6055 20.7617 50.7695 20.7891C50.9336 20.8164 51.1133 20.8281 51.3086 20.8281ZM55.0898 20.8008C55.2344 20.8008 55.3828 20.793 55.5352 20.7812C55.6836 20.7695 55.8242 20.7578 55.9492 20.7422C56.0781 20.7266 56.1953 20.7109 56.2969 20.6953C56.3984 20.6797 56.4766 20.668 56.5352 20.6562V18.332C56.5352 18.125 56.5117 17.9336 56.4648 17.7578C56.418 17.582 56.3359 17.4336 56.2266 17.3086C56.1133 17.1797 55.9648 17.082 55.7812 17.0156C55.6016 16.9453 55.375 16.9102 55.1094 16.9102C54.875 16.9102 54.6602 16.9297 54.4609 16.9648C54.2617 17 54.1172 17.0352 54.0312 17.0742L54.1133 17.625C54.1914 17.5938 54.3164 17.5586 54.4766 17.5273C54.6406 17.5 54.832 17.4844 55.0508 17.4844C55.2227 17.4844 55.3633 17.5078 55.4688 17.5586C55.5781 17.6094 55.6602 17.6758 55.7227 17.7578C55.7852 17.8398 55.8281 17.9375 55.8516 18.043C55.875 18.1523 55.8867 18.2578 55.8867 18.3711V18.5547C55.8672 18.5508 55.8359 18.543 55.7852 18.5352C55.7383 18.5234 55.6836 18.5117 55.6211 18.5C55.5547 18.4883 55.4883 18.4805 55.4141 18.4727C55.3437 18.4648 55.2773 18.4609 55.2109 18.4609C55 18.4609 54.8008 18.4844 54.6094 18.5273C54.4219 18.5703 54.2539 18.6367 54.1133 18.7266C53.9688 18.8164 53.8555 18.9375 53.7734 19.0859C53.6914 19.2305 53.6484 19.4063 53.6484 19.6133C53.6484 19.8281 53.6836 20.0117 53.7539 20.1641C53.8242 20.3164 53.9258 20.4375 54.0547 20.5312C54.1836 20.625 54.3359 20.6914 54.5117 20.7344C54.6875 20.7773 54.8789 20.8008 55.0898 20.8008ZM55.168 20.2422C54.9062 20.2422 54.6992 20.1953 54.5469 20.1016C54.3945 20.0117 54.3164 19.8437 54.3164 19.6055C54.3164 19.4766 54.3477 19.375 54.4102 19.2969C54.4727 19.2148 54.5508 19.1562 54.6406 19.1094C54.7344 19.0625 54.8359 19.0352 54.9492 19.0195C55.0625 19.0039 55.168 19 55.2656 19C55.418 19 55.5469 19.0078 55.6562 19.0234C55.7617 19.0391 55.8398 19.0586 55.8867 19.0859V20.1914C55.8047 20.2109 55.7031 20.2227 55.582 20.2305C55.4609 20.2383 55.3242 20.2422 55.168 20.2422ZM58.2969 20.7227V17.582C58.3203 17.5781 58.3594 17.5703 58.4141 17.5625C58.4687 17.5508 58.5312 17.543 58.5977 17.5352C58.668 17.5273 58.7422 17.5234 58.8164 17.5195C58.8945 17.5117 58.9648 17.5117 59.0391 17.5117C59.2148 17.5117 59.3594 17.5352 59.4805 17.5781C59.5977 17.625 59.6953 17.6953 59.7656 17.7969C59.8359 17.8984 59.8867 18.0273 59.918 18.1914C59.9492 18.3516 59.9648 18.5469 59.9648 18.7773V20.7227H60.6289V18.6328C60.6289 18.3828 60.6055 18.1484 60.5547 17.9414C60.5078 17.7305 60.4258 17.5508 60.3086 17.4023C60.1953 17.25 60.0391 17.1328 59.8438 17.0508C59.6484 16.9648 59.4023 16.9258 59.1094 16.9258C58.7812 16.9258 58.4922 16.9453 58.2383 16.9883C57.9883 17.0313 57.7852 17.0742 57.6328 17.1094V20.7227H58.2969ZM62.9727 20.8008C63.1875 20.8008 63.3789 20.7734 63.543 20.7266C63.7109 20.6758 63.8242 20.6328 63.8945 20.6016L63.7656 20.0508C63.7188 20.0664 63.6328 20.1016 63.5117 20.1445C63.3906 20.1914 63.2305 20.2148 63.0312 20.2148C62.9141 20.2148 62.8164 20.1992 62.7305 20.1719C62.6445 20.1406 62.5742 20.0937 62.5156 20.0234C62.4609 19.9531 62.418 19.8594 62.3867 19.7383C62.3594 19.6172 62.3438 19.4648 62.3438 19.2773V17.5625H63.75V17.0039H62.3438V15.8516L61.6836 15.9688V19.2852C61.6836 19.5312 61.7031 19.75 61.7422 19.9375C61.7852 20.125 61.8555 20.2852 61.9531 20.4141C62.0547 20.543 62.1836 20.6406 62.3477 20.7031C62.5117 20.7695 62.7227 20.8008 62.9727 20.8008ZM65.7695 20.8008C65.9141 20.8008 66.0625 20.793 66.2148 20.7812C66.3633 20.7695 66.5039 20.7578 66.6289 20.7422C66.7578 20.7266 66.875 20.7109 66.9766 20.6953C67.0781 20.6797 67.1562 20.668 67.2148 20.6562V18.332C67.2148 18.125 67.1914 17.9336 67.1445 17.7578C67.0977 17.582 67.0156 17.4336 66.9062 17.3086C66.793 17.1797 66.6445 17.082 66.4609 17.0156C66.2812 16.9453 66.0547 16.9102 65.7891 16.9102C65.5547 16.9102 65.3398 16.9297 65.1406 16.9648C64.9414 17 64.7969 17.0352 64.7109 17.0742L64.7891 17.625C64.8711 17.5938 64.9922 17.5586 65.1562 17.5273C65.3203 17.5 65.5117 17.4844 65.7305 17.4844C65.9023 17.4844 66.043 17.5078 66.1484 17.5586C66.2578 17.6094 66.3398 17.6758 66.4023 17.7578C66.4648 17.8398 66.5078 17.9375 66.5312 18.043C66.5547 18.1523 66.5664 18.2578 66.5664 18.3711V18.5547C66.5469 18.5508 66.5156 18.543 66.4648 18.5352C66.418 18.5234 66.3633 18.5117 66.2969 18.5C66.2344 18.4883 66.168 18.4805 66.0938 18.4727C66.0234 18.4648 65.957 18.4609 65.8906 18.4609C65.6797 18.4609 65.4805 18.4844 65.2891 18.5273C65.1016 18.5703 64.9336 18.6367 64.7891 18.7266C64.6484 18.8164 64.5352 18.9375 64.4531 19.0859C64.3672 19.2305 64.3281 19.4063 64.3281 19.6133C64.3281 19.8281 64.3633 20.0117 64.4336 20.1641C64.5039 20.3164 64.6055 20.4375 64.7344 20.5312C64.8633 20.625 65.0156 20.6914 65.1914 20.7344C65.3672 20.7773 65.5586 20.8008 65.7695 20.8008ZM65.8477 20.2422C65.5859 20.2422 65.3789 20.1953 65.2266 20.1016C65.0742 20.0117 64.9961 19.8437 64.9961 19.6055C64.9961 19.4766 65.0273 19.375 65.0898 19.2969C65.1523 19.2148 65.2305 19.1562 65.3203 19.1094C65.4141 19.0625 65.5156 19.0352 65.6289 19.0195C65.7422 19.0039 65.8477 19 65.9453 19C66.0977 19 66.2266 19.0078 66.3359 19.0234C66.4414 19.0391 66.5195 19.0586 66.5664 19.0859V20.1914C66.4844 20.2109 66.3828 20.2227 66.2617 20.2305C66.1406 20.2383 66.0039 20.2422 65.8477 20.2422ZM68.9766 20.7227V17.582C69 17.5781 69.0391 17.5703 69.0938 17.5625C69.1484 17.5508 69.2109 17.543 69.2773 17.5352C69.3477 17.5273 69.4219 17.5234 69.4961 17.5195C69.5742 17.5117 69.6445 17.5117 69.7188 17.5117C69.8945 17.5117 70.0391 17.5352 70.1602 17.5781C70.2773 17.625 70.375 17.6953 70.4453 17.7969C70.5156 17.8984 70.5664 18.0273 70.5977 18.1914C70.6289 18.3516 70.6445 18.5469 70.6445 18.7773V20.7227H71.3086V18.6328C71.3086 18.3828 71.2852 18.1484 71.2344 17.9414C71.1875 17.7305 71.1055 17.5508 70.9883 17.4023C70.875 17.25 70.7187 17.1328 70.5234 17.0508C70.3281 16.9648 70.082 16.9258 69.7891 16.9258C69.4609 16.9258 69.1719 16.9453 68.918 16.9883C68.668 17.0313 68.4648 17.0742 68.3125 17.1094V20.7227H68.9766ZM74.0586 20.8086C74.3672 20.8086 74.6406 20.7852 74.8789 20.7422C75.1172 20.6992 75.3125 20.6563 75.4648 20.6133V15.1719L74.8008 15.2891V17.168C74.7188 17.1172 74.5977 17.0625 74.4336 17.0039C74.2695 16.9453 74.082 16.918 73.8672 16.918C73.6016 16.918 73.3633 16.9648 73.1562 17.0625C72.9492 17.1562 72.7773 17.2891 72.6328 17.4609C72.4922 17.6328 72.3828 17.8359 72.3086 18.0742C72.2344 18.3125 72.1992 18.5781 72.1992 18.8633C72.1992 19.1641 72.2422 19.4336 72.332 19.6758C72.418 19.9141 72.543 20.1172 72.7031 20.2852C72.8672 20.4531 73.0625 20.582 73.2891 20.6719C73.5156 20.7617 73.7734 20.8086 74.0586 20.8086ZM74.0664 20.2227C73.7109 20.2227 73.4258 20.1016 73.2109 19.8672C72.9961 19.6328 72.8906 19.2969 72.8906 18.8633C72.8906 18.6719 72.9102 18.4922 72.9453 18.3281C72.9844 18.1602 73.0469 18.0156 73.1328 17.8945C73.2187 17.7734 73.3281 17.6758 73.4648 17.6094C73.5977 17.5391 73.7617 17.5039 73.9531 17.5039C74.1328 17.5039 74.3008 17.5352 74.4492 17.5977C74.6016 17.6602 74.7188 17.7227 74.8008 17.7891V20.1406C74.7344 20.1602 74.6406 20.1797 74.5195 20.1953C74.3984 20.2109 74.2461 20.2227 74.0664 20.2227ZM78.2656 20.8086C78.5234 20.8086 78.75 20.7812 78.9531 20.7344C79.1562 20.6875 79.2969 20.6406 79.3789 20.6016L79.2852 20.043C79.2031 20.082 79.082 20.1211 78.9258 20.1602C78.7656 20.1992 78.5703 20.2227 78.3359 20.2227C77.9219 20.2227 77.6172 20.1211 77.4258 19.9219C77.2305 19.7188 77.1172 19.4258 77.0898 19.043H79.625C79.6328 19.0039 79.6328 18.9609 79.6328 18.918V18.8047C79.6328 18.168 79.5 17.6914 79.2344 17.3789C78.9688 17.0664 78.5859 16.9102 78.0859 16.9102C77.875 16.9102 77.6641 16.9531 77.4609 17.0312C77.2539 17.1133 77.0742 17.2344 76.918 17.3984C76.7617 17.5586 76.6367 17.7617 76.5391 18.0078C76.4453 18.2539 76.3984 18.5391 76.3984 18.8711C76.3984 19.1523 76.4336 19.4102 76.5078 19.6445C76.582 19.8828 76.6953 20.0859 76.8477 20.2578C77 20.4297 77.1914 20.5625 77.4258 20.6602C77.6641 20.7578 77.9414 20.8086 78.2656 20.8086ZM78.9414 18.5039H77.1016C77.1172 18.375 77.1484 18.25 77.1914 18.125C77.2383 18.0039 77.3008 17.8906 77.3828 17.7969C77.4609 17.7031 77.5625 17.625 77.6758 17.5664C77.793 17.5039 77.9297 17.4766 78.0781 17.4766C78.3516 17.4766 78.5625 17.5703 78.7188 17.7656C78.8711 17.957 78.9492 18.2031 78.9414 18.5039ZM81.2539 20.7227V17.5977C81.2891 17.5859 81.3711 17.5703 81.4922 17.543C81.6133 17.5156 81.7344 17.5039 81.8594 17.5039C82.0469 17.5039 82.2031 17.5156 82.3242 17.543C82.4453 17.5703 82.5352 17.5938 82.5859 17.6133L82.6992 17.0312C82.6719 17.0234 82.6289 17.0117 82.5664 17C82.5078 16.9883 82.4414 16.9766 82.3711 16.9648C82.3008 16.9531 82.2266 16.9414 82.1523 16.9375C82.082 16.9297 82.0156 16.9258 81.957 16.9258C81.668 16.9258 81.4063 16.9492 81.1758 17C80.9414 17.0508 80.7461 17.1055 80.5898 17.1602V20.7227H81.2539Z" fill="#FE0004"/>
</svg>
