<svg width="88" height="18" viewBox="0 0 88 18" fill="none" xmlns="http://www.w3.org/2000/svg">
<path d="M19.4093 2.92266L16.7901 15.1095H13.6226L16.2428 2.92266H19.4093ZM32.7361 10.7913L34.4033 6.2156L35.3628 10.7913H32.7361ZM36.2704 15.1095H39.2L36.6428 2.92266H33.9388C33.3307 2.92266 32.818 3.27491 32.5908 3.81676L27.8376 15.1095H31.1636L31.8241 13.2891H35.888L36.2704 15.1095ZM28.0029 11.1305C28.0164 7.91416 23.5341 7.73689 23.565 6.30009C23.5745 5.86282 23.9929 5.39796 24.9085 5.27914C25.3624 5.21997 26.6129 5.1748 28.0313 5.82456L28.5876 3.24034C27.8255 2.96508 26.8449 2.70005 25.6247 2.70005C22.4938 2.70005 20.2905 4.35663 20.2719 6.72854C20.2517 8.483 21.8446 9.46199 23.0446 10.045C24.2792 10.642 24.6933 11.0256 24.6887 11.5597C24.6799 12.3773 23.7041 12.7382 22.792 12.7523C21.2 12.7766 20.2761 12.3235 19.5396 11.9827L18.9655 14.6525C19.7056 14.9905 21.0717 15.2853 22.4881 15.3C25.8159 15.3 27.9926 13.6641 28.0029 11.1305ZM14.8834 2.92266L9.75135 15.1095H6.40308L3.87757 5.38383C3.72418 4.78471 3.59101 4.56538 3.12471 4.31306C2.36343 3.90188 1.10607 3.51631 0 3.27686L0.0751531 2.92266H5.46501C6.15203 2.92266 6.76957 3.37785 6.92554 4.16531L8.25936 11.2173L11.5559 2.92266H14.8834Z" fill="#1434CB"/>
<path d="M57.553 2.9856H50.8896V15.0145H57.553V2.9856Z" fill="#FF5F00"/>
<path d="M51.3127 9.0001C51.3116 7.84163 51.573 6.69811 52.0769 5.6561C52.5808 4.61409 53.3141 3.7009 54.2213 2.98567C53.0979 2.09862 51.7487 1.54697 50.3279 1.39379C48.9072 1.2406 47.4722 1.49205 46.187 2.11941C44.9018 2.74676 43.8182 3.72471 43.0601 4.94146C42.302 6.15821 41.9 7.56467 41.9 9.0001C41.9 10.4355 42.302 11.842 43.0601 13.0587C43.8182 14.2755 44.9018 15.2534 46.187 15.8808C47.4722 16.5081 48.9072 16.7596 50.3279 16.6064C51.7487 16.4532 53.0979 15.9016 54.2213 15.0145C53.3141 14.2993 52.5808 13.3861 52.0769 12.3441C51.573 11.3021 51.3117 10.1586 51.3127 9.0001Z" fill="#EB001B"/>
<path d="M66.5422 9.0001C66.5422 10.4355 66.1403 11.842 65.3822 13.0587C64.6242 14.2755 63.5406 15.2534 62.2554 15.8808C60.9703 16.5081 59.5353 16.7596 58.1146 16.6064C56.6938 16.4532 55.3447 15.9016 54.2213 15.0145C55.1277 14.2986 55.8604 13.3852 56.3642 12.3434C56.8681 11.3015 57.1299 10.1584 57.1299 9.0001C57.1299 7.84181 56.8681 6.69865 56.3642 5.6568C55.8604 4.61495 55.1277 3.70162 54.2213 2.98567C55.3447 2.09862 56.6938 1.54697 58.1146 1.39379C59.5353 1.2406 60.9703 1.49206 62.2554 2.11942C63.5406 2.74679 64.6242 3.72473 65.3822 4.94148C66.1403 6.15823 66.5422 7.56469 66.5422 9.0001Z" fill="#F79E1B"/>
<path d="M65.8156 13.7405V13.4943H65.9145V13.4441H65.6627V13.4943H65.7616V13.7405H65.8156ZM66.3044 13.7405V13.4436H66.2272L66.1384 13.6478L66.0497 13.4436H65.9724V13.7405H66.0269V13.5166L66.1102 13.7097H66.1667L66.2499 13.5161V13.7405H66.3044Z" fill="#F79E1B"/>
<path d="M87.2422 18H78.2961H69.2422V8.91054V0H78.1756H87.2422V8.9991V18Z" fill="white"/>
<path d="M87.2422 18V15.1478H85.0706L83.9526 13.9116L82.8289 15.1478H75.6692V9.38617H73.3583L76.2247 2.89922H78.989L79.9758 5.12154V2.89922H83.3976L83.9917 4.57387L84.5897 2.89922H87.2422V0H69.2422V18H87.2422ZM85.4364 14.4265H87.2422L84.8535 11.8934L87.2422 9.38905H85.4652L83.99 11.0011L82.529 9.38905H80.7228L83.0975 11.9078L80.7228 14.4265H82.4787L83.9611 12.8001L85.4364 14.4265ZM85.8589 11.8955L87.2422 13.3671V10.4361L85.8589 11.8955ZM77.8083 13.2607V12.4762H80.6508V11.3392H77.8083V10.5549H80.7227V9.38905H76.4338V14.4265H80.7227V13.2607H77.8083ZM85.882 8.65804H87.2422V3.62063H85.1264L83.9966 6.75814L82.874 3.62063H80.7223V8.65804H82.0824V5.13187L83.3778 8.65804H84.5867L85.882 5.1246V8.65804ZM79.1751 8.65804H80.7223L78.4988 3.62063H76.7285L74.5047 8.65804H76.0159L76.4334 7.65058H78.7505L79.1751 8.65804ZM78.2757 6.52072H76.9083L77.592 4.87278L78.2757 6.52072Z" fill="#006FCF"/>
</svg>