<svg width="20" height="17" viewBox="0 0 20 17" fill="none" xmlns="http://www.w3.org/2000/svg">
<path d="M9.30001 11.6301L10.87 11.2101L8.87001 9.21011L8.45001 10.7801C8.35436 11.1362 8.5644 11.5027 8.92001 11.6001C9.04135 11.6456 9.17304 11.656 9.30001 11.6301Z" fill="black"/>
<path d="M17.81 6.22011V15.3601H1V2.47011H13.57L14.57 1.47011H1C0.447715 1.47011 0 1.91782 0 2.47011V15.3601C0 15.9124 0.447715 16.3601 1 16.3601H17.81C18.3623 16.3601 18.81 15.9124 18.81 15.3601V5.21011L17.81 6.22011Z" fill="black"/>
<path d="M19.62 0.360106C20.1178 0.887912 20.1178 1.7123 19.62 2.24011L11.62 10.3901L9.73001 8.52011L17.73 0.360106C18.2685 -0.120035 19.0815 -0.120035 19.62 0.360106Z" fill="black"/>
<path d="M15.24 8.8901V13.1301H3.56001V8.5401H7.66001L8.66001 7.5401H3.45001C2.98609 7.5401 2.61001 7.91618 2.61001 8.3801V13.2701C2.61001 13.734 2.98609 14.1101 3.45001 14.1101H15.45C15.9117 14.1047 16.2846 13.7318 16.29 13.2701V8.3601C16.2892 8.21942 16.2512 8.08145 16.18 7.9601L15.24 8.8901ZM11.43 4.7001H3.10001C2.82386 4.7001 2.60001 4.92396 2.60001 5.2001C2.60001 5.47625 2.82386 5.7001 3.10001 5.7001H10.46L11.43 4.7001Z" fill="black"/>
</svg>
