<svg viewBox="0 0 115 27" fill="none" xmlns="http://www.w3.org/2000/svg" width="100%">
<path d="M33.0815 17.5646L36.2954 7.40547C36.3291 7.26474 36.4494 7.16162 36.5937 7.14981H38.2067C38.3513 7.1701 38.473 7.26837 38.5232 7.40547L41.025 13.815C41.0737 13.9429 41.2015 13.955 41.2441 13.815L43.7276 7.40547C43.7778 7.26837 43.8995 7.1701 44.0441 7.14981H45.6571C45.8014 7.16162 45.9217 7.26474 45.9554 7.40547L49.1328 17.5646C49.1698 17.6428 49.1625 17.7348 49.1136 17.8062C49.0648 17.8776 48.9817 17.9177 48.8954 17.9116H46.978C46.8421 17.9177 46.7214 17.8253 46.6919 17.6924L44.6528 11.0942C44.6224 10.9663 44.4763 10.9663 44.4337 11.0942L41.9989 17.6437C41.9574 17.8014 41.815 17.9114 41.6519 17.9116H40.5258C40.3493 17.9116 40.258 17.8142 40.1911 17.6437L37.7076 11.0942C37.6589 10.9663 37.5311 10.9663 37.5006 11.0942L35.4128 17.6924C35.3804 17.8286 35.2542 17.9213 35.1145 17.9116H33.2885C33.2062 17.9103 33.1304 17.8665 33.0882 17.7958C33.046 17.7251 33.0435 17.6376 33.0815 17.5646ZM49.7415 13.9124C49.7069 12.1817 50.7228 10.6021 52.3119 9.91566C53.901 9.22923 55.7475 9.57243 56.9838 10.784C58.2202 11.9956 58.6006 13.8348 57.9464 15.4375C57.2922 17.0401 55.7334 18.0877 54.0024 18.0881C52.8758 18.1265 51.7827 17.7017 50.9777 16.9128C50.1726 16.1238 49.7259 15.0395 49.7415 13.9124ZM56.0719 13.9124C55.9956 12.7742 55.0222 11.9065 53.8827 11.961C52.7433 12.0155 51.8571 12.972 51.8897 14.1123C51.9222 15.2527 52.8616 16.157 54.0024 16.1463C55.1871 16.0969 56.1078 15.0972 56.0598 13.9124H56.0719ZM62.0128 17.2542C61.8545 17.1263 61.7145 17.175 61.7145 17.3942V17.6011C61.7147 17.7612 61.5884 17.8928 61.4284 17.8994H59.9432C59.7812 17.8931 59.6512 17.7632 59.645 17.6011V7.44199C59.6512 7.27992 59.7812 7.14997 59.9432 7.14373H61.5076C61.6675 7.15026 61.7938 7.2819 61.7937 7.44199V10.3394C61.7937 10.5463 61.9337 10.6072 62.1589 10.4489C62.758 10.0002 63.486 9.75678 64.2345 9.75503C66.4015 9.75503 68.0632 11.5811 68.0632 13.9307C68.1127 15.0043 67.7273 16.0525 66.9941 16.8383C66.261 17.6241 65.242 18.0813 64.1676 18.1063C63.3688 18.0978 62.6014 17.7943 62.0128 17.2542ZM65.9085 13.9307C65.9684 13.1467 65.584 12.3953 64.9133 11.985C64.2426 11.5746 63.3986 11.5746 62.7279 11.985C62.0572 12.3953 61.6729 13.1467 61.7328 13.9307C61.7115 14.4987 61.9193 15.0515 62.3097 15.4648C62.7 15.878 63.2401 16.117 63.8085 16.1281C64.3816 16.1154 64.9259 15.8741 65.3203 15.458C65.7147 15.0419 65.9265 14.4854 65.9085 13.9124V13.9307ZM69.3719 7.88634C69.3719 7.21399 69.917 6.66895 70.5893 6.66895C71.2617 6.66895 71.8067 7.21399 71.8067 7.88634C71.8067 8.55868 71.2617 9.10373 70.5893 9.10373C69.917 9.10373 69.3719 8.55868 69.3719 7.88634ZM69.4815 17.6255V10.2602C69.4814 10.1002 69.6076 9.96852 69.7676 9.96199H71.3319C71.4143 9.9587 71.4946 9.98828 71.5551 10.0442C71.6156 10.1002 71.6514 10.1779 71.6545 10.2602V17.6011C71.6483 17.7632 71.5183 17.8931 71.3563 17.8994H69.7676C69.6076 17.8928 69.4814 17.7612 69.4815 17.6011V17.6255ZM73.3954 15.215V7.44199C73.3953 7.2819 73.5215 7.15026 73.6815 7.14373H75.2458C75.4079 7.14997 75.5379 7.27992 75.5441 7.44199V15.2637C75.5441 15.7689 75.7632 16.1037 76.3171 16.1037C76.3962 16.1037 76.4721 16.1352 76.5281 16.1911C76.584 16.247 76.6154 16.3229 76.6154 16.402V17.6985C76.6089 17.8585 76.4772 17.9847 76.3171 17.9846C74.2354 17.9846 73.3954 17.3029 73.3954 15.215ZM77.1998 13.9611C77.2052 12.491 77.9945 11.1355 79.2703 10.4052C80.5462 9.67489 82.1147 9.68069 83.3851 10.4204C84.6555 11.1602 85.4348 12.5215 85.4293 13.9916C85.4293 14.2776 85.3502 14.515 85.0641 14.515H79.6224C79.4824 14.515 79.4337 14.5942 79.4458 14.722C79.5811 15.6755 80.4335 16.3601 81.3937 16.2863C81.9715 16.2949 82.5229 16.0449 82.8971 15.6046C83.0133 15.4415 83.2022 15.3459 83.4024 15.3489H84.8571C85.1128 15.3489 85.2224 15.5255 85.125 15.775C84.2716 17.5148 82.3321 18.4374 80.4439 18.0016C78.5557 17.5659 77.2166 15.8867 77.2119 13.9489L77.1998 13.9611ZM82.9763 13.2307C83.0858 13.2307 83.1345 13.182 83.1163 13.0542C82.9504 12.1805 82.1793 11.5533 81.2902 11.5689C80.4206 11.5681 79.6646 12.1654 79.4641 13.0116C79.4337 13.1211 79.4641 13.2307 79.5919 13.2307H82.9763ZM86.7441 17.6011V7.44199C86.744 7.2819 86.8702 7.15026 87.0302 7.14373H92.0154C94.2919 7.14373 95.8441 8.47068 95.8441 10.7046C95.8441 12.9385 94.085 14.3142 91.9058 14.3142H89.2641C89.1837 14.3058 89.104 14.335 89.0481 14.3933C88.9922 14.4516 88.9663 14.5325 88.978 14.6124V17.6011C88.9718 17.7632 88.8418 17.8931 88.6798 17.8994H87.0363C86.8739 17.8961 86.7441 17.7635 86.7441 17.6011ZM91.9058 12.4759C92.8492 12.4461 93.5915 11.6603 93.5676 10.7168C93.5811 10.2699 93.41 9.83712 93.0944 9.52039C92.7788 9.20366 92.3467 9.03093 91.8997 9.04286H89.2398C89.0511 9.04286 88.9719 9.14025 88.9719 9.32894V12.2081C88.9719 12.3968 89.0511 12.4942 89.2398 12.4942L91.9058 12.4759ZM96.6111 13.9124C96.57 12.8359 96.9624 11.7879 97.7003 11.0031C98.4383 10.2182 99.4601 9.76206 100.537 9.73677C101.314 9.74101 102.063 10.0289 102.643 10.5463C102.783 10.6742 102.941 10.6559 102.941 10.4672V10.2602C102.941 10.1022 103.07 9.97416 103.228 9.97416H104.713C104.875 9.9804 105.005 10.1104 105.011 10.2724V15.495C105.011 15.8907 105.151 16.0672 105.425 16.1037C105.567 16.1066 105.683 16.2176 105.693 16.3594V17.735C105.693 17.8829 105.573 18.0029 105.425 18.0029C104.378 18.0029 103.763 17.7046 103.416 17.102C103.319 16.9437 103.209 16.9133 103.051 17.0716C102.382 17.7598 101.46 18.1429 100.501 18.1307C99.4212 18.0994 98.4 17.6342 97.6679 16.8403C96.9359 16.0464 96.5549 14.9908 96.6111 13.9124ZM102.941 13.9124C103.001 13.1307 102.618 12.3813 101.949 11.9722C101.281 11.563 100.439 11.563 99.7701 11.9722C99.1014 12.3813 98.7182 13.1307 98.778 13.9124C98.7182 14.6942 99.1014 15.4435 99.7701 15.8527C100.439 16.2619 101.281 16.2619 101.949 15.8527C102.618 15.4435 103.001 14.6942 102.941 13.9124ZM106.429 20.6872V19.3907C106.436 19.2307 106.567 19.1045 106.728 19.1046C107.746 19.1808 108.685 18.553 109.004 17.5829C109.058 17.3792 109.036 17.1632 108.943 16.9742L106.034 10.3881C105.983 10.2985 105.985 10.1889 106.038 10.1008C106.091 10.0127 106.187 9.95976 106.289 9.96199H107.854C108.012 9.96199 108.109 10.0898 108.17 10.2481L109.996 14.4602C110.124 14.795 110.331 14.7768 110.471 14.4602L112.212 10.2359C112.273 10.0776 112.352 9.98025 112.51 9.98025H114.014C114.107 9.97533 114.197 10.0187 114.251 10.0953C114.306 10.1718 114.317 10.2708 114.281 10.3576L111.287 17.4429C110.197 20.0237 109.041 20.9855 106.728 20.9855C106.566 20.9792 106.436 20.8493 106.429 20.6872Z" fill="#5A78FF"></path>
<path d="M10.163 27C9.2394 27.0001 8.40663 26.4439 8.05275 25.5908L0.174206 6.57144C-0.307804 5.4077 0.244747 4.07355 1.40842 3.59139L9.6604 0.173711C10.2192 -0.0578536 10.8471 -0.0579057 11.4059 0.173567C11.9647 0.405039 12.4087 0.849066 12.6401 1.40793L20.5186 20.4281C20.9998 21.5915 20.4474 22.9248 19.2844 23.407L11.0324 26.8262C10.7568 26.9407 10.4614 26.9998 10.163 27ZM10.5333 1.22708C10.395 1.22731 10.2581 1.25484 10.1305 1.30811L1.87815 4.72579C1.6202 4.83264 1.41526 5.0376 1.30844 5.29557C1.20163 5.55354 1.20169 5.84339 1.3086 6.10131L9.18715 25.1219C9.41017 25.6585 10.0255 25.9135 10.5627 25.6918L18.8147 22.2718C19.0726 22.1649 19.2776 21.96 19.3844 21.702C19.4912 21.444 19.4911 21.1542 19.3842 20.8963L11.5057 1.87766C11.3426 1.48441 10.959 1.22779 10.5333 1.22708Z" fill="#5A78FF"></path>
<path style="mix-blend-mode:multiply" opacity="0.7" d="M13.1599 2.66241L12.0254 3.13232L15.1448 10.6632L16.2793 10.1933L13.1599 2.66241Z" fill="url(#paint0_linear_561_251)"></path>
<path style="mix-blend-mode:multiply" opacity="0.7" d="M18.8577 19.6325L19.9922 19.1626L16.4611 10.6379L15.3267 11.1078L18.8577 19.6325Z" fill="url(#paint1_linear_561_251)"></path>
<path d="M17.4277 13.9824C15.0677 14.961 13.0971 16.3099 11.8069 17.9359L8.48047 9.90198C9.99782 8.13909 11.9292 6.78059 14.1012 5.94841C16.4612 4.96981 18.8455 4.49617 20.8712 4.77213L24.1984 12.8057C21.8789 12.631 19.5523 13.0353 17.4277 13.9824Z" fill="#5A78FF"></path>
<g style="mix-blend-mode:multiply" opacity="0.4">
<path opacity="0.9" d="M17.4257 13.9833C15.0657 14.9619 13.0952 16.3109 11.805 17.9369L8.47852 9.90295C9.99586 8.14007 11.9272 6.78157 14.0992 5.94939C16.4592 4.97079 18.8435 4.49714 20.8692 4.77311L24.1965 12.8067C21.8769 12.632 19.5503 13.0363 17.4257 13.9833Z" fill="url(#paint2_linear_561_251)"></path>
<path opacity="0.7" d="M17.4257 13.9833C15.0657 14.9619 13.0952 16.3109 11.805 17.9369L8.47852 9.90295C9.99586 8.14007 11.9272 6.78157 14.0992 5.94939C16.4592 4.97079 18.8435 4.49714 20.8692 4.77311L24.1965 12.8067C21.8769 12.632 19.5503 13.0363 17.4257 13.9833Z" fill="url(#paint3_linear_561_251)"></path>
</g>
<path d="M11.8047 17.9322C13.6171 16.9246 15.9555 16.431 18.5101 16.431C20.8351 16.369 23.1391 16.8855 25.2151 17.9341V9.81093C23.4489 8.78144 21.0646 8.3078 18.5101 8.3078C16.1851 8.24536 13.8811 8.76118 11.8047 9.80898V17.9322Z" fill="#5A78FF"></path>
<defs>
<linearGradient id="paint0_linear_561_251" x1="304.404" y1="552.59" x2="253.472" y2="-41.6383" gradientUnits="userSpaceOnUse">
<stop stop-color="#504678"></stop>
<stop offset="0.302" stop-color="#504678" stop-opacity="0.616"/></stop>
<stop offset="0.608" stop-color="#504678" stop-opacity="0.283"></stop>
<stop offset="0.852" stop-color="#504678" stop-opacity="0.076"/></stop>
<stop offset="1" stop-color="#504678" stop-opacity="0"></stop>
</linearGradient>
<linearGradient id="paint1_linear_561_251" x1="-303.672" y1="-605.826" x2="-271.73" y2="59.9994" gradientUnits="userSpaceOnUse">
<stop stop-color="#504678"/>
<stop offset="0.302" stop-color="#504678" stop-opacity="0.616"></stop>
<stop offset="0.608" stop-color="#504678" stop-opacity="0.283"></stop>
<stop offset="0.852" stop-color="#504678" stop-opacity="0.076"></stop>
<stop offset="1" stop-color="#504678" stop-opacity="0"></stop>
</linearGradient>
<linearGradient id="paint2_linear_561_251" x1="223.846" y1="883.156" x2="847.174" y2="458.222" gradientUnits="userSpaceOnUse">
<stop stop-color="#504678"></stop>
<stop offset="0.179" stop-color="#504678" stop-opacity="0.872"></stop>
<stop offset="0.526" stop-color="#504678" stop-opacity="0.536"></stop>
<stop offset="1" stop-color="#504678" stop-opacity="0"></stop>
</linearGradient>
<linearGradient id="paint3_linear_561_251" x1="758.602" y1="467.767" x2="730.953" y2="246.626" gradientUnits="userSpaceOnUse">
<stop stop-color="#504678"></stop>
<stop offset="0.643" stop-color="#504678" stop-opacity="0.332"></stop>
<stop offset="1" stop-color="#504678" stop-opacity="0"></stop>
</linearGradient>
</defs>
</svg>
