<svg width="50" height="21" viewBox="0 0 50 21" fill="none" xmlns="http://www.w3.org/2000/svg">
<g clip-path="url(#clip0_8_17)">
<path d="M11.3233 0C16.65 0.461046 20.83 4.93918 20.83 10.3954C20.83 16.1583 16.167 20.83 10.415 20.83C4.66295 20.83 0 16.1583 0 10.3954C0 4.93918 4.18 0.461046 9.50673 0H11.3233Z" fill="white"/>
<path fill-rule="evenodd" clip-rule="evenodd" d="M7.65502 20.4595C5.59491 19.8938 3.78985 18.71 2.45074 17.1197H7.00333L7.65502 20.4595ZM18.4076 17.0859C17.0409 18.723 15.1824 19.9338 13.0598 20.4905C13.1732 19.8014 13.3815 18.5369 13.6208 17.0859H18.4076Z" fill="#E05F0C"/>
<path fill-rule="evenodd" clip-rule="evenodd" d="M1.47557 5.03825L2.21175 8.61668L5.30096 8.62199L6.69942 15.7925H1.49956C0.547825 14.2178 0 12.3707 0 10.3954C0 8.43681 0.538626 6.60422 1.47557 5.03825ZM1.63498 4.7804H8.15633L10.3371 15.7925H10.4301L11.804 8.73829C12.4963 5.53539 12.7579 4.7804 16.6593 4.7804H19.195C17.4981 2.1226 14.6319 0.286373 11.3232 0H9.50671C6.19807 0.286373 3.33186 2.1226 1.63498 4.7804ZM19.4003 5.11582C19.2322 5.97654 18.7569 8.37635 18.1932 10.9367C17.9247 12.1589 15.5817 12.0141 15.6986 10.8728C15.7109 10.7536 15.8217 9.89477 15.9093 9.28373C16.037 8.40432 15.1486 8.29423 14.9886 9.16462C14.8747 9.78819 14.3602 12.8827 13.8794 15.7925H19.3304C20.2821 14.2178 20.83 12.3707 20.83 10.3954C20.83 8.46906 20.3089 6.66461 19.4003 5.11582Z" fill="#0A438A"/>
<path d="M20.4167 10.4166C20.4167 4.89378 15.9395 0.416626 10.4167 0.416626C4.89384 0.416626 0.416687 4.89378 0.416687 10.4166C0.416687 15.9395 4.89384 20.4166 10.4167 20.4166C15.9395 20.4166 20.4167 15.9395 20.4167 10.4166Z" stroke="white" stroke-width="0.833333"/>
<path d="M35.0026 10.4166C35.0026 4.89378 30.5255 0.416626 25.0026 0.416626C19.4798 0.416626 15.0026 4.89378 15.0026 10.4166C15.0026 15.9395 19.4798 20.4166 25.0026 20.4166C30.5255 20.4166 35.0026 15.9395 35.0026 10.4166Z" fill="#E60005"/>
<path d="M25.0214 2.76367C24.7647 2.76367 24.515 2.81727 24.2887 2.91547C24.0613 3.01167 23.8783 3.12807 23.7075 3.29507C23.5398 3.46307 23.4013 3.67767 23.3033 3.90227C23.2073 4.12907 23.1517 4.35377 23.1517 4.61077C23.1517 4.86787 23.2073 5.11787 23.3033 5.34457C23.4013 5.56827 23.5398 5.75957 23.7075 5.92657C23.8783 6.09557 24.0613 6.23327 24.2887 6.33147C24.515 6.42757 24.7647 6.48327 25.0214 6.48327C25.2801 6.48327 25.5277 6.42757 25.7541 6.33147C25.9785 6.23327 26.1685 6.09557 26.3352 5.92657C26.503 5.75957 26.6415 5.56827 26.7395 5.34457C26.8355 5.11787 26.8911 4.86787 26.8911 4.61077C26.8911 4.35377 26.8355 4.12907 26.7395 3.90227C26.6415 3.67767 26.503 3.46307 26.3352 3.29507C26.1685 3.12807 25.9785 3.01167 25.7541 2.91547C25.5277 2.81727 25.2801 2.76367 25.0214 2.76367ZM21.282 7.62187C21.0252 7.62187 20.8009 7.65027 20.5745 7.74837C20.3481 7.84557 20.1369 7.98527 19.9681 8.15327C19.8003 8.32127 19.6851 8.53377 19.5891 8.76057C19.4911 8.98517 19.4375 9.21197 19.4375 9.46897V13.5682H28.0028V14.7068H19.4375V14.9092V15.4406C19.4375 15.6987 19.4921 15.9477 19.5891 16.1744C19.6851 16.4011 19.8013 16.5873 19.9681 16.7564C20.1369 16.9234 20.3481 17.064 20.5745 17.1612C20.8009 17.2594 21.0252 17.313 21.282 17.313H28.7608C29.0175 17.313 29.2419 17.2594 29.4683 17.1612C29.6957 17.064 29.9079 16.9234 30.0747 16.7564C30.2435 16.5873 30.3809 16.4011 30.4789 16.1744C30.577 15.9477 30.6053 15.6987 30.6053 15.4406V14.9092V11.3415H22.0399V10.2281H30.6053V9.46897C30.6053 9.21197 30.578 8.98517 30.4789 8.76057C30.3819 8.53377 30.2435 8.32127 30.0747 8.15327C29.9079 7.98527 29.6957 7.84557 29.4683 7.74837C29.2419 7.65027 29.0175 7.62187 28.7608 7.62187H21.282Z" fill="white"/>
<path d="M35.0026 10.4166C35.0026 4.89378 30.5255 0.416626 25.0026 0.416626C19.4798 0.416626 15.0026 4.89378 15.0026 10.4166C15.0026 15.9395 19.4798 20.4166 25.0026 20.4166C30.5255 20.4166 35.0026 15.9395 35.0026 10.4166Z" stroke="white" stroke-width="0.833333"/>
<path d="M49.5807 10.4166C49.5807 4.89378 45.1035 0.416626 39.5807 0.416626C34.0578 0.416626 29.5807 4.89378 29.5807 10.4166C29.5807 15.9395 34.0578 20.4166 39.5807 20.4166C45.1035 20.4166 49.5807 15.9395 49.5807 10.4166Z" fill="white"/>
<path d="M39.5781 4.91602C39.21 4.91602 38.9115 5.21452 38.9115 5.58272V9.74942H34.7448C34.3766 9.74942 34.0781 10.0479 34.0781 10.416C34.0781 10.7842 34.3766 11.0827 34.7448 11.0827H38.9115V15.2494C38.9115 15.6175 39.21 15.916 39.5781 15.916C39.9463 15.916 40.2448 15.6175 40.2448 15.2494V11.0827H44.4115C44.7796 11.0827 45.0781 10.7842 45.0781 10.416C45.0781 10.0479 44.7796 9.74942 44.4115 9.74942H40.2448V5.58272C40.2448 5.21452 39.9463 4.91602 39.5781 4.91602Z" fill="black"/>
<path d="M49.5807 10.4166C49.5807 4.89378 45.1035 0.416626 39.5807 0.416626C34.0578 0.416626 29.5807 4.89378 29.5807 10.4166C29.5807 15.9395 34.0578 20.4166 39.5807 20.4166C45.1035 20.4166 49.5807 15.9395 49.5807 10.4166Z" stroke="white" stroke-width="0.833333"/>
</g>
<defs>
<clipPath id="clip0_8_17">
<rect width="50" height="21" fill="white"/>
</clipPath>
</defs>
</svg>
