<svg width="36" height="20" viewBox="0 0 36 20" fill="none" xmlns="http://www.w3.org/2000/svg">
<g clip-path="url(#clip0_1_345)">
<path d="M26.4255 0.5H9.57447C4.30851 0.5 0 4.775 0 10C0 15.225 4.30851 19.5 9.57447 19.5H26.4255C31.6915 19.5 36 15.225 36 10C36 4.775 31.6915 0.5 26.4255 0.5Z" fill="white"/>
<path d="M26.4255 1.2695C27.608 1.2695 28.7569 1.50225 29.8388 1.95825C30.8872 2.4 31.8255 3.03175 32.6394 3.8345C33.4484 4.63725 34.0851 5.573 34.5303 6.61325C34.9899 7.68675 35.2245 8.82675 35.2245 10C35.2245 11.1732 34.9899 12.3133 34.5303 13.3868C34.0851 14.427 33.4484 15.358 32.6394 16.1655C31.8303 16.9682 30.8872 17.6 29.8388 18.0417C28.7569 18.4977 27.608 18.7305 26.4255 18.7305H9.57447C8.39202 18.7305 7.24308 18.4977 6.16117 18.0417C5.11277 17.6 4.17447 16.9682 3.36064 16.1655C2.5516 15.3627 1.91489 14.427 1.46968 13.3868C1.01011 12.3133 0.775532 11.1732 0.775532 10C0.775532 8.82675 1.01011 7.68675 1.46968 6.61325C1.91489 5.573 2.5516 4.642 3.36064 3.8345C4.16968 3.03175 5.11277 2.4 6.16117 1.95825C7.24308 1.50225 8.39202 1.2695 9.57447 1.2695H26.4255ZM26.4255 0.5H9.57447C4.30851 0.5 0 4.775 0 10C0 15.225 4.30851 19.5 9.57447 19.5H26.4255C31.6915 19.5 36 15.225 36 10C36 4.775 31.6915 0.5 26.4255 0.5Z" fill="#3C4043"/>
<path d="M17.1661 10.6748V13.5485H16.247V6.45201H18.6837C19.3012 6.45201 19.8278 6.65626 20.2587 7.06476C20.6991 7.47326 20.9193 7.97201 20.9193 8.56101C20.9193 9.16426 20.6991 9.66301 20.2587 10.0668C19.8326 10.4705 19.306 10.67 18.6837 10.67H17.1661V10.6748ZM17.1661 7.32601V9.80076H18.7028C19.0667 9.80076 19.373 9.67726 19.6124 9.43501C19.8566 9.19276 19.981 8.89826 19.981 8.56576C19.981 8.23801 19.8566 7.94826 19.6124 7.70601C19.373 7.45426 19.0714 7.33076 18.7028 7.33076H17.1661V7.32601ZM23.3225 8.53251C24.0023 8.53251 24.5385 8.71301 24.931 9.07401C25.3236 9.43501 25.5199 9.92901 25.5199 10.556V13.5485H24.6438V12.874H24.6055C24.2273 13.4298 23.7199 13.7053 23.0879 13.7053C22.547 13.7053 22.097 13.5485 21.7331 13.2303C21.3693 12.912 21.1874 12.5178 21.1874 12.0428C21.1874 11.5393 21.3789 11.1403 21.7619 10.8458C22.1449 10.5465 22.6571 10.3993 23.2938 10.3993C23.8395 10.3993 24.2895 10.499 24.639 10.6985V10.4895C24.639 10.1713 24.5145 9.90526 24.2608 9.68201C24.0071 9.45876 23.7103 9.34951 23.3704 9.34951C22.8581 9.34951 22.4512 9.56326 22.1544 9.99551L21.3454 9.49201C21.7906 8.85076 22.4512 8.53251 23.3225 8.53251ZM22.1353 12.057C22.1353 12.2945 22.2358 12.494 22.4417 12.6508C22.6427 12.8075 22.8821 12.8883 23.155 12.8883C23.5427 12.8883 23.8874 12.7458 24.189 12.4608C24.4906 12.1758 24.6438 11.8433 24.6438 11.4585C24.3566 11.2353 23.9592 11.1213 23.447 11.1213C23.0736 11.1213 22.7624 11.2115 22.5135 11.3873C22.2597 11.5725 22.1353 11.7958 22.1353 12.057Z" fill="#3C4043"/>
<path d="M30.518 8.68901L27.454 15.681H26.506L27.645 13.235L25.625 8.68901H26.626L28.081 12.176H28.1L29.517 8.68901H30.518Z" fill="#3C4043"/>
<path d="M13.5106 10.095C13.5106 9.79766 13.4838 9.51313 13.434 9.23953H9.58127V10.807L11.8002 10.8075C11.7102 11.3291 11.4205 11.7737 10.9767 12.0701V13.087H12.2975C13.0688 12.3788 13.5106 11.3319 13.5106 10.095Z" fill="#4285F4"/>
<path d="M10.9772 12.0701C10.6096 12.3161 10.1361 12.46 9.58222 12.46C8.51227 12.46 7.60461 11.7447 7.27956 10.7804H5.91711V11.8292C6.59211 13.1583 7.97945 14.0703 9.58222 14.0703C10.69 14.0703 11.6206 13.7088 12.298 13.0866L10.9772 12.0701Z" fill="#34A853"/>
<path d="M7.15125 10.0024C7.15125 9.73162 7.19673 9.4699 7.27955 9.22385V8.17505H5.9171C5.63801 8.72462 5.48099 9.34497 5.48099 10.0024C5.48099 10.6598 5.63849 11.2801 5.9171 11.8297L7.27955 10.7809C7.19673 10.5348 7.15125 10.2731 7.15125 10.0024Z" fill="#FABB05"/>
<path d="M9.58222 7.54426C10.1868 7.54426 10.7283 7.75088 11.1558 8.15463L12.3263 6.99421C11.6154 6.33728 10.6886 5.93401 9.58222 5.93401C7.97993 5.93401 6.59211 6.84601 5.91711 8.17506L7.27956 9.22386C7.60461 8.25961 8.51227 7.54426 9.58222 7.54426Z" fill="#E94235"/>
</g>
<defs>
<clipPath id="clip0_1_345">
<rect width="36" height="19" fill="white" transform="translate(0 0.5)"/>
</clipPath>
</defs>
</svg>
