<svg viewBox="0 0 36 36" fill="none" xmlns="http://www.w3.org/2000/svg" preserveAspectRatio="xMidYMin slice" width="100%">
<path d="M17.9913 36C27.8569 36 36 27.853 36 18C36 8.147 27.8395 0 17.9739 0C8.12566 0 0 8.147 0 18C0 27.853 8.14306 36 17.9913 36ZM9.22185 20.1934C8.43886 20.1934 7.82987 19.5841 7.82987 18.8008C7.82987 18.0174 8.43886 17.4081 9.22185 17.4081H16.5993V7.41586C16.5993 6.6325 17.2083 6.02321 17.9739 6.02321C18.7743 6.02321 19.3833 6.6325 19.3833 7.41586V18.8008C19.3833 19.5841 18.7743 20.1934 17.9739 20.1934H9.22185Z" fill="#D1D1D1"/>
</svg>
