  <svg viewBox="0 0 34 34" preserveAspectRatio="xMidYMin slice" fill="none" width="100%">
    <path fill="currentColor" fill-rule="evenodd" clip-rule="evenodd" d="M8 12C6.89543 12 6 12.8954 6 14V30C6 31.1046 6.89543 32 8 32H26C27.1046 32 28 31.1046 28 30V14C28 12.8954 27.1046 12 26 12H21C20.4477 12 20 11.5523 20 11C20 10.4477 20.4477 10 21 10H26C28.2091 10 30 11.7909 30 14V30C30 32.2091 28.2091 34 26 34H8C5.79086 34 4 32.2091 4 30V14C4 11.7909 5.79086 10 8 10H13C13.5523 10 14 10.4477 14 11C14 11.5523 13.5523 12 13 12H8Z" fill="#A4A2A4"/>
    <path fill="currentColor" fill-rule="evenodd" clip-rule="evenodd" d="M17 0C17.5523 0 18 0.447715 18 1V21C18 21.5523 17.5523 22 17 22C16.4477 22 16 21.5523 16 21V1C16 0.447715 16.4477 0 17 0Z" fill="#A4A2A4"/>
    <path fill="currentColor" fill-rule="evenodd" clip-rule="evenodd" d="M16.2222 0.363198C16.6518 -0.0663789 17.3482 -0.0663783 17.7778 0.363198L23.2071 5.79249C23.5976 6.18301 23.5976 6.81618 23.2071 7.2067C22.8166 7.59723 22.1834 7.59723 21.7929 7.2067L17 2.41381L12.2071 7.2067C11.8166 7.59723 11.1834 7.59723 10.7929 7.2067C10.4024 6.81618 10.4024 6.18301 10.7929 5.79249L16.2222 0.363198Z" fill="#A4A2A4"/>
  </svg>
