<svg viewBox="0 0 36 36" fill="none" xmlns="http://www.w3.org/2000/svg" preserveAspectRatio="xMidYMin slice" width="100%">
<path fill-rule="evenodd" clip-rule="evenodd" d="M18 36C27.9411 36 36 27.9411 36 18C36 8.05887 27.9411 0 18 0C8.05887 0 0 8.05887 0 18C0 27.9411 8.05887 36 18 36ZM17.6274 24.7474C17.2619 25.3218 16.7224 25.635 16.0784 25.635C15.4345 25.635 14.9298 25.3566 14.4599 24.7648L10.3525 19.7699C10.0566 19.387 9.9 19.0041 9.9 18.5864C9.9 17.7162 10.5788 17.02 11.449 17.02C11.9537 17.02 12.3714 17.2115 12.7891 17.751L16.0262 21.841L22.9531 10.7894C23.3185 10.1976 23.7885 9.90176 24.3106 9.90176C25.146 9.90176 25.9118 10.4761 25.9118 11.3463C25.9118 11.7466 25.7203 12.1643 25.4767 12.5298L17.6274 24.7474Z" fill="#069D3B"></path>
</svg>
