<svg width="100%" viewBox="0 0 29 28" fill="none" xmlns="http://www.w3.org/2000/svg">
 <path d="m7.7224 27.778h13.555c2.7339 0 4.1453-1.4368 4.1453-4.1835v-11.546c0-1.7803-0.22888-2.5941-1.3351-3.7258l-6.6505-6.7522c-1.0809-1.0936-1.971-1.3479-3.5733-1.3479h-6.1417c-2.7212 0-4.1454 1.4369-4.1454 4.1963v19.176c0 2.7467 1.4242 4.1835 4.1454 4.1835zm0.21617-2.5432c-1.2207 0-1.8311-0.63572-1.8311-1.8056v-18.858c0-1.1571 0.61036-1.8057 1.8438-1.8057h5.3916v6.9175c0 1.8438 0.9028 2.734 2.7339 2.734h6.8158v11.012c0 1.1699-0.6104 1.8056-1.8438 1.8056zm8.3798-15.043c-0.53401 0-0.76289-0.22888-0.76289-0.75031v-6.3452l6.9938 7.0955zm-0.69938 12.436v-3.8402l-0.10171-1.971 0.97919 1.03 0.95372 0.97904c0.19069 0.20356 0.48308 0.33074 0.75016 0.33074 0.58494 0 1.0172-0.40698 1.0172-0.96646 0-0.33059-0.12703-0.55947-0.36864-0.77562l-3.4969-3.2045c-0.29254-0.26708-0.53416-0.39425-0.85202-0.39425s-0.55947 0.12717-0.85202 0.39425l-3.4969 3.2045c-0.24161 0.21615-0.36864 0.44503-0.36864 0.77562 0 0.55947 0.4323 0.96646 1.0172 0.96646 0.26708 0 0.55947-0.12717 0.75016-0.33074l0.95372-0.97904 0.97919-1.03-0.10171 1.971v3.8402c0 0.61026 0.50855 1.0808 1.1189 1.0808s1.1189-0.4705 1.1189-1.0808z" fill="#a0a0a0" style="stroke-width:1.4468"/>
</svg>
