<svg width="100%" viewBox="0 0 29 28" fill="none" xmlns="http://www.w3.org/2000/svg">
 <path d="m4.812 23.545h11.867c2.9327 0 4.633-1.6547 4.633-4.5303v-1.3693l4.0966 3.469c0.53634 0.45636 1.0954 0.76459 1.6432 0.76459 1.0384 0 1.7573-0.75316 1.7573-1.8828v-11.925c0-1.1297-0.71888-1.8828-1.7573-1.8828-0.54776 0-1.1068 0.30809-1.6432 0.75314l-4.0966 3.4803v-1.4263c0-2.8756-1.7003-4.5416-4.633-4.5416h-11.867c-2.83 0-4.6215 1.666-4.6215 4.5416v10.099c0 2.8642 1.6888 4.4504 4.6215 4.4504zm0.37657-2.0541c-1.7801 0-2.7957-0.95856-2.7957-2.8071v-9.3571c0-1.8829 1.0156-2.8072 2.7957-2.8072h11.114c1.7801 0 2.7957 0.94712 2.7957 2.8072v9.3571c0 1.8486-1.027 2.8071-2.7957 2.8071zm21.076-2.2479-4.9523-4.0509v-2.3165l4.9523-4.051c0.1027-0.079873 0.17125-0.12552 0.26252-0.12552 0.12555 0 0.19397 0.091298 0.19397 0.25104v10.167c0 0.1484-0.06842 0.2511-0.19397 0.2511-0.09127 0-0.15982-0.05713-0.26252-0.12555z" fill="#a0a0a0" style="stroke-width:1.2983"/>
</svg>
