<svg width="16" height="18" viewBox="0 0 16 18" fill="none" xmlns="http://www.w3.org/2000/svg">
<path d="M2.70068 8.87429C2.93846 8.83625 3.17418 8.81352 3.41255 8.81352C3.6583 8.81352 3.89402 8.83625 4.14656 8.87561V2.64989C4.14656 1.96842 4.5005 1.58363 5.21887 1.58363H8.36481V5.63098C8.36481 6.68702 8.8802 7.19769 9.93158 7.19769H13.9097V13.6058C13.9097 14.2933 13.5557 14.666 12.8387 14.666H8.12922C8.04256 15.1823 7.85231 15.6785 7.58385 16.1118H12.9588C14.541 16.1118 15.3556 15.2838 15.3556 13.6957V6.99995C15.3556 5.97489 15.2236 5.50446 14.5814 4.85017L10.705 0.91324C10.0883 0.283142 9.57558 0.137756 8.65469 0.137756H5.0974C3.52266 0.137756 2.70068 0.971839 2.70068 2.56V8.87429ZM9.63994 5.48809V1.78451L13.7088 5.92262H10.0684C9.76256 5.92262 9.63994 5.79257 9.63994 5.48809Z" fill="#0371E2"/>
<path fill-rule="evenodd" clip-rule="evenodd" d="M3.58602 17.5741C1.53087 16.4127 0.695557 15.8655 0.695557 14.4526V11.7904C0.695557 11.3146 0.867984 11.0249 1.34062 10.8244C1.6565 10.6928 2.55864 10.3804 3.09868 10.1935C3.24725 10.142 3.36842 10.1001 3.44243 10.074C3.7553 9.95533 4.0749 9.95269 4.36226 10.0485C4.75233 10.1841 6.10832 10.6566 6.51855 10.8244C6.99112 11.0235 7.15882 11.3146 7.15882 11.7904V14.4526C7.15882 15.8655 6.32622 16.4119 4.26704 17.5741C4.04228 17.7003 3.76714 17.6821 3.58602 17.5741ZM2.15325 15.5296C2.35363 15.7287 2.67865 15.7569 2.88515 15.5491L3.92885 14.5088L4.89855 15.4725C5.10164 15.6682 5.40928 15.6608 5.60501 15.4712C5.802 15.2801 5.79595 14.9679 5.60501 14.7661L4.63657 13.7963L5.68291 12.75C5.88941 12.5422 5.86119 12.2238 5.66081 12.022C5.46035 11.825 5.1393 11.7934 4.93281 11.9999L3.89251 13.0463L2.91544 12.0752C2.72104 11.8868 2.40339 11.8916 2.20904 12.0752C2.01464 12.2662 2.02068 12.5872 2.20904 12.7816L3.18006 13.7587L2.13372 14.8037C1.9259 15.0102 1.95147 15.3365 2.15325 15.5296Z" fill="#0371E2"/>
</svg>
