<svg width="17" height="18" viewBox="0 0 17 18" fill="none" xmlns="http://www.w3.org/2000/svg">
  <path d="M3.70067 8.87423C3.93845 8.83619 4.17416 8.81346 4.41253 8.81346C4.65828 8.81346 4.894 8.83619 5.14654 8.87555V2.64983C5.14654 1.96836 5.50048 1.58357 6.21885 1.58357H9.3648V5.63092C9.3648 6.68696 9.88019 7.19763 10.9316 7.19763H14.9097V13.6057C14.9097 14.2932 14.5557 14.6659 13.8387 14.6659H9.1292C9.04255 15.1822 8.8523 15.6784 8.58383 16.1118H13.9588C15.541 16.1118 16.3555 15.2838 16.3555 13.6956V6.99988C16.3555 5.97483 16.2236 5.5044 15.5814 4.85011L11.705 0.913179C11.0883 0.283081 10.5756 0.137695 9.65467 0.137695H6.09738C4.52265 0.137695 3.70067 0.971777 3.70067 2.55994V8.87423ZM10.6399 5.48803V1.78445L14.7088 5.92256H11.0684C10.7625 5.92256 10.6399 5.79251 10.6399 5.48803Z" fill="white"></path>
  <path d="M4.74332 17.2464C6.84901 17.2464 8.58703 15.5084 8.58703 13.4064C8.58703 11.3044 6.84529 9.56641 4.73961 9.56641C2.63763 9.56641 0.90332 11.3044 0.90332 13.4064C0.90332 15.5084 2.64135 17.2464 4.74332 17.2464ZM4.73961 15.5752C4.63934 15.5752 4.56506 15.501 4.56506 15.397V15.1333C4.01171 15.0887 3.6032 14.7991 3.49179 14.3905C3.47694 14.3423 3.46951 14.2977 3.46951 14.2531C3.46951 14.0972 3.57721 13.9895 3.7369 13.9895C3.87059 13.9895 3.95972 14.06 4.01543 14.1974C4.07485 14.424 4.25682 14.5911 4.56506 14.6357V13.6255L4.49821 13.6107C3.85574 13.4621 3.5215 13.165 3.5215 12.6637C3.5215 12.1215 3.95601 11.7501 4.56506 11.6944V11.4344C4.56506 11.3267 4.63934 11.2562 4.73961 11.2562C4.83988 11.2562 4.91787 11.3304 4.91787 11.4344V11.6944C5.43779 11.7464 5.82402 12.0323 5.928 12.4297C5.93914 12.4743 5.95028 12.5188 5.95028 12.5634C5.95028 12.7119 5.84259 12.8196 5.68661 12.8196C5.5492 12.8196 5.46007 12.7416 5.40437 12.6154C5.33009 12.3888 5.16297 12.244 4.91787 12.1994V13.1539L5.00328 13.1724C5.67547 13.2987 6.01342 13.6069 6.01342 14.1343C6.01342 14.7211 5.54549 15.0813 4.91787 15.137V15.397C4.91787 15.501 4.83988 15.5752 4.73961 15.5752ZM4.56506 13.0647V12.1957C4.27168 12.244 4.09342 12.4186 4.09342 12.6265C4.09342 12.8345 4.23083 12.9682 4.53907 13.0573L4.56506 13.0647ZM4.91787 13.7109V14.6357C5.27067 14.5948 5.44522 14.4165 5.44522 14.1751C5.44522 13.9598 5.32266 13.8186 4.98843 13.7295L4.91787 13.7109Z" fill="white"></path>
</svg>
