<svg width="16" height="18" viewBox="0 0 16 18" fill="none" xmlns="http://www.w3.org/2000/svg">
<path d="M2.70068 8.87429C2.93846 8.83625 3.17418 8.81352 3.41255 8.81352C3.6583 8.81352 3.89402 8.83625 4.14656 8.87561V2.64989C4.14656 1.96842 4.5005 1.58363 5.21887 1.58363H8.36481V5.63098C8.36481 6.68702 8.8802 7.19769 9.93158 7.19769H13.9097V13.6058C13.9097 14.2933 13.5557 14.666 12.8387 14.666H8.12922C8.04256 15.1823 7.85231 15.6785 7.58385 16.1118H12.9588C14.541 16.1118 15.3556 15.2838 15.3556 13.6957V6.99995C15.3556 5.97489 15.2236 5.50446 14.5814 4.85017L10.705 0.91324C10.0883 0.283142 9.57558 0.137756 8.65469 0.137756H5.0974C3.52266 0.137756 2.70068 0.971839 2.70068 2.56V8.87429ZM9.63994 5.48809V1.78451L13.7088 5.92262H10.0684C9.76256 5.92262 9.63994 5.79257 9.63994 5.48809Z" fill="white"></path>
<path fill-rule="evenodd" clip-rule="evenodd" d="M3.58602 17.5741C1.53087 16.4127 0.695557 15.8655 0.695557 14.4526V11.7904C0.695557 11.3146 0.867984 11.0249 1.34062 10.8244C1.6565 10.6928 2.55864 10.3804 3.09868 10.1935C3.24725 10.142 3.36842 10.1001 3.44243 10.074C3.7553 9.95533 4.0749 9.95269 4.36226 10.0485C4.75233 10.1841 6.10832 10.6566 6.51855 10.8244C6.99112 11.0235 7.15882 11.3146 7.15882 11.7904V14.4526C7.15882 15.8655 6.32622 16.4119 4.26704 17.5741C4.04228 17.7003 3.76714 17.6821 3.58602 17.5741ZM3.33725 15.67C3.44297 15.7899 3.60972 15.84 3.74337 15.84C3.91726 15.84 4.07815 15.7621 4.16705 15.6492L6.23722 12.7987C6.30794 12.7052 6.33782 12.5936 6.33782 12.5047C6.33782 12.2225 6.10613 12 5.8272 12C5.65203 12 5.49826 12.0876 5.40553 12.2258L3.71746 14.561L2.88882 13.6532C2.79992 13.552 2.67018 13.4844 2.50727 13.4844C2.23278 13.4844 2 13.6935 2 13.995C2 14.1215 2.0453 14.2604 2.14133 14.3661L3.33725 15.67Z" fill="white"></path>
</svg>
