<svg width="16" height="16" viewBox="0 0 16 16" fill="none" xmlns="http://www.w3.org/2000/svg">
<path fill-rule="evenodd" clip-rule="evenodd" d="M2.75 2.75V4.58148H4.58333V2.75H2.75ZM1.25 2.6663C1.25 1.8837 1.88466 1.25 2.66667 1.25H4.66667C5.44868 1.25 6.08333 1.8837 6.08333 2.6663V4.66519C6.08333 5.44778 5.44868 6.08148 4.66667 6.08148H2.66667C1.88466 6.08148 1.25 5.44778 1.25 4.66519V2.6663Z" fill="white"></path>
<path fill-rule="evenodd" clip-rule="evenodd" d="M11.4167 2.75V4.58148H13.25V2.75H11.4167ZM9.91666 2.6663C9.91666 1.8837 10.5513 1.25 11.3333 1.25H13.3333C14.1153 1.25 14.75 1.8837 14.75 2.6663V4.66519C14.75 5.44778 14.1153 6.08148 13.3333 6.08148H11.3333C10.5513 6.08148 9.91666 5.44778 9.91666 4.66519V2.6663Z" fill="white"></path>
<path fill-rule="evenodd" clip-rule="evenodd" d="M2.75 11.4118V13.2433H4.58333V11.4118H2.75ZM1.25 11.3281C1.25 10.5456 1.88466 9.91185 2.66667 9.91185H4.66667C5.44868 9.91185 6.08333 10.5456 6.08333 11.3281V13.327C6.08333 14.1096 5.44868 14.7433 4.66667 14.7433H2.66667C1.88466 14.7433 1.25 14.1096 1.25 13.327V11.3281Z" fill="white"></path>
<path fill-rule="evenodd" clip-rule="evenodd" d="M10.527 10.5217C10.9177 10.1312 11.4476 9.91185 12 9.91185H14C14.4142 9.91185 14.75 10.2476 14.75 10.6618C14.75 11.0761 14.4142 11.4118 14 11.4118H12C11.8451 11.4118 11.6967 11.4733 11.5874 11.5826C11.478 11.6919 11.4167 11.8401 11.4167 11.9944V13.9933C11.4167 14.4075 11.0809 14.7433 10.6667 14.7433C10.2524 14.7433 9.91666 14.4075 9.91666 13.9933V11.9944C9.91666 11.442 10.1363 10.9122 10.527 10.5217Z" fill="white"></path>
<path fill-rule="evenodd" clip-rule="evenodd" d="M14 13.2433C14.4142 13.2433 14.75 13.5791 14.75 13.9933V14C14.75 14.4142 14.4142 14.75 14 14.75C13.5858 14.75 13.25 14.4142 13.25 14V13.9933C13.25 13.5791 13.5858 13.2433 14 13.2433Z" fill="white"></path>
<path fill-rule="evenodd" clip-rule="evenodd" d="M7.99999 3.91518C8.4142 3.91518 8.74999 4.25097 8.74999 4.66518V6.66407C8.74999 7.21655 8.53039 7.74631 8.13965 8.13684C7.74892 8.52735 7.21906 8.74667 6.66666 8.74667H4.66666C4.25244 8.74667 3.91666 8.41088 3.91666 7.99667C3.91666 7.58245 4.25244 7.24667 4.66666 7.24667H6.66666C6.8215 7.24667 6.96992 7.18519 7.07928 7.07588C7.18863 6.96659 7.24999 6.81845 7.24999 6.66407V4.66518C7.24999 4.25097 7.58578 3.91518 7.99999 3.91518Z" fill="white"></path>
<path fill-rule="evenodd" clip-rule="evenodd" d="M1.25 7.99667C1.25 7.58245 1.58579 7.24667 2 7.24667H2.00667C2.42088 7.24667 2.75667 7.58245 2.75667 7.99667C2.75667 8.41088 2.42088 8.74667 2.00667 8.74667H2C1.58579 8.74667 1.25 8.41088 1.25 7.99667Z" fill="white"></path>
<path fill-rule="evenodd" clip-rule="evenodd" d="M7.25 2C7.25 1.58579 7.58579 1.25 8 1.25H8.00667C8.42088 1.25 8.75667 1.58579 8.75667 2C8.75667 2.41421 8.42088 2.75 8.00667 2.75H8C7.58579 2.75 7.25 2.41421 7.25 2Z" fill="white"></path>
<path fill-rule="evenodd" clip-rule="evenodd" d="M8 9.91185C8.41421 9.91185 8.75 10.2476 8.75 10.6618V10.6685C8.75 11.0827 8.41421 11.4185 8 11.4185C7.58579 11.4185 7.25 11.0827 7.25 10.6685V10.6618C7.25 10.2476 7.58579 9.91185 8 9.91185Z" fill="white"></path>
<path fill-rule="evenodd" clip-rule="evenodd" d="M9.91666 7.99667C9.91666 7.58245 10.2524 7.24667 10.6667 7.24667H11.3333C11.7475 7.24667 12.0833 7.58245 12.0833 7.99667C12.0833 8.41088 11.7475 8.74667 11.3333 8.74667H10.6667C10.2524 8.74667 9.91666 8.41088 9.91666 7.99667Z" fill="white"></path>
<path fill-rule="evenodd" clip-rule="evenodd" d="M14 7.24667C14.4142 7.24667 14.75 7.58245 14.75 7.99667V8.00333C14.75 8.41755 14.4142 8.75333 14 8.75333C13.5858 8.75333 13.25 8.41755 13.25 8.00333V7.99667C13.25 7.58245 13.5858 7.24667 14 7.24667Z" fill="white"></path>
<path fill-rule="evenodd" clip-rule="evenodd" d="M8 12.577C8.41421 12.577 8.75 12.9128 8.75 13.327V13.9937C8.75 14.4079 8.41421 14.7437 8 14.7437C7.58579 14.7437 7.25 14.4079 7.25 13.9937V13.327C7.25 12.9128 7.58579 12.577 8 12.577Z" fill="white"></path>
</svg>
