<svg height="24" width="24" viewBox="0 0 20 20">
  <g fill="none" fill-rule="evenodd">
    <rect height="20" width="20" fill="#636363" rx="5" />
    <path fill="currentColor" fill-rule="nonzero"
          d="M10,3 C8.09833333,3 7.86091667,3.00875 7.11425,3.042 C6.36875,3.077 5.86125,3.19425 5.415,3.3675 C4.95475,3.546 4.56391667,3.78575 4.17483333,4.17483333 C3.78575,4.56391667 3.54541667,4.95416667 3.3675,5.415 C3.19425,5.86125 3.07641667,6.36875 3.042,7.11425 C3.007,7.86091667 3,8.09833333 3,10 C3,11.9016667 3.00875,12.1390833 3.042,12.88575 C3.077,13.6306667 3.19425,14.13875 3.3675,14.585 C3.546,15.0446667 3.78575,15.4360833 4.17483333,15.8251667 C4.56391667,16.2136667 4.95416667,16.4545833 5.415,16.6325 C5.86183333,16.8051667 6.36933333,16.9235833 7.11425,16.958 C7.86091667,16.993 8.09833333,17 10,17 C11.9016667,17 12.1390833,16.99125 12.88575,16.958 C13.6306667,16.923 14.13875,16.8051667 14.585,16.6325 C15.0446667,16.454 15.4360833,16.2136667 15.8251667,15.8251667 C16.2136667,15.4360833 16.4545833,15.0464167 16.6325,14.585 C16.8051667,14.13875 16.9235833,13.6306667 16.958,12.88575 C16.993,12.1390833 17,11.9016667 17,10 C17,8.09833333 16.99125,7.86091667 16.958,7.11425 C16.923,6.36933333 16.8051667,5.86066667 16.6325,5.415 C16.454,4.95475 16.2136667,4.56391667 15.8251667,4.17483333 C15.4360833,3.78575 15.0464167,3.54541667 14.585,3.3675 C14.13875,3.19425 13.6306667,3.07641667 12.88575,3.042 C12.1390833,3.007 11.9016667,3 10,3 Z M10,4.26 C11.8684167,4.26 12.09125,4.26933333 12.8291667,4.30141667 C13.5116667,4.3335 13.8820833,4.44666667 14.12825,4.5435 C14.4560833,4.67008333 14.68825,4.82175 14.9344167,5.06616667 C15.1788333,5.31116667 15.3305,5.54391667 15.4570833,5.87175 C15.55275,6.11791667 15.6670833,6.48833333 15.698,7.17083333 C15.73125,7.90933333 15.7388333,8.131 15.7388333,10 C15.7388333,11.869 15.7300833,12.09125 15.6956667,12.8291667 C15.6600833,13.5116667 15.5463333,13.8820833 15.4500833,14.12825 C15.3194167,14.4560833 15.1706667,14.68825 14.9256667,14.9344167 C14.68125,15.1788333 14.445,15.3305 14.1206667,15.4570833 C13.8756667,15.55275 13.4994167,15.6670833 12.8169167,15.698 C12.07375,15.73125 11.855,15.7388333 9.9825,15.7388333 C8.10941667,15.7388333 7.89066667,15.7300833 7.14808333,15.6956667 C6.465,15.6600833 6.08875,15.5463333 5.84375,15.4500833 C5.51183333,15.3194167 5.28375,15.1706667 5.03933333,14.9256667 C4.79375,14.68125 4.63683333,14.445 4.51433333,14.1206667 C4.41808333,13.8756667 4.30491667,13.4994167 4.26933333,12.8169167 C4.24308333,12.0819167 4.23375,11.855 4.23375,9.99125 C4.23375,8.12691667 4.24308333,7.89941667 4.26933333,7.15566667 C4.30491667,6.47316667 4.41808333,6.0975 4.51433333,5.8525 C4.63683333,5.52 4.79375,5.2925 5.03933333,5.04691667 C5.28375,4.8025 5.51183333,4.645 5.84375,4.52308333 C6.08875,4.42625 6.45683333,4.3125 7.13933333,4.2775 C7.88308333,4.25125 8.10183333,4.2425 9.97375,4.2425 L10,4.26 L10,4.26 Z M10,6.4055 C8.01375,6.4055 6.4055,8.0155 6.4055,10 C6.4055,11.98625 8.0155,13.5945 10,13.5945 C11.98625,13.5945 13.5945,11.9845 13.5945,10 C13.5945,8.01375 11.9845,6.4055 10,6.4055 Z M10,12.3333333 C8.71083333,12.3333333 7.66666667,11.2891667 7.66666667,10 C7.66666667,8.71083333 8.71083333,7.66666667 10,7.66666667 C11.2891667,7.66666667 12.3333333,8.71083333 12.3333333,10 C12.3333333,11.2891667 11.2891667,12.3333333 10,12.3333333 Z M14.5768333,6.26375 C14.5768333,6.7275 14.2,7.10375 13.7368333,7.10375 C13.2730833,7.10375 12.8968333,6.72691667 12.8968333,6.26375 C12.8968333,5.80058333 13.2736667,5.42433266 13.7368333,5.42433266 C14.1994167,5.42375 14.5768333,5.80058333 14.5768333,6.26375 Z" />
  </g>
</svg>
