<svg height="24" width="24" viewBox="0 0 20 20" fill="none" xmlns="http://www.w3.org/2000/svg">
  <rect _ngcontent-lat-c495="" height="20" width="20" fill="#636363" rx="5" class="ng-tns-c495-7"/>
  <path d="M 16.172 4.524 L 16.179 4.521 C 16.408 4.428 16.563 4.403 16.656 4.404 C 16.7 4.405 16.723 4.412 16.732 4.415 C 16.736 4.417 16.738 4.418 16.739 4.419 L 16.74 4.419 C 16.74 4.42 16.748 4.427 16.757 4.451 C 16.767 4.475 16.779 4.515 16.785 4.576 C 16.799 4.701 16.788 4.883 16.734 5.131 L 16.733 5.134 L 14.386 16.305 L 14.385 16.311 C 14.302 16.734 14.183 16.842 14.149 16.861 C 14.145 16.863 14.037 16.923 13.692 16.723 L 10.136 14.046 L 9.798 13.792 L 9.491 14.084 L 7.412 16.061 C 7.398 16.072 7.387 16.076 7.382 16.078 C 7.381 16.077 7.38 16.077 7.38 16.076 L 7.587 13.534 L 14.991 6.795 C 15.063 6.731 15.131 6.659 15.186 6.579 C 15.239 6.502 15.299 6.39 15.314 6.249 C 15.331 6.089 15.285 5.919 15.161 5.786 C 15.05 5.668 14.916 5.621 14.823 5.601 C 14.64 5.563 14.453 5.596 14.305 5.643 C 14.15 5.692 13.987 5.772 13.831 5.881 L 5.247 11.213 L 1.86 10.131 C 1.852 10.128 1.845 10.124 1.838 10.12 C 1.876 10.087 1.933 10.049 2.01 10.013 L 16.172 4.524 Z" fill="currentColor"/>
</svg>
