<svg width="80" height="80" viewBox="0 0 80 80" fill="none" xmlns="http://www.w3.org/2000/svg">
<path fill-rule="evenodd" clip-rule="evenodd" d="M80 40C80 62.0914 62.0914 80 40 80C17.9086 80 0 62.0914 0 40C0 17.9086 17.9086 0 40 0C62.0914 0 80 17.9086 80 40ZM58 54.4C58 55.085 57.836 55.7317 57.5452 56.303C56.786 57.3894 55.526 58.1 54.1001 58.1H28.9C26.5805 58.1 24.7 56.2196 24.7 53.9V23.1C24.7 22.415 24.864 21.7683 25.1549 21.197C25.9141 20.1106 27.174 19.4 28.6 19.4H39.8V20.1754C39.8 20.1772 39.8 20.1789 39.8 20.1807L39.8 29.2C39.8 29.2134 39.8 29.2267 39.8001 29.2401C39.8217 33.0876 42.9474 36.2 46.8 36.2H47.2667H57.4526H58V54.4ZM42.9 16.1854V16.1H41.5H28.9C26.2451 16.1 23.9353 17.5781 22.7488 19.7563C22.0226 20.8596 21.6 22.1804 21.6 23.6V54.4C21.6 58.266 24.734 61.4 28.6 61.4H53.8C56.455 61.4 58.7647 59.9219 59.9513 57.7437C60.6775 56.6405 61.1001 55.3196 61.1001 53.9V34.3V32.9H61.0555C61.0848 32.7219 61.1001 32.539 61.1001 32.3526C61.1001 31.4184 60.7096 30.5266 60.0231 29.893L46.1095 17.0496C45.448 16.439 44.5809 16.1 43.6808 16.1C43.4126 16.1 43.1514 16.1295 42.9 16.1854ZM42.9001 19.6807L42.9 28.7C42.9001 30.9162 44.8818 32.9 47.5667 32.9H57.7527C57.8416 32.9 57.9256 32.8788 57.9999 32.8411C57.9968 32.6926 57.9333 32.5514 57.8239 32.4504L43.9103 19.607C43.766 19.4739 43.577 19.4 43.3807 19.4C43.2038 19.4 43.0406 19.4589 42.9096 19.5581C42.9033 19.598 42.9001 19.639 42.9001 19.6807Z" fill="#D9D9D9"/>
<path fill-rule="evenodd" clip-rule="evenodd" d="M80 40C80 62.0914 62.0914 80 40 80C17.9086 80 0 62.0914 0 40C0 17.9086 17.9086 0 40 0C62.0914 0 80 17.9086 80 40ZM58 54.4C58 55.085 57.836 55.7317 57.5452 56.303C56.786 57.3894 55.526 58.1 54.1001 58.1H28.9C26.5805 58.1 24.7 56.2196 24.7 53.9V23.1C24.7 22.415 24.864 21.7683 25.1549 21.197C25.9141 20.1106 27.174 19.4 28.6 19.4H39.8V20.1754C39.8 20.1772 39.8 20.1789 39.8 20.1807L39.8 29.2C39.8 29.2134 39.8 29.2267 39.8001 29.2401C39.8217 33.0876 42.9474 36.2 46.8 36.2H47.2667H57.4526H58V54.4ZM42.9 16.1854V16.1H41.5H28.9C26.2451 16.1 23.9353 17.5781 22.7488 19.7563C22.0226 20.8596 21.6 22.1804 21.6 23.6V54.4C21.6 58.266 24.734 61.4 28.6 61.4H53.8C56.455 61.4 58.7647 59.9219 59.9513 57.7437C60.6775 56.6405 61.1001 55.3196 61.1001 53.9V34.3V32.9H61.0555C61.0848 32.7219 61.1001 32.539 61.1001 32.3526C61.1001 31.4184 60.7096 30.5266 60.0231 29.893L46.1095 17.0496C45.448 16.439 44.5809 16.1 43.6808 16.1C43.4126 16.1 43.1514 16.1295 42.9 16.1854ZM42.9001 19.6807L42.9 28.7C42.9001 30.9162 44.8818 32.9 47.5667 32.9H57.7527C57.8416 32.9 57.9256 32.8788 57.9999 32.8411C57.9968 32.6926 57.9333 32.5514 57.8239 32.4504L43.9103 19.607C43.766 19.4739 43.577 19.4 43.3807 19.4C43.2038 19.4 43.0406 19.4589 42.9096 19.5581C42.9033 19.598 42.9001 19.639 42.9001 19.6807Z" fill="url(#paint0_linear_2079_13861)"/>
<defs>
<linearGradient id="paint0_linear_2079_13861" x1="40.4176" y1="84.248" x2="40.4176" y2="-5.0832" gradientUnits="userSpaceOnUse">
<stop stop-color="#838895"/>
<stop offset="1" stop-color="#A3AAB8"/>
</linearGradient>
</defs>
</svg>
