<svg width="16" height="16" viewBox="0 0 16 16" fill="none" xmlns="http://www.w3.org/2000/svg">
<path fill-rule="evenodd" clip-rule="evenodd" d="M14.8567 13.7151C15.4883 13.7151 16 14.2267 16 14.8567C16 15.4883 15.4883 16 14.8567 16H1.14333C0.511667 16 0 15.4883 0 14.8567C0 14.2267 0.511667 13.7151 1.14333 13.7151H14.8567ZM2.78667 8.57186L5.715 11.5001L3.38667 12.1234C3.21833 12.1684 3.04 12.1684 2.87 12.1234C2.33667 11.9801 2.02 11.4318 2.16333 10.8985L2.78667 8.57186ZM14.2783 0.547079C14.995 1.24539 15.09 2.56702 14.3117 3.32534L6.85333 10.2835L4 7.50689L11.4583 0.547079C12.2367 -0.211234 13.5617 -0.152902 14.2783 0.547079Z" fill="#636366"/>
</svg>
