<svg xmlns="http://www.w3.org/2000/svg" width="24" height="24" viewBox="0 0 24 24" fill="none">
  <path d="M11.9987 17.9102C9.45618 17.9102 7.75512 16.2211 7.75512 15.4167C7.75512 15.118 8.05598 14.984 8.31665 15.1064C9.20574 15.5689 10.2321 16.1201 11.9987 16.1201C13.7537 16.1201 14.7833 15.57 15.6713 15.1064C15.9415 14.9861 16.2307 15.118 16.2307 15.4167C16.2307 16.2211 14.5276 17.9102 11.9987 17.9102ZM8.43373 10.8773C7.67659 10.8773 7.03027 10.1921 7.03027 9.24396C7.03027 8.2726 7.67659 7.5874 8.43373 7.5874C9.19621 7.5874 9.86995 8.2726 9.86995 9.24396C9.86995 10.1921 9.19621 10.8773 8.43373 10.8773ZM15.5521 10.8773C14.7928 10.8773 14.1465 10.1921 14.1465 9.24396C14.1465 8.2726 14.7928 7.5874 15.5521 7.5874C16.3146 7.5874 16.9883 8.2726 16.9883 9.24396C16.9883 10.1921 16.3146 10.8773 15.5521 10.8773Z" fill="#7A7A7A"/>
</svg>
