<svg width="8" height="12" viewBox="0 0 8 12" fill="none" xmlns="http://www.w3.org/2000/svg">
<path d="M1.82141 0H6.62141C7.01695 0 7.24273 0.451567 7.00541 0.768L6.28541 1.728C6.246 1.78055 6.19682 1.8237 6.14141 1.85569V4.85591C6.19589 4.88478 6.24492 4.92421 6.28534 4.97271L7.88534 6.89271C8.14587 7.20535 7.92355 7.68 7.51659 7.68H4.70141V11.52C4.70141 11.7851 4.48651 12 4.22141 12C3.95631 12 3.74141 11.7851 3.74141 11.52V7.68H0.92623C0.519268 7.68 0.296952 7.20535 0.557484 6.89271L2.15748 4.97271C2.1979 4.92421 2.24693 4.88478 2.30141 4.85591V1.85569C2.246 1.8237 2.19682 1.78055 2.15741 1.728L1.43741 0.768C1.20008 0.451567 1.42587 0 1.82141 0Z" fill="#7D7D7D"/>
</svg>
