<svg xmlns="http://www.w3.org/2000/svg" height="100%" viewBox="125 80 900 865" width="100%">
  <path
    d="M275 512l-13 2q-29 4 -50 24t-27 48l-58 265q-2 12 -1 25t7 24q13 28 43 39t58 -3l745 -355q12 -6 21 -15t15 -21q14 -29 3.5 -58.5t-39.5 -43.5l-745 -355q-11 -5 -23.5 -6.5t-25.5 0.5q-30 7 -47 33.5t-11 57.5l58 265q6 28 27 48t50 24l13 2v0zM215 851l54 -247
q0 -2 2 -3.5t4 -2.5l233 -36q21 -3 33.5 -20t8.5 -38q-2 -16 -14 -28t-28 -14l-233 -36q-2 -1 -4 -2.5t-2 -3.5l-54 -247l710 339l-710 339v0z"
    fill="currentColor"
  />
</svg>
