<svg xmlns="http://www.w3.org/2000/svg" width="80" height="80" viewBox="0 0 80 80">
    <g fill="none" fill-rule="evenodd">
        <g>
            <g>
                <path d="M64.047 14.943c.475 0 .95.223 1.251.67L79.736 37.1c.682 1.015-.037 2.389-1.252 2.389h-6.278c.004.171.022.338.022.51 0 17.92-14.424 32.5-32.157 32.5-6.756 0-13.025-2.128-18.208-5.74l8.334-12.403c2.805 1.975 6.205 3.143 9.874 3.143 9.548 0 17.315-7.85 17.315-17.5 0-.172-.018-.34-.023-.51H50.98c-1.184 0-1.91-1.312-1.29-2.33l13.067-21.487c.294-.483.792-.73 1.29-.73zM40.072 7.5c6.213 0 12 1.82 16.922 4.917l-7.76 12.76c-2.662-1.685-5.795-2.677-9.162-2.677-9.548 0-17.315 7.85-17.315 17.5h6.24c1.22 0 1.944 1.382 1.258 2.402l-14.42 21.462c-.302.451-.78.675-1.259.675-.501 0-1-.247-1.298-.734L.228 42.344C-.395 41.319.333 40 1.526 40h6.39c0-17.92 14.425-32.5 32.156-32.5z" transform="translate(-650 -239) translate(650 239)"/>
            </g>
        </g>
    </g>
</svg>
