<svg xmlns="http://www.w3.org/2000/svg" width="80" height="100" viewBox="0 0 80 100">
  <g fill="#FFF" fill-rule="evenodd" opacity=".1">
    <path d="M161.293 94.935c-2.151 0-3.896-1.745-3.896-3.896s1.745-3.896 3.896-3.896c2.152 0 3.896 1.745 3.896 3.896s-1.744 3.896-3.896 3.896m37.663 62.338c-3.247-2.598-5.195-5.844-7.143-11.689-1.948-5.844-1.948-19.48-1.948-22.078 0-2.597 0-11.038-6.494-18.83-3.626-4.351-8.263-6.677-12.67-7.883 1.028-1.677 1.631-3.643 1.631-5.754 0-6.097-4.942-11.039-11.039-11.039-6.097 0-11.039 4.942-11.039 11.039 0 2.111.604 4.077 1.631 5.754-4.406 1.206-9.044 3.532-12.67 7.882-6.493 7.793-6.493 16.234-6.493 18.831 0 2.598 0 16.234-1.948 22.078-1.948 5.845-3.896 9.091-7.143 11.689-3.247 2.597-1.299 8.441 1.299 8.441h72.727c2.597 0 4.545-5.844 1.299-8.441M148.062 169.61c1.459 5.961 6.82 10.39 13.231 10.39 6.41 0 11.773-4.429 13.231-10.39h-26.462z" transform="translate(-121 -80)"/>
  </g>
</svg>
