<svg xmlns="http://www.w3.org/2000/svg" width="22" height="22" viewBox="0 0 22 22">
    <g fill="none" fill-rule="evenodd">
        <rect width="22" height="22" fill="#86868B" rx="5.5"/>
        <g transform="translate(3 3)">
            <circle cx="8" cy="8" r="7.75" fill-rule="nonzero" stroke="#FFF" stroke-width=".5"/>
            <path fill="#FFF" d="M8 0c4.418 0 8 3.582 8 8 0 1.56-.447 3.017-1.22 4.248l-.103-.174c-.186-.319-.547-.535-.768-.649l-.362-.178c-.21-.1-.55-.242-.98-.326-.62-.06-1.054-.122-1.364-.304-.266-.156-.304-.802-.31-1.175v-.16c.133-.13.234-.291.304-.417l.068-.13c.062-.12.124-.849.186-.97.062-.122.186-.122.248-.182.124-.061.124-.304.124-.364 0-.019.011-.07.029-.139l.157-.59c0-.162-.055-.296-.091-.368l-.033-.057-.124.061s.09-.348.154-.712l.032-.198c.062-.425.062-.91 0-1.153s-.186-.365-.186-.486c-.124-.121-.248-.303-.434-.425-.248-.06-.496-.121-.744-.243l-.114-.051c-.24-.102-.551-.191-.817-.191-.372 0-.558.182-.744.182-.054 0-.13.01-.212.028l.15.165.225.22v.194l.039.08c.052.11.093.219.124.341.09.355.09.933.015 1.447-.007.052-.016.105-.025.16l-.027.151-.036.178.04.09c.06.144.1.298.113.462l.005.125v.094l-.023.092-.16.582-.003-.026-.002.097c-.004.07-.012.14-.028.222-.047.23-.141.435-.329.587l-.091.065-.068.458c-.038.234-.058.29-.122.416l-.065.124c-.063.116-.12.21-.2.321l-.022.028.004.083.016.195c.007.058.015.11.023.153l.01.043.111.033c.158.039.392.074.757.114l.146.015c.269.053.524.127.767.219.141.053.272.11.398.17l.422.21c.138.073.271.154.4.246.258.188.472.404.625.665.012.021.05.086.086.144l.114.2c.244.46.336.928.336 1.794l.012.827c-.305.203-.625.386-.958.547l.08-.097v-.328c.002-.821-.001-1.986-.11-2.34l-.026-.062-.18-.307c-.16-.273-.448-.471-.666-.594l-.102-.055-.362-.178c-.21-.1-.55-.242-.98-.326-.62-.06-1.054-.122-1.365-.304-.239-.14-.294-.678-.306-1.056l-.003-.119v-.16c.099-.097.18-.212.245-.317l.058-.1.068-.13c.062-.12.125-.849.187-.97.062-.122.186-.122.248-.182.124-.061.124-.304.124-.364 0-.013.005-.04.013-.076l.015-.063.158-.59c0-.13-.035-.241-.068-.318l-.024-.05-.032-.057-.124.061s.07-.275.131-.591l.022-.12.033-.2c.062-.424.062-.91 0-1.152-.062-.243-.186-.365-.186-.486-.124-.121-.248-.303-.435-.425-.186-.045-.372-.09-.558-.162l-.186-.08-.113-.052c-.24-.102-.552-.191-.817-.191-.373 0-.559.182-.745.182-.16 0-.501.089-.674.19l-.07.053-.372.364s-.187.06-.31 0c-.125.121-.249.485-.31.728-.063.182 0 .546 0 .85.061.303.123.789.185.97 0 0-.124 0-.186.061-.062.122 0 .365 0 .486s.186.546.186.728c0 .104.061.189.125.253l.047.045.076.066c.04.038.078.194.116.409l.02.112.05.33c0 .359.205.585.31.678l.035.03.028.02s.062.91-.248 1.274-1.055.243-1.613.486c-.559.242-1.055.303-1.737.91-.026.023-.052.048-.076.073C.383 10.8 0 9.444 0 8c0-4.418 3.582-8 8-8z"/>
        </g>
    </g>
</svg>
