<?xml version="1.0" encoding="UTF-8"?>
<svg width="20px" height="20px" viewBox="0 0 20 20" version="1.1" xmlns="http://www.w3.org/2000/svg" xmlns:xlink="http://www.w3.org/1999/xlink">
    <!-- Generator: sketchtool 63.1 (101010) - https://sketch.com -->
    <title>A1CDEAD4-458B-445B-8A64-0E42FD527F6C</title>
    <desc>Created with sketchtool.</desc>
    <g id="Affiliate" stroke="none" stroke-width="1" fill="none" fill-rule="evenodd">
        <g id="8.0-Affiliate-Settings" transform="translate(-522.000000, -249.000000)">
            <g id="bank-icon-settings-copy" transform="translate(522.000000, 249.000000)">
                <rect id="bg-icon" fill="#86868B" x="0" y="0" width="20" height="20" rx="5"></rect>
                <g id="Bank-icon" transform="translate(3.636364, 3.636364)" stroke="#FFFFFF" stroke-linejoin="round" stroke-width="0.748663102">
                    <g id="Group-10">
                        <polygon id="Stroke-1" points="0.374331551 12.3529412 7.86096257 12.3529412 7.86096257 0.374331551 0.374331551 0.374331551"></polygon>
                        <line x1="0.374331551" y1="10.6414225" x2="7.86096257" y2="10.6414225" id="Stroke-3"></line>
                        <line x1="0.374331551" y1="8.93057754" x2="7.86096257" y2="8.93057754" id="Stroke-4"></line>
                        <line x1="0.374331551" y1="7.21905882" x2="7.86096257" y2="7.21905882" id="Stroke-5"></line>
                        <line x1="0.374331551" y1="5.50783957" x2="7.86096257" y2="5.50783957" id="Stroke-6"></line>
                        <line x1="0.374331551" y1="3.79669519" x2="7.86096257" y2="3.79669519" id="Stroke-7"></line>
                        <line x1="0.374331551" y1="2.08547594" x2="7.86096257" y2="2.08547594" id="Stroke-8"></line>
                        <polygon id="Stroke-9" points="7.86096257 12.3529412 11.6042781 12.3529412 11.6042781 4.11764706 7.86096257 4.11764706"></polygon>
                    </g>
                    <line x1="9.73262032" y1="4.11764706" x2="9.73262032" y2="1.87165775" id="Stroke-11" stroke-linecap="round"></line>
                    <line x1="8.93057754" y1="8.23529412" x2="8.93057754" y2="5.29379679" id="Stroke-12"></line>
                    <line x1="10.5346631" y1="8.23529412" x2="10.5346631" y2="5.29379679" id="Stroke-13"></line>
                </g>
            </g>
        </g>
    </g>
</svg>