<?xml version="1.0" encoding="UTF-8"?>
<svg width="20px" height="20px" viewBox="0 0 20 20" version="1.1" xmlns="http://www.w3.org/2000/svg" xmlns:xlink="http://www.w3.org/1999/xlink">
    <!-- Generator: sketchtool 63.1 (101010) - https://sketch.com -->
    <title>BAE220F4-45E4-40B3-AF9F-DF8C6652E07B</title>
    <desc>Created with sketchtool.</desc>
    <g id="Affiliate" stroke="none" stroke-width="1" fill="none" fill-rule="evenodd">
        <g id="8.0-Affiliate-Settings" transform="translate(-522.000000, -127.000000)">
            <g id="branding-icon-settings-copy" transform="translate(522.000000, 127.000000)">
                <rect id="bg-icon" fill="#86868B" x="0" y="0" width="20" height="20" rx="5"></rect>
                <g id="icons-meeting_light-icons-comerceos-business-details-copy" transform="translate(3.636364, 4.545455)" fill="#FFFFFF" fill-rule="nonzero">
                    <path d="M8.35303192,1.48140868 L8.35303192,1.07997088 C8.35303523,0.987758624 8.31620469,0.899365217 8.25072623,0.834437007 C8.18524777,0.769508794 8.09654671,0.733425475 8.00433777,0.734206934 L4.69320846,0.734206934 C4.60099951,0.733425475 4.51229846,0.769508794 4.44682,0.834437007 C4.38134154,0.899365217 4.344511,0.987758624 4.34451431,1.07997088 L4.34451431,1.48140868 C4.3445253,1.59841013 4.25053016,1.69371074 4.1335397,1.6953135 L3.86396103,1.6953135 C3.74582465,1.6953135 3.65005621,1.59954505 3.65005621,1.48140868 L3.65005621,1.07997088 C3.65167131,0.50499845 4.11823375,0.0397488397 4.69320846,0.0397488397 L8.00433777,0.0397488397 C8.57931247,0.0397488397 9.04587491,0.50499845 9.04749001,1.07997088 L9.04749001,1.48140868 C9.04749001,1.59954505 8.95172157,1.6953135 8.8335852,1.6953135 L8.56693673,1.6953135 C8.51020566,1.6953135 8.45579812,1.67277716 8.41568317,1.63266223 C8.37556825,1.59254729 8.35303192,1.53813977 8.35303192,1.48140868 L8.35303192,1.48140868 Z" id="Path"></path>
                    <path d="M1.05389642,5.26430066 C4.55948862,5.81370513 8.129267,5.81370513 11.6348592,5.26430066 L11.7579277,5.24378924 C12.1901721,5.17674989 12.5073671,4.80211006 12.5023223,4.36472836 L12.5023223,2.72381472 C12.4880476,2.37974492 12.2048454,2.1081812 11.8604848,2.10847164 L0.837061401,2.10847164 C0.488295924,2.1083812 0.20330963,2.38686096 0.195223954,2.73553554 L0.195223954,4.37644918 C0.190179088,4.81383087 0.507374149,5.1884707 0.939618504,5.25551006 L1.05389642,5.26430066 Z" id="Path"></path>
                    <path d="M11.7139747,5.78001638 C10.2904342,6.02957857 8.85106248,6.17841158 7.40657637,6.22540723 C7.28432634,6.2308208 7.18271766,6.32141166 7.16336953,6.44224224 C7.12017579,6.85175196 6.75940252,7.15282894 6.34877311,7.12204932 C6.14915418,7.14328972 5.94935059,7.08363284 5.79405558,6.95642309 C5.63876053,6.82921334 5.5409331,6.64506605 5.52245589,6.44517245 C5.50156492,6.32122313 5.39609733,6.22924559 5.27045843,6.22540723 C3.82900561,6.17664387 2.39268021,6.02782215 0.971850736,5.78001638 L0.488367253,5.7038311 C0.414319434,5.69460794 0.339867746,5.71754624 0.283849493,5.7668423 C0.22783124,5.81613834 0.195613192,5.88706941 0.195337397,5.96168896 L0.195337397,9.47793248 C0.194565218,9.71675269 0.289090257,9.9460169 0.457962546,10.1148892 C0.626834836,10.2837615 0.856099056,10.3782865 1.09491926,10.3775148 L11.602627,10.3775148 C12.0955576,10.3791393 12.4973693,9.98256294 12.5021993,9.48965329 L12.5021993,5.97340977 C12.501933,5.89879022 12.469715,5.82785915 12.4136967,5.77856312 C12.3576785,5.72926705 12.2832268,5.70632875 12.209179,5.71555192 L11.7139747,5.78001638 Z" id="Path"></path>
                </g>
            </g>
        </g>
    </g>
</svg>