<svg xmlns="http://www.w3.org/2000/svg" width="80" height="80" viewBox="0 0 80 80">
    <g fill="none" fill-rule="evenodd" opacity=".1">
        <g>
            <g>
                <g>
                    <g>
                        <path fill="#000" d="M27.767 47.066c-.498-1.052-.52-2.267-.062-3.336.432-1.01-.23-2.154-1.321-2.272-3.952-.428-8.344-.705-13.248-.846-.923-.026-1.688.714-1.688 1.637v2.25c0 .601.133 1.194.39 1.737l7.913 16.706c.672 1.418 2.1 2.322 3.669 2.322h6.553c2.98 0 4.944-3.104 3.669-5.797l-5.875-12.401z" transform="translate(-373 -173) translate(286 105) translate(87 68) translate(0 5)"/>
                        <path stroke="#000" stroke-linecap="round" stroke-linejoin="round" stroke-width="2.583" d="M65.34 39.138L72.318 42.903M65.34 11.813L72.318 8.047M68.945 25.475L77.275 25.475" transform="translate(-373 -173) translate(286 105) translate(87 68) translate(0 5)"/>
                        <path fill="#000" d="M25.908 11.995c-5.476.564-11.7.845-18.804.894-1.292.01-2.334 1.057-2.334 2.347v4.067H2.342C1.05 19.303 0 20.35 0 21.645v7.854c0 1.293 1.049 2.341 2.342 2.341H4.77v4.066c0 1.291 1.043 2.339 2.334 2.348 7.104.05 13.328.33 18.804.894V11.995zM59.555 18.185V2.798c0-2.069-2.471-3.115-3.973-1.693-6.025 5.708-14.408 8.987-26.97 10.577v27.78c12.562 1.59 20.945 4.868 26.97 10.576 1.502 1.423 3.973.376 3.973-1.693V32.927c2.98-1.126 5.103-3.997 5.103-7.371 0-3.374-2.123-6.245-5.103-7.37" transform="translate(-373 -173) translate(286 105) translate(87 68) translate(0 5)"/>
                    </g>
                </g>
            </g>
        </g>
    </g>
</svg>
