<?xml version="1.0" encoding="UTF-8"?>
<svg width="20px" height="20px" viewBox="0 0 20 20" version="1.1" xmlns="http://www.w3.org/2000/svg" xmlns:xlink="http://www.w3.org/1999/xlink">
    <!-- Generator: sketchtool 63.1 (101010) - https://sketch.com -->
    <title>18155466-EA15-43F4-9D70-86435E904C45</title>
    <desc>Created with sketchtool.</desc>
    <g id="Affiliate" stroke="none" stroke-width="1" fill="none" fill-rule="evenodd">
        <g id="8.0-Affiliate-Settings" transform="translate(-522.000000, -208.000000)">
            <g id="owndomain-icon-settings-copy" transform="translate(522.000000, 208.000000)">
                <rect id="bg-icon" fill="#86868B" x="0" y="0" width="20" height="20" rx="5"></rect>
                <path d="M15.6795483,10.0345874 C15.657988,9.94654671 15.5263808,9.63975179 15.5263808,9.63975179 C15.5263808,9.63975179 15.3947736,9.46456875 15.3076343,9.42054839 C15.2204951,9.37652804 15.1540177,9.26692634 15.000401,9.17978401 C14.8467844,9.0917433 14.7821037,9.04817213 14.6509457,9.04817213 C14.5184401,9.04817213 14.3877312,8.8725399 14.2336654,8.78494838 C14.0800488,8.69780604 14.0584885,8.74137721 14.0584885,8.74137721 C14.0584885,8.74137721 14.2336654,9.00415177 14.2336654,9.06973312 C14.2336654,9.13531446 14.4308517,9.24491616 14.6284871,9.20089581 C14.6284871,9.20089581 14.7596452,9.44210938 14.8256734,9.50769073 C14.8908032,9.57327207 14.803664,9.6393026 14.6725059,9.72689413 C14.5408987,9.81403646 14.5633572,9.79247547 14.4959815,9.85805682 C14.4308517,9.92363816 14.211656,10.0341382 14.146077,10.0772602 C14.0800488,10.1208314 13.8172835,10.2524433 13.6865746,10.1208314 C13.6223431,10.057496 13.6421066,9.92408735 13.5989862,9.83604664 C13.5554165,9.74845512 13.0950158,9.06928393 12.8762693,8.7629382 C12.8380897,8.70903572 12.7446621,8.54283643 12.679083,8.50016363 C12.6139532,8.45569409 12.8331489,8.45569409 12.8331489,8.45569409 C12.8331489,8.45569409 12.8331489,8.30207204 12.8106903,8.19291952 C12.7886809,8.08331783 12.8331489,7.93014496 12.8331489,7.93014496 C12.8331489,7.93014496 12.6144024,8.06130765 12.5474758,8.105328 C12.482346,8.14934836 12.4158686,8.01818567 12.3291785,7.90813478 C12.2420392,7.79898227 12.1535525,7.66692121 12.1324414,7.55731951 C12.110432,7.448167 12.2420392,7.40414664 12.2420392,7.40414664 L12.4383272,7.29499413 C12.4383272,7.29499413 12.6795322,7.25142296 12.833598,7.27298395 C12.9872147,7.29499413 13.2275214,7.31700431 13.2275214,7.31700431 C13.2275214,7.31700431 13.2935496,7.16338225 13.2050628,7.09780091 C13.1188219,7.03221956 12.9198389,6.92261786 12.8326997,6.94462804 C12.7460096,6.96618903 12.8767185,6.83502634 12.9858671,6.74743482 L12.7433146,6.70341447 C12.7433146,6.70341447 12.5227714,6.81301616 12.4558448,6.83502634 C12.390715,6.85658733 12.2770746,6.90060769 12.1885878,7.01020939 C12.1014486,7.11981108 12.2236232,7.27298395 12.1355856,7.31700431 C12.0488955,7.36102466 11.9891557,7.38258565 11.9235767,7.40414664 C11.8575485,7.42615682 11.6495821,7.40414664 11.6495821,7.40414664 C11.4231997,7.40414664 11.5682821,7.61077279 11.6271235,7.68399032 L11.4519467,7.47017717 L11.3221361,7.16293306 C11.3221361,7.16293306 11.1352808,7.03177038 11.0476924,6.98819921 C10.9592056,6.94462804 10.6901519,6.79100599 10.6901519,6.79100599 L10.7085679,6.98819921 L10.9619006,7.24513434 L10.9848084,7.25097377 L11.1402217,7.42615682 L10.8716172,7.448167 L10.8716172,7.27522989 C10.4224457,7.20875017 10.6447856,7.1404737 10.6146911,7.1193619 C10.5491121,7.07579073 10.3856137,6.96573984 10.3856137,6.96573984 C10.3856137,6.96573984 10.1210517,7.0097602 10.0554727,7.03177038 C9.98989364,7.05378055 9.96923176,7.1193619 9.8380737,7.16293306 C9.70601729,7.20695342 9.64448081,7.27253476 9.60091118,7.33811611 C9.55779072,7.40369745 9.41405586,7.60089067 9.32736577,7.6884822 C9.23977734,7.77652291 9.07493142,7.75406354 9.00935239,7.75406354 C8.94332419,7.75406354 8.62575998,7.66647202 8.62575998,7.66647202 L8.62575998,7.29499413 C8.62575998,7.29499413 8.67022795,7.08657123 8.64821855,7.02098988 L8.84046393,6.9886484 L9.16072317,6.92261786 L9.25504917,6.85658733 L9.39024977,6.68140429 C9.39024977,6.68140429 9.238879,6.57180259 9.34757848,6.41862972 C9.40058071,6.34496301 9.58923272,6.3310382 9.67727032,6.26545686 C9.76440958,6.19987551 9.89646598,6.15585516 9.89646598,6.15585516 C9.89646598,6.15585516 10.0500826,6.02469247 10.2036992,5.87107041 C10.2036992,5.87107041 10.3128479,5.80503988 10.4444551,5.76101953 C10.4444551,5.76101953 10.8172674,6.08982462 10.8828465,6.08982462 C10.9493238,6.08982462 11.1905289,5.93665176 11.1905289,5.93665176 C11.1905289,5.93665176 11.2556588,5.73990772 11.2345477,5.67387719 C11.2125383,5.60829585 11.1029405,5.38909245 11.1029405,5.38909245 C11.1029405,5.38909245 11.0369123,5.49869415 10.9722316,5.58628567 C10.9062034,5.67387719 10.8612862,5.78347889 10.8612862,5.78347889 C10.8612862,5.78347889 10.5545021,5.76236709 10.5329419,5.69678574 C10.5104833,5.63075521 10.4673629,5.52250107 10.4453535,5.45736892 C10.4242424,5.39133839 10.2486164,5.39358432 10.1179075,5.43760468 C9.98540193,5.48162503 10.1390186,5.20133216 10.1390186,5.20133216 C10.1390186,5.20133216 10.2706258,5.03603124 10.3577651,5.03603124 C10.4449043,5.03603124 10.6429889,4.92373441 10.729679,4.90217342 C10.8177166,4.88016325 11.0813802,4.71171801 11.1900797,4.71171801 C11.2992284,4.71171801 11.4308356,4.6910554 11.497313,4.6910554 L11.8256573,4.6910554 L12.2847105,4.72204932 C12.2847105,4.72204932 12.6795322,4.90172424 12.5470266,4.98976495 C12.5470266,4.98976495 12.7015416,5.10206177 12.7675698,5.16764311 C12.8286571,5.22963096 12.9876638,5.11913089 13.0788456,5.06837272 C14.7178722,6.09791 15.8147489,7.9216104 15.8147489,9.9964065 C15.8147489,10.107805 15.8044179,10.2187542 15.7985787,10.3288051 C15.7563566,10.2245936 15.6943709,10.0920834 15.6795483,10.0345874 L15.6795483,10.0345874 Z M14.0800488,10.8664823 C14.0364791,10.9320636 13.9048719,11.1067975 13.8388437,11.194389 C13.7737138,11.2819805 13.6865746,11.4135924 13.5549674,11.5227449 C13.4233601,11.6327958 13.4224618,11.7414991 13.3573319,11.8304382 C13.2922021,11.9175805 13.2037153,12.1147738 13.2037153,12.1147738 C13.2037153,12.1147738 13.2481833,12.5531806 13.2697435,12.6412213 C13.2922021,12.7288128 13.116576,12.969128 13.116576,12.969128 L12.9189406,13.1663212 L12.655277,13.5171365 L12.6759388,13.844594 C12.6759388,13.844594 12.4769559,13.9986653 12.3669089,14.0862568 C12.2586586,14.1738483 12.2757271,14.2394297 12.1881387,14.3274704 C12.1009994,14.4141635 11.8687778,14.5677856 11.7807402,14.5902449 C11.6940501,14.6118059 11.321687,14.6773873 11.321687,14.6773873 L11.321687,14.480194 L11.1999615,14.2614398 C11.1999615,14.2614398 11.0786852,13.9991145 11.0122078,13.9106246 C10.947078,13.8234822 10.9475272,13.6914212 10.8379293,13.5818195 C10.7283315,13.472667 10.6744309,13.3855246 10.6528707,13.3190449 C10.6304121,13.2534636 10.6690409,13.0567195 10.6690409,13.0567195 C10.6690409,13.0567195 10.7530359,12.8150568 10.7975039,12.7283636 C10.8415227,12.6407721 10.7961564,12.5091602 10.7512392,12.4206703 C10.7076696,12.3330788 10.6861094,12.1138754 10.6861094,12.0482941 C10.6861094,11.9836111 10.5086867,11.8726618 10.444006,11.8075297 C10.3779778,11.7414991 10.399538,11.6534584 10.399538,11.5667653 C10.399538,11.4791738 10.3344081,11.2810822 10.35507,11.1283585 C10.3770794,10.9751856 10.1583329,11.0838889 10.027624,11.1283585 C9.89601681,11.1719296 9.80887755,11.0838889 9.80887755,10.9522771 C9.80887755,10.8215636 9.56812166,10.9311653 9.41405586,11.0174092 C9.25999005,11.1054499 9.08526236,11.1054499 8.90918716,11.1710313 C8.73490864,11.2366126 8.64732021,11.1054499 8.64732021,11.1054499 C8.64732021,11.1054499 8.49325441,10.973838 8.38455492,10.9082567 C8.27495709,10.8426754 8.16535926,10.7115127 8.07732165,10.601911 C7.98973322,10.4918601 7.77053756,10.163055 7.74897733,10.0323415 C7.72696793,9.90028042 7.74897733,9.81223971 7.74897733,9.65906685 C7.74897733,9.50589398 7.74897733,9.41830246 7.77098673,9.30870076 C7.79254696,9.19909906 7.85812599,9.06748718 7.92415419,8.95788548 C7.98973322,8.84828378 8.23093829,8.71712109 8.29651732,8.67310074 C8.36164718,8.62952957 8.51526381,8.49836688 8.51526381,8.41032617 C8.51526381,8.32273465 8.60375058,8.27916348 8.64642187,8.19112278 C8.69088984,8.10353125 8.84450647,7.88477704 9.04169273,7.97236856 C9.04169273,7.97236856 9.21597125,7.95080757 9.28155028,7.9287974 C9.34712931,7.90678722 9.52230617,7.84165506 9.60899626,7.79763471 C9.69703386,7.75361435 9.91533118,7.73295174 9.91533118,7.73295174 C9.91533118,7.73295174 10.0873638,7.80167739 10.1529429,7.80167739 C10.2185219,7.80167739 10.4327767,7.76349647 10.4327767,7.76349647 C10.4327767,7.76349647 10.5315944,8.08107189 10.5315944,8.14710242 C10.5315944,8.21313295 10.5976226,8.27826511 10.7081188,8.32228546 C10.8168183,8.36585663 11.3212378,8.47545833 11.5404335,8.30027529 C11.5911898,8.25984843 11.7587308,8.36585663 11.7587308,8.36585663 C11.7587308,8.36585663 12.3062708,8.47545833 12.3943084,8.54103968 C12.482346,8.60707021 12.6355134,8.65109056 12.679083,8.71712109 C12.7240002,8.78270244 12.8762693,8.97989566 12.8978295,9.045477 C12.9202881,9.11105835 13.0303351,9.35272111 13.0518953,9.43986345 C13.0739047,9.52745497 13.1394838,9.74665837 13.2046136,9.85626007 C13.2706418,9.96631095 13.6439033,10.4473905 13.7750614,10.6670431 L14.1703322,10.6014618 C14.1685355,10.6037077 14.1240676,10.8009009 14.0800488,10.8664823 L14.0800488,10.8664823 Z M14.0149189,12.926006 C13.991562,13.0131484 13.9488907,13.1667704 13.9273305,13.2543619 C13.9053211,13.3419535 13.7957232,13.5175857 13.7301442,13.5611568 C13.6650144,13.6051772 13.5549674,13.7367891 13.4893883,13.7587993 C13.4242585,13.7808094 13.3797905,13.604728 13.4017999,13.5175857 C13.4242585,13.4290958 13.5334071,13.1883314 13.5334071,13.1883314 C13.5334071,13.1883314 13.5554165,13.0571687 13.5769768,12.9695772 C13.5994353,12.882884 13.8622006,12.7728332 13.8622006,12.7728332 L14.0382758,12.4440281 C14.0382758,12.4440281 14.0602852,12.5320688 14.0602852,12.5976501 C14.0589377,12.6627823 14.0369283,12.8384145 14.0149189,12.926006 L14.0149189,12.926006 Z M7.33259541,5.06073654 C7.04782072,5.36708227 7.11339975,5.27949075 7.04782072,5.36708227 C6.98224169,5.45467379 7.00380192,5.47623478 6.84973611,5.58628567 C6.69656865,5.69543818 6.63098962,5.82705006 6.63098962,5.82705006 L6.38978456,5.91464158 L6.19304747,5.82705006 C6.19304747,5.82705006 6.01697226,5.89308059 6.03943084,5.80503988 C6.04527006,5.78213133 6.05425349,5.75787522 6.06458444,5.73227154 C6.60134431,5.23726714 7.22883681,4.84332989 7.92145917,4.57651264 C7.85318511,4.66410416 7.77053756,4.75394162 7.77053756,4.75394162 C7.77053756,4.75394162 7.61692093,4.75349243 7.33259541,5.06073654 L7.33259541,5.06073654 Z M6.45581276,13.5180349 L6.36822433,13.8454924 L6.45581276,14.1087162 C6.45581276,14.1087162 6.32375636,14.2183179 6.23751544,14.2183179 C6.15621541,14.2183179 6.12881595,14.2695252 6.04077835,14.2461675 C5.20531947,13.46548 4.59893803,12.4449264 4.33617274,11.2923118 C4.36447054,11.2990496 4.4044468,11.3201615 4.46149157,11.3704704 C4.54413911,11.4423404 4.5930988,11.4791738 4.7031458,11.5231941 C4.81229446,11.5681128 4.85586409,11.6327958 4.98747133,11.6983772 C5.11907856,11.7648569 5.0759581,11.7208365 5.25023662,11.9175805 C5.42586265,12.1147738 5.40430242,12.1147738 5.44787205,12.2243755 C5.49099251,12.3339772 5.55702071,12.4435789 5.60148868,12.5096094 C5.64550748,12.5756399 5.77666554,12.6192111 5.84224457,12.6632315 C5.9078236,12.7068026 6.01697226,12.750823 6.08255129,12.750823 C6.1485795,12.750823 6.34621493,12.9480162 6.45536359,12.9695772 C6.56496142,12.9920366 6.56496142,13.2112399 6.56496142,13.2112399 L6.45581276,13.5180349 Z M4.19288705,9.85805682 C4.22298154,8.62638526 4.63756677,7.49128898 5.32165488,6.56281884 C5.34501179,6.56596315 5.36073279,6.57180259 5.36073279,6.57180259 C5.36073279,6.65939411 5.24170236,6.68050591 5.36073279,6.90060769 C5.51390025,7.18539243 5.38274219,7.31700431 5.38274219,7.31700431 C5.38274219,7.31700431 5.0099299,7.57977887 4.94435087,7.62379923 C4.87877184,7.66737039 4.7031458,7.90858397 4.81274364,7.84255344 C4.9218923,7.77697209 5.05305036,7.71139075 4.94435087,7.88657379 C4.83430386,8.06220602 4.63756677,8.34654158 4.59354797,8.45659247 C4.55042751,8.56664335 4.33078268,8.82896873 4.33078268,8.96058061 C4.33078268,9.09219248 4.24364342,9.35541624 4.26520365,9.46501794 C4.28047548,9.54093059 4.23151579,9.76597342 4.19288705,9.85805682 L4.19288705,9.85805682 Z M8.77623241,5.91464158 L9.07358391,5.99908879 L9.07358391,5.60784666 L9.18947014,5.49869415 L9.31389063,5.73945854 L9.5501548,6.02469247 L9.45448129,6.15585516 L9.07313474,6.24344668 L9.07313474,6.01166604 L8.77578324,6.24344668 L8.68954233,6.1118348 L8.77623241,5.91464158 Z M9.99977541,3.63636364 C6.4912973,3.63636364 3.63636364,6.49094888 3.63636364,10 C3.63636364,13.5086019 6.4912973,16.3636364 9.99977541,16.3636364 C13.5087027,16.3636364 16.3636364,13.5095003 16.3636364,10 C16.3636364,6.49094888 13.5087027,3.63636364 9.99977541,3.63636364 L9.99977541,3.63636364 Z" id="Fill-1" fill="#FFFFFF"></path>
            </g>
        </g>
    </g>
</svg>