<svg xmlns="http://www.w3.org/2000/svg" width="16" height="16" viewBox="0 0 16 16">
    <g fill="none" fill-rule="evenodd">
        <g>
            <g>
                <g>
                    <g transform="translate(-32 -256) translate(16 88) translate(8 16) translate(8 152)">
                        <rect width="16" height="16" fill="#86868B" rx="4"/>
                        <g>
                            <g>
                                <path fill="#FFF" d="M4.165 7.06c-.075-.158-.078-.34-.01-.5.066-.152-.034-.324-.197-.341-.593-.065-1.252-.106-1.988-.127-.138-.004-.253.107-.253.245v.338c0 .09.02.179.059.26l1.187 2.506c.1.213.315.349.55.349h.983c.447 0 .742-.466.55-.87l-.88-1.86z" transform="translate(2 2) translate(0 .75)"/>
                                <path stroke="#FFF" stroke-linecap="round" stroke-linejoin="round" stroke-width="1.033" d="M9.801 5.871L10.848 6.435M9.801 1.772L10.848 1.207M10.342 3.838L11.591 3.838" transform="translate(2 2) translate(0 .75)"/>
                                <path fill="#FFF" d="M3.886 1.8c-.821.084-1.755.126-2.82.133-.194.002-.35.159-.35.352v.61H.35c-.194 0-.351.158-.351.352v1.178c0 .194.157.351.351.351h.364v.61c0 .194.157.35.35.352 1.066.007 2 .05 2.821.134V1.8zM8.933 2.728V.42c0-.31-.37-.468-.596-.254-.903.856-2.16 1.348-4.045 1.586V5.92c1.884.239 3.142.73 4.045 1.587.226.213.596.056.596-.254V4.939c.447-.169.766-.6.766-1.106 0-.506-.319-.936-.766-1.105" transform="translate(2 2) translate(0 .75)"/>
                            </g>
                        </g>
                    </g>
                </g>
            </g>
        </g>
    </g>
</svg>
