<svg xmlns="http://www.w3.org/2000/svg" width="16" height="16" viewBox="0 0 16 16">
    <g fill="none" fill-rule="evenodd">
        <g>
            <g>
                <g>
                    <g transform="translate(-32 -192) translate(16 56) translate(8 16) translate(8 120)">
                        <rect width="16" height="16" fill="#86868B" rx="4"/>
                        <g fill="#FFF" fill-rule="nonzero">
                            <path d="M11.41 5.845c.095-.038.518-.075.537-.225.02-.15-.385-.13-.476-.15-.09-.018-.475-.037-.247-.205.133-.113.366-.113.519-.225.152-.112-.038-.206-.19-.206-.153 0-.576.075-.52-.13.039-.132.386-.244.477-.305.17-.112.114-.243-.096-.224-.114 0-.475.13-.575.056-.1-.075.271-.36.328-.416.057-.057.271-.286 0-.286-.171 0-.366.15-.557.15-.309 0 .039-.304.134-.379.095-.075.385-.36.076-.36-.152 0-.347.15-.476.206-.271.075-.152-.15-.057-.286.095-.135.347-.322.228-.435-.119-.112-.423.131-.518.188-.095.056-.152.093-.21.074-.056-.018 0-.15 0-.224 0-.075.31-.379.248-.51s-.347.094-.442.15c-.096.056-.405.285-.329 0 .038-.15.229-.323.229-.468 0-.285-.271-.075-.367 0-.095.075-.442.36-.442.093 0-.168.133-.36.152-.528.038-.243-.152-.15-.247-.037-.095.112-.29.467-.423.341-.134-.126.038-.468.038-.566 0-.098-.077-.304-.21-.13-.133.172-.17.397-.309.467-.228.112-.152-.36-.152-.468 0-.108 0-.416-.21-.224-.209.191-.152.36-.27.51-.329.378-.172-.641-.348-.679-.176-.037-.29.936-.518.585-.095-.15-.038-.379-.114-.547-.077-.169-.21 0-.248.13-.038.132-.038.468-.19.468S5.425.71 5.388.583C5.35.456 5.198.24 5.116.489c-.057.168 0 .398-.038.566-.095.267-.247-.037-.309-.15C4.707.793 4.636.47 4.48.508c-.157.037-.057.435-.057.528v.225c0 .056-.171 0-.228-.075-.057-.075-.19-.416-.329-.468-.228-.075-.095.342-.095.435 0 .094.114.51-.133.342-.152-.094-.21-.342-.366-.435-.247-.15-.152.205-.114.322.038.117.247.622-.076.417-.153-.094-.248-.267-.405-.36-.157-.094-.228.037-.152.187.076.15.29.435.171.528-.119.094-.423-.206-.518-.243-.095-.038-.31-.112-.228.112.057.15.27.304.29.468.038.285-.348 0-.476-.038-.128-.037-.423-.205-.328.057.057.168.29.266.347.435.114.285-.247.112-.347.056-.1-.056-.424-.225-.443-.038-.019.187.29.342.367.417.076.074.152.13.076.205-.076.075-.171 0-.229 0-.057 0-.461-.196-.566-.102-.104.093.172.304.248.36.076.056.385.285.095.322-.171 0-.385-.093-.557-.074-.309.056.038.266.134.322.095.056.556.267.247.36-.171.057-.385-.037-.557 0-.247.057-.076.206.057.267.134.06.476.15.476.285 0 .136-.404.113-.476.131-.07.02-.442.075-.209.225.152.093.385.075.538.15.228.112.038.205-.115.243-.152.037-.475.037-.518.206-.043.168.385.15.476.168.09.019.404.075.19.243-.133.112-.385.094-.538.187-.228.169.096.206.21.225.114.019.475-.038.475.093S.47 7.463.374 7.5c-.095.038-.347.225-.095.286.171.037.404-.094.575-.038.272.094-.114.286-.209.36-.095.075-.476.304-.152.342.171 0 .366-.112.537-.112.31 0 .096.205 0 .304-.095.098-.423.285-.27.467.152.183.404-.037.518-.093.114-.056.366-.056.228.15-.095.13-.29.243-.347.397-.114.285.29.112.385.056.095-.056.476-.266.405 0-.058.169-.272.304-.329.468-.076.243.172.15.29.075.12-.075.476-.38.476-.15.038.131-.19.398-.247.51-.076.187.038.285.19.15.152-.136.328-.36.476-.342.209 0 0 .435-.057.529-.057.093-.096.397.133.243.152-.094.228-.323.385-.416.271-.15.133.304.095.397-.038.094-.133.51.133.342.134-.094.19-.323.329-.435.19-.187.209.075.209.224 0 .15-.057.468.095.51.152.042.247-.243.31-.341.061-.099.228-.417.327-.15.058.15-.038.379 0 .547.058.243.21.075.272-.056.061-.13.209-.468.347-.468.138 0 .133.38.133.468 0 .089.095.416.228.187.096-.15.057-.379.134-.528.114-.244.209 0 .247.15.038.149.057.467.21.467.151 0 .151-.416.151-.51 0-.093.096-.323.229-.13.133.191.095.378.209.509.21.225.21-.15.21-.285 0-.136-.058-.468.133-.435.19.032.247.36.328.467.08.108.228.169.247-.037.02-.206-.114-.398-.038-.547.095-.225.347.206.404.285.057.08.29.342.31.056 0-.168-.134-.36-.134-.547 0-.323.29 0 .367.112.076.112.29.398.385.169.057-.131-.152-.417-.19-.529-.076-.243.114-.206.247-.075s.347.38.476.267c.128-.112-.114-.398-.153-.468-.038-.07-.114-.36.134-.243.114.056.347.323.475.285.229-.037-.057-.36-.095-.435-.038-.075-.328-.397 0-.341.171.037.347.224.519.224.29 0 .076-.243 0-.322-.076-.08-.476-.435-.134-.435.172 0 .348.15.519.168.171.019.19-.112.076-.243s-.442-.304-.366-.435c.076-.131.475 0 .575.037.1.038.329-.037.153-.187-.176-.15-.367-.168-.476-.323-.171-.243.328-.15.442-.15.114 0 .424.038.31-.168-.077-.112-.386-.187-.476-.266-.09-.08-.152-.225.038-.244.19-.018.476.057.575-.037.272-.225-.727-.304-.613-.529.057-.13.404-.15.537-.15.31 0 .348-.224.229-.285-.12-.06-.367-.056-.538-.112-.276-.098-.143-.21.01-.266zM4.327 2.047c.524-.21 1.085-.318 1.65-.319 2.149-.007 3.997 1.494 4.396 3.57.025.11-.001.227-.072.318-.07.09-.179.145-.295.15H6.724c-.298-.01-.574-.155-.747-.394L4.132 2.594c-.056-.097-.067-.213-.03-.318.038-.105.12-.189.225-.23zM6.23 6.144c0 .098-.06.187-.153.225-.093.037-.199.016-.27-.053-.07-.07-.092-.174-.053-.265.038-.091.128-.15.228-.15.069-.003.135.022.185.069.049.047.077.111.077.179l-.014-.005zM3.675 9.418c-.056.097-.153.163-.265.182-.112.018-.226-.015-.31-.088-.988-.81-1.575-1.999-1.611-3.263-.036-1.264.48-2.483 1.42-3.346.081-.075.19-.111.301-.1.11.01.21.067.275.156L5.302 5.68c.173.272.173.617 0 .889L3.675 9.418zm6.721-2.493c-.23 1.264-1.005 2.369-2.127 3.027-1.12.659-2.478.807-3.719.406-.107-.038-.193-.12-.233-.226-.04-.105-.031-.223.024-.321l1.67-2.872c.155-.26.44-.419.747-.416h3.263c.11-.004.217.04.291.12.075.08.111.188.099.296l-.015-.014z" transform="translate(2 2)"/>
                        </g>
                    </g>
                </g>
            </g>
        </g>
    </g>
</svg>
