<?xml version="1.0" encoding="UTF-8"?>
<svg id="Layer_1" data-name="Layer 1" xmlns="http://www.w3.org/2000/svg" viewBox="0 0 24 24">
  <path d="M22.28,11.97H1.7c-.66,0-1.2-.54-1.2-1.2V1.22C.49,.55,1.03,.01,1.7,.01H22.28c.66,0,1.2,.54,1.2,1.2V10.76c0,.66-.54,1.2-1.2,1.2ZM1.7,.79c-.24,0-.43,.19-.43,.43V10.76c0,.24,.19,.43,.43,.43H22.28c.24,0,.43-.19,.43-.43V1.22c0-.24-.19-.43-.43-.43H1.7Z"/>
  <path d="M22.31,19.31H1.67c-.65,0-1.18-.53-1.18-1.18v-4.01c0-.65,.53-1.18,1.18-1.18H22.31c.65,0,1.18,.53,1.18,1.18v4.01c0,.65-.53,1.18-1.18,1.18ZM1.67,13.72c-.22,0-.4,.18-.4,.4v4.01c0,.22,.18,.4,.4,.4H22.31c.22,0,.4-.18,.4-.4v-4.01c0-.22-.18-.4-.4-.4H1.67Z"/>
  <path d="M22.44,24H1.54c-.58,0-1.05-.47-1.05-1.05v-1.47c0-.58,.47-1.05,1.05-1.05H22.44c.58,0,1.05,.47,1.05,1.05v1.47c0,.58-.47,1.05-1.05,1.05ZM1.54,21.2c-.15,0-.27,.12-.27,.27v1.47c0,.15,.12,.27,.27,.27H22.44c.15,0,.27-.12,.27-.27v-1.47c0-.15-.12-.27-.27-.27H1.54Z"/>
</svg>