<?xml version="1.0" encoding="UTF-8"?>
<svg id="Layer_1" data-name="Layer 1" xmlns="http://www.w3.org/2000/svg" viewBox="0 0 24 24">
  <path d="M21.99,2.61H2.01C.9,2.61,0,3.51,0,4.62v14.76c0,1.11,.9,2.01,2.01,2.01H21.99c1.11,0,2.01-.9,2.01-2.01V4.62c0-1.11-.9-2.01-2.01-2.01Zm1.19,2.01v3.93H12.41V3.43h9.58c.65,0,1.19,.53,1.19,1.19Zm-10.77,4.75h10.77v5.25H12.41v-5.25Zm-.82,5.25H.82v-5.25H11.59v5.25ZM2.01,3.43H11.59v5.12H.82v-3.93c0-.65,.53-1.19,1.19-1.19ZM.82,19.38v-3.93H11.59v5.12H2.01c-.65,0-1.19-.53-1.19-1.19Zm21.17,1.19H12.41v-5.12h10.77v3.93c0,.65-.53,1.19-1.19,1.19Z"/>
</svg>