<?xml version="1.0" encoding="UTF-8"?>
<svg id="Layer_1" data-name="Layer 1" xmlns="http://www.w3.org/2000/svg" viewBox="0 0 24 24">
  <path d="M15.08,7.03C14.67,3.23,11.45,.26,7.56,.26,3.39,.26,0,3.65,0,7.81s3.25,7.41,7.29,7.54c.09,.01,.18,.01,.27,.01,.22,0,.44-.01,.65-.04v-.92c-.22,.02-.43,.04-.65,.04-.09,0-.18,0-.27-.01-3.54-.13-6.37-3.05-6.37-6.63S3.89,1.17,7.56,1.17c3.39,0,6.21,2.56,6.59,5.86,.04,.26,.05,.51,.05,.78,0,.05,0,.09-.01,.13h.92s.01-.09,.01-.13c0-.27-.01-.52-.04-.78Z"/>
  <path d="M21.53,7.03H9.74c-1.36,0-2.45,1.11-2.45,2.47v11.78c0,1.36,1.1,2.47,2.45,2.47h11.79c1.36,0,2.47-1.11,2.47-2.47V9.5c0-1.36-1.11-2.47-2.47-2.47Zm1.55,14.25c0,.85-.7,1.55-1.55,1.55H9.74c-.84,0-1.54-.7-1.54-1.55V9.5c0-.85,.7-1.55,1.54-1.55h11.79c.85,0,1.55,.7,1.55,1.55v11.78Z"/>
</svg>