<svg xmlns="http://www.w3.org/2000/svg" viewBox="0 0 22 22">
  <g fill="none" fill-rule="evenodd">
    <g transform="translate(-28 -69) translate(28 69)">
      <circle cx="11" cy="11" r="10.411" stroke="currentColor" stroke-width="1.179"/>
      <path fill="currentColor" fill-rule="nonzero"
            d="M9.649 11.958c.209.21.228.537.057.768l-.057.066c-.21.209-.537.228-.767.057l-.067-.057-3.142-3.143-.06-.069-.007-.01.067.079c-.032-.031-.059-.065-.081-.101-.012-.02-.024-.04-.034-.06l-.017-.04c-.007-.017-.013-.034-.018-.052l-.01-.041-.01-.057-.003-.047v-.019l.001-.035c0-.013.002-.026.004-.039l-.005.074c0-.047.005-.092.016-.136l.011-.042.02-.053.016-.035c.027-.053.063-.102.104-.145l.006-.006 3.142-3.142c.23-.23.604-.23.834 0 .209.209.228.536.057.767l-.057.066-2.137 2.136h4.863c2.061 0 3.732 1.672 3.732 3.733 0 2.004-1.58 3.639-3.561 3.728l-.171.004h-1.571c-.326 0-.59-.264-.59-.59 0-.297.222-.544.51-.583l.08-.005h1.571c1.41 0 2.554-1.144 2.554-2.554 0-1.362-1.066-2.474-2.41-2.55l-.144-.004H7.511l2.138 2.137z"/>
    </g>
  </g>
</svg>
