<svg xmlns="http://www.w3.org/2000/svg" xmlns:xlink="http://www.w3.org/1999/xlink" version="1.1" width="1080" height="1080" viewBox="0 0 1080 1080" xml:space="preserve">
  <g transform="matrix(50.23 0 0 50.23 539.23 540.77)"  >
    <path fill="currentColor" transform=" translate(-10, -10)" d="M 5.536 0 C 5.93 0 6.25 0.32 6.25 0.714 L 6.25 2.5 L 13.75 2.5 L 13.75 0.714 C 13.75 0.31999999999999995 14.07 0 14.464 0 L 15.536000000000001 0 C 15.930000000000001 0 16.25 0.32 16.25 0.714 L 16.25 2.5 L 18.571 2.5 C 19.361 2.5 20 3.14 20 3.9290000000000003 L 20 18.57 C 20 19.36 19.36 19.999 18.571 19.999 L 1.43 19.999 C 0.639 20 0 19.36 0 18.571 L 0 3.93 C 0 3.139 0.64 2.5 1.429 2.5 L 3.75 2.5 L 3.75 0.714 C 3.75 0.32 4.07 0 4.464 0 L 5.5360000000000005 0 z M 5 12.5 C 4.3100000000000005 12.5 3.75 13.06 3.75 13.75 C 3.75 14.44 4.31 15 5 15 C 5.69 15 6.25 14.44 6.25 13.75 C 6.25 13.06 5.69 12.5 5 12.5 z M 10 12.5 C 9.31 12.5 8.75 13.06 8.75 13.75 C 8.75 14.44 9.31 15 10 15 C 10.69 15 11.25 14.44 11.25 13.75 C 11.25 13.06 10.69 12.5 10 12.5 z M 5 7.5 C 4.3100000000000005 7.5 3.75 8.06 3.75 8.75 C 3.75 9.44 4.31 10 5 10 C 5.69 10 6.25 9.44 6.25 8.75 C 6.25 8.06 5.69 7.5 5 7.5 z M 10 7.5 C 9.31 7.5 8.75 8.06 8.75 8.75 C 8.75 9.44 9.31 10 10 10 C 10.69 10 11.25 9.44 11.25 8.75 C 11.25 8.06 10.69 7.5 10 7.5 z M 15 7.5 C 14.31 7.5 13.75 8.06 13.75 8.75 C 13.75 9.44 14.31 10 15 10 C 15.69 10 16.25 9.44 16.25 8.75 C 16.25 8.06 15.69 7.5 15 7.5 z" stroke-linecap="round" />
  </g>
</svg>