<svg xmlns="http://www.w3.org/2000/svg" xmlns:xlink="http://www.w3.org/1999/xlink" version="1.1" width="1080" height="1080" viewBox="0 0 1080 1080" xml:space="preserve">
  <g transform="matrix(53.44 0 0 53.44 540 540)"  >
    <path fill="currentColor" transform=" translate(-8.91, -8.91)" d="M 8.91 0 C 4.01 0 0 4.01 0 8.91 C 0 13.81 4.01 17.817999999999998 8.91 17.817999999999998 C 13.81 17.817999999999998 17.817999999999998 13.808999999999997 17.817999999999998 8.908999999999997 C 17.817999999999998 4.008999999999997 13.81 0 8.91 0 z M 13.264 12.835 L 8.642999999999999 10.098 C 8.302999999999999 9.902000000000001 8.098999999999998 9.553 8.098999999999998 9.171000000000001 L 8.098999999999998 4.057 C 8.110999999999999 3.6100000000000003 8.495999999999999 3.24 8.959999999999999 3.24 C 9.424 3.24 9.809999999999999 3.6100000000000003 9.809999999999999 4.057 L 9.809999999999999 8.91 L 14.158999999999999 11.428 C 14.566999999999998 11.668000000000001 14.703 12.181000000000001 14.453 12.573 C 14.203999999999999 12.955 13.671999999999999 13.075000000000001 13.264 12.835 z" stroke-linecap="round" />
  </g>
</svg>