<svg xmlns="http://www.w3.org/2000/svg" xmlns:xlink="http://www.w3.org/1999/xlink" viewBox="0 0 214 31">
  <path d="M44.493893,7.89312043 C42.2491327,7.89312043 40.2594379,9.12581545 39.0238494,11.0278722 L39.0238494,9.00780127 C39.0238494,8.37130289 38.5066544,7.85531902 37.868662,7.85531902 C37.2306696,7.85531902 36.7134746,8.37130289 36.7134746,9.00780127 L36.7134746,27.4475173 C36.7134746,28.0840156 37.2306696,28.5999995 37.868662,28.5999995 C38.5066544,28.5999995 39.0238494,28.0840156 39.0238494,27.4475173 L39.0238494,20.0992904 C40.2594379,21.9967372 42.2491327,23.2294322 44.493893,23.2294322 C48.2422452,23.2294322 51.2808502,19.7959571 51.2808502,15.5612763 C51.2808502,11.3265956 48.2422452,7.89312043 44.493893,7.89312043 Z M71.411134,7.85542745 L71.5483409,7.86171509 C71.9615373,7.90534133 72.3193154,8.1676673 72.4849358,8.54843457 L72.4849358,8.54843457 L77.14552,18.9079635 L81.8051816,8.54843457 C82.0665919,7.96794513 82.7492086,7.70880839 83.3304133,7.9694221 C83.6095732,8.09467376 83.8274776,8.32564317 83.9361568,8.61148439 C84.044836,8.89732561 84.0353806,9.21460593 83.9098722,9.49347882 L83.9098722,9.49347882 L75.7079453,27.7360597 C75.5819178,28.015513 75.3497545,28.2333481 75.0627179,28.3414661 C74.7756814,28.4495841 74.4573813,28.4390919 74.1780999,28.3123062 L74.1780999,28.3123062 L74.062375,28.252382 C73.8389793,28.1201793 73.6655877,27.91563 73.5724263,27.670751 C73.4637381,27.3850589 73.4731688,27.0679113 73.598641,26.7891715 L73.598641,26.7891715 L75.8804911,21.7182024 L70.3811678,9.49347882 C70.206081,9.11696403 70.2471955,8.67544948 70.488798,8.33767773 C70.7304004,7.99990599 71.1351445,7.81808886 71.5483409,7.86171509 Z M66.905804,7.85531902 L67.0361866,7.86259478 C67.294668,7.89175155 67.5371791,8.00760231 67.7229159,8.19327101 C67.9396088,8.4098845 68.0612368,8.70374584 68.0609917,9.01008348 L68.0609917,9.01008348 L68.0609917,21.9933271 C68.0612368,22.2996647 67.9396088,22.5935261 67.7229159,22.8101396 C67.506223,23.0267531 67.2122539,23.1483366 66.905804,23.1480912 L66.905804,23.1480912 L66.7799336,23.1413152 C66.2011509,23.0786205 65.7506166,22.5885685 65.7506166,21.9933271 L65.7506166,21.9933271 L65.7506166,20.1161426 C64.5150281,22.0173462 62.5253333,23.2524819 60.2805732,23.2524819 C56.5322211,23.2524819 53.4936161,19.8122087 53.4936161,15.5691435 C53.4936161,11.3260783 56.5322211,7.88580516 60.2805732,7.88580516 C62.5253333,7.88580516 64.5150281,9.12463607 65.7506166,11.0267635 L65.7506166,11.0267635 L65.7506166,9.01008348 C65.7506166,8.37232488 66.2678116,7.85531902 66.905804,7.85531902 L66.905804,7.85531902 Z M134.096012,7.85531902 C134.357495,7.85507421 134.608351,7.95933626 134.793334,8.14514322 C134.978316,8.33095018 135.082253,8.58306258 135.082253,8.84595589 L135.082253,8.84595589 L135.082253,11.4491489 C136.201769,9.32094389 138.168735,7.8959799 140.539205,7.8959799 L140.539205,7.8959799 L140.710166,7.8959799 C141.274261,7.91045563 141.724861,8.3728988 141.727657,8.94021421 C141.727657,9.48266159 141.260732,9.93269885 140.709247,9.94471217 C140.499682,9.95210498 140.291956,9.94471217 140.076876,9.94471217 C137.327719,9.94471217 135.082253,12.3030183 135.082253,15.4939396 L135.082253,15.4939396 L135.082253,22.1696464 C135.082253,22.4325397 134.978316,22.6846521 134.793334,22.8704591 C134.608351,23.056266 134.357495,23.1605281 134.096012,23.1602833 L134.096012,23.1602833 L133.769716,23.1602833 C133.225538,23.1602833 132.784395,22.7167598 132.784395,22.1696464 L132.784395,22.1696464 L132.784395,8.84595589 C132.784395,8.29884249 133.225538,7.85531902 133.769716,7.85531902 L133.769716,7.85531902 Z M92.3574284,7.76312044 C96.4069105,7.76312044 99.6893263,11.1888737 99.683788,15.4225354 L99.683788,15.4225354 L99.683788,15.5269904 L99.6851047,15.5732094 L99.6851047,15.5732094 L99.683788,15.6194284 C99.6333514,16.0920871 99.2353963,16.4507574 98.7607239,16.4513707 L98.7607239,16.4513707 L87.6165713,16.4513707 C88.0651805,19.0276185 90.1549975,20.9688171 92.6675779,20.9688171 C94.0844813,20.9688171 95.8724564,20.4909125 96.802905,19.4898087 C97.1001449,19.1641228 97.5981557,19.1237733 97.9438122,19.3973706 L97.9438122,19.3973706 L98.0176573,19.456531 C98.2302426,19.6277703 98.3617811,19.8801171 98.3805338,20.1526822 C98.3992865,20.4252472 98.3035502,20.6932753 98.1164252,20.8920935 C96.788136,22.3211854 94.4186305,23.0680847 92.3574284,23.0680847 C88.3079463,23.0680847 85.0255305,19.641407 85.0255305,15.4151404 C85.0255305,11.1888737 88.3079463,7.76312044 92.3574284,7.76312044 Z M122.691416,7.76312044 C126.74126,7.76312044 130.023969,11.1888737 130.018438,15.4197623 L130.018438,15.4197623 L130.018438,15.6194284 C129.967989,16.0920871 129.569999,16.4507574 129.095284,16.4513707 L129.095284,16.4513707 L117.950136,16.4513707 C118.398785,19.0276185 120.488789,20.9688171 123.001594,20.9688171 C124.418624,20.9688171 126.206758,20.4909125 127.13729,19.4898087 C127.434557,19.1641228 127.932612,19.1237733 128.278299,19.3973706 L128.278299,19.3973706 L128.352151,19.456531 C128.564755,19.6277703 128.696306,19.8801171 128.71506,20.1526822 C128.733814,20.4252472 128.638069,20.6932753 128.450928,20.8920935 C127.12252,22.3211854 124.752803,23.0680847 122.691416,23.0680847 C118.641572,23.0680847 115.358863,19.641407 115.358863,15.4151404 C115.358863,11.1888737 118.641572,7.76312044 122.691416,7.76312044 Z M101.594536,7.91055778 C101.842158,7.8310106 102.110851,7.83716901 102.356391,7.93038815 C102.642854,8.03914381 102.874235,8.25745126 102.999433,8.53709698 L102.999433,8.53709698 L107.66183,18.9076699 L112.324228,8.53709698 C112.449437,8.25791995 112.680504,8.03996505 112.966527,7.93124477 C113.252551,7.82252448 113.570066,7.83195799 113.84913,7.95746724 L113.84913,7.95746724 L113.960946,8.01528999 C114.462161,8.30989056 114.671221,8.94101429 114.426968,9.48314871 L114.426968,9.48314871 L108.750123,22.1113241 C108.546638,22.5275468 108.123782,22.791489 107.660446,22.791489 C107.19711,22.791489 106.774254,22.5275468 106.570769,22.1113241 L106.570769,22.1113241 L100.893001,9.48314871 C100.767444,9.20397853 100.757985,8.88635996 100.866706,8.60021402 C100.975428,8.31406807 101.193417,8.08285243 101.472685,7.95746724 L101.472685,7.95746724 Z M60.7934764,9.79994212 C58.0016194,9.79994212 55.7402246,12.3856899 55.7402246,15.576534 C55.7402246,18.7673781 58.0025436,21.3540497 60.7934764,21.3540497 C63.5853333,21.3540497 65.8476523,18.7664543 65.8476523,15.576534 C65.8476523,12.3866137 63.5853333,9.79994212 60.7934764,9.79994212 Z M43.9809897,9.79609912 C46.7719226,9.79609912 49.0351658,12.3776594 49.0351658,15.5612763 C49.0351658,18.7448933 46.7719226,21.3273755 43.9809897,21.3273755 C41.1900569,21.3273755 38.9268137,18.7458153 38.9268137,15.5612763 C38.9268137,12.3767374 41.1900569,9.79609912 43.9809897,9.79609912 Z M92.6675779,9.86331243 C90.0876138,9.86331243 87.9516436,11.9145123 87.582418,14.5887444 L87.582418,14.5887444 L97.6078169,14.5887444 C97.2385912,11.9145123 95.247542,9.86331243 92.6675779,9.86331243 Z M123.001594,9.86331243 C120.421399,9.86331243 118.285238,11.9145123 117.915979,14.5887444 L117.915979,14.5887444 L127.942274,14.5887444 C127.573015,11.9145123 125.581788,9.86331243 123.001594,9.86331243 Z" id="Payever"></path>
  <path d="M15.6699889,2.60054413 C22.7800731,2.66298846 28.5103282,8.44689293 28.5078009,15.5585491 C28.505272,22.6702052 22.7709061,28.4500326 15.6607792,28.5074199 L15.6607792,28.5074199 L15.6506486,28.5074199 C10.9977274,28.5430351 6.68329332,26.0794852 4.34849591,22.0538696 C2.01369851,18.028254 2.01740796,13.0593302 4.35821325,9.03720632 C6.69901854,5.01508245 11.017126,2.55797935 15.6699889,2.60054413 Z M15.6506486,4.10014516 L15.358335,4.10403396 C9.1412089,4.26438573 4.15312566,9.35809905 4.15838007,15.6138557 C4.16372489,21.9673585 9.31764585,27.11356 15.6699889,27.1082225 C19.7792343,27.104763 23.5744906,24.9089134 25.6261214,21.347825 C27.6777522,17.7867366 27.674066,13.4014233 25.6164513,9.84379036 C23.5588366,6.28615738 19.7598941,4.09669375 15.6506486,4.10014516 L15.6506486,4.10014516 Z M15.7382976,7.67092186 C20.1937862,7.67092186 23.8056734,11.282809 23.8056734,15.7382976 C23.8056734,20.1937862 20.1937862,23.8056734 15.7382976,23.8056734 C11.282809,23.8056734 7.67092186,20.1937862 7.67092186,15.7382976 C7.67092186,11.282809 11.282809,7.67092186 15.7382976,7.67092186 Z" id="Glyph"></path>
</svg>
