<svg xmlns:xlink="http://www.w3.org/1999/xlink" width="95" height="20" viewBox="0 0 574 100" fill="none" xmlns="http://www.w3.org/2000/svg">
  <path d="M75.904 46.024C75.663 42.41 74.699 38.795 72.771 35.663L56.386 6.98801C55.181 4.81901 54.217 2.41 53.735 0L53.012 1.205C48.916 8.193 48.916 17.108 53.012 24.096L66.265 46.988C70.361 53.976 70.361 62.892 66.265 69.88L65.542 71.084C65.06 68.675 64.096 66.265 62.892 64.096L50.843 43.133L43.133 29.639C41.928 27.47 40.964 25.06 40.482 22.651L39.759 23.855C35.663 30.843 35.663 39.518 39.759 46.747L53.012 69.639C57.108 76.627 57.108 85.542 53.012 92.53L52.289 93.735C51.807 91.325 50.843 88.916 49.639 86.747L33.012 58.072C30.843 54.217 29.88 49.88 29.88 45.542C12.289 50.12 0 60 0 71.325C0 87.229 23.614 100 52.771 100C81.928 100 105.542 87.229 105.542 71.325C105.783 60.482 93.735 50.602 75.904 46.024ZM125.783 94.94C126.024 90.843 126.506 88.193 127.711 84.819C133.253 87.47 140.482 88.675 145.783 88.675C154.94 88.675 160.241 85.783 160.241 79.759C160.241 73.976 156.386 71.325 147.229 67.229L142.169 65.301C132.771 61.205 126.506 55.904 126.506 45.542C126.506 34.217 134.458 26.988 150.361 26.988C156.867 26.988 162.892 27.952 168.434 29.88C168.193 33.735 167.47 36.867 166.506 39.759C161.205 37.831 154.699 36.867 150.12 36.867C141.446 36.867 137.59 40.241 137.59 45.542C137.59 50.602 141.446 53.735 148.434 56.627L153.735 58.795C166.265 64.096 171.566 69.88 171.566 79.518C171.566 90.843 162.892 98.795 146.024 98.795C138.072 98.795 131.325 97.59 125.783 94.94ZM224.819 47.47V97.108H214.699L214.217 91.084C211.325 95.422 207.229 98.313 200.241 98.313C187.229 98.313 178.313 88.675 178.313 72.048C178.313 54.699 187.711 44.578 206.024 44.578C213.253 44.819 219.277 45.542 224.819 47.47ZM213.976 85.783V54.699C211.807 54.217 209.157 54.217 206.024 54.217C194.699 54.217 189.398 61.205 189.398 72.289C189.398 82.41 193.494 89.639 203.133 89.639C207.711 89.398 211.084 87.952 213.976 85.783ZM280.723 63.855V97.108H269.88V65.783C269.88 57.831 267.229 54.217 256.386 54.217C253.735 54.217 250.843 54.458 247.711 54.94V97.108H236.867V47.47C243.855 45.783 251.566 44.578 256.627 44.578C274.94 44.819 280.723 51.807 280.723 63.855ZM311.084 89.157C314.217 89.157 317.349 88.675 319.518 87.711C319.277 90.602 318.795 93.976 318.313 96.867C315.422 98.072 312.048 98.554 309.157 98.554C298.554 98.554 291.807 93.735 291.807 81.687V29.398C295.181 28.193 299.277 27.711 302.651 27.711V46.506H320C319.759 49.88 319.518 53.012 319.036 55.904H302.651V80.241C302.651 86.506 305.783 89.157 311.084 89.157ZM369.639 47.47V97.108H359.518L359.036 91.084C356.145 95.422 352.048 98.313 345.06 98.313C332.048 98.313 323.133 88.675 323.133 72.048C323.133 54.699 332.53 44.578 350.843 44.578C358.072 44.819 363.855 45.542 369.639 47.47ZM358.554 85.783V54.699C356.386 54.217 353.735 54.217 350.602 54.217C339.277 54.217 333.976 61.205 333.976 72.289C333.976 82.41 338.072 89.639 347.711 89.639C352.289 89.398 355.904 87.952 358.554 85.783ZM425.542 63.855V97.108H414.458V65.783C414.458 57.831 411.807 54.217 400.964 54.217C398.313 54.217 395.422 54.458 392.289 54.94V97.108H381.446V47.47C388.434 45.783 396.145 44.578 401.205 44.578C419.518 44.819 425.542 51.807 425.542 63.855ZM480.723 27.711V97.108H470.602L470.121 90.843C467.229 95.422 463.133 98.313 455.904 98.313C442.892 98.313 433.976 88.675 433.976 72.048C433.976 54.699 443.374 44.578 461.687 44.578C464.578 44.578 467.229 44.819 469.88 45.301V28.916C473.253 27.952 477.108 27.711 480.723 27.711ZM469.88 85.783V55.181C466.988 54.699 464.096 54.217 461.205 54.217C450.361 54.217 445.301 60.964 445.301 72.289C445.301 82.41 449.398 89.639 459.036 89.639C463.374 89.398 466.988 87.952 469.88 85.783ZM535.663 75.904H500.723C502.169 84.819 507.229 88.916 517.108 88.916C523.133 88.916 529.157 87.711 534.458 85.06C533.976 87.952 533.494 91.807 532.771 94.94C527.711 97.108 522.651 98.072 516.627 98.072C498.313 98.072 489.639 87.952 489.639 71.084C489.639 56.386 496.386 44.578 513.735 44.578C529.398 44.578 536.145 54.699 536.145 67.229C536.145 70.602 536.145 73.012 535.663 75.904ZM500.723 66.747H525.301C525.301 58.554 520.964 53.735 513.494 53.735C505.542 53.976 501.446 58.313 500.723 66.747ZM573.976 45.301C573.976 48.675 573.494 52.53 573.012 54.699C570.361 54.458 567.952 54.217 564.819 54.217C562.169 54.217 559.518 54.458 556.868 54.699V97.108H546.024V47.47C550.602 45.783 558.554 44.578 564.578 44.578C567.711 44.819 571.566 44.819 573.976 45.301Z" fill="#EA1D25"></path>
</svg>
