<svg xmlns="http://www.w3.org/2000/svg" xmlns:xlink="http://www.w3.org/1999/xlink" height="20px" version="1.1" id="Santander" x="0px" y="0px" style="enable-background:new 0 0 2227.7 405;" xml:space="preserve" viewBox="150.3 112 1927.2 143.2">
  <style type="text/css">
    .st0{fill:#E30613;}
  </style>
  <g>
    <g>
      <path class="st0" d="M880.5,175.6c-24.7,0-34.4,16.6-34.4,37.7c0,24.1,12.6,38.5,38.5,38.5c8.3,0,15.8-1.3,22.9-4.5    c1-4.7,1.8-10,2.4-14.1c-7.8,3.5-16.4,5.4-24.8,5.4c-13.8,0-21.2-6.1-23.1-18.6h49.5c0.6-4.1,0.8-7.6,0.8-12    C912.3,190.1,902.7,175.6,880.5,175.6z M861.6,206.9c1.3-12,7.1-18.3,18.1-18.3c10.7,0,16.9,6.8,16.9,18.3H861.6z M1038.7,159.9    c6.9,0,13.7,1.3,19.3,3.4c0.8-2.5,1.6-6.1,1.7-9.5c-6.1-2.4-13.7-3.4-21-3.4c-29.6,0-46.7,18.6-46.7,50.8    c0,30.6,16.2,50.8,45.7,50.8c7.8,0,14.1-1,19.6-3c0.8-3.7,1.4-7.1,1.6-10.4c-5.6,2.5-13.1,3.9-19.9,3.9    c-22.3,0-36.7-15.4-36.7-41.7C1002.4,174,1016.7,159.9,1038.7,159.9z M925.7,179.5V250h15.5v-60.4c3.8-0.6,7.6-0.8,11.4-0.8    c4.4,0,8,0.1,11.7,0.6c0.8-3,1.4-8.6,1.4-13.3c-3.4-0.4-8.7-0.6-13.5-0.6C943.4,175.6,932.3,177.3,925.7,179.5z M818,176.7    c-3.7-0.7-7.5-1.1-11.6-1.1c-26.1,0-39.4,14.1-39.4,38.9c0,23.7,12.4,37.2,31,37.2c10.2,0,16.2-4.1,20.2-10.7l0.8,9h14.2v-98.7    c-5.1,0-10.6,0.4-15.4,2.1V176.7z M818,233.7c-4.2,3.2-9.3,5.4-15.5,5.4c-13.8,0-19.6-10.2-19.6-24.5c0-16.1,7.3-25.7,22.7-25.7    c4.1,0,8.3,0.6,12.4,1.4V233.7z M403.6,214.5c0,23.7,12.4,37.2,31,37.2c9.9,0,15.9-3.9,19.9-10.2l0.8,8.5h14.2v-70.5    c-8.2-2.8-16.5-3.9-26.7-3.9C416.9,175.6,403.6,189.7,403.6,214.5z M454.1,234c-4.1,3.1-9,5.1-15.1,5.1    c-13.8,0-19.6-10.2-19.6-24.5c0-15.8,7.5-25.7,23.6-25.7c4.4,0,7.9,0.3,11.1,0.8V234z M368.5,195.6l-7.6-3.2    c-9.9-4.2-15.4-8.5-15.4-15.8c0-7.5,5.6-12.3,17.9-12.3c6.5,0,15.5,1.3,23.1,4.1c1.4-4.1,2.4-8.5,2.8-14.1    c-8-2.8-16.6-4.1-25.8-4.1c-22.8,0-34,10.3-34,26.4c0,15,9,22.4,22.3,28.2l7.2,3.1c13.3,5.8,18.6,9.6,18.6,17.8    c0,8.3-7.3,12.6-20.5,12.6c-7.8,0-17.9-1.8-25.8-5.5c-1.6,4.5-2.4,8.5-2.7,14.2c7.9,3.7,17.3,5.4,28.9,5.4    c24,0,36.2-11.1,36.2-27.4C393.9,211.3,386.4,203.2,368.5,195.6z M720.4,175.6c-7.5,0-18.3,1.6-28.2,3.9V250h15.5V190    c4.2-0.7,8.6-1.1,12.3-1.1c15.5,0,19.2,5.4,19.2,16.5V250h15.5v-47.4C754.7,185.6,746.4,175.6,720.4,175.6z M257.8,177.4    c-0.2-5.1-1.7-10.3-4.3-14.9L230,121.8c-1.8-3.1-3-6.4-3.7-9.8l-1,1.7c-5.8,10.1-5.8,22.5,0,32.6l18.8,32.6    c5.8,10.1,5.8,22.5,0,32.6l-1,1.7c-0.7-3.4-1.9-6.7-3.7-9.8l-17.2-29.8l-11-19c-1.8-3.1-3-6.4-3.7-9.8l-1,1.7    c-5.8,10-5.8,22.4-0.1,32.5l0,0l18.9,32.7c5.8,10.1,5.8,22.5,0,32.6l-1,1.7c-0.7-3.4-1.9-6.7-3.7-9.8l-23.5-40.7    c-3.2-5.5-4.6-11.6-4.3-17.7c-25.2,6.6-42.5,20.5-42.5,36.7c0,22.5,33.6,40.7,75.1,40.7c41.5,0,75.1-18.2,75.1-40.7    C300.4,197.9,283,184,257.8,177.4z M603.2,191.2c0.7-4.1,1.1-8.5,1.4-13.3h-24.5v-26.7c-4.8,0-10.7,0.7-15.5,2.3v74.1    c0,17.2,9.6,24.1,24.7,24.1c4.4,0,8.9-0.6,13.1-2.3c0.8-4.1,1.4-8.9,1.8-13.1c-3.4,1.3-7.6,2.1-12.1,2.1c-7.5,0-12-3.5-12-12.7    v-34.6H603.2z M514.8,175.6c-7.5,0-18.3,1.6-28.2,3.9V250h15.5V190c4.2-0.7,8.6-1.1,12.3-1.1c15.5,0,19.2,5.4,19.2,16.5V250H549    v-47.4C549,185.6,540.7,175.6,514.8,175.6z M609.3,214.5c0,23.7,12.4,37.2,31,37.2c9.9,0,15.9-3.9,19.9-10.2l0.8,8.5h14.2v-70.5    c-8.2-2.8-16.5-3.9-26.7-3.9C622.5,175.6,609.3,189.7,609.3,214.5z M659.8,234c-4.1,3.1-9,5.1-15.1,5.1    c-13.8,0-19.6-10.2-19.6-24.5c0-15.8,7.5-25.7,23.6-25.7c4.4,0,7.9,0.3,11.1,0.8V234z M1800.9,214.2c0,24.1,12.4,37.5,32.4,37.5    c7.9,0,14.4-3,19.2-7.2l0.3,5.5h9.2v-70.5c-7.5-2.8-14.8-3.9-23.6-3.9C1813.2,175.6,1800.9,189.4,1800.9,214.2z M1852.1,236.4    c-4.7,4.5-10.6,7.2-17.9,7.2c-15.4,0-23.3-11.1-23.3-29.3c0-18.9,8.6-29.9,27.5-29.9c5.1,0,9.4,0.6,13.7,1.7V236.4z M1699,250h9.9    v-72.8h-9.9V250z M1703.9,152.7c-3.8,0-6.6,2.8-6.6,6.6c0,3.8,2.8,6.5,6.6,6.5c3.8,0,6.5-2.7,6.5-6.5    C1710.4,155.6,1707.7,152.7,1703.9,152.7z M1754.5,175.6c-7.9,0-17.1,1.4-26.5,3.9V250h9.9v-63.7c5.4-1.3,11.3-2,16.4-2    c17.3,0,22.3,6.8,22.3,19.9V250h9.9v-47.7C1786.4,185.3,1778.4,175.6,1754.5,175.6z M1102.1,175.6c-21.9,0-34.8,14.7-34.8,38.5    c0,21.7,11.4,37.7,34,37.7c22.3,0,35-14.7,35-38.8C1136.2,191.5,1124.9,175.6,1102.1,175.6z M1101.8,242.9    c-16.1,0-24.5-10.6-24.5-29.5c0-17.3,8-28.9,24.5-28.9c15.9,0,24.4,10.7,24.4,29.2C1126.2,231.4,1118.2,242.9,1101.8,242.9z     M1990.8,184.3c4.7,0,10.3,0.8,15.7,3.2c0.6-2.8,1-5.6,1.1-8.6c-5.5-2.4-11-3.4-16.8-3.4c-25.1,0-37.2,15.2-37.2,38.4    c0,24.3,13.7,37.8,34.4,37.8c6.8,0,13.1-1.4,18.2-4.9c0.6-3.1,1-6.6,1.3-9.4c-5.5,3.7-12.1,5.6-18.6,5.6    c-14.5,0-25.2-9.2-25.2-29.3C1963.6,195.2,1972.7,184.3,1990.8,184.3z M1907.7,175.6c-7.9,0-17.1,1.4-26.5,3.9V250h9.9v-63.7    c5.4-1.3,11.3-2,16.4-2c17.3,0,22.3,6.8,22.3,19.9V250h9.9v-47.7C1939.6,185.3,1931.5,175.6,1907.7,175.6z M2077.5,208.3    c0-18.2-9-32.7-30.2-32.7c-23.1,0-32.6,16.6-32.6,37.7c0,24.3,12.4,38.5,36,38.5c8,0,15.4-1.3,22.4-5.4c0.7-3.1,1.3-6.9,1.6-9.4    c-7.6,4.4-16.1,6.1-23.7,6.1c-16.1,0-25-9-26.2-26h52.2C2077.4,214.2,2077.5,211.3,2077.5,208.3z M2067.6,208.2h-42.9    c1.1-14.7,8-24,22.1-24c14,0,20.7,9.4,20.7,23.4V208.2z M1255.9,210l-6.6-2.3c-8.7-3-14.2-5.4-14.2-13.3c0-6.9,5.5-10.4,16.4-10.4    c6.9,0,14.1,1.1,20.6,3.5c0.8-2.8,1.3-5.9,1.4-8.3c-6.5-2.5-14.1-3.7-22.3-3.7c-15.9,0-25.5,6.6-25.5,19.2    c0,11.3,6.9,17.6,19.5,21.4l6.5,2c6.8,2.1,14.5,5.1,14.5,13.5c0,8-6.6,11.4-17.5,11.4c-7.2,0-16.4-1.7-23-5.5    c-0.7,2-1.3,4.7-1.4,8.6c6.6,3.8,14.8,5.5,24.7,5.5c16.9,0,26.8-7.5,26.8-20.3C1275.7,219.2,1267.1,213.8,1255.9,210z M1630,250    h9.9v-44.4h40.6c0.4-2.7,0.8-6.9,1-9.4h-41.6v-34.3h44.4c0.6-2.7,1-6.9,1.1-9.4H1630V250z M1337.8,235.2c-5.4,5.1-12.1,8-20,8    c-12.7,0-18.6-6.2-18.6-20.9v-45.1h-9.9v47.1c0,18.8,9,27.4,25.4,27.4c10.7,0,17.9-2.7,23.4-8l0.3,6.3h9.3v-72.8h-9.9V235.2z     M1177.5,175.6c-7.9,0-17.1,1.4-26.5,3.9V250h9.9v-63.7c5.4-1.3,11.3-2,16.4-2c17.3,0,22.3,6.8,22.3,19.9V250h9.9v-47.7    C1209.4,185.3,1201.4,175.6,1177.5,175.6z M1563.4,179.5V250h9.9v-64.2c4.7-1,9.7-1.6,13.8-1.6c3.9,0,7.6,0.1,10.9,0.6    c0.6-1.8,1-5.5,1-8.5c-3.1-0.4-7.5-0.6-12.1-0.6C1579.2,175.9,1569.6,177.4,1563.4,179.5z M1441.4,175.6c-8.6,0-16.9,2.3-24.7,5.9    c-4.9-4.1-12.3-5.9-22.1-5.9c-9,0-18.3,1.4-27.8,3.9V250h9.9v-63.7c5.5-1.3,11.6-2,16.9-2c15.1,0,20.7,5.6,20.7,19.3V250h9.9    v-47.7c0-5.6-0.8-10.3-2.4-14c5.9-2.5,12.3-4.1,18.8-4.1c14.5,0,20.7,6.8,20.7,19.6V250h9.9v-47.7    C1471.2,185.3,1462.7,175.6,1441.4,175.6z M1517.7,175.6c-23.1,0-32.6,16.6-32.6,37.7c0,24.3,12.4,38.5,36,38.5    c8,0,15.4-1.3,22.4-5.4c0.7-3.1,1.3-6.9,1.6-9.4c-7.6,4.4-16.1,6.1-23.7,6.1c-16.1,0-25-9-26.2-26h52.2c0.4-2.8,0.6-5.8,0.6-8.7    C1547.9,190.1,1538.9,175.6,1517.7,175.6z M1538,208.2h-42.9c1.1-14.7,8-24,22.1-24c14,0,20.7,9.4,20.7,23.4V208.2z"></path>
    </g>
  </g>
</svg>
