<svg width="44" height="21" viewBox="0 0 44 21" fill="none" xmlns="http://www.w3.org/2000/svg">
<g clip-path="url(#clip0_1_677)">
<mask id="mask0_1_677" style="mask-type:luminance" maskUnits="userSpaceOnUse" x="-1" y="-1" width="45" height="23">
<path d="M43.1122 -0.0168457H-0.0614624V21.595H43.1122V-0.0168457Z" fill="white"/>
</mask>
<g mask="url(#mask0_1_677)">
<path d="M9.08541 17.8323C9.07914 17.6696 9.03535 17.5131 8.94767 17.369L8.21518 16.0981C8.15884 16.0043 8.12124 15.8978 8.09624 15.7914L8.0649 15.8477C7.88336 16.1607 7.88336 16.5489 8.0649 16.8682L8.65346 17.8887C8.835 18.2018 8.835 18.5899 8.65346 18.9092L8.62213 18.9593C8.60332 18.8528 8.55952 18.7464 8.50319 18.6525L7.96477 17.7197L7.62042 17.1249C7.56408 17.0248 7.52648 16.9246 7.50148 16.8182L7.47014 16.8682C7.2886 17.1812 7.2886 17.5694 7.47014 17.8825L8.05863 18.9029C8.24024 19.216 8.24024 19.6041 8.05863 19.9234L8.02737 19.9735C8.00857 19.8671 7.96477 19.7607 7.90843 19.6667L7.1884 18.3896C7.08826 18.2206 7.04443 18.0265 7.05069 17.8386C6.26185 18.0452 5.72343 18.4772 5.72343 18.9843C5.72343 19.6855 6.77523 20.2552 8.07117 20.2552C9.36716 20.2552 10.4189 19.6855 10.4189 18.9843C10.4127 18.4772 9.86798 18.0389 9.08541 17.8323ZM11.3017 20.0048C11.308 19.8233 11.3392 19.698 11.3831 19.5603C11.6273 19.673 11.9465 19.7293 12.1907 19.7293C12.5976 19.7293 12.8293 19.5979 12.8293 19.3349C12.8293 19.0783 12.6602 18.9593 12.2471 18.7777L12.0217 18.6776C11.6085 18.496 11.3267 18.2644 11.3267 17.7948C11.3267 17.2939 11.6773 16.9684 12.391 16.9684C12.679 16.9684 12.9482 17.006 13.1987 17.0936C13.1862 17.2689 13.1549 17.4067 13.1111 17.5319C12.8731 17.4442 12.5914 17.4067 12.391 17.4067C12.0091 17.4067 11.8339 17.5569 11.8339 17.7885C11.8339 18.0202 12.0029 18.1517 12.316 18.2832L12.5538 18.3833C13.1111 18.6212 13.3489 18.8716 13.3489 19.2973C13.3489 19.8045 12.967 20.1551 12.2157 20.1551C11.8401 20.1738 11.5458 20.1238 11.3017 20.0048ZM15.703 17.9012V20.105H15.2584L15.2334 19.842C15.1082 20.0361 14.9204 20.1613 14.6136 20.1613C14.0314 20.1613 13.6432 19.7356 13.6432 18.9969C13.6432 18.2206 14.0564 17.7823 14.8703 17.7823C15.1833 17.776 15.4463 17.8136 15.703 17.9012ZM15.2146 19.6041V18.2206C15.1145 18.2018 15.0017 18.1955 14.864 18.1955C14.3632 18.1955 14.1252 18.5022 14.1252 18.9969C14.1252 19.4476 14.3068 19.7607 14.7388 19.7607C14.9329 19.7607 15.0894 19.698 15.2146 19.6041ZM18.1822 18.6212V20.0987H17.7001V18.7026C17.7001 18.352 17.5874 18.1892 17.0991 18.1892C16.9864 18.1892 16.8487 18.2018 16.7172 18.2268V20.105H16.2351V17.9012C16.5419 17.8261 16.8799 17.776 17.1179 17.776C17.9255 17.776 18.1822 18.0891 18.1822 18.6212ZM19.5282 19.7419C19.6722 19.7419 19.8037 19.7168 19.9101 19.673C19.8976 19.8045 19.8788 19.9548 19.8538 20.08C19.7223 20.1363 19.5783 20.1488 19.4469 20.1488C18.9773 20.1488 18.6768 19.936 18.6768 19.3975V17.0811C18.827 17.031 19.0148 17.0122 19.1588 17.0122V17.8449H19.9227C19.9164 17.9951 19.8976 18.1329 19.8788 18.2581H19.1588V19.3349C19.1526 19.6354 19.2903 19.7419 19.5282 19.7419ZM22.1264 17.9012V20.105H21.6819L21.6569 19.842C21.5316 20.0361 21.3438 20.1613 21.0371 20.1613C20.4548 20.1613 20.0666 19.7356 20.0666 18.9969C20.0666 18.2206 20.4798 17.7823 21.2937 17.7823C21.613 17.776 21.8697 17.8136 22.1264 17.9012ZM21.6443 19.6041V18.2206C21.5441 18.2018 21.4315 18.1955 21.2937 18.1955C20.7929 18.1955 20.555 18.5022 20.555 18.9969C20.555 19.4476 20.7365 19.7607 21.1685 19.7607C21.3626 19.7607 21.5129 19.698 21.6443 19.6041ZM24.6056 18.6212V20.0987H24.1236V18.7026C24.1236 18.352 24.0108 18.1892 23.5226 18.1892C23.4098 18.1892 23.2721 18.2018 23.1406 18.2268V20.105H22.6586V17.9012C22.9653 17.8261 23.3034 17.776 23.5413 17.776C24.3489 17.776 24.6056 18.0891 24.6056 18.6212ZM27.066 17.0185V20.105H26.6216L26.5966 19.8233C26.4713 20.0298 26.2835 20.1551 25.9642 20.1551C25.382 20.1551 24.9938 19.7293 24.9938 18.9906C24.9938 18.2143 25.407 17.776 26.2209 17.776C26.3461 17.776 26.465 17.7885 26.584 17.8136V17.0874C26.7342 17.031 26.9096 17.0185 27.066 17.0185ZM26.584 19.5916V18.233C26.4588 18.208 26.3211 18.1892 26.1959 18.1892C25.7138 18.1892 25.4884 18.4898 25.4884 18.9906C25.4884 19.4413 25.6699 19.7544 26.1019 19.7544C26.296 19.7606 26.4526 19.698 26.584 19.5916ZM29.5015 19.1597H27.9551C28.0177 19.5541 28.2494 19.7419 28.675 19.7419C28.938 19.7419 29.2072 19.6855 29.4514 19.5728C29.4326 19.698 29.4075 19.8671 29.3763 20.0111C29.1571 20.1112 28.9193 20.1551 28.6626 20.1551C27.8487 20.1551 27.4605 19.7043 27.4605 18.9531C27.4605 18.2956 27.7673 17.776 28.5373 17.776C29.2323 17.776 29.5265 18.233 29.5265 18.784C29.5327 18.9217 29.5203 19.0344 29.5015 19.1597ZM27.9488 18.759H29.0445C29.0445 18.3958 28.8504 18.1829 28.5186 18.1829C28.168 18.1829 27.9864 18.3833 27.9488 18.759ZM31.1982 17.7948C31.1982 17.9388 31.1794 18.1141 31.1543 18.208C31.0416 18.1955 30.9227 18.1892 30.7912 18.1892C30.6722 18.1892 30.5533 18.1955 30.4343 18.2143V20.0987H29.9522V17.8949C30.1588 17.8261 30.5095 17.7697 30.7787 17.7697C30.9289 17.776 31.0979 17.7823 31.1982 17.7948ZM2.08598 19.2347C2.08598 19.7857 1.74164 20.105 0.946534 20.105H0.0637817V17.0686C0.295427 17.031 0.558375 17.006 0.802541 17.006C1.62269 17.006 1.94824 17.3127 1.94824 17.8073C1.94824 18.1141 1.76042 18.4021 1.43487 18.5148C1.83555 18.5899 2.08598 18.8654 2.08598 19.2347ZM0.370555 17.319V18.3833H0.921493C1.39731 18.3833 1.63521 18.158 1.63521 17.8386C1.63521 17.5193 1.45992 17.2877 0.808801 17.2877C0.664809 17.2939 0.527072 17.3002 0.370555 17.319ZM1.77295 19.2473C1.77295 18.8904 1.49748 18.6713 0.946534 18.6713H0.370555V19.817H0.915232C1.50374 19.817 1.77295 19.6354 1.77295 19.2473ZM4.38991 17.8323L3.40699 20.3554C3.23794 20.7999 3.01882 21.0003 2.63692 21.0003C2.56805 21.0003 2.49293 20.994 2.43658 20.9752C2.44284 20.8813 2.4491 20.7874 2.46162 20.706C2.50545 20.7123 2.55553 20.7248 2.60562 20.7248C2.89987 20.7248 3.0376 20.5996 3.18786 20.1613L2.2425 17.8323H2.57431L3.33812 19.7669L4.06435 17.8323H4.38991Z" fill="#053840"/>
<path d="M20.4988 4.52844C21.1812 5.19834 21.5255 6.26265 21.5255 7.74019V12.7612H19.5847V7.8466C19.5847 6.97637 19.4031 6.32526 19.0275 5.87449C18.6581 5.41746 18.1197 5.19208 17.406 5.19208C16.6422 5.19208 16.0474 5.45502 15.6217 5.98718C15.1834 6.51934 14.9706 7.24557 14.9706 8.17214V12.7675H13.0548V4.58479C13.0548 4.0589 13.4806 3.63943 14.0002 3.63943H14.0065C14.5261 3.63943 14.9456 4.06516 14.9456 4.57853V4.82896C15.6343 3.95873 16.6046 3.52673 17.8693 3.52673C18.9399 3.53926 19.8164 3.87108 20.4988 4.52844Z" fill="#053840"/>
<path d="M40.8892 0.740717C40.8704 0.784546 40.8516 0.828368 40.8328 0.872197C40.8266 0.878457 40.8266 0.884717 40.8266 0.890977C40.8078 0.934799 40.789 0.972367 40.7765 1.01619C40.7452 1.08506 40.7202 1.14766 40.6951 1.21653C40.6763 1.26035 40.6638 1.29792 40.645 1.34174C40.6074 1.42939 40.5699 1.51704 40.5323 1.60469C40.526 1.61095 40.526 1.61721 40.526 1.62348C40.3758 1.91773 40.3319 2.23702 40.5887 2.49371C40.8454 2.7504 41.1646 2.70657 41.4527 2.55631C41.4589 2.55631 41.4651 2.55005 41.4714 2.55005C41.5153 2.53127 41.5528 2.51249 41.5966 2.49997C41.7156 2.44988 41.8345 2.3998 41.9597 2.34971C42.0349 2.31841 42.11 2.28711 42.1852 2.2558C43.0115 2.0179 43.3371 1.00993 42.7173 0.383862C42.1726 -0.210903 41.1646 0.00822112 40.8892 0.740717Z" fill="#053840"/>
<path d="M39.0549 1.78627C39.036 1.73619 39.0111 1.6861 38.9922 1.63602C38.9734 1.59219 38.9547 1.55463 38.9422 1.51081C38.9046 1.42316 38.867 1.3355 38.8294 1.24785C38.7982 1.17898 38.7731 1.11638 38.7481 1.04751C38.7481 1.04125 38.7418 1.03499 38.7418 1.02873C38.7293 0.99743 38.7105 0.959862 38.698 0.928561C38.6792 0.878471 38.6542 0.82839 38.6354 0.784561C38.385 0.0145008 37.3582 -0.242186 36.7948 0.346316C36.1937 0.91604 36.4755 1.96157 37.258 2.18695C37.3018 2.20573 37.3394 2.22452 37.3832 2.23704C37.4835 2.28086 37.5836 2.31843 37.6838 2.36225C37.7276 2.38104 37.7651 2.39356 37.809 2.41234C37.8403 2.42486 37.8779 2.44364 37.9091 2.45617C37.9968 2.49373 38.0845 2.5313 38.1721 2.5626C38.6479 2.88189 39.299 2.31217 39.0549 1.78627Z" fill="#053840"/>
<path d="M42.3354 4.49706C42.3104 4.48454 42.2853 4.47828 42.2666 4.46575C42.2478 4.45949 42.2227 4.44697 42.204 4.44071C42.0975 4.39689 41.9911 4.35306 41.8846 4.30924C41.8096 4.27794 41.7407 4.24663 41.6656 4.21533C41.6405 4.20281 41.6092 4.19655 41.5841 4.18403C41.5403 4.16524 41.5027 4.15272 41.4589 4.13394C41.4151 4.11516 41.365 4.09638 41.3212 4.0776C40.7202 3.78961 40.1692 4.44697 40.501 5.01044C40.5324 5.0793 40.5574 5.14817 40.5887 5.2233C40.5887 5.22956 40.595 5.23582 40.595 5.24208C40.6075 5.27338 40.6262 5.31095 40.6388 5.34225C40.6701 5.41112 40.6951 5.47372 40.7202 5.54259C40.7202 5.54885 40.7264 5.55511 40.7264 5.56137C40.7514 5.63024 40.7828 5.69911 40.8078 5.76172C41.6655 7.91538 44.3013 5.61772 42.3354 4.49706Z" fill="#053840"/>
<path d="M38.604 5.94326C38.6228 5.89318 38.6478 5.84309 38.6666 5.79301C38.6792 5.7617 38.6979 5.72414 38.7104 5.69284C38.7167 5.68658 38.7167 5.68031 38.7167 5.67405C38.7793 5.52379 38.8482 5.36727 38.9108 5.21076C38.9296 5.16693 38.9421 5.12937 38.9609 5.08555C38.9797 5.04172 38.9985 4.9979 39.0173 4.95407C39.3177 4.44696 38.7355 3.80837 38.2034 4.0588C38.1971 4.06506 38.1908 4.06506 38.1846 4.06506C38.1094 4.09636 38.0405 4.12766 37.9654 4.15897C37.9216 4.17775 37.8841 4.19027 37.8402 4.20905C37.6837 4.27166 37.5335 4.34052 37.3769 4.40313C37.3331 4.42191 37.2955 4.4407 37.2517 4.45322C36.4692 4.68487 36.1749 5.7304 36.7759 6.30012C37.3331 6.86984 38.3348 6.66324 38.604 5.94326Z" fill="#053840"/>
<path d="M11.0262 0.340028C12.1031 1.46069 10.4691 3.03212 9.35461 1.99285C8.28411 0.872188 9.90557 -0.699244 11.0262 0.340028ZM10.1498 3.65819C10.6819 3.62062 11.1515 4.03383 11.1452 4.5785V12.7674H9.22941V4.5785C9.22941 4.07765 9.6489 3.65819 10.1498 3.65819Z" fill="#053840"/>
<path d="M25.0374 0.340028C26.1142 1.46069 24.4802 3.03212 23.3658 1.99285C22.2889 0.872188 23.9229 -0.699244 25.0374 0.340028ZM24.1734 3.65819C24.7056 3.62062 25.1751 4.03383 25.1689 4.5785V12.7674H23.2531V4.5785C23.2406 4.07765 23.66 3.65819 24.1734 3.65819Z" fill="#053840"/>
<path d="M35.1921 11.0896C34.0527 11.146 35.7431 5.65533 33.7897 4.40946C31.8614 2.81924 27.1346 3.3514 26.9594 6.43165H28.8438C29.0692 4.97291 31.3919 4.76005 32.3435 5.53012C32.8757 5.89949 32.9132 6.65704 32.8819 7.28313C31.3919 7.28933 28.7061 7.10154 27.6919 8.04063C26.4397 8.9046 26.3145 11.2524 27.623 12.1539C29.1068 13.2933 32.068 13.1118 33.0885 11.2962C33.0572 12.5671 34.0652 12.8238 35.2046 12.755C36.3003 12.7487 36.2689 11.1021 35.1921 11.0896ZM32.8757 9.0298C32.9633 10.9769 30.6218 11.9974 29.0942 11.0145C28.4619 10.5699 28.5058 9.45556 29.1192 9.05487C29.7767 8.48518 32.018 8.77313 32.8694 8.70426L32.8757 9.0298Z" fill="#053840"/>
<path d="M7.89598 11.0771H2.57437L7.43269 5.29848C7.96484 4.68493 7.49529 3.6394 6.66885 3.66444H0.107665V5.35483H5.0849L0.264182 11.0771C-0.293018 11.6844 0.0763619 12.78 0.952859 12.7674H7.90217L7.89598 11.0771Z" fill="#053840"/>
</g>
</g>
<defs>
<clipPath id="clip0_1_677">
<rect width="43.0477" height="21" fill="white"/>
</clipPath>
</defs>
</svg>
