<svg xmlns="http://www.w3.org/2000/svg" width="25" height="20" viewBox="0 0 25 20">
  <g fill="none" fill-rule="evenodd">
    <g fill="#0371E2" fill-rule="nonzero">
      <g>
        <path d="M19.368 7.73v7.162c0 2.472-2.004 4.476-4.476 4.476H7.731c-2.097 0-3.857-1.443-4.343-3.39.349.088.713.135 1.088.135h.368c.455 1.073 1.492 1.841 2.715 1.907l.172.005h7.161c1.673 0 3.04-1.31 3.128-2.961l.005-.172V7.731c0-1.297-.788-2.41-1.912-2.886v-.37c0-.374-.047-.738-.133-1.086 1.945.485 3.388 2.245 3.388 4.342z" transform="translate(-1210 -77) rotate(-45 709.447 -1415.72)"/>
        <path d="M11.637 0c2.472 0 4.476 2.004 4.476 4.476v7.16c0 2.473-2.004 4.477-4.476 4.477H4.476C2.004 16.113 0 14.109 0 11.637V4.476C0 2.004 2.004 0 4.476 0h7.16zm0 1.343H4.476c-1.673 0-3.04 1.31-3.129 2.96l-.004.173v7.16c0 1.673 1.31 3.04 2.96 3.13l.173.004h7.16c1.673 0 3.04-1.31 3.13-2.961l.004-.172V4.476c0-1.673-1.31-3.04-2.961-3.129l-.172-.004z" transform="translate(-1210 -77) rotate(-45 709.447 -1415.72)"/>
      </g>
    </g>
  </g>
</svg>
