<svg xmlns="http://www.w3.org/2000/svg" width="21" height="20" viewBox="0 0 21 20">
  <g fill="none" fill-rule="evenodd">
    <g fill="#0371E2">
      <path d="M1151 86c-.968 0-1.75-.782-1.75-1.75s.782-1.75 1.75-1.75 1.75.782 1.75 1.75-.782 1.75-1.75 1.75m-3.5-4c-.968 0-1.75-.782-1.75-1.75s.782-1.75 1.75-1.75 1.75.782 1.75 1.75-.782 1.75-1.75 1.75m-5.5 0c-.968 0-1.75-.782-1.75-1.75s.782-1.75 1.75-1.75 1.75.782 1.75 1.75-.782 1.75-1.75 1.75m-3.5 4c-.968 0-1.75-.782-1.75-1.75s.782-1.75 1.75-1.75 1.75.782 1.75 1.75-.782 1.75-1.75 1.75m6.25-10c-5.522 0-10 4.478-10 10s4.478 10 10 10c.922 0 1.667-.744 1.667-1.667 0-.433-.161-.822-.434-1.116-.26-.295-.416-.678-.416-1.106 0-.922.744-1.667 1.666-1.667h1.961c3.067 0 5.556-2.488 5.556-5.555 0-4.911-4.478-8.889-10-8.889" transform="translate(-1134 -76)"/>
    </g>
  </g>
</svg>
