<svg xmlns="http://www.w3.org/2000/svg" width="21" height="20" viewBox="0 0 21 20">
  <g fill="none" fill-rule="evenodd">
    <g fill="#0371E2" fill-rule="nonzero">
      <g>
        <path d="M14.444 0C17.513 0 20 2.487 20 5.556v8.888C20 17.513 17.513 20 14.444 20H5.556C2.487 20 0 17.513 0 14.444V5.556C0 2.487 2.487 0 5.556 0h8.888zm0 1.667H5.556c-2.077 0-3.773 1.627-3.884 3.675l-.005.214v8.888c0 2.077 1.627 3.773 3.675 3.884l.214.005h8.888c2.077 0 3.773-1.627 3.884-3.675l.005-.214V5.556c0-2.077-1.627-3.773-3.675-3.884l-.214-.005z" transform="translate(-1290 -77) translate(1290.25 77)"/>
        <path d="M14.444 4.444c.614 0 1.112.498 1.112 1.112v8.888c0 .614-.498 1.112-1.112 1.112H5.556c-.614 0-1.112-.498-1.112-1.112V5.556c0-.614.498-1.112 1.112-1.112h8.888z" transform="translate(-1290 -77) translate(1290.25 77)"/>
      </g>
    </g>
  </g>
</svg>
