<svg width="16" height="16" viewBox="0 0 16 16" fill="none" xmlns="http://www.w3.org/2000/svg">
  <path
    d="M8.4693 13.9954C8.79742 13.9954 9.0653 13.8614 9.38673 13.5601L14.6702 8.57125C14.9247 8.33017 15.0117 8.07571 15.0117 7.85474C15.0117 7.62708 14.9314 7.37929 14.6702 7.13152L9.38673 2.18956C9.03182 1.85474 8.81085 1.71411 8.48268 1.71411C8.01393 1.71411 7.67913 2.08241 7.67913 2.53108V5.06233H7.48496C2.6702 5.06233 0.574219 8.14937 0.574219 13.0981C0.574219 13.6739 0.902344 13.9954 1.26395 13.9954C1.5452 13.9954 1.85324 13.9284 2.08761 13.4998C3.25279 11.3101 4.89341 10.6538 7.48496 10.6538H7.67913V13.2119C7.67913 13.6605 8.01393 13.9954 8.4693 13.9954Z"
    fill="#ffffff" />
</svg>
