<svg width="24" height="24" viewBox="0 0 24 24" fill="none" xmlns="http://www.w3.org/2000/svg">
  <rect width="24" height="24" rx="6" fill="#868589" />
  <path
    d="M5.0002 15.3074C5.01657 15.271 5.03415 15.235 5.04951 15.1981C5.16914 14.9109 5.47125 14.7414 5.76648 14.7965C6.07788 14.8545 6.30643 15.1114 6.31047 15.4262C6.31633 15.8681 6.31189 16.3101 6.3127 16.752C6.31371 17.317 6.68028 17.6858 7.24407 17.6858C10.4153 17.6862 13.5865 17.6862 16.7575 17.6858C17.3136 17.6858 17.6858 17.3162 17.6858 16.7627C17.6864 13.5871 17.6864 10.4112 17.6858 7.23559C17.6858 6.68149 17.3138 6.3127 16.7575 6.3127C13.5863 6.31229 10.4151 6.31229 7.24407 6.3127C6.68007 6.3127 6.31371 6.68088 6.3127 7.24609C6.31209 7.6652 6.3133 8.08451 6.31229 8.50362C6.31148 8.87585 6.09243 9.14906 5.75294 9.20402C5.43164 9.25596 5.14731 9.06823 5.02304 8.72288C5.01879 8.71095 5.00788 8.70146 5 8.69095C5 8.10775 5 7.52435 5 6.94116C5.00829 6.9161 5.02001 6.89165 5.02465 6.86578C5.19662 5.93784 5.73758 5.34131 6.63966 5.07113C6.73847 5.04163 6.84052 5.02344 6.94116 5C10.3132 5 13.6851 5 17.0572 5C17.0822 5.00849 17.1069 5.02081 17.1327 5.02465C18.1947 5.18389 18.9945 6.08799 18.9963 7.16061C19.0016 10.3856 19.002 13.6103 18.9963 16.8353C18.9941 18.0225 18.0225 18.9941 16.8357 18.9961C13.6107 19.0018 10.386 19.0008 7.16102 18.9963C6.1868 18.9949 5.33403 18.3262 5.07881 17.3859C5.04931 17.2772 5.02607 17.1669 5 17.0572C5 16.474 5 15.8906 5 15.3074H5.0002Z"
    fill="white" />
  <path
    d="M5.00014 11.8614C5.0937 11.6102 5.24284 11.4148 5.52211 11.358C5.59263 11.3437 5.6668 11.3425 5.73914 11.3425C7.5156 11.3417 9.29187 11.3419 11.0683 11.3419H11.2504C11.2017 11.2891 11.1718 11.2542 11.1393 11.2216C10.7337 10.8157 10.3251 10.4125 9.92275 10.0033C9.5576 9.63189 9.7031 9.03678 10.1923 8.89936C10.457 8.825 10.6814 8.90603 10.8749 9.10063C11.6717 9.90147 12.4718 10.6987 13.27 11.4981C13.3148 11.5429 13.3585 11.5908 13.393 11.6438C13.5703 11.9154 13.5278 12.2395 13.2799 12.4885C12.7529 13.0179 12.224 13.5453 11.6956 14.0736C11.4056 14.3633 11.1191 14.6568 10.8242 14.9415C10.5874 15.1702 10.2257 15.185 9.97388 14.9886C9.72128 14.7915 9.64106 14.445 9.79262 14.1671C9.83546 14.0887 9.89729 14.0182 9.96074 13.9541C10.3487 13.5627 10.7396 13.1741 11.1294 12.7845C11.1637 12.7502 11.1964 12.7142 11.2532 12.6544H11.0821C9.32844 12.6544 7.57481 12.6479 5.82118 12.6592C5.41541 12.6618 5.13634 12.525 4.99994 12.135V11.8616L5.00014 11.8614Z"
    fill="white" />
</svg>
  